solid 
facet normal -1.0 0.0 0.0
outer loop
vertex 0.0 0.0 0.0
vertex 0.0 0.0 10.0
vertex 0.0 62.0 10.0
endloop
endfacet
facet normal 0.0 0.0 1.0
outer loop
vertex 0.0 0.0 10.0
vertex 58.5 11.0 10.0
vertex 58.5 51.0 10.0
endloop
endfacet
facet normal 0.0 -1.0 0.0
outer loop
vertex 0.0 0.0 0.0
vertex 165.0 0.0 0.0
vertex 0.0 0.0 10.0
endloop
endfacet
facet normal 0.0 -0.0 0.9999999999999999
outer loop
vertex 0.0 0.0 10.0
vertex 165.0 0.0 10.0
vertex 58.5 11.0 10.0
endloop
endfacet
facet normal 0.0 0.0 -1.0
outer loop
vertex 0.0 0.0 0.0
vertex 0.0 62.0 0.0
vertex 165.0 0.0 0.0
endloop
endfacet
facet normal 0.0 -1.0 0.0
outer loop
vertex 58.5 11.0 10.0
vertex 118.5 11.0 21.0
vertex 58.5 11.0 21.0
endloop
endfacet
facet normal -1.0 0.0 0.0
outer loop
vertex 58.5 11.0 10.0
vertex 58.5 11.0 21.0
vertex 58.5 51.0 10.0
endloop
endfacet
facet normal 0.5047293104593723 -2.281615690394864e-08 0.86327766284273
outer loop
vertex 82.47085952758789 27.5 11.828993797302246
vertex 71.11516571044922 25.0 18.468284606933594
vertex 90.12276458740234 25.0 7.355183124542236
endloop
endfacet
facet normal -0.0 0.9999999999999999 0.0
outer loop
vertex 71.11516571044922 25.0 18.468284606933594
vertex 72.4613037109375 25.0 21.0
vertex 90.12276458740234 25.0 7.355183124542236
endloop
endfacet
facet normal 0.5047293067159414 -0.0 0.863277665031388
outer loop
vertex 82.47085952758789 27.5 11.828993797302246
vertex 82.47085952758789 34.5 11.828993797302246
vertex 71.11516571044922 25.0 18.468284606933594
endloop
endfacet
facet normal 0.0 0.0 1.0
outer loop
vertex 58.5 11.0 21.0
vertex 72.4613037109375 25.0 21.0
vertex 72.4613037109375 37.0 21.0
endloop
endfacet
facet normal 0.8829474413959904 0.0 -0.4694718476461333
outer loop
vertex 71.11516571044922 25.0 18.468284606933594
vertex 72.4613037109375 37.0 21.0
vertex 72.4613037109375 25.0 21.0
endloop
endfacet
facet normal -1.0 0.0 0.0
outer loop
vertex 0.0 0.0 0.0
vertex 0.0 62.0 10.0
vertex 0.0 62.0 0.0
endloop
endfacet
facet normal 0.0 -0.0 1.0
outer loop
vertex 0.0 0.0 10.0
vertex 58.5 51.0 10.0
vertex 0.0 62.0 10.0
endloop
endfacet
facet normal -0.0 1.0 0.0
outer loop
vertex 0.0 62.0 0.0
vertex 0.0 62.0 10.0
vertex 109.19999694824219 62.0 3.950000047683716
endloop
endfacet
facet normal 0.0 1.0 0.0
outer loop
vertex 0.0 62.0 0.0
vertex 109.19999694824219 62.0 3.950000047683716
vertex 125.80000305175781 62.0 3.950000047683716
endloop
endfacet
facet normal -0.0 0.0 1.0
outer loop
vertex 0.0 62.0 10.0
vertex 58.5 51.0 10.0
vertex 118.5 51.0 10.0
endloop
endfacet
facet normal 0.0 1.0 0.0
outer loop
vertex 0.0 62.0 10.0
vertex 109.19999694824219 62.0 8.050000190734863
vertex 109.19999694824219 62.0 3.950000047683716
endloop
endfacet
facet normal 0.0 1.0 0.0
outer loop
vertex 0.0 62.0 10.0
vertex 125.80000305175781 62.0 8.050000190734863
vertex 109.19999694824219 62.0 8.050000190734863
endloop
endfacet
facet normal 0.5047293160147536 5.667612879696295e-08 0.8632776595946843
outer loop
vertex 82.47085952758789 34.5 11.828993797302246
vertex 90.12276458740234 34.5 7.355183124542236
vertex 71.11516571044922 37.0 18.468284606933594
endloop
endfacet
facet normal 0.5047293067159413 0.0 0.8632776650313879
outer loop
vertex 71.11516571044922 25.0 18.468284606933594
vertex 82.47085952758789 34.5 11.828993797302246
vertex 71.11516571044922 37.0 18.468284606933594
endloop
endfacet
facet normal -1.0 0.0 0.0
outer loop
vertex 58.5 11.0 21.0
vertex 58.5 51.0 21.0
vertex 58.5 51.0 10.0
endloop
endfacet
facet normal 0.8829474413959904 0.0 -0.4694718476461333
outer loop
vertex 71.11516571044922 25.0 18.468284606933594
vertex 71.11516571044922 37.0 18.468284606933594
vertex 72.4613037109375 37.0 21.0
endloop
endfacet
facet normal 0.0 -0.0 1.0
outer loop
vertex 58.5 11.0 21.0
vertex 72.4613037109375 37.0 21.0
vertex 58.5 51.0 21.0
endloop
endfacet
facet normal 0.0 -0.9999999999999999 0.0
outer loop
vertex 71.11516571044922 37.0 18.468284606933594
vertex 97.37784576416016 37.0 21.0
vertex 72.4613037109375 37.0 21.0
endloop
endfacet
facet normal 0.0 -0.0 1.0
outer loop
vertex 72.4613037109375 37.0 21.0
vertex 97.37784576416016 37.0 21.0
vertex 58.5 51.0 21.0
endloop
endfacet
facet normal -0.0 1.0 0.0
outer loop
vertex 58.5 51.0 10.0
vertex 58.5 51.0 21.0
vertex 118.5 51.0 10.0
endloop
endfacet
facet normal 0.0 -1.0 0.0
outer loop
vertex 0.0 0.0 10.0
vertex 165.0 0.0 0.0
vertex 165.0 0.0 10.0
endloop
endfacet
facet normal -0.0 -0.0 1.0
outer loop
vertex 58.5 11.0 10.0
vertex 165.0 0.0 10.0
vertex 118.5 11.0 10.0
endloop
endfacet
facet normal 0.5047293160147545 -0.0 0.8632776595946857
outer loop
vertex 82.47085952758789 27.5 11.828993797302246
vertex 90.12276458740234 25.0 7.355183124542236
vertex 90.12276458740234 27.5 7.355183124542236
endloop
endfacet
facet normal -0.882947374638786 0.0 0.46947197319805495
outer loop
vertex 90.12276458740234 25.0 7.355183124542236
vertex 94.86443328857422 27.5 16.2729549407959
vertex 90.12276458740234 27.5 7.355183124542236
endloop
endfacet
facet normal 0.0 -1.0 0.0
outer loop
vertex 82.47085952758789 27.5 11.828993797302246
vertex 90.12276458740234 27.5 7.355183124542236
vertex 86.68661499023438 27.5 10.428043365478516
endloop
endfacet
facet normal 1.0 0.0 -0.0
outer loop
vertex 165.0 0.0 0.0
vertex 165.0 62.0 0.0
vertex 165.0 0.0 10.0
endloop
endfacet
facet normal -0.0 0.0 1.0
outer loop
vertex 118.5 11.0 10.0
vertex 165.0 0.0 10.0
vertex 165.0 62.0 10.0
endloop
endfacet
facet normal 0.0 -1.0 0.0
outer loop
vertex 58.5 11.0 10.0
vertex 118.5 11.0 10.0
vertex 118.5 11.0 21.0
endloop
endfacet
facet normal 0.0 -1.0 0.0
outer loop
vertex 82.47085952758789 27.5 11.828993797302246
vertex 86.68661499023438 27.5 10.428043365478516
vertex 85.62707901000977 27.5 10.991409301757812
endloop
endfacet
facet normal -0.08092913907833499 -0.9850299448579014 -0.15220539471805572
outer loop
vertex 86.68661499023438 27.5 10.428043365478516
vertex 86.56602096557617 27.149993896484375 12.757304191589355
vertex 85.62707901000977 27.5 10.991409301757812
endloop
endfacet
facet normal -0.08092913907833499 -0.9850299448579014 -0.15220539471805572
outer loop
vertex 86.68661499023438 27.5 10.428043365478516
vertex 87.62555694580078 27.149993896484375 12.193938255310059
vertex 86.56602096557617 27.149993896484375 12.757304191589355
endloop
endfacet
facet normal -0.0 -1.0 0.0
outer loop
vertex 90.12276458740234 27.5 7.355183124542236
vertex 90.91186141967773 27.5 18.374570846557617
vertex 86.68661499023438 27.5 10.428043365478516
endloop
endfacet
facet normal 0.0 -0.9999999999999999 0.0
outer loop
vertex 82.47085952758789 27.5 11.828993797302246
vertex 85.62707901000977 27.5 10.991409301757812
vertex 89.85232162475586 27.5 18.937936782836914
endloop
endfacet
facet normal -0.8829476387260138 1.9963566138703362e-06 0.4694714765181916
outer loop
vertex 85.62707901000977 27.5 10.991409301757812
vertex 86.56602096557617 27.149993896484375 12.757304191589355
vertex 89.85232162475586 27.5 18.937936782836914
endloop
endfacet
facet normal -0.8829477260640447 0.0 0.4694713122634149
outer loop
vertex 82.47085952758789 27.5 11.828993797302246
vertex 87.04454803466797 27.5 20.430856704711914
vertex 82.47085952758789 34.5 11.828993797302246
endloop
endfacet
facet normal 0.8829474630242292 -4.134844048642147e-06 -0.4694718069511526
outer loop
vertex 86.68661499023438 27.5 10.428043365478516
vertex 90.91186141967773 27.5 18.374570846557617
vertex 87.62555694580078 27.149993896484375 12.193938255310059
endloop
endfacet
facet normal 0.0 -0.9999999999999999 0.0
outer loop
vertex 90.12276458740234 27.5 7.355183124542236
vertex 94.86443328857422 27.5 16.2729549407959
vertex 90.91186141967773 27.5 18.374570846557617
endloop
endfacet
facet normal -0.0 -1.0 0.0
outer loop
vertex 87.62555694580078 27.149993896484375 12.193938255310059
vertex 89.38285064697266 27.149993896484375 18.054988861083984
vertex 86.56602096557617 27.149993896484375 12.757304191589355
endloop
endfacet
facet normal 0.0 -1.0 0.0
outer loop
vertex 87.62555694580078 27.149993896484375 12.193938255310059
vertex 90.44238662719727 27.149993896484375 17.491622924804688
vertex 89.38285064697266 27.149993896484375 18.054988861083984
endloop
endfacet
facet normal 0.8829475391907297 -5.1362779761811736e-06 -0.469471663692979
outer loop
vertex 87.62555694580078 27.149993896484375 12.193938255310059
vertex 91.38133239746094 27.5 19.257518768310547
vertex 90.44238662719727 27.149993896484375 17.491622924804688
endloop
endfacet
facet normal -0.8829475029794782 1.1044299312601567e-06 0.46947173182321056
outer loop
vertex 90.12276458740234 25.0 7.355183124542236
vertex 97.37784576416016 25.0 21.0
vertex 94.86443328857422 27.5 16.2729549407959
endloop
endfacet
facet normal 0.0 -0.0 1.0
outer loop
vertex 58.5 11.0 21.0
vertex 118.5 11.0 21.0
vertex 72.4613037109375 25.0 21.0
endloop
endfacet
facet normal -0.0 -0.0 1.0
outer loop
vertex 72.4613037109375 25.0 21.0
vertex 118.5 11.0 21.0
vertex 97.37784576416016 25.0 21.0
endloop
endfacet
facet normal -0.0 1.0 0.0
outer loop
vertex 72.4613037109375 25.0 21.0
vertex 97.37784576416016 25.0 21.0
vertex 90.12276458740234 25.0 7.355183124542236
endloop
endfacet
facet normal 0.0 -0.9999999999999999 0.0
outer loop
vertex 82.47085952758789 27.5 11.828993797302246
vertex 89.85232162475586 27.5 18.937936782836914
vertex 87.04454803466797 27.5 20.430856704711914
endloop
endfacet
facet normal 0.8829479076074848 -2.3083955040886644e-05 -0.46947097026194884
outer loop
vertex 87.62555694580078 27.149993896484375 12.193938255310059
vertex 90.91186141967773 27.5 18.374570846557617
vertex 91.38133239746094 27.5 19.257518768310547
endloop
endfacet
facet normal -0.8829475391934883 -4.48691867557591e-06 0.4694716636944458
outer loop
vertex 86.56602096557617 27.149993896484375 12.757304191589355
vertex 89.38285064697266 27.149993896484375 18.054988861083984
vertex 90.32179260253906 27.5 19.820884704589844
endloop
endfacet
facet normal -0.882947907762741 1.3460754376156553e-05 0.4694709703444999
outer loop
vertex 86.56602096557617 27.149993896484375 12.757304191589355
vertex 90.32179260253906 27.5 19.820884704589844
vertex 89.85232162475586 27.5 18.937936782836914
endloop
endfacet
facet normal 0.17435794066817445 -0.9284758737487555 0.32792050925862853
outer loop
vertex 90.91186141967773 27.5 18.374570846557617
vertex 95.80337524414062 28.300003051757812 18.038846969604492
vertex 91.02923583984375 27.600006103515625 18.595319747924805
endloop
endfacet
facet normal 0.08092910601789009 -0.9850299571817034 0.15220533254047514
outer loop
vertex 90.44238662719727 27.149993896484375 17.491622924804688
vertex 90.32179260253906 27.5 19.820884704589844
vertex 89.38285064697266 27.149993896484375 18.054988861083984
endloop
endfacet
facet normal 0.8829479078388183 -2.97764938453466e-06 -0.46947097038495084
outer loop
vertex 90.91186141967773 27.5 18.374570846557617
vertex 91.02923583984375 27.600006103515625 18.595319747924805
vertex 91.38133239746094 27.5 19.257518768310547
endloop
endfacet
facet normal 0.17435785263092746 -0.9284763835103008 0.3279191127238003
outer loop
vertex 91.02923583984375 27.600006103515625 18.595319747924805
vertex 95.80337524414062 28.300003051757812 18.038846969604492
vertex 89.96969604492188 27.600006103515625 19.158687591552734
endloop
endfacet
facet normal 0.08092880855145042 -0.9850299833923555 0.15220532107813667
outer loop
vertex 90.44238662719727 27.149993896484375 17.491622924804688
vertex 91.38133239746094 27.5 19.257518768310547
vertex 90.32179260253906 27.5 19.820884704589844
endloop
endfacet
facet normal 0.8829480942467574 0.0 -0.46947061981131394
outer loop
vertex 91.02923583984375 27.600006103515625 18.595319747924805
vertex 91.38133239746094 27.600006103515625 19.257518768310547
vertex 91.38133239746094 27.5 19.257518768310547
endloop
endfacet
facet normal -0.8829476063284678 6.330076666268267e-07 0.4694715374529411
outer loop
vertex 94.86443328857422 27.5 16.2729549407959
vertex 97.37784576416016 25.0 21.0
vertex 95.80337524414062 28.300003051757812 18.038846969604492
endloop
endfacet
facet normal 0.17435793725455936 -0.9284759886942792 0.32792018561612796
outer loop
vertex 94.86443328857422 27.5 16.2729549407959
vertex 95.80337524414062 28.300003051757812 18.038846969604492
vertex 90.91186141967773 27.5 18.374570846557617
endloop
endfacet
facet normal -0.8829479078269651 -5.976252247688873e-06 0.4694709703786484
outer loop
vertex 89.85232162475586 27.5 18.937936782836914
vertex 90.32179260253906 27.5 19.820884704589844
vertex 89.96969604492188 27.600006103515625 19.158687591552734
endloop
endfacet
facet normal 0.17435732803091733 -0.9284767363993907 0.32791839248059185
outer loop
vertex 89.85232162475586 27.5 18.937936782836914
vertex 89.96969604492188 27.600006103515625 19.158687591552734
vertex 87.04454803466797 27.5 20.430856704711914
endloop
endfacet
facet normal -0.8829475337217126 0.0 0.469471674006798
outer loop
vertex 89.96969604492188 27.600006103515625 19.158687591552734
vertex 90.32179260253906 27.5 19.820884704589844
vertex 90.32179260253906 27.600006103515625 19.820884704589844
endloop
endfacet
facet normal 0.0 1.0 -0.0
outer loop
vertex 91.02923583984375 27.600006103515625 18.595319747924805
vertex 89.96969604492188 27.600006103515625 19.158687591552734
vertex 90.32179260253906 27.600006103515625 19.820884704589844
endloop
endfacet
facet normal -0.0 1.0 -0.0
outer loop
vertex 91.02923583984375 27.600006103515625 18.595319747924805
vertex 90.32179260253906 27.600006103515625 19.820884704589844
vertex 91.38133239746094 27.600006103515625 19.257518768310547
endloop
endfacet
facet normal 0.1743579712198875 -0.9284760749297039 0.32791992338864656
outer loop
vertex 95.80337524414062 28.300003051757812 18.038846969604492
vertex 87.04454803466797 27.5 20.430856704711914
vertex 89.96969604492188 27.600006103515625 19.158687591552734
endloop
endfacet
facet normal 0.46947067541089976 -0.0 0.8829480646840072
outer loop
vertex 91.38133239746094 27.5 19.257518768310547
vertex 91.38133239746094 27.600006103515625 19.257518768310547
vertex 90.32179260253906 27.5 19.820884704589844
endloop
endfacet
facet normal 0.46947067541089976 0.0 0.8829480646840072
outer loop
vertex 91.38133239746094 27.600006103515625 19.257518768310547
vertex 90.32179260253906 27.600006103515625 19.820884704589844
vertex 90.32179260253906 27.5 19.820884704589844
endloop
endfacet
facet normal 0.17435788786985043 -0.9284762149080525 0.3279195713701466
outer loop
vertex 95.80337524414062 28.300003051757812 18.038846969604492
vertex 88.68984985351562 28.300003051757812 21.82117462158203
vertex 87.04454803466797 27.5 20.430856704711914
endloop
endfacet
facet normal 0.46947147660848015 0.0 0.8829476386802636
outer loop
vertex 95.80337524414062 28.300003051757812 18.038846969604492
vertex 88.68984985351562 33.69999694824219 21.82117462158203
vertex 88.68984985351562 28.300003051757812 21.82117462158203
endloop
endfacet
facet normal -0.6454387513020263 0.0 0.7638120307495038
outer loop
vertex 87.04454803466797 27.5 20.430856704711914
vertex 88.68984985351562 28.300003051757812 21.82117462158203
vertex 88.68984985351562 33.69999694824219 21.82117462158203
endloop
endfacet
facet normal -0.8829478987482927 0.0 0.46947098749121297
outer loop
vertex 95.80337524414062 28.300003051757812 18.038846969604492
vertex 97.37784576416016 25.0 21.0
vertex 97.37784576416016 37.0 21.0
endloop
endfacet
facet normal 1.0 0.0 -0.0
outer loop
vertex 118.5 11.0 10.0
vertex 118.5 51.0 21.0
vertex 118.5 11.0 21.0
endloop
endfacet
facet normal 0.0 -0.0 0.9999999999999999
outer loop
vertex 118.5 11.0 21.0
vertex 118.5 51.0 21.0
vertex 97.37784576416016 25.0 21.0
endloop
endfacet
facet normal 0.0 0.0 -1.0
outer loop
vertex 0.0 62.0 0.0
vertex 165.0 62.0 0.0
vertex 165.0 0.0 0.0
endloop
endfacet
facet normal -0.0 1.0 -0.0
outer loop
vertex 90.12276458740234 34.5 7.355183124542236
vertex 85.62707901000977 34.5 10.991409301757812
vertex 86.68661499023438 34.5 10.428043365478516
endloop
endfacet
facet normal 0.0 1.0 0.0
outer loop
vertex 82.47085952758789 34.5 11.828993797302246
vertex 85.62707901000977 34.5 10.991409301757812
vertex 90.12276458740234 34.5 7.355183124542236
endloop
endfacet
facet normal -0.882947374638786 0.0 0.46947197319805495
outer loop
vertex 90.12276458740234 34.5 7.355183124542236
vertex 94.86443328857422 34.5 16.2729549407959
vertex 90.12276458740234 37.0 7.355183124542236
endloop
endfacet
facet normal -0.0 1.0 0.0
outer loop
vertex 0.0 62.0 0.0
vertex 125.80000305175781 62.0 3.950000047683716
vertex 165.0 62.0 0.0
endloop
endfacet
facet normal -0.0 1.0 0.0
outer loop
vertex 0.0 62.0 10.0
vertex 165.0 62.0 10.0
vertex 125.80000305175781 62.0 8.050000190734863
endloop
endfacet
facet normal -0.0 0.0 0.9999999999999999
outer loop
vertex 0.0 62.0 10.0
vertex 118.5 51.0 10.0
vertex 165.0 62.0 10.0
endloop
endfacet
facet normal 0.0 -0.0 1.0
outer loop
vertex 118.5 11.0 10.0
vertex 165.0 62.0 10.0
vertex 118.5 51.0 10.0
endloop
endfacet
facet normal 1.0 -0.0 0.0
outer loop
vertex 165.0 0.0 10.0
vertex 165.0 62.0 0.0
vertex 165.0 62.0 10.0
endloop
endfacet
facet normal 0.0 1.0 -0.0
outer loop
vertex 165.0 62.0 0.0
vertex 125.80000305175781 62.0 3.950000047683716
vertex 125.80000305175781 62.0 8.050000190734863
endloop
endfacet
facet normal 0.0 1.0 -0.0
outer loop
vertex 165.0 62.0 0.0
vertex 125.80000305175781 62.0 8.050000190734863
vertex 165.0 62.0 10.0
endloop
endfacet
facet normal -0.08092913907833499 0.9850299448579014 -0.15220539471805572
outer loop
vertex 86.68661499023438 34.5 10.428043365478516
vertex 85.62707901000977 34.5 10.991409301757812
vertex 86.56602096557617 34.850006103515625 12.757304191589355
endloop
endfacet
facet normal -0.08092913907833499 0.9850299448579014 -0.15220539471805572
outer loop
vertex 86.68661499023438 34.5 10.428043365478516
vertex 86.56602096557617 34.850006103515625 12.757304191589355
vertex 87.62555694580078 34.850006103515625 12.193938255310059
endloop
endfacet
facet normal 0.0 0.9999999999999999 -0.0
outer loop
vertex 90.12276458740234 34.5 7.355183124542236
vertex 86.68661499023438 34.5 10.428043365478516
vertex 94.86443328857422 34.5 16.2729549407959
endloop
endfacet
facet normal 0.5047293104593723 -0.0 0.8632776628427302
outer loop
vertex 71.11516571044922 37.0 18.468284606933594
vertex 90.12276458740234 34.5 7.355183124542236
vertex 90.12276458740234 37.0 7.355183124542236
endloop
endfacet
facet normal -0.8829476387260138 -1.9963566138703362e-06 0.4694714765181916
outer loop
vertex 85.62707901000977 34.5 10.991409301757812
vertex 89.85232162475586 34.5 18.937936782836914
vertex 86.56602096557617 34.850006103515625 12.757304191589355
endloop
endfacet
facet normal -0.0 1.0 0.0
outer loop
vertex 82.47085952758789 34.5 11.828993797302246
vertex 87.04454803466797 34.5 20.430856704711914
vertex 85.62707901000977 34.5 10.991409301757812
endloop
endfacet
facet normal 0.8829474630242292 4.134844048642147e-06 -0.4694718069511526
outer loop
vertex 86.68661499023438 34.5 10.428043365478516
vertex 87.62555694580078 34.850006103515625 12.193938255310059
vertex 90.91186141967773 34.5 18.374570846557617
endloop
endfacet
facet normal 0.0 1.0 -0.0
outer loop
vertex 87.62555694580078 34.850006103515625 12.193938255310059
vertex 86.56602096557617 34.850006103515625 12.757304191589355
vertex 89.38285064697266 34.850006103515625 18.054988861083984
endloop
endfacet
facet normal -0.0 1.0 0.0
outer loop
vertex 86.68661499023438 34.5 10.428043365478516
vertex 90.91186141967773 34.5 18.374570846557617
vertex 94.86443328857422 34.5 16.2729549407959
endloop
endfacet
facet normal -0.0 1.0 0.0
outer loop
vertex 87.62555694580078 34.850006103515625 12.193938255310059
vertex 89.38285064697266 34.850006103515625 18.054988861083984
vertex 90.44238662719727 34.850006103515625 17.491622924804688
endloop
endfacet
facet normal 0.8829475391907297 5.1362779761811736e-06 -0.469471663692979
outer loop
vertex 87.62555694580078 34.850006103515625 12.193938255310059
vertex 90.44238662719727 34.850006103515625 17.491622924804688
vertex 91.38133239746094 34.5 19.257518768310547
endloop
endfacet
facet normal 0.0 -1.0 0.0
outer loop
vertex 71.11516571044922 37.0 18.468284606933594
vertex 90.12276458740234 37.0 7.355183124542236
vertex 97.37784576416016 37.0 21.0
endloop
endfacet
facet normal -0.8829475029794782 -1.1044299312601567e-06 0.46947173182321056
outer loop
vertex 90.12276458740234 37.0 7.355183124542236
vertex 94.86443328857422 34.5 16.2729549407959
vertex 97.37784576416016 37.0 21.0
endloop
endfacet
facet normal 1.0 0.0 0.0
outer loop
vertex 118.5 11.0 10.0
vertex 118.5 51.0 10.0
vertex 118.5 51.0 21.0
endloop
endfacet
facet normal -0.8829477260640447 0.0 0.4694713122634149
outer loop
vertex 82.47085952758789 34.5 11.828993797302246
vertex 87.04454803466797 27.5 20.430856704711914
vertex 87.04454803466797 34.5 20.430856704711914
endloop
endfacet
facet normal -0.0 1.0 0.0
outer loop
vertex 85.62707901000977 34.5 10.991409301757812
vertex 87.04454803466797 34.5 20.430856704711914
vertex 89.85232162475586 34.5 18.937936782836914
endloop
endfacet
facet normal 0.8829479076074848 2.3083955040886644e-05 -0.46947097026194884
outer loop
vertex 87.62555694580078 34.850006103515625 12.193938255310059
vertex 91.38133239746094 34.5 19.257518768310547
vertex 90.91186141967773 34.5 18.374570846557617
endloop
endfacet
facet normal -0.8829475391934883 4.48691867557591e-06 0.4694716636944458
outer loop
vertex 86.56602096557617 34.850006103515625 12.757304191589355
vertex 90.32179260253906 34.5 19.820884704589844
vertex 89.38285064697266 34.850006103515625 18.054988861083984
endloop
endfacet
facet normal -0.882947907762741 -1.3460754376156553e-05 0.4694709703444999
outer loop
vertex 86.56602096557617 34.850006103515625 12.757304191589355
vertex 89.85232162475586 34.5 18.937936782836914
vertex 90.32179260253906 34.5 19.820884704589844
endloop
endfacet
facet normal 0.17435807216261467 0.9284758737488314 0.3279204393417411
outer loop
vertex 94.86443328857422 34.5 16.2729549407959
vertex 90.91186141967773 34.5 18.374570846557617
vertex 91.02923583984375 34.399993896484375 18.595319747924805
endloop
endfacet
facet normal 0.08092910601789009 0.9850299571817034 0.15220533254047514
outer loop
vertex 90.44238662719727 34.850006103515625 17.491622924804688
vertex 89.38285064697266 34.850006103515625 18.054988861083984
vertex 90.32179260253906 34.5 19.820884704589844
endloop
endfacet
facet normal 0.8829479078388183 2.97764938453466e-06 -0.46947097038495084
outer loop
vertex 90.91186141967773 34.5 18.374570846557617
vertex 91.38133239746094 34.5 19.257518768310547
vertex 91.02923583984375 34.399993896484375 18.595319747924805
endloop
endfacet
facet normal 0.08092880855145042 0.9850299833923555 0.15220532107813667
outer loop
vertex 90.44238662719727 34.850006103515625 17.491622924804688
vertex 90.32179260253906 34.5 19.820884704589844
vertex 91.38133239746094 34.5 19.257518768310547
endloop
endfacet
facet normal -0.0 -1.0 0.0
outer loop
vertex 91.02923583984375 34.399993896484375 18.595319747924805
vertex 91.38133239746094 34.399993896484375 19.257518768310547
vertex 89.96969604492188 34.399993896484375 19.158687591552734
endloop
endfacet
facet normal 0.8829480942467574 0.0 -0.46947061981131394
outer loop
vertex 91.02923583984375 34.399993896484375 18.595319747924805
vertex 91.38133239746094 34.5 19.257518768310547
vertex 91.38133239746094 34.399993896484375 19.257518768310547
endloop
endfacet
facet normal 0.17435729926575438 0.9284764607543232 0.3279191882428931
outer loop
vertex 94.86443328857422 34.5 16.2729549407959
vertex 91.02923583984375 34.399993896484375 18.595319747924805
vertex 88.68984985351562 33.69999694824219 21.82117462158203
endloop
endfacet
facet normal 0.17435815337084998 0.9284759886943342 0.3279200707050206
outer loop
vertex 94.86443328857422 34.5 16.2729549407959
vertex 88.68984985351562 33.69999694824219 21.82117462158203
vertex 95.80337524414062 33.69999694824219 18.038846969604492
endloop
endfacet
facet normal -0.8829478987482926 0.0 0.46947098749121297
outer loop
vertex 95.80337524414062 28.300003051757812 18.038846969604492
vertex 97.37784576416016 37.0 21.0
vertex 95.80337524414062 33.69999694824219 18.038846969604492
endloop
endfacet
facet normal -0.8829476063284678 -6.330076666268267e-07 0.4694715374529411
outer loop
vertex 94.86443328857422 34.5 16.2729549407959
vertex 95.80337524414062 33.69999694824219 18.038846969604492
vertex 97.37784576416016 37.0 21.0
endloop
endfacet
facet normal -0.8829479078269651 5.976252247688873e-06 0.4694709703786484
outer loop
vertex 89.85232162475586 34.5 18.937936782836914
vertex 89.96969604492188 34.399993896484375 19.158687591552734
vertex 90.32179260253906 34.5 19.820884704589844
endloop
endfacet
facet normal 0.17435732803091733 0.9284767363993907 0.32791839248059185
outer loop
vertex 89.85232162475586 34.5 18.937936782836914
vertex 87.04454803466797 34.5 20.430856704711914
vertex 89.96969604492188 34.399993896484375 19.158687591552734
endloop
endfacet
facet normal -0.8829475337217126 0.0 0.469471674006798
outer loop
vertex 89.96969604492188 34.399993896484375 19.158687591552734
vertex 90.32179260253906 34.399993896484375 19.820884704589844
vertex 90.32179260253906 34.5 19.820884704589844
endloop
endfacet
facet normal 0.0 -1.0 0.0
outer loop
vertex 89.96969604492188 34.399993896484375 19.158687591552734
vertex 91.38133239746094 34.399993896484375 19.257518768310547
vertex 90.32179260253906 34.399993896484375 19.820884704589844
endloop
endfacet
facet normal 0.46947067541089976 -0.0 0.8829480646840072
outer loop
vertex 91.38133239746094 34.399993896484375 19.257518768310547
vertex 91.38133239746094 34.5 19.257518768310547
vertex 90.32179260253906 34.5 19.820884704589844
endloop
endfacet
facet normal 0.46947067541089976 0.0 0.8829480646840072
outer loop
vertex 91.38133239746094 34.399993896484375 19.257518768310547
vertex 90.32179260253906 34.5 19.820884704589844
vertex 90.32179260253906 34.399993896484375 19.820884704589844
endloop
endfacet
facet normal 0.17435819585178916 0.9284760910778321 0.327919758227738
outer loop
vertex 91.02923583984375 34.399993896484375 18.595319747924805
vertex 89.96969604492188 34.399993896484375 19.158687591552734
vertex 88.68984985351562 33.69999694824219 21.82117462158203
endloop
endfacet
facet normal -0.6454387513020264 0.0 0.7638120307495039
outer loop
vertex 87.04454803466797 27.5 20.430856704711914
vertex 88.68984985351562 33.69999694824219 21.82117462158203
vertex 87.04454803466797 34.5 20.430856704711914
endloop
endfacet
facet normal 0.17435784338470384 0.9284762063985009 0.3279196191173738
outer loop
vertex 87.04454803466797 34.5 20.430856704711914
vertex 88.68984985351562 33.69999694824219 21.82117462158203
vertex 89.96969604492188 34.399993896484375 19.158687591552734
endloop
endfacet
facet normal 0.46947147660848015 -0.0 0.8829476386802636
outer loop
vertex 95.80337524414062 28.300003051757812 18.038846969604492
vertex 95.80337524414062 33.69999694824219 18.038846969604492
vertex 88.68984985351562 33.69999694824219 21.82117462158203
endloop
endfacet
facet normal -0.0 0.0 1.0
outer loop
vertex 58.5 51.0 21.0
vertex 97.37784576416016 37.0 21.0
vertex 118.5 51.0 21.0
endloop
endfacet
facet normal 0.0 -0.0 0.9999999999999999
outer loop
vertex 97.37784576416016 25.0 21.0
vertex 118.5 51.0 21.0
vertex 97.37784576416016 37.0 21.0
endloop
endfacet
facet normal -0.0 1.0 0.0
outer loop
vertex 58.5 51.0 21.0
vertex 118.5 51.0 21.0
vertex 118.5 51.0 10.0
endloop
endfacet
facet normal -0.0 1.0 0.0
outer loop
vertex 109.19999694824219 38.69999694824219 3.950000047683716
vertex 109.19999694824219 38.69999694824219 8.050000190734863
vertex 125.80000305175781 38.69999694824219 3.950000047683716
endloop
endfacet
facet normal 1.0 0.0 -0.0
outer loop
vertex 109.19999694824219 38.69999694824219 3.950000047683716
vertex 109.19999694824219 62.0 3.950000047683716
vertex 109.19999694824219 38.69999694824219 8.050000190734863
endloop
endfacet
facet normal 0.0 0.0 1.0
outer loop
vertex 109.19999694824219 38.69999694824219 3.950000047683716
vertex 125.80000305175781 38.69999694824219 3.950000047683716
vertex 125.80000305175781 62.0 3.950000047683716
endloop
endfacet
facet normal -0.0 1.0 0.0
outer loop
vertex 109.19999694824219 38.69999694824219 8.050000190734863
vertex 125.80000305175781 38.69999694824219 8.050000190734863
vertex 125.80000305175781 38.69999694824219 3.950000047683716
endloop
endfacet
facet normal 0.0 0.0 -1.0
outer loop
vertex 109.19999694824219 38.69999694824219 8.050000190734863
vertex 109.19999694824219 62.0 8.050000190734863
vertex 125.80000305175781 38.69999694824219 8.050000190734863
endloop
endfacet
facet normal 0.0 -0.0 1.0
outer loop
vertex 109.19999694824219 38.69999694824219 3.950000047683716
vertex 125.80000305175781 62.0 3.950000047683716
vertex 109.19999694824219 62.0 3.950000047683716
endloop
endfacet
facet normal 1.0 -0.0 0.0
outer loop
vertex 109.19999694824219 38.69999694824219 8.050000190734863
vertex 109.19999694824219 62.0 3.950000047683716
vertex 109.19999694824219 62.0 8.050000190734863
endloop
endfacet
facet normal 0.0 0.0 -1.0
outer loop
vertex 125.80000305175781 38.69999694824219 8.050000190734863
vertex 109.19999694824219 62.0 8.050000190734863
vertex 125.80000305175781 62.0 8.050000190734863
endloop
endfacet
facet normal -1.0 0.0 0.0
outer loop
vertex 125.80000305175781 38.69999694824219 3.950000047683716
vertex 125.80000305175781 38.69999694824219 8.050000190734863
vertex 125.80000305175781 62.0 8.050000190734863
endloop
endfacet
facet normal -1.0 0.0 0.0
outer loop
vertex 125.80000305175781 38.69999694824219 3.950000047683716
vertex 125.80000305175781 62.0 8.050000190734863
vertex 125.80000305175781 62.0 3.950000047683716
endloop
endfacet

endsolid
