solid 
facet normal -1.0 0.0 -0.0
outer loop
vertex 52.5 -5.0 15.463973045349121
vertex 52.5 5.0 15.463973045349121
vertex 52.5 -12.0 8.0
endloop
endfacet
facet normal 0.5047294046123116 1.0788565804630972e-07 0.8632776077946709
outer loop
vertex 58.28522872924805 -2.5 12.081543922424316
vertex 52.5 -5.0 15.463973045349121
vertex 60.90169143676758 -5.0 10.551786422729492
endloop
endfacet
facet normal 1.0 0.0 0.0
outer loop
vertex 60.90169143676758 -5.199999809265137 9.995026588439941
vertex 60.90169143676758 -2.5 9.995026588439941
vertex 60.90169143676758 -2.5 10.551786422729492
endloop
endfacet
facet normal 0.0 -0.0 1.0
outer loop
vertex 60.90169143676758 -5.199999809265137 9.995026588439941
vertex 61.85396194458008 -2.5 9.995026588439941
vertex 60.90169143676758 -2.5 9.995026588439941
endloop
endfacet
facet normal 0.0 -1.0 0.0
outer loop
vertex 60.90169143676758 -2.5 9.995026588439941
vertex 61.85396194458008 -2.5 9.995026588439941
vertex 60.90169143676758 -2.5 10.551786422729492
endloop
endfacet
facet normal 0.0 0.0 1.0
outer loop
vertex 60.90169143676758 -5.199999809265137 9.995026588439941
vertex 61.85396194458008 -5.0 9.995026588439941
vertex 61.85396194458008 -4.124538421630859 9.995026588439941
endloop
endfacet
facet normal 0.0 0.0 0.9999999999999999
outer loop
vertex 60.90169143676758 -5.199999809265137 9.995026588439941
vertex 61.85396194458008 -4.124538421630859 9.995026588439941
vertex 61.85396194458008 -2.5 9.995026588439941
endloop
endfacet
facet normal 0.0 -1.0 0.0
outer loop
vertex 61.85396194458008 -2.5 9.995026588439941
vertex 63.77714538574219 -2.5 8.87060546875
vertex 61.356422424316406 -2.5 11.403553009033203
endloop
endfacet
facet normal 1.0 0.0 -0.0
outer loop
vertex 60.90169143676758 -5.199999809265137 9.995026588439941
vertex 60.90169143676758 -2.5 10.551786422729492
vertex 60.90169143676758 -5.0 10.551786422729492
endloop
endfacet
facet normal 1.0 0.0 -0.0
outer loop
vertex 60.90169143676758 -5.199999809265137 9.995026588439941
vertex 60.90169143676758 -5.0 10.551786422729492
vertex 60.90169143676758 -7.17241096496582 11.168205261230469
endloop
endfacet
facet normal -0.0 -1.0 0.0
outer loop
vertex 61.85396194458008 -2.5 9.995026588439941
vertex 61.356422424316406 -2.5 11.403553009033203
vertex 60.90169143676758 -2.5 10.551786422729492
endloop
endfacet
facet normal 0.5047295368073149 0.0 0.8632775305046886
outer loop
vertex 61.85396194458008 -5.0 9.995026588439941
vertex 63.77714538574219 -5.0 8.87060546875
vertex 61.85396194458008 -4.124538421630859 9.995026588439941
endloop
endfacet
facet normal 0.5047295368073149 -0.0 0.8632775305046885
outer loop
vertex 61.85396194458008 -4.124538421630859 9.995026588439941
vertex 63.77714538574219 -5.0 8.87060546875
vertex 63.77714538574219 -2.5 8.87060546875
endloop
endfacet
facet normal 0.5047295368073149 0.0 0.8632775305046885
outer loop
vertex 61.85396194458008 -4.124538421630859 9.995026588439941
vertex 63.77714538574219 -2.5 8.87060546875
vertex 61.85396194458008 -2.5 9.995026588439941
endloop
endfacet
facet normal -0.0 1.0 0.0
outer loop
vertex 61.85396194458008 -5.0 9.995026588439941
vertex 64.37500762939453 -5.0 9.995026588439941
vertex 63.77714538574219 -5.0 8.87060546875
endloop
endfacet
facet normal -0.8829476112239156 0.0 0.46947152824636884
outer loop
vertex 63.77714538574219 -5.0 8.87060546875
vertex 64.29356384277344 -2.5 9.84184741973877
vertex 63.77714538574219 -2.5 8.87060546875
endloop
endfacet
facet normal 0.0 -1.0 0.0
outer loop
vertex 63.77714538574219 -2.5 8.87060546875
vertex 64.15521240234375 -2.5 9.915410041809082
vertex 63.95228958129883 -2.5 10.023306846618652
endloop
endfacet
facet normal -0.8829542987375595 6.267796016599873e-06 0.4694589506033297
outer loop
vertex 63.77714538574219 -5.0 8.87060546875
vertex 64.37500762939453 -2.530359983444214 9.995026588439941
vertex 64.29356384277344 -2.5 9.84184741973877
endloop
endfacet
facet normal -0.8829485924165429 0.0 0.46946968288660057
outer loop
vertex 63.77714538574219 -5.0 8.87060546875
vertex 64.37500762939453 -5.0 9.995026588439941
vertex 64.37500762939453 -2.530359983444214 9.995026588439941
endloop
endfacet
facet normal 0.0 -1.0 0.0
outer loop
vertex 63.77714538574219 -2.5 8.87060546875
vertex 64.29356384277344 -2.5 9.84184741973877
vertex 64.15521240234375 -2.5 9.915410041809082
endloop
endfacet
facet normal 0.0 -0.0 1.0
outer loop
vertex 60.90169143676758 -5.199999809265137 9.995026588439941
vertex 64.37500762939453 -5.0 9.995026588439941
vertex 61.85396194458008 -5.0 9.995026588439941
endloop
endfacet
facet normal 0.0 -1.0 0.0
outer loop
vertex 63.77714538574219 -2.5 8.87060546875
vertex 63.95228958129883 -2.5 10.023306846618652
vertex 61.356422424316406 -2.5 11.403553009033203
endloop
endfacet
facet normal 0.0 0.5112021172616991 0.859460525741093
outer loop
vertex 60.90169143676758 -5.199999809265137 9.995026588439941
vertex 60.90169143676758 -7.17241096496582 11.168205261230469
vertex 69.5584945678711 -5.199999809265137 9.995026588439941
endloop
endfacet
facet normal -0.08092794768963257 -0.9850303153734044 -0.1522036303053098
outer loop
vertex 64.15521240234375 -2.5 9.915410041809082
vertex 64.29356384277344 -2.5 9.84184741973877
vertex 64.37500762939453 -2.530359983444214 9.995026588439941
endloop
endfacet
facet normal -0.08092818830790392 -0.985030451868092 -0.1522026189976471
outer loop
vertex 63.95228958129883 -2.5 10.023306846618652
vertex 64.15521240234375 -2.5 9.915410041809082
vertex 64.09300231933594 -2.5071909427642822 9.995026588439941
endloop
endfacet
facet normal -0.08092829915738163 -0.9850304296871464 -0.15220270360886906
outer loop
vertex 64.15521240234375 -2.5 9.915410041809082
vertex 64.37500762939453 -2.530359983444214 9.995026588439941
vertex 64.09300231933594 -2.5071909427642822 9.995026588439941
endloop
endfacet
facet normal 0.0 -0.0 1.0
outer loop
vertex 60.90169143676758 -5.199999809265137 9.995026588439941
vertex 69.5584945678711 -5.199999809265137 9.995026588439941
vertex 64.37500762939453 -5.0 9.995026588439941
endloop
endfacet
facet normal -0.0809281458472369 -0.9850304894786958 -0.15220239816471215
outer loop
vertex 63.95228958129883 -2.5 10.023306846618652
vertex 64.09300231933594 -2.5071909427642822 9.995026588439941
vertex 64.8912353515625 -2.8499999046325684 11.789201736450195
endloop
endfacet
facet normal -0.08092830390055764 -0.9850304874193951 -0.1522023274529267
outer loop
vertex 64.09300231933594 -2.5071909427642822 9.995026588439941
vertex 64.37500762939453 -2.530359983444214 9.995026588439941
vertex 64.8912353515625 -2.8499999046325684 11.789201736450195
endloop
endfacet
facet normal 0.8829471950903003 0.0 -0.46947231087910957
outer loop
vertex 65.29633331298828 -2.6060538291931152 9.995026588439941
vertex 65.29633331298828 -2.5 9.995026588439941
vertex 65.95076751708984 -2.8499999046325684 11.225835800170898
endloop
endfacet
facet normal -0.08092767719483059 -0.9850305104132433 -0.15220251186782183
outer loop
vertex 64.37500762939453 -2.530359983444214 9.995026588439941
vertex 65.29633331298828 -2.6060538291931152 9.995026588439941
vertex 64.8912353515625 -2.8499999046325684 11.789201736450195
endloop
endfacet
facet normal 0.5047293277895096 -0.0 0.8632776527103836
outer loop
vertex 58.28522872924805 -2.5 12.081543922424316
vertex 60.90169143676758 -5.0 10.551786422729492
vertex 60.90169143676758 -2.5 10.551786422729492
endloop
endfacet
facet normal 0.0 -1.0 0.0
outer loop
vertex 58.28522872924805 -2.5 12.081543922424316
vertex 60.90169143676758 -2.5 10.551786422729492
vertex 61.356422424316406 -2.5 11.403553009033203
endloop
endfacet
facet normal 0.0 -1.0 0.0
outer loop
vertex 58.28522872924805 -2.5 12.081543922424316
vertex 61.356422424316406 -2.5 11.403553009033203
vertex 60.2968864440918 -2.5 11.9669189453125
endloop
endfacet
facet normal -0.8829474041753026 5.011843578651713e-06 0.4694719176212526
outer loop
vertex 60.2968864440918 -2.5 11.9669189453125
vertex 60.90169143676758 -2.725446939468384 13.104393005371094
vertex 60.90169143676758 -2.6361138820648193 13.104392051696777
endloop
endfacet
facet normal -0.08092770727559918 -0.9850304785801876 -0.1522027018919236
outer loop
vertex 61.356422424316406 -2.5 11.403553009033203
vertex 60.90169143676758 -2.725446939468384 13.104393005371094
vertex 60.2968864440918 -2.5 11.9669189453125
endloop
endfacet
facet normal -0.08092806288650894 -0.9850304355546254 -0.15220279126383346
outer loop
vertex 61.356422424316406 -2.5 11.403553009033203
vertex 61.2358283996582 -2.8499999046325684 13.732813835144043
vertex 60.90169143676758 -2.725446939468384 13.104393005371094
endloop
endfacet
facet normal -0.08092745088958893 -0.9850304894787012 -0.152202767681352
outer loop
vertex 61.356422424316406 -2.5 11.403553009033203
vertex 62.29536819458008 -2.8499999046325684 13.169447898864746
vertex 61.2358283996582 -2.8499999046325684 13.732813835144043
endloop
endfacet
facet normal -0.0809279253403872 -0.9850304819666829 -0.1522025640276304
outer loop
vertex 65.29633331298828 -2.6060538291931152 9.995026588439941
vertex 65.95076751708984 -2.8499999046325684 11.225835800170898
vertex 64.8912353515625 -2.8499999046325684 11.789201736450195
endloop
endfacet
facet normal 0.0 -1.0 0.0
outer loop
vertex 75.0 -112.0 4.0
vertex 82.0 -112.0 7.75
vertex 75.0 -112.0 12.0
endloop
endfacet
facet normal -1.0 0.0 0.0
outer loop
vertex 75.0 -112.0 4.0
vertex 75.0 -112.0 12.0
vertex 75.0 -12.0 8.0
endloop
endfacet
facet normal -1.0 0.0 0.0
outer loop
vertex 75.0 -112.0 4.0
vertex 75.0 -12.0 8.0
vertex 75.0 -12.0 4.0
endloop
endfacet
facet normal 0.0 -1.0 -0.0
outer loop
vertex 75.0 -12.0 12.0
vertex 52.5 -12.0 8.0
vertex 75.0 -12.0 8.0
endloop
endfacet
facet normal -0.0 -0.0 1.0
outer loop
vertex 64.37500762939453 -5.0 9.995026588439941
vertex 69.5584945678711 -5.199999809265137 9.995026588439941
vertex 64.37500762939453 -2.530359983444214 9.995026588439941
endloop
endfacet
facet normal -0.0 -0.0 1.0
outer loop
vertex 64.37500762939453 -2.530359983444214 9.995026588439941
vertex 69.5584945678711 -5.199999809265137 9.995026588439941
vertex 65.29633331298828 -2.6060538291931152 9.995026588439941
endloop
endfacet
facet normal -0.0 -0.0 1.0
outer loop
vertex 65.29633331298828 -2.6060538291931152 9.995026588439941
vertex 69.5584945678711 -5.199999809265137 9.995026588439941
vertex 65.29633331298828 -2.5 9.995026588439941
endloop
endfacet
facet normal -0.0 -0.0 1.0
outer loop
vertex 65.29633331298828 -2.5 9.995026588439941
vertex 69.5584945678711 -5.199999809265137 9.995026588439941
vertex 67.36894226074219 -2.5 9.995026588439941
endloop
endfacet
facet normal -0.0 0.0 1.0
outer loop
vertex 67.36894226074219 -2.5 9.995026588439941
vertex 69.5584945678711 -5.199999809265137 9.995026588439941
vertex 69.5584945678711 5.199999809265137 9.995026588439941
endloop
endfacet
facet normal -0.0 0.5112021172616991 0.8594605257410929
outer loop
vertex 60.90169143676758 -7.17241096496582 11.168205261230469
vertex 74.0244369506836 -7.17241096496582 11.168205261230469
vertex 69.5584945678711 -5.199999809265137 9.995026588439941
endloop
endfacet
facet normal -0.25407414953806834 0.0 0.9671847427128425
outer loop
vertex 69.5584945678711 -5.199999809265137 9.995026588439941
vertex 74.0244369506836 -7.17241096496582 11.168205261230469
vertex 69.5584945678711 5.199999809265137 9.995026588439941
endloop
endfacet
facet normal 0.8829475510103301 3.019504963801275e-06 -0.4694716414819357
outer loop
vertex 65.29633331298828 -2.5 9.995026588439941
vertex 69.23706817626953 -2.5 17.406469345092773
vertex 65.95076751708984 -2.8499999046325684 11.225835800170898
endloop
endfacet
facet normal 0.0 -0.9999999999999999 0.0
outer loop
vertex 65.29633331298828 -2.5 9.995026588439941
vertex 67.36894226074219 -2.5 9.995026588439941
vertex 70.85286712646484 -2.5 16.54733657836914
endloop
endfacet
facet normal -1.0 0.0 0.0
outer loop
vertex 75.0 -112.0 12.0
vertex 75.0 -12.0 12.0
vertex 75.0 -12.0 8.0
endloop
endfacet
facet normal -1.0 -0.0 0.0
outer loop
vertex 52.5 -5.0 15.463973045349121
vertex 52.5 -12.0 8.0
vertex 52.5 -7.0 19.36760139465332
endloop
endfacet
facet normal 0.0 1.0 -0.0
outer loop
vertex 60.90169143676758 -5.0 10.551786422729492
vertex 52.5 -5.0 15.463973045349121
vertex 52.5 -5.0 19.36760139465332
endloop
endfacet
facet normal 0.5047294393566594 -0.0 0.8632775874808243
outer loop
vertex 58.28522872924805 -2.5 12.081543922424316
vertex 58.28522872924805 2.5 12.081543922424316
vertex 52.5 -5.0 15.463973045349121
endloop
endfacet
facet normal -1.0 -0.0 0.0
outer loop
vertex 52.5 -7.0 19.36760139465332
vertex 52.5 -12.0 8.0
vertex 52.5 -12.0 20.0
endloop
endfacet
facet normal 0.0 1.0 -0.0
outer loop
vertex 60.90169143676758 -5.0 10.551786422729492
vertex 52.5 -5.0 19.36760139465332
vertex 60.90169143676758 -5.0 19.36760139465332
endloop
endfacet
facet normal -0.0 -1.0 -0.0
outer loop
vertex 75.0 -12.0 12.0
vertex 52.5 -12.0 20.0
vertex 52.5 -12.0 8.0
endloop
endfacet
facet normal -0.8829473670804114 5.011844323430273e-06 0.4694719873865223
outer loop
vertex 60.90169143676758 -2.725446939468384 13.104393005371094
vertex 61.2358283996582 -2.8499999046325684 13.732813835144043
vertex 60.90169143676758 -2.6361138820648193 13.104392051696777
endloop
endfacet
facet normal 1.0 0.0 0.0
outer loop
vertex 60.90169143676758 -5.0 10.551786422729492
vertex 60.90169143676758 -7.0 19.36760139465332
vertex 60.90169143676758 -7.17241096496582 11.168205261230469
endloop
endfacet
facet normal 0.0 -1.0 0.0
outer loop
vertex 58.28522872924805 -2.5 12.081543922424316
vertex 60.2968864440918 -2.5 11.9669189453125
vertex 64.52213287353516 -2.5 19.913448333740234
endloop
endfacet
facet normal -0.8829475097377399 2.883836227433968e-06 0.4694717191052163
outer loop
vertex 60.2968864440918 -2.5 11.9669189453125
vertex 60.90169143676758 -2.6361138820648193 13.104392051696777
vertex 64.52213287353516 -2.5 19.913448333740234
endloop
endfacet
facet normal -0.0 -1.0 0.0
outer loop
vertex 63.95228958129883 -2.5 10.023306846618652
vertex 68.17753601074219 -2.5 17.969837188720703
vertex 61.356422424316406 -2.5 11.403553009033203
endloop
endfacet
facet normal -0.0 1.0 0.0
outer loop
vertex 60.90169143676758 -7.17241096496582 11.168205261230469
vertex 60.90169143676758 -7.17241096496582 20.0
vertex 74.0244369506836 -7.17241096496582 11.168205261230469
endloop
endfacet
facet normal 0.8829473340386393 3.918460598529363e-06 -0.4694720495393788
outer loop
vertex 61.356422424316406 -2.5 11.403553009033203
vertex 65.58167266845703 -2.5 19.350082397460938
vertex 62.29536819458008 -2.8499999046325684 13.169447898864746
endloop
endfacet
facet normal -0.0 -1.0 0.0
outer loop
vertex 62.29536819458008 -2.8499999046325684 13.169447898864746
vertex 64.05265808105469 -2.8499999046325684 19.030500411987305
vertex 61.2358283996582 -2.8499999046325684 13.732813835144043
endloop
endfacet
facet normal -0.8829474834377623 2.927166949749283e-07 0.46947176857702144
outer loop
vertex 58.28522872924805 -2.5 12.081543922424316
vertex 60.90169143676758 -2.5 17.002391815185547
vertex 60.90169143676758 0.5590887069702148 17.002389907836914
endloop
endfacet
facet normal -0.8829475184761302 3.9387805287187566e-06 0.4694717026630355
outer loop
vertex 60.90169143676758 -2.6361138820648193 13.104392051696777
vertex 61.2358283996582 -2.8499999046325684 13.732813835144043
vertex 64.52213287353516 -2.5 19.913448333740234
endloop
endfacet
facet normal 1.0 0.0 -0.0
outer loop
vertex 60.90169143676758 -5.0 10.551786422729492
vertex 60.90169143676758 -5.0 19.36760139465332
vertex 60.90169143676758 -7.0 19.36760139465332
endloop
endfacet
facet normal -0.0 -1.0 0.0
outer loop
vertex 58.28522872924805 -2.5 12.081543922424316
vertex 64.52213287353516 -2.5 19.913448333740234
vertex 60.90169143676758 -2.5 17.002391815185547
endloop
endfacet
facet normal 1.0 0.0 -0.0
outer loop
vertex 60.90169143676758 -7.17241096496582 11.168205261230469
vertex 60.90169143676758 -7.0 19.36760139465332
vertex 60.90169143676758 -7.17241096496582 20.0
endloop
endfacet
facet normal 0.0 -1.0 0.0
outer loop
vertex 61.356422424316406 -2.5 11.403553009033203
vertex 68.17753601074219 -2.5 17.969837188720703
vertex 65.58167266845703 -2.5 19.350082397460938
endloop
endfacet
facet normal 0.0 -1.0 0.0
outer loop
vertex 62.29536819458008 -2.8499999046325684 13.169447898864746
vertex 65.11219787597656 -2.8499999046325684 18.467134475708008
vertex 64.05265808105469 -2.8499999046325684 19.030500411987305
endloop
endfacet
facet normal 0.8829476092662745 1.0757746925016913e-06 -0.4694715319269239
outer loop
vertex 62.29536819458008 -2.8499999046325684 13.169447898864746
vertex 66.05113983154297 -2.5 20.233028411865234
vertex 65.11219787597656 -2.8499999046325684 18.467134475708008
endloop
endfacet
facet normal 0.8829490665589117 -6.998083707829938e-05 -0.4694687859330255
outer loop
vertex 62.29536819458008 -2.8499999046325684 13.169447898864746
vertex 65.58167266845703 -2.5 19.350082397460938
vertex 66.05113983154297 -2.5 20.233028411865234
endloop
endfacet
facet normal -1.0 0.0 0.0
outer loop
vertex 52.5 -5.0 15.463973045349121
vertex 52.5 -7.0 19.36760139465332
vertex 52.5 -5.0 19.36760139465332
endloop
endfacet
facet normal -1.0 0.0 0.0
outer loop
vertex 52.5 -7.0 19.36760139465332
vertex 52.5 -12.0 20.0
vertex 52.5 -7.0 20.0
endloop
endfacet
facet normal -0.0 1.0 0.0
outer loop
vertex 52.5 -7.0 19.36760139465332
vertex 52.5 -7.0 20.0
vertex 60.90169143676758 -7.0 19.36760139465332
endloop
endfacet
facet normal 0.0 -0.0 1.0
outer loop
vertex 52.5 -7.0 19.36760139465332
vertex 60.90169143676758 -5.0 19.36760139465332
vertex 52.5 -5.0 19.36760139465332
endloop
endfacet
facet normal 0.0 0.0 1.0
outer loop
vertex 52.5 -7.0 19.36760139465332
vertex 60.90169143676758 -7.0 19.36760139465332
vertex 60.90169143676758 -5.0 19.36760139465332
endloop
endfacet
facet normal -0.0 1.0 0.0
outer loop
vertex 52.5 -7.0 20.0
vertex 60.90169143676758 -7.0 20.0
vertex 60.90169143676758 -7.0 19.36760139465332
endloop
endfacet
facet normal -0.0 0.0 1.0
outer loop
vertex 52.5 -7.0 20.0
vertex 60.90169143676758 -7.17241096496582 20.0
vertex 60.90169143676758 -7.0 20.0
endloop
endfacet
facet normal -0.882947559561168 2.9271660570982823e-07 0.4694716254097709
outer loop
vertex 60.90169143676758 -2.5 17.002391815185547
vertex 62.601890563964844 -2.5 20.200000762939453
vertex 60.90169143676758 0.5590887069702148 17.002389907836914
endloop
endfacet
facet normal 1.0 0.0 -0.0
outer loop
vertex 60.90169143676758 -7.0 19.36760139465332
vertex 60.90169143676758 -7.0 20.0
vertex 60.90169143676758 -7.17241096496582 20.0
endloop
endfacet
facet normal -0.8829476092660454 -1.2947394613737319e-06 0.46947153192680213
outer loop
vertex 61.2358283996582 -2.8499999046325684 13.732813835144043
vertex 64.05265808105469 -2.8499999046325684 19.030500411987305
vertex 64.67449188232422 -2.5 20.200000762939453
endloop
endfacet
facet normal -0.8829521986996868 0.00020410657197439435 0.46946285598745296
outer loop
vertex 61.2358283996582 -2.8499999046325684 13.732813835144043
vertex 64.67449188232422 -2.5 20.200000762939453
vertex 64.52213287353516 -2.5 19.913448333740234
endloop
endfacet
facet normal 0.0 -1.0 0.0
outer loop
vertex 60.90169143676758 -2.5 17.002391815185547
vertex 64.52213287353516 -2.5 19.913448333740234
vertex 62.601890563964844 -2.5 20.200000762939453
endloop
endfacet
facet normal 0.0809275761738115 -0.985030442777723 0.15220300330727632
outer loop
vertex 65.11219787597656 -2.8499999046325684 18.467134475708008
vertex 64.67449188232422 -2.6182050704956055 20.200000762939453
vertex 64.05265808105469 -2.8499999046325684 19.030500411987305
endloop
endfacet
facet normal -0.8829477698847401 0.0 0.46947122984860756
outer loop
vertex 64.05265808105469 -2.8499999046325684 19.030500411987305
vertex 64.67449188232422 -2.6182050704956055 20.200000762939453
vertex 64.67449188232422 -2.5 20.200000762939453
endloop
endfacet
facet normal 0.0809273724858974 -0.9850304669621196 0.15220295509259107
outer loop
vertex 65.11219787597656 -2.8499999046325684 18.467134475708008
vertex 64.9916000366211 -2.5 20.79639434814453
vertex 64.67449188232422 -2.6182050704956055 20.200000762939453
endloop
endfacet
facet normal 0.08092755426218379 -0.9850304509455122 0.15220296209739828
outer loop
vertex 65.11219787597656 -2.8499999046325684 18.467134475708008
vertex 66.05113983154297 -2.5 20.233028411865234
vertex 64.9916000366211 -2.5 20.79639434814453
endloop
endfacet
facet normal 0.0 -1.0 0.0
outer loop
vertex 62.601890563964844 -2.5 20.200000762939453
vertex 64.52213287353516 -2.5 19.913448333740234
vertex 62.90633773803711 -2.5 20.772581100463867
endloop
endfacet
facet normal 0.1743576361857434 -0.9284763559937411 0.3279193057206356
outer loop
vertex 62.90633773803711 -2.5 20.772581100463867
vertex 64.52213287353516 -2.5 19.913448333740234
vertex 64.35478973388672 -2.430220603942871 20.200000762939453
endloop
endfacet
facet normal -0.8829470762331622 0.0 0.4694725344163495
outer loop
vertex 62.601890563964844 -2.5 20.200000762939453
vertex 62.90633773803711 -2.5 20.772581100463867
vertex 62.90633773803711 2.5 20.772581100463867
endloop
endfacet
facet normal 0.17435893719716766 -0.9284758839382682 0.3279199505436132
outer loop
vertex 64.52213287353516 -2.5 19.913448333740234
vertex 64.63949584960938 -2.4000000953674316 20.134185791015625
vertex 64.35478973388672 -2.430220603942871 20.200000762939453
endloop
endfacet
facet normal -0.8829490680861033 -3.8159031060299784e-05 0.46946878672577386
outer loop
vertex 64.52213287353516 -2.5 19.913448333740234
vertex 64.67449188232422 -2.4429638385772705 20.200000762939453
vertex 64.63949584960938 -2.4000000953674316 20.134185791015625
endloop
endfacet
facet normal -0.8829522170913577 0.0 0.46946286576624546
outer loop
vertex 64.52213287353516 -2.5 19.913448333740234
vertex 64.67449188232422 -2.5 20.200000762939453
vertex 64.67449188232422 -2.4429638385772705 20.200000762939453
endloop
endfacet
facet normal 0.174358322560332 -0.9284755804865291 0.3279211365468078
outer loop
vertex 62.90633773803711 -2.5 20.772581100463867
vertex 64.35478973388672 -2.430220603942871 20.200000762939453
vertex 64.72325134277344 -2.361027240753174 20.200000762939453
endloop
endfacet
facet normal 0.17435853442418772 -0.9284767086828408 0.32791782950447906
outer loop
vertex 64.63949584960938 -2.4000000953674316 20.134185791015625
vertex 64.72325134277344 -2.361027240753174 20.200000762939453
vertex 64.35478973388672 -2.430220603942871 20.200000762939453
endloop
endfacet
facet normal -0.8829490680722513 -3.815897986219724e-05 0.46946878675183024
outer loop
vertex 64.63949584960938 -2.4000000953674316 20.134185791015625
vertex 64.67449188232422 -2.4429638385772705 20.200000762939453
vertex 64.9916000366211 -2.5 20.79639434814453
endloop
endfacet
facet normal -0.8829475560003762 0.0 0.46947163210673637
outer loop
vertex 64.67449188232422 -2.4429638385772705 20.200000762939453
vertex 64.67449188232422 -2.5 20.200000762939453
vertex 64.9916000366211 -2.5 20.79639434814453
endloop
endfacet
facet normal -0.8829475560003761 0.0 0.4694716321067363
outer loop
vertex 64.67449188232422 -2.6182050704956055 20.200000762939453
vertex 64.9916000366211 -2.5 20.79639434814453
vertex 64.67449188232422 -2.5 20.200000762939453
endloop
endfacet
facet normal -0.0 0.9999999999999999 0.0
outer loop
vertex 64.63949584960938 -2.4000000953674316 20.134185791015625
vertex 65.33585357666016 -2.4000000953674316 20.200000762939453
vertex 65.69903564453125 -2.4000000953674316 19.570817947387695
endloop
endfacet
facet normal -0.0 1.0 0.0
outer loop
vertex 64.63949584960938 -2.4000000953674316 20.134185791015625
vertex 64.9916000366211 -2.4000000953674316 20.79639434814453
vertex 65.33585357666016 -2.4000000953674316 20.200000762939453
endloop
endfacet
facet normal -0.0 1.0 -0.0
outer loop
vertex 65.33585357666016 -2.4000000953674316 20.200000762939453
vertex 64.9916000366211 -2.4000000953674316 20.79639434814453
vertex 66.05113983154297 -2.4000000953674316 20.233028411865234
endloop
endfacet
facet normal -0.8829466801073607 0.0 0.46947327941789235
outer loop
vertex 64.63949584960938 -2.4000000953674316 20.134185791015625
vertex 64.9916000366211 -2.5 20.79639434814453
vertex 64.9916000366211 -2.4000000953674316 20.79639434814453
endloop
endfacet
facet normal 0.4694706754108997 0.0 0.882948064684007
outer loop
vertex 64.9916000366211 -2.4000000953674316 20.79639434814453
vertex 64.9916000366211 -2.5 20.79639434814453
vertex 66.05113983154297 -2.4000000953674316 20.233028411865234
endloop
endfacet
facet normal -0.6454396243596391 0.0 0.7638112929948654
outer loop
vertex 62.90633773803711 -2.5 20.772581100463867
vertex 64.5516357421875 -1.7000000476837158 22.162899017333984
vertex 64.5516357421875 1.7000000476837158 22.162899017333984
endloop
endfacet
facet normal -0.8829475330784665 -6.341255458927286e-06 0.4694716751737413
outer loop
vertex 63.95228958129883 -2.5 10.023306846618652
vertex 64.8912353515625 -2.8499999046325684 11.789201736450195
vertex 68.17753601074219 -2.5 17.969837188720703
endloop
endfacet
facet normal 0.0 -1.0 0.0
outer loop
vertex 64.8912353515625 -2.8499999046325684 11.789201736450195
vertex 65.95076751708984 -2.8499999046325684 11.225835800170898
vertex 67.70806121826172 -2.8499999046325684 17.08688735961914
endloop
endfacet
facet normal 0.0 -0.9999999999999999 0.0
outer loop
vertex 65.29633331298828 -2.5 9.995026588439941
vertex 70.85286712646484 -2.5 16.54733657836914
vertex 69.23706817626953 -2.5 17.406469345092773
endloop
endfacet
facet normal 0.0 -1.0 0.0
outer loop
vertex 65.95076751708984 -2.8499999046325684 11.225835800170898
vertex 68.7676010131836 -2.8499999046325684 16.523521423339844
vertex 67.70806121826172 -2.8499999046325684 17.08688735961914
endloop
endfacet
facet normal 0.8829473106672531 7.268383255697143e-06 -0.46947209345459073
outer loop
vertex 65.95076751708984 -2.8499999046325684 11.225835800170898
vertex 69.70654296875 -2.5 18.289417266845703
vertex 68.7676010131836 -2.8499999046325684 16.523521423339844
endloop
endfacet
facet normal 0.8829476015220662 0.0 -0.46947154649289496
outer loop
vertex 67.36894226074219 -2.5 9.995026588439941
vertex 70.85286712646484 2.5 16.54733657836914
vertex 70.85286712646484 -2.5 16.54733657836914
endloop
endfacet
facet normal -0.8829478377781588 -8.528050560351845e-07 0.46947110215874516
outer loop
vertex 64.8912353515625 -2.8499999046325684 11.789201736450195
vertex 67.70806121826172 -2.8499999046325684 17.08688735961914
vertex 68.64700317382812 -2.5 18.852783203125
endloop
endfacet
facet normal -0.8829490671801007 5.907825211089549e-05 0.46946878626331506
outer loop
vertex 64.8912353515625 -2.8499999046325684 11.789201736450195
vertex 68.64700317382812 -2.5 18.852783203125
vertex 68.17753601074219 -2.5 17.969837188720703
endloop
endfacet
facet normal 0.8829463252340374 5.518169249563098e-05 -0.46947394359079225
outer loop
vertex 65.95076751708984 -2.8499999046325684 11.225835800170898
vertex 69.23706817626953 -2.5 17.406469345092773
vertex 69.70654296875 -2.5 18.289417266845703
endloop
endfacet
facet normal 0.08092748814246718 -0.9850304755923168 0.15220283774399587
outer loop
vertex 68.7676010131836 -2.8499999046325684 16.523521423339844
vertex 68.64700317382812 -2.5 18.852783203125
vertex 67.70806121826172 -2.8499999046325684 17.08688735961914
endloop
endfacet
facet normal 0.0 1.0 -0.0
outer loop
vertex 74.0244369506836 -7.17241096496582 11.168205261230469
vertex 60.90169143676758 -7.17241096496582 20.0
vertex 74.0244369506836 -7.17241096496582 20.0
endloop
endfacet
facet normal 0.1743557158313714 -0.9284777187544104 0.32791646822557696
outer loop
vertex 69.23706817626953 -2.5 17.406469345092773
vertex 70.85286712646484 -2.5 16.54733657836914
vertex 69.35443878173828 -2.4000000953674316 17.627206802368164
endloop
endfacet
facet normal 0.1743574450423847 -0.9284765837177774 0.32791876257094016
outer loop
vertex 70.85286712646484 -2.5 16.54733657836914
vertex 71.08544921875 -1.7000000476837158 18.68880844116211
vertex 69.35443878173828 -2.4000000953674316 17.627206802368164
endloop
endfacet
facet normal 0.994153764827807 0.0 -0.10797357027855119
outer loop
vertex 70.85286712646484 -2.5 16.54733657836914
vertex 70.85286712646484 2.5 16.54733657836914
vertex 71.08544921875 -1.7000000476837158 18.68880844116211
endloop
endfacet
facet normal 0.0 -1.0 0.0
outer loop
vertex 75.0 -12.0 12.0
vertex 97.5 -12.0 20.0
vertex 52.5 -12.0 20.0
endloop
endfacet
facet normal -1.0 0.0 0.0
outer loop
vertex 74.0244369506836 -7.17241096496582 11.168205261230469
vertex 74.0244369506836 -7.17241096496582 20.0
vertex 74.0244369506836 12.0 20.0
endloop
endfacet
facet normal 0.1743593392168929 -0.9284750212240949 0.3279221794736748
outer loop
vertex 65.58167266845703 -2.5 19.350082397460938
vertex 68.17753601074219 -2.5 17.969837188720703
vertex 68.2948989868164 -2.4000000953674316 18.19057273864746
endloop
endfacet
facet normal -0.8829490683444138 -2.920465857468725e-05 0.4694687868823866
outer loop
vertex 68.17753601074219 -2.5 17.969837188720703
vertex 68.64700317382812 -2.5 18.852783203125
vertex 68.2948989868164 -2.4000000953674316 18.19057273864746
endloop
endfacet
facet normal -0.0 1.0 0.0
outer loop
vertex 68.2948989868164 -2.4000000953674316 18.19057273864746
vertex 68.64700317382812 -2.4000000953674316 18.852783203125
vertex 69.35443878173828 -2.4000000953674316 17.627206802368164
endloop
endfacet
facet normal -0.88294724062601 0.0 0.4694722252390599
outer loop
vertex 68.2948989868164 -2.4000000953674316 18.19057273864746
vertex 68.64700317382812 -2.5 18.852783203125
vertex 68.64700317382812 -2.4000000953674316 18.852783203125
endloop
endfacet
facet normal 0.1743593392168929 -0.9284750212240949 0.3279221794736748
outer loop
vertex 65.58167266845703 -2.5 19.350082397460938
vertex 68.2948989868164 -2.4000000953674316 18.19057273864746
vertex 65.69903564453125 -2.4000000953674316 19.570817947387695
endloop
endfacet
facet normal 0.8829490683444138 2.920465857468725e-05 -0.4694687868823866
outer loop
vertex 65.58167266845703 -2.5 19.350082397460938
vertex 65.69903564453125 -2.4000000953674316 19.570817947387695
vertex 66.05113983154297 -2.5 20.233028411865234
endloop
endfacet
facet normal 0.17435699511340244 -0.9284774803042294 0.327916463177643
outer loop
vertex 62.90633773803711 -2.5 20.772581100463867
vertex 64.72325134277344 -2.361027240753174 20.200000762939453
vertex 71.08544921875 -1.7000000476837158 18.68880844116211
endloop
endfacet
facet normal 0.17435733996882263 -0.9284768203095598 0.32791814854753865
outer loop
vertex 64.63949584960938 -2.4000000953674316 20.134185791015625
vertex 65.69903564453125 -2.4000000953674316 19.570817947387695
vertex 71.08544921875 -1.7000000476837158 18.68880844116211
endloop
endfacet
facet normal 0.17435749793293565 -0.9284764843815138 0.3279190157113661
outer loop
vertex 64.63949584960938 -2.4000000953674316 20.134185791015625
vertex 71.08544921875 -1.7000000476837158 18.68880844116211
vertex 64.72325134277344 -2.361027240753174 20.200000762939453
endloop
endfacet
facet normal 0.17435737973639456 -0.9284766907548796 0.3279184942273408
outer loop
vertex 68.2948989868164 -2.4000000953674316 18.19057273864746
vertex 71.08544921875 -1.7000000476837158 18.68880844116211
vertex 65.69903564453125 -2.4000000953674316 19.570817947387695
endloop
endfacet
facet normal 0.08092748814246718 -0.9850304755923168 0.15220283774399587
outer loop
vertex 68.7676010131836 -2.8499999046325684 16.523521423339844
vertex 69.70654296875 -2.5 18.289417266845703
vertex 68.64700317382812 -2.5 18.852783203125
endloop
endfacet
facet normal 0.8829463264841981 -1.460225239816548e-05 -0.46947394425551886
outer loop
vertex 69.23706817626953 -2.5 17.406469345092773
vertex 69.35443878173828 -2.4000000953674316 17.627206802368164
vertex 69.70654296875 -2.5 18.289417266845703
endloop
endfacet
facet normal 0.88294724062601 0.0 -0.4694722252390599
outer loop
vertex 69.35443878173828 -2.4000000953674316 17.627206802368164
vertex 69.70654296875 -2.4000000953674316 18.289417266845703
vertex 69.70654296875 -2.5 18.289417266845703
endloop
endfacet
facet normal 0.17435723503707848 -0.9284765176110125 0.32791906140868365
outer loop
vertex 68.2948989868164 -2.4000000953674316 18.19057273864746
vertex 69.35443878173828 -2.4000000953674316 17.627206802368164
vertex 71.08544921875 -1.7000000476837158 18.68880844116211
endloop
endfacet
facet normal 0.0 1.0 0.0
outer loop
vertex 68.64700317382812 -2.4000000953674316 18.852783203125
vertex 69.70654296875 -2.4000000953674316 18.289417266845703
vertex 69.35443878173828 -2.4000000953674316 17.627206802368164
endloop
endfacet
facet normal 0.4694706754108997 0.0 0.882948064684007
outer loop
vertex 68.64700317382812 -2.5 18.852783203125
vertex 69.70654296875 -2.4000000953674316 18.289417266845703
vertex 68.64700317382812 -2.4000000953674316 18.852783203125
endloop
endfacet
facet normal 0.4694706754108997 -0.0 0.882948064684007
outer loop
vertex 68.64700317382812 -2.5 18.852783203125
vertex 69.70654296875 -2.5 18.289417266845703
vertex 69.70654296875 -2.4000000953674316 18.289417266845703
endloop
endfacet
facet normal -0.0 1.0 0.0
outer loop
vertex 65.33585357666016 -2.4000000953674316 20.200000762939453
vertex 66.05113983154297 -2.4000000953674316 20.233028411865234
vertex 65.69903564453125 -2.4000000953674316 19.570817947387695
endloop
endfacet
facet normal 0.88294724062601 0.0 -0.4694722252390599
outer loop
vertex 65.69903564453125 -2.4000000953674316 19.570817947387695
vertex 66.05113983154297 -2.4000000953674316 20.233028411865234
vertex 66.05113983154297 -2.5 20.233028411865234
endloop
endfacet
facet normal 0.4694706754108997 -0.0 0.882948064684007
outer loop
vertex 64.9916000366211 -2.5 20.79639434814453
vertex 66.05113983154297 -2.5 20.233028411865234
vertex 66.05113983154297 -2.4000000953674316 20.233028411865234
endloop
endfacet
facet normal 0.17435747667724102 -0.9284766033900178 0.32791869004995916
outer loop
vertex 62.90633773803711 -2.5 20.772581100463867
vertex 71.08544921875 -1.7000000476837158 18.68880844116211
vertex 64.5516357421875 -1.7000000476837158 22.162899017333984
endloop
endfacet
facet normal 0.4694715971267608 0.0 0.8829475745995615
outer loop
vertex 64.5516357421875 -1.7000000476837158 22.162899017333984
vertex 71.08544921875 -1.7000000476837158 18.68880844116211
vertex 64.5516357421875 1.7000000476837158 22.162899017333984
endloop
endfacet
facet normal 0.0 -0.0 1.0
outer loop
vertex 52.5 -12.0 20.0
vertex 97.5 -12.0 20.0
vertex 52.5 -7.0 20.0
endloop
endfacet
facet normal -0.0 -0.0 1.0
outer loop
vertex 52.5 -7.0 20.0
vertex 97.5 -12.0 20.0
vertex 60.90169143676758 -7.17241096496582 20.0
endloop
endfacet
facet normal -0.0 -0.0 1.0
outer loop
vertex 60.90169143676758 -7.17241096496582 20.0
vertex 97.5 -12.0 20.0
vertex 74.0244369506836 -7.17241096496582 20.0
endloop
endfacet
facet normal -1.0 -0.0 -0.0
outer loop
vertex 52.5 5.0 15.463973045349121
vertex 52.5 12.0 8.0
vertex 52.5 -12.0 8.0
endloop
endfacet
facet normal 0.0 1.0 -0.0
outer loop
vertex 60.90169143676758 12.0 11.134685516357422
vertex 52.5 12.0 8.0
vertex 52.5 12.0 19.36760139465332
endloop
endfacet
facet normal 0.5047294046123116 -1.0788565804630972e-07 0.8632776077946709
outer loop
vertex 58.28522872924805 2.5 12.081543922424316
vertex 60.90169143676758 5.0 10.551786422729492
vertex 52.5 5.0 15.463973045349121
endloop
endfacet
facet normal 1.0 0.0 -0.0
outer loop
vertex 60.90169143676758 2.5 9.995026588439941
vertex 60.90169143676758 5.199999809265137 9.995026588439941
vertex 60.90169143676758 2.5 10.551786422729492
endloop
endfacet
facet normal 0.0 -0.0 1.0
outer loop
vertex 60.90169143676758 2.5 9.995026588439941
vertex 61.85396194458008 2.5 9.995026588439941
vertex 60.90169143676758 5.199999809265137 9.995026588439941
endloop
endfacet
facet normal -0.0 1.0 0.0
outer loop
vertex 60.90169143676758 2.5 9.995026588439941
vertex 60.90169143676758 2.5 10.551786422729492
vertex 61.85396194458008 2.5 9.995026588439941
endloop
endfacet
facet normal -0.0 0.0 1.0
outer loop
vertex 60.90169143676758 5.199999809265137 9.995026588439941
vertex 61.85396194458008 2.5 9.995026588439941
vertex 61.85396194458008 2.9263455867767334 9.995026588439941
endloop
endfacet
facet normal -0.0 1.0 -0.0
outer loop
vertex 61.85396194458008 2.5 9.995026588439941
vertex 61.356422424316406 2.5 11.403553009033203
vertex 63.77714538574219 2.5 8.87060546875
endloop
endfacet
facet normal -0.0 0.0 0.9999999999999999
outer loop
vertex 60.90169143676758 5.199999809265137 9.995026588439941
vertex 61.85396194458008 2.9263455867767334 9.995026588439941
vertex 61.85396194458008 5.0 9.995026588439941
endloop
endfacet
facet normal 0.0 1.0 -0.0
outer loop
vertex 61.85396194458008 2.5 9.995026588439941
vertex 60.90169143676758 2.5 10.551786422729492
vertex 61.356422424316406 2.5 11.403553009033203
endloop
endfacet
facet normal 1.0 0.0 0.0
outer loop
vertex 60.90169143676758 5.199999809265137 9.995026588439941
vertex 60.90169143676758 5.0 10.551786422729492
vertex 60.90169143676758 2.5 10.551786422729492
endloop
endfacet
facet normal 0.5047295368073149 -0.0 0.8632775305046885
outer loop
vertex 61.85396194458008 2.9263455867767334 9.995026588439941
vertex 63.77714538574219 2.5 8.87060546875
vertex 63.77714538574219 5.0 8.87060546875
endloop
endfacet
facet normal 0.5047295368073149 0.0 0.8632775305046885
outer loop
vertex 61.85396194458008 2.5 9.995026588439941
vertex 63.77714538574219 2.5 8.87060546875
vertex 61.85396194458008 2.9263455867767334 9.995026588439941
endloop
endfacet
facet normal 0.5047295368073149 0.0 0.8632775305046886
outer loop
vertex 61.85396194458008 2.9263455867767334 9.995026588439941
vertex 63.77714538574219 5.0 8.87060546875
vertex 61.85396194458008 5.0 9.995026588439941
endloop
endfacet
facet normal -0.8829476112239156 0.0 0.46947152824636884
outer loop
vertex 63.77714538574219 2.5 8.87060546875
vertex 64.29356384277344 2.5 9.84184741973877
vertex 63.77714538574219 5.0 8.87060546875
endloop
endfacet
facet normal -0.0 1.0 0.0
outer loop
vertex 63.77714538574219 2.5 8.87060546875
vertex 63.95228958129883 2.5 10.023306846618652
vertex 64.15521240234375 2.5 9.915410041809082
endloop
endfacet
facet normal 0.0 -1.0 0.0
outer loop
vertex 61.85396194458008 5.0 9.995026588439941
vertex 63.77714538574219 5.0 8.87060546875
vertex 64.37500762939453 5.0 9.995026588439941
endloop
endfacet
facet normal -0.0 1.0 0.0
outer loop
vertex 63.77714538574219 2.5 8.87060546875
vertex 64.15521240234375 2.5 9.915410041809082
vertex 64.29356384277344 2.5 9.84184741973877
endloop
endfacet
facet normal -0.8829485924161696 -9.195987217014982e-07 0.4694696828864021
outer loop
vertex 63.77714538574219 5.0 8.87060546875
vertex 64.29356384277344 2.5 9.84184741973877
vertex 64.37500762939453 5.0 9.995026588439941
endloop
endfacet
facet normal -0.0 1.0 -0.0
outer loop
vertex 63.77714538574219 2.5 8.87060546875
vertex 61.356422424316406 2.5 11.403553009033203
vertex 63.95228958129883 2.5 10.023306846618652
endloop
endfacet
facet normal -0.0 0.9999999999999999 0.0
outer loop
vertex 60.90169143676758 12.0 11.134685516357422
vertex 73.89683532714844 12.0 11.134685516357422
vertex 52.5 12.0 8.0
endloop
endfacet
facet normal -0.08092794768963257 0.9850303153734044 -0.1522036303053098
outer loop
vertex 64.15521240234375 2.5 9.915410041809082
vertex 64.37500762939453 2.530359983444214 9.995026588439941
vertex 64.29356384277344 2.5 9.84184741973877
endloop
endfacet
facet normal -0.8829548136898066 0.0 0.4694579821261953
outer loop
vertex 64.29356384277344 2.5 9.84184741973877
vertex 64.37500762939453 2.530359983444214 9.995026588439941
vertex 64.37500762939453 5.0 9.995026588439941
endloop
endfacet
facet normal -0.08092818830790392 0.985030451868092 -0.1522026189976471
outer loop
vertex 63.95228958129883 2.5 10.023306846618652
vertex 64.09300231933594 2.5071909427642822 9.995026588439941
vertex 64.15521240234375 2.5 9.915410041809082
endloop
endfacet
facet normal -0.08092829915738163 0.9850304296871464 -0.15220270360886906
outer loop
vertex 64.15521240234375 2.5 9.915410041809082
vertex 64.09300231933594 2.5071909427642822 9.995026588439941
vertex 64.37500762939453 2.530359983444214 9.995026588439941
endloop
endfacet
facet normal -0.0 0.0 1.0
outer loop
vertex 60.90169143676758 5.199999809265137 9.995026588439941
vertex 61.85396194458008 5.0 9.995026588439941
vertex 69.5584945678711 5.199999809265137 9.995026588439941
endloop
endfacet
facet normal 0.0 0.0 1.0
outer loop
vertex 61.85396194458008 5.0 9.995026588439941
vertex 64.37500762939453 5.0 9.995026588439941
vertex 69.5584945678711 5.199999809265137 9.995026588439941
endloop
endfacet
facet normal -0.0809281458472369 0.9850304894786958 -0.15220239816471215
outer loop
vertex 63.95228958129883 2.5 10.023306846618652
vertex 64.8912353515625 2.8499999046325684 11.789201736450195
vertex 64.09300231933594 2.5071909427642822 9.995026588439941
endloop
endfacet
facet normal -0.08092830390055764 0.9850304874193951 -0.1522023274529267
outer loop
vertex 64.09300231933594 2.5071909427642822 9.995026588439941
vertex 64.8912353515625 2.8499999046325684 11.789201736450195
vertex 64.37500762939453 2.530359983444214 9.995026588439941
endloop
endfacet
facet normal -0.08092767485773258 0.985030481966698 -0.15220269721189558
outer loop
vertex 64.37500762939453 2.530359983444214 9.995026588439941
vertex 65.95076751708984 2.8499999046325684 11.225835800170898
vertex 65.29633331298828 2.6060538291931152 9.995026588439941
endloop
endfacet
facet normal 0.8829471950903003 0.0 -0.46947231087910957
outer loop
vertex 65.29633331298828 2.5 9.995026588439941
vertex 65.29633331298828 2.6060538291931152 9.995026588439941
vertex 65.95076751708984 2.8499999046325684 11.225835800170898
endloop
endfacet
facet normal 0.0 -0.165291558719156 0.9862447468129765
outer loop
vertex 60.90169143676758 5.199999809265137 9.995026588439941
vertex 73.89683532714844 12.0 11.134685516357422
vertex 60.90169143676758 12.0 11.134685516357422
endloop
endfacet
facet normal 0.5047293277895096 -0.0 0.8632776527103836
outer loop
vertex 58.28522872924805 2.5 12.081543922424316
vertex 60.90169143676758 2.5 10.551786422729492
vertex 60.90169143676758 5.0 10.551786422729492
endloop
endfacet
facet normal 0.0 1.0 0.0
outer loop
vertex 58.28522872924805 2.5 12.081543922424316
vertex 60.2968864440918 2.5 11.9669189453125
vertex 60.90169143676758 2.5 10.551786422729492
endloop
endfacet
facet normal -0.0 1.0 -0.0
outer loop
vertex 60.90169143676758 2.5 10.551786422729492
vertex 60.2968864440918 2.5 11.9669189453125
vertex 61.356422424316406 2.5 11.403553009033203
endloop
endfacet
facet normal -0.8829474041753026 -5.011843578651713e-06 0.4694719176212526
outer loop
vertex 60.2968864440918 2.5 11.9669189453125
vertex 60.90169143676758 2.6361138820648193 13.104392051696777
vertex 60.90169143676758 2.725446939468384 13.104393005371094
endloop
endfacet
facet normal -0.08092770727559918 0.9850304785801876 -0.1522027018919236
outer loop
vertex 61.356422424316406 2.5 11.403553009033203
vertex 60.2968864440918 2.5 11.9669189453125
vertex 60.90169143676758 2.725446939468384 13.104393005371094
endloop
endfacet
facet normal -0.08092806288650894 0.9850304355546254 -0.15220279126383346
outer loop
vertex 61.356422424316406 2.5 11.403553009033203
vertex 60.90169143676758 2.725446939468384 13.104393005371094
vertex 61.2358283996582 2.8499999046325684 13.732813835144043
endloop
endfacet
facet normal -0.08092745088958893 0.9850304894787012 -0.152202767681352
outer loop
vertex 61.356422424316406 2.5 11.403553009033203
vertex 61.2358283996582 2.8499999046325684 13.732813835144043
vertex 62.29536819458008 2.8499999046325684 13.169447898864746
endloop
endfacet
facet normal -0.08092786778611115 0.9850305034204894 -0.15220245578429725
outer loop
vertex 64.37500762939453 2.530359983444214 9.995026588439941
vertex 64.8912353515625 2.8499999046325684 11.789201736450195
vertex 65.95076751708984 2.8499999046325684 11.225835800170898
endloop
endfacet
facet normal -1.0 0.0 0.0
outer loop
vertex 75.0 112.0 4.0
vertex 75.0 12.0 4.0
vertex 75.0 12.0 8.0
endloop
endfacet
facet normal -1.0 -0.0 -0.0
outer loop
vertex 75.0 12.0 12.0
vertex 75.0 112.0 4.0
vertex 75.0 12.0 8.0
endloop
endfacet
facet normal 0.0 1.0 0.0
outer loop
vertex 73.89683532714844 12.0 11.134685516357422
vertex 75.0 12.0 8.0
vertex 52.5 12.0 8.0
endloop
endfacet
facet normal 0.0 -0.0 1.0
outer loop
vertex 65.29633331298828 2.5 9.995026588439941
vertex 67.36894226074219 2.5 9.995026588439941
vertex 65.29633331298828 2.6060538291931152 9.995026588439941
endloop
endfacet
facet normal 0.0 0.0 1.0
outer loop
vertex 64.37500762939453 2.530359983444214 9.995026588439941
vertex 65.29633331298828 2.6060538291931152 9.995026588439941
vertex 69.5584945678711 5.199999809265137 9.995026588439941
endloop
endfacet
facet normal 0.0 -0.0 1.0
outer loop
vertex 64.37500762939453 2.530359983444214 9.995026588439941
vertex 69.5584945678711 5.199999809265137 9.995026588439941
vertex 64.37500762939453 5.0 9.995026588439941
endloop
endfacet
facet normal -0.0 0.0 1.0
outer loop
vertex 65.29633331298828 2.6060538291931152 9.995026588439941
vertex 67.36894226074219 2.5 9.995026588439941
vertex 69.5584945678711 5.199999809265137 9.995026588439941
endloop
endfacet
facet normal 0.0 -0.0 1.0
outer loop
vertex 67.36894226074219 -2.5 9.995026588439941
vertex 69.5584945678711 5.199999809265137 9.995026588439941
vertex 67.36894226074219 2.5 9.995026588439941
endloop
endfacet
facet normal 0.0 -0.165291558719156 0.9862447468129764
outer loop
vertex 60.90169143676758 5.199999809265137 9.995026588439941
vertex 69.5584945678711 5.199999809265137 9.995026588439941
vertex 73.89683532714844 12.0 11.134685516357422
endloop
endfacet
facet normal 0.8829475510103301 -3.019504963801275e-06 -0.4694716414819357
outer loop
vertex 65.29633331298828 2.5 9.995026588439941
vertex 65.95076751708984 2.8499999046325684 11.225835800170898
vertex 69.23706817626953 2.5 17.406469345092773
endloop
endfacet
facet normal -0.0 0.9999999999999999 0.0
outer loop
vertex 65.29633331298828 2.5 9.995026588439941
vertex 69.23706817626953 2.5 17.406469345092773
vertex 67.36894226074219 2.5 9.995026588439941
endloop
endfacet
facet normal 0.8829476015220662 0.0 -0.46947154649289496
outer loop
vertex 67.36894226074219 -2.5 9.995026588439941
vertex 67.36894226074219 2.5 9.995026588439941
vertex 70.85286712646484 2.5 16.54733657836914
endloop
endfacet
facet normal -0.2540741495380683 0.0 0.9671847427128425
outer loop
vertex 74.0244369506836 -7.17241096496582 11.168205261230469
vertex 74.0244369506836 12.0 11.168205261230469
vertex 69.5584945678711 5.199999809265137 9.995026588439941
endloop
endfacet
facet normal -0.2540705708463361 -2.512518675550017e-06 0.9671856828052741
outer loop
vertex 69.5584945678711 5.199999809265137 9.995026588439941
vertex 74.0244369506836 12.0 11.168205261230469
vertex 73.89683532714844 12.0 11.134685516357422
endloop
endfacet
facet normal -0.0 1.0 0.0
outer loop
vertex 73.89683532714844 12.0 11.134685516357422
vertex 74.0244369506836 12.0 11.168205261230469
vertex 75.0 12.0 8.0
endloop
endfacet
facet normal -0.0 1.0 0.0
outer loop
vertex 74.0244369506836 12.0 11.168205261230469
vertex 74.0244369506836 12.0 20.0
vertex 75.0 12.0 8.0
endloop
endfacet
facet normal -0.0 1.0 0.0
outer loop
vertex 75.0 112.0 4.0
vertex 75.0 112.0 12.0
vertex 82.0 112.0 7.75
endloop
endfacet
facet normal -1.0 0.0 0.0
outer loop
vertex 75.0 12.0 12.0
vertex 75.0 112.0 12.0
vertex 75.0 112.0 4.0
endloop
endfacet
facet normal -1.0 0.0 0.0
outer loop
vertex 52.5 5.0 15.463973045349121
vertex 52.5 5.0 19.36760139465332
vertex 52.5 12.0 8.0
endloop
endfacet
facet normal 0.5047294393566594 0.0 0.8632775874808243
outer loop
vertex 52.5 -5.0 15.463973045349121
vertex 58.28522872924805 2.5 12.081543922424316
vertex 52.5 5.0 15.463973045349121
endloop
endfacet
facet normal -0.0 -1.0 0.0
outer loop
vertex 60.90169143676758 5.0 10.551786422729492
vertex 60.90169143676758 5.0 19.36760139465332
vertex 52.5 5.0 15.463973045349121
endloop
endfacet
facet normal -1.0 0.0 0.0
outer loop
vertex 52.5 5.0 19.36760139465332
vertex 52.5 12.0 19.36760139465332
vertex 52.5 12.0 8.0
endloop
endfacet
facet normal 0.0 1.0 -0.0
outer loop
vertex 60.90169143676758 12.0 11.134685516357422
vertex 52.5 12.0 19.36760139465332
vertex 60.90169143676758 12.0 19.36760139465332
endloop
endfacet
facet normal -0.8829474834378003 0.0 0.46947176857704165
outer loop
vertex 58.28522872924805 -2.5 12.081543922424316
vertex 60.90169143676758 2.5 17.002391815185547
vertex 58.28522872924805 2.5 12.081543922424316
endloop
endfacet
facet normal -0.0 0.9999999999999999 0.0
outer loop
vertex 58.28522872924805 2.5 12.081543922424316
vertex 60.90169143676758 2.5 17.002391815185547
vertex 60.2968864440918 2.5 11.9669189453125
endloop
endfacet
facet normal -0.8829473670804114 -5.011844323430273e-06 0.4694719873865223
outer loop
vertex 60.90169143676758 2.6361138820648193 13.104392051696777
vertex 61.2358283996582 2.8499999046325684 13.732813835144043
vertex 60.90169143676758 2.725446939468384 13.104393005371094
endloop
endfacet
facet normal 1.0 0.0 -0.0
outer loop
vertex 60.90169143676758 5.199999809265137 9.995026588439941
vertex 60.90169143676758 12.0 19.36760139465332
vertex 60.90169143676758 5.0 10.551786422729492
endloop
endfacet
facet normal 1.0 0.0 0.0
outer loop
vertex 60.90169143676758 5.199999809265137 9.995026588439941
vertex 60.90169143676758 12.0 11.134685516357422
vertex 60.90169143676758 12.0 19.36760139465332
endloop
endfacet
facet normal -0.8829475097377399 -2.883836227433968e-06 0.4694717191052163
outer loop
vertex 60.2968864440918 2.5 11.9669189453125
vertex 64.52213287353516 2.5 19.913448333740234
vertex 60.90169143676758 2.6361138820648193 13.104392051696777
endloop
endfacet
facet normal 0.0 1.0 -0.0
outer loop
vertex 63.95228958129883 2.5 10.023306846618652
vertex 61.356422424316406 2.5 11.403553009033203
vertex 65.58167266845703 2.5 19.350082397460938
endloop
endfacet
facet normal 0.8829473340386393 -3.918460598529363e-06 -0.4694720495393788
outer loop
vertex 61.356422424316406 2.5 11.403553009033203
vertex 62.29536819458008 2.8499999046325684 13.169447898864746
vertex 65.58167266845703 2.5 19.350082397460938
endloop
endfacet
facet normal 0.0 1.0 -0.0
outer loop
vertex 62.29536819458008 2.8499999046325684 13.169447898864746
vertex 61.2358283996582 2.8499999046325684 13.732813835144043
vertex 64.05265808105469 2.8499999046325684 19.030500411987305
endloop
endfacet
facet normal -0.882947289121599 -4.61353919782595e-07 0.4694721340320494
outer loop
vertex 58.28522872924805 -2.5 12.081543922424316
vertex 60.90169143676758 0.5590887069702148 17.002389907836914
vertex 60.90169143676758 2.5 17.002391815185547
endloop
endfacet
facet normal -0.8829475184761302 -3.9387805287187566e-06 0.4694717026630355
outer loop
vertex 60.90169143676758 2.6361138820648193 13.104392051696777
vertex 64.52213287353516 2.5 19.913448333740234
vertex 61.2358283996582 2.8499999046325684 13.732813835144043
endloop
endfacet
facet normal 0.0 0.9999999999999999 0.0
outer loop
vertex 60.2968864440918 2.5 11.9669189453125
vertex 60.90169143676758 2.5 17.002391815185547
vertex 62.601890563964844 2.5 20.200000762939453
endloop
endfacet
facet normal 1.0 0.0 -0.0
outer loop
vertex 60.90169143676758 5.0 10.551786422729492
vertex 60.90169143676758 12.0 19.36760139465332
vertex 60.90169143676758 5.0 19.36760139465332
endloop
endfacet
facet normal -0.0 1.0 0.0
outer loop
vertex 62.29536819458008 2.8499999046325684 13.169447898864746
vertex 64.05265808105469 2.8499999046325684 19.030500411987305
vertex 65.11219787597656 2.8499999046325684 18.467134475708008
endloop
endfacet
facet normal -0.0 1.0 0.0
outer loop
vertex 60.2968864440918 2.5 11.9669189453125
vertex 62.90633773803711 2.5 20.772581100463867
vertex 64.52213287353516 2.5 19.913448333740234
endloop
endfacet
facet normal 0.8829476092662745 -1.0757746925016913e-06 -0.4694715319269239
outer loop
vertex 62.29536819458008 2.8499999046325684 13.169447898864746
vertex 65.11219787597656 2.8499999046325684 18.467134475708008
vertex 66.05113983154297 2.5 20.233028411865234
endloop
endfacet
facet normal 0.8829490665589117 6.998083707829938e-05 -0.4694687859330255
outer loop
vertex 62.29536819458008 2.8499999046325684 13.169447898864746
vertex 66.05113983154297 2.5 20.233028411865234
vertex 65.58167266845703 2.5 19.350082397460938
endloop
endfacet
facet normal 0.0 -1.0 0.0
outer loop
vertex 52.5 5.0 15.463973045349121
vertex 60.90169143676758 5.0 19.36760139465332
vertex 52.5 5.0 19.36760139465332
endloop
endfacet
facet normal 0.0 -0.0 1.0
outer loop
vertex 52.5 5.0 19.36760139465332
vertex 60.90169143676758 12.0 19.36760139465332
vertex 52.5 12.0 19.36760139465332
endloop
endfacet
facet normal 0.0 0.0 1.0
outer loop
vertex 52.5 5.0 19.36760139465332
vertex 60.90169143676758 5.0 19.36760139465332
vertex 60.90169143676758 12.0 19.36760139465332
endloop
endfacet
facet normal -0.8829475595611117 -4.6135341995549414e-07 0.46947162540974097
outer loop
vertex 60.90169143676758 0.5590887069702148 17.002389907836914
vertex 62.601890563964844 2.5 20.200000762939453
vertex 60.90169143676758 2.5 17.002391815185547
endloop
endfacet
facet normal 0.0 1.0 0.0
outer loop
vertex 60.2968864440918 2.5 11.9669189453125
vertex 62.601890563964844 2.5 20.200000762939453
vertex 62.90633773803711 2.5 20.772581100463867
endloop
endfacet
facet normal -0.8829476756413761 0.0 0.46947140709471447
outer loop
vertex 62.601890563964844 -2.5 20.200000762939453
vertex 62.601890563964844 2.5 20.200000762939453
vertex 60.90169143676758 0.5590887069702148 17.002389907836914
endloop
endfacet
facet normal -0.8829476092650982 1.954999082233992e-06 0.4694715319262984
outer loop
vertex 61.2358283996582 2.8499999046325684 13.732813835144043
vertex 64.67449188232422 2.6182050704956055 20.200000762939453
vertex 64.05265808105469 2.8499999046325684 19.030500411987305
endloop
endfacet
facet normal -0.8829480040797322 -2.4637175062663067e-05 0.4694707887447599
outer loop
vertex 61.2358283996582 2.8499999046325684 13.732813835144043
vertex 64.52213287353516 2.5 19.913448333740234
vertex 64.67449188232422 2.6182050704956055 20.200000762939453
endloop
endfacet
facet normal 0.0809275761738115 0.985030442777723 0.15220300330727632
outer loop
vertex 65.11219787597656 2.8499999046325684 18.467134475708008
vertex 64.05265808105469 2.8499999046325684 19.030500411987305
vertex 64.67449188232422 2.6182050704956055 20.200000762939453
endloop
endfacet
facet normal 0.0809273724858974 0.9850304669621196 0.15220295509259107
outer loop
vertex 65.11219787597656 2.8499999046325684 18.467134475708008
vertex 64.67449188232422 2.6182050704956055 20.200000762939453
vertex 64.9916000366211 2.5 20.79639434814453
endloop
endfacet
facet normal 0.08092755426218379 0.9850304509455122 0.15220296209739828
outer loop
vertex 65.11219787597656 2.8499999046325684 18.467134475708008
vertex 64.9916000366211 2.5 20.79639434814453
vertex 66.05113983154297 2.5 20.233028411865234
endloop
endfacet
facet normal -0.8829470762331622 0.0 0.4694725344163495
outer loop
vertex 62.601890563964844 -2.5 20.200000762939453
vertex 62.90633773803711 2.5 20.772581100463867
vertex 62.601890563964844 2.5 20.200000762939453
endloop
endfacet
facet normal 0.1743576361857434 0.9284763559937411 0.3279193057206356
outer loop
vertex 62.90633773803711 2.5 20.772581100463867
vertex 64.35478973388672 2.430220603942871 20.200000762939453
vertex 64.52213287353516 2.5 19.913448333740234
endloop
endfacet
facet normal 0.1743481638565781 0.9284870578912932 0.32789403942159484
outer loop
vertex 62.90633773803711 2.5 20.772581100463867
vertex 64.02362823486328 2.4431118965148926 20.339582443237305
vertex 64.35478973388672 2.430220603942871 20.200000762939453
endloop
endfacet
facet normal 0.1743601098350734 0.9284754584595152 0.3279205317400765
outer loop
vertex 64.52213287353516 2.5 19.913448333740234
vertex 64.35478973388672 2.430220603942871 20.200000762939453
vertex 64.63664245605469 2.377290964126587 20.200000762939453
endloop
endfacet
facet normal 0.17434960916131786 0.9284758839604985 0.32792491013807806
outer loop
vertex 64.52213287353516 2.5 19.913448333740234
vertex 64.63664245605469 2.377290964126587 20.200000762939453
vertex 64.63949584960938 2.4000000953674316 20.134185791015625
endloop
endfacet
facet normal -0.8829490680861033 3.8159031060299784e-05 0.46946878672577386
outer loop
vertex 64.52213287353516 2.5 19.913448333740234
vertex 64.63949584960938 2.4000000953674316 20.134185791015625
vertex 64.67449188232422 2.4429638385772705 20.200000762939453
endloop
endfacet
facet normal -0.8829522170913578 0.0 0.4694628657662455
outer loop
vertex 64.52213287353516 2.5 19.913448333740234
vertex 64.67449188232422 2.4429638385772705 20.200000762939453
vertex 64.67449188232422 2.6182050704956055 20.200000762939453
endloop
endfacet
facet normal -0.8829490680722513 3.815897986219724e-05 0.46946878675183024
outer loop
vertex 64.63949584960938 2.4000000953674316 20.134185791015625
vertex 64.9916000366211 2.5 20.79639434814453
vertex 64.67449188232422 2.4429638385772705 20.200000762939453
endloop
endfacet
facet normal -0.8829475560003761 0.0 0.4694716321067363
outer loop
vertex 64.67449188232422 2.6182050704956055 20.200000762939453
vertex 64.67449188232422 2.4429638385772705 20.200000762939453
vertex 64.9916000366211 2.5 20.79639434814453
endloop
endfacet
facet normal 0.0 -1.0 0.0
outer loop
vertex 64.63949584960938 2.4000000953674316 20.134185791015625
vertex 65.69903564453125 2.4000000953674316 19.570817947387695
vertex 66.05113983154297 2.4000000953674316 20.233028411865234
endloop
endfacet
facet normal 0.17435764846057067 0.928476557468062 0.3279187287355759
outer loop
vertex 64.63949584960938 2.4000000953674316 20.134185791015625
vertex 66.45101928710938 2.036571502685547 20.200000762939453
vertex 65.69903564453125 2.4000000953674316 19.570817947387695
endloop
endfacet
facet normal 0.17435702458823293 0.9284745415085869 0.32792476842586565
outer loop
vertex 64.63949584960938 2.4000000953674316 20.134185791015625
vertex 64.63664245605469 2.377290964126587 20.200000762939453
vertex 66.45101928710938 2.036571502685547 20.200000762939453
endloop
endfacet
facet normal 0.0 -1.0 0.0
outer loop
vertex 64.63949584960938 2.4000000953674316 20.134185791015625
vertex 66.05113983154297 2.4000000953674316 20.233028411865234
vertex 64.9916000366211 2.4000000953674316 20.79639434814453
endloop
endfacet
facet normal 0.17435812177593465 0.9284764999364644 0.3279186399650087
outer loop
vertex 64.35478973388672 2.430220603942871 20.200000762939453
vertex 64.02362823486328 2.4431118965148926 20.339582443237305
vertex 64.5516357421875 1.7000000476837158 22.162899017333984
endloop
endfacet
facet normal 0.17436025155096552 0.9284762131030401 0.32791831967873064
outer loop
vertex 64.35478973388672 2.430220603942871 20.200000762939453
vertex 64.5516357421875 1.7000000476837158 22.162899017333984
vertex 64.63664245605469 2.377290964126587 20.200000762939453
endloop
endfacet
facet normal -0.8829466801073607 0.0 0.46947327941789235
outer loop
vertex 64.63949584960938 2.4000000953674316 20.134185791015625
vertex 64.9916000366211 2.4000000953674316 20.79639434814453
vertex 64.9916000366211 2.5 20.79639434814453
endloop
endfacet
facet normal 0.4694706754108997 0.0 0.882948064684007
outer loop
vertex 64.9916000366211 2.4000000953674316 20.79639434814453
vertex 66.05113983154297 2.4000000953674316 20.233028411865234
vertex 64.9916000366211 2.5 20.79639434814453
endloop
endfacet
facet normal 0.17435743426681066 0.9284767231019613 0.3279183736446295
outer loop
vertex 64.63664245605469 2.377290964126587 20.200000762939453
vertex 64.5516357421875 1.7000000476837158 22.162899017333984
vertex 66.45101928710938 2.036571502685547 20.200000762939453
endloop
endfacet
facet normal -0.6454396243596391 0.0 0.7638112929948654
outer loop
vertex 62.90633773803711 -2.5 20.772581100463867
vertex 64.5516357421875 1.7000000476837158 22.162899017333984
vertex 62.90633773803711 2.5 20.772581100463867
endloop
endfacet
facet normal 0.1743572690763554 0.928476563678322 0.32791891287379266
outer loop
vertex 62.90633773803711 2.5 20.772581100463867
vertex 64.5516357421875 1.7000000476837158 22.162899017333984
vertex 64.02362823486328 2.4431118965148926 20.339582443237305
endloop
endfacet
facet normal -0.8829475330784665 6.341255458927286e-06 0.4694716751737413
outer loop
vertex 63.95228958129883 2.5 10.023306846618652
vertex 68.17753601074219 2.5 17.969837188720703
vertex 64.8912353515625 2.8499999046325684 11.789201736450195
endloop
endfacet
facet normal -0.0 1.0 0.0
outer loop
vertex 64.8912353515625 2.8499999046325684 11.789201736450195
vertex 67.70806121826172 2.8499999046325684 17.08688735961914
vertex 65.95076751708984 2.8499999046325684 11.225835800170898
endloop
endfacet
facet normal -0.0 1.0 0.0
outer loop
vertex 65.95076751708984 2.8499999046325684 11.225835800170898
vertex 67.70806121826172 2.8499999046325684 17.08688735961914
vertex 68.7676010131836 2.8499999046325684 16.523521423339844
endloop
endfacet
facet normal 0.8829473106672531 -7.268383255697143e-06 -0.46947209345459073
outer loop
vertex 65.95076751708984 2.8499999046325684 11.225835800170898
vertex 68.7676010131836 2.8499999046325684 16.523521423339844
vertex 69.70654296875 2.5 18.289417266845703
endloop
endfacet
facet normal -0.0 1.0 0.0
outer loop
vertex 67.36894226074219 2.5 9.995026588439941
vertex 69.23706817626953 2.5 17.406469345092773
vertex 70.85286712646484 2.5 16.54733657836914
endloop
endfacet
facet normal -0.0 1.0 0.0
outer loop
vertex 63.95228958129883 2.5 10.023306846618652
vertex 65.58167266845703 2.5 19.350082397460938
vertex 68.17753601074219 2.5 17.969837188720703
endloop
endfacet
facet normal -0.8829478377781588 8.528050560351845e-07 0.46947110215874516
outer loop
vertex 64.8912353515625 2.8499999046325684 11.789201736450195
vertex 68.64700317382812 2.5 18.852783203125
vertex 67.70806121826172 2.8499999046325684 17.08688735961914
endloop
endfacet
facet normal -0.8829490671801007 -5.907825211089549e-05 0.46946878626331506
outer loop
vertex 64.8912353515625 2.8499999046325684 11.789201736450195
vertex 68.17753601074219 2.5 17.969837188720703
vertex 68.64700317382812 2.5 18.852783203125
endloop
endfacet
facet normal 0.8829463252340374 -5.518169249563098e-05 -0.46947394359079225
outer loop
vertex 65.95076751708984 2.8499999046325684 11.225835800170898
vertex 69.70654296875 2.5 18.289417266845703
vertex 69.23706817626953 2.5 17.406469345092773
endloop
endfacet
facet normal 0.08092748814246718 0.9850304755923168 0.15220283774399587
outer loop
vertex 68.7676010131836 2.8499999046325684 16.523521423339844
vertex 67.70806121826172 2.8499999046325684 17.08688735961914
vertex 68.64700317382812 2.5 18.852783203125
endloop
endfacet
facet normal 0.1743557158313714 0.9284777187544104 0.32791646822557696
outer loop
vertex 69.23706817626953 2.5 17.406469345092773
vertex 69.35443878173828 2.4000000953674316 17.627206802368164
vertex 70.85286712646484 2.5 16.54733657836914
endloop
endfacet
facet normal -1.0 0.0 0.0
outer loop
vertex 74.0244369506836 -7.17241096496582 11.168205261230469
vertex 74.0244369506836 12.0 20.0
vertex 74.0244369506836 12.0 11.168205261230469
endloop
endfacet
facet normal 0.0 1.0 0.0
outer loop
vertex 75.0 12.0 12.0
vertex 75.0 12.0 8.0
vertex 74.0244369506836 12.0 20.0
endloop
endfacet
facet normal 0.1743593392168929 0.9284750212240949 0.3279221794736748
outer loop
vertex 68.17753601074219 2.5 17.969837188720703
vertex 65.69903564453125 2.4000000953674316 19.570817947387695
vertex 68.2948989868164 2.4000000953674316 18.19057273864746
endloop
endfacet
facet normal 0.1743567578005168 0.928476924227634 0.32791816385507566
outer loop
vertex 68.2948989868164 2.4000000953674316 18.19057273864746
vertex 66.45101928710938 2.036571502685547 20.200000762939453
vertex 69.35443878173828 2.4000000953674316 17.627206802368164
endloop
endfacet
facet normal -0.8829490683444138 2.920465857468725e-05 0.4694687868823866
outer loop
vertex 68.17753601074219 2.5 17.969837188720703
vertex 68.2948989868164 2.4000000953674316 18.19057273864746
vertex 68.64700317382812 2.5 18.852783203125
endloop
endfacet
facet normal 0.0 -1.0 0.0
outer loop
vertex 68.2948989868164 2.4000000953674316 18.19057273864746
vertex 69.70654296875 2.4000000953674316 18.289417266845703
vertex 68.64700317382812 2.4000000953674316 18.852783203125
endloop
endfacet
facet normal -0.88294724062601 0.0 0.4694722252390599
outer loop
vertex 68.2948989868164 2.4000000953674316 18.19057273864746
vertex 68.64700317382812 2.4000000953674316 18.852783203125
vertex 68.64700317382812 2.5 18.852783203125
endloop
endfacet
facet normal 0.1743593392168929 0.9284750212240949 0.3279221794736748
outer loop
vertex 65.58167266845703 2.5 19.350082397460938
vertex 65.69903564453125 2.4000000953674316 19.570817947387695
vertex 68.17753601074219 2.5 17.969837188720703
endloop
endfacet
facet normal 0.17435755705186212 0.9284765396781645 0.3279188277091884
outer loop
vertex 68.2948989868164 2.4000000953674316 18.19057273864746
vertex 65.69903564453125 2.4000000953674316 19.570817947387695
vertex 66.45101928710938 2.036571502685547 20.200000762939453
endloop
endfacet
facet normal 0.8829490683444138 -2.920465857468725e-05 -0.4694687868823866
outer loop
vertex 65.58167266845703 2.5 19.350082397460938
vertex 66.05113983154297 2.5 20.233028411865234
vertex 65.69903564453125 2.4000000953674316 19.570817947387695
endloop
endfacet
facet normal 0.17435717117814548 0.9284767634801597 0.3279183992034643
outer loop
vertex 64.5516357421875 1.7000000476837158 22.162899017333984
vertex 70.85286712646484 2.5 16.54733657836914
vertex 69.35443878173828 2.4000000953674316 17.627206802368164
endloop
endfacet
facet normal 0.1743575097996459 0.9284765751689866 0.3279187523441368
outer loop
vertex 64.5516357421875 1.7000000476837158 22.162899017333984
vertex 71.08544921875 1.7000000476837158 18.68880844116211
vertex 70.85286712646484 2.5 16.54733657836914
endloop
endfacet
facet normal 0.08092748814246718 0.9850304755923168 0.15220283774399587
outer loop
vertex 68.7676010131836 2.8499999046325684 16.523521423339844
vertex 68.64700317382812 2.5 18.852783203125
vertex 69.70654296875 2.5 18.289417266845703
endloop
endfacet
facet normal 0.8829463264841981 1.460225239816548e-05 -0.46947394425551886
outer loop
vertex 69.23706817626953 2.5 17.406469345092773
vertex 69.70654296875 2.5 18.289417266845703
vertex 69.35443878173828 2.4000000953674316 17.627206802368164
endloop
endfacet
facet normal 0.0 -1.0 0.0
outer loop
vertex 68.2948989868164 2.4000000953674316 18.19057273864746
vertex 69.35443878173828 2.4000000953674316 17.627206802368164
vertex 69.70654296875 2.4000000953674316 18.289417266845703
endloop
endfacet
facet normal 0.88294724062601 0.0 -0.4694722252390599
outer loop
vertex 69.35443878173828 2.4000000953674316 17.627206802368164
vertex 69.70654296875 2.5 18.289417266845703
vertex 69.70654296875 2.4000000953674316 18.289417266845703
endloop
endfacet
facet normal 0.4694706754108997 0.0 0.882948064684007
outer loop
vertex 68.64700317382812 2.4000000953674316 18.852783203125
vertex 69.70654296875 2.4000000953674316 18.289417266845703
vertex 68.64700317382812 2.5 18.852783203125
endloop
endfacet
facet normal 0.4694706754108997 -0.0 0.882948064684007
outer loop
vertex 68.64700317382812 2.5 18.852783203125
vertex 69.70654296875 2.4000000953674316 18.289417266845703
vertex 69.70654296875 2.5 18.289417266845703
endloop
endfacet
facet normal 0.9941537648278073 0.0 -0.1079735702785512
outer loop
vertex 71.08544921875 -1.7000000476837158 18.68880844116211
vertex 70.85286712646484 2.5 16.54733657836914
vertex 71.08544921875 1.7000000476837158 18.68880844116211
endloop
endfacet
facet normal 0.4694715971267608 -0.0 0.8829475745995615
outer loop
vertex 71.08544921875 -1.7000000476837158 18.68880844116211
vertex 71.08544921875 1.7000000476837158 18.68880844116211
vertex 64.5516357421875 1.7000000476837158 22.162899017333984
endloop
endfacet
facet normal 0.88294724062601 0.0 -0.4694722252390599
outer loop
vertex 65.69903564453125 2.4000000953674316 19.570817947387695
vertex 66.05113983154297 2.5 20.233028411865234
vertex 66.05113983154297 2.4000000953674316 20.233028411865234
endloop
endfacet
facet normal 0.4694706754108997 -0.0 0.882948064684007
outer loop
vertex 64.9916000366211 2.5 20.79639434814453
vertex 66.05113983154297 2.4000000953674316 20.233028411865234
vertex 66.05113983154297 2.5 20.233028411865234
endloop
endfacet
facet normal 0.1743544493233681 0.928478213482812 0.3279157408373537
outer loop
vertex 64.5516357421875 1.7000000476837158 22.162899017333984
vertex 69.35443878173828 2.4000000953674316 17.627206802368164
vertex 66.45101928710938 2.036571502685547 20.200000762939453
endloop
endfacet
facet normal -0.9999999999999999 0.0 0.0
outer loop
vertex 82.0 -135.0 4.25
vertex 82.0 -112.0 7.75
vertex 82.0 -112.0 4.25
endloop
endfacet
facet normal 0.0 -0.9999999999999999 0.0
outer loop
vertex 75.0 -112.0 4.0
vertex 82.0 -112.0 4.25
vertex 82.0 -112.0 7.75
endloop
endfacet
facet normal -0.9999999999999999 0.0 0.0
outer loop
vertex 82.0 -135.0 4.25
vertex 82.0 -135.0 7.75
vertex 82.0 -112.0 7.75
endloop
endfacet
facet normal 0.0 0.0 -1.0
outer loop
vertex 82.0 -135.0 4.25
vertex 82.0 -112.0 4.25
vertex 98.0 -135.0 4.25
endloop
endfacet
facet normal 0.0 -1.0 0.0
outer loop
vertex 82.0 -135.0 4.25
vertex 98.0 -135.0 4.25
vertex 82.0 -135.0 7.75
endloop
endfacet
facet normal 0.0 -1.0 0.0
outer loop
vertex 75.0 -112.0 4.0
vertex 105.0 -112.0 4.0
vertex 82.0 -112.0 4.25
endloop
endfacet
facet normal 0.0 -0.0 1.0
outer loop
vertex 82.0 -135.0 7.75
vertex 98.0 -112.0 7.75
vertex 82.0 -112.0 7.75
endloop
endfacet
facet normal 0.0 0.0 -1.0
outer loop
vertex 75.0 -112.0 4.0
vertex 88.39286041259766 -12.0 4.0
vertex 105.0 -112.0 4.0
endloop
endfacet
facet normal 0.0 -0.0 1.0
outer loop
vertex 75.0 -112.0 12.0
vertex 105.0 -112.0 12.0
vertex 75.0 -12.0 12.0
endloop
endfacet
facet normal 0.0 -1.0 0.0
outer loop
vertex 75.0 -112.0 12.0
vertex 82.0 -112.0 7.75
vertex 105.0 -112.0 12.0
endloop
endfacet
facet normal 0.0 0.0 -1.0
outer loop
vertex 75.0 -112.0 4.0
vertex 75.0 -12.0 4.0
vertex 88.39286041259766 -12.0 4.0
endloop
endfacet
facet normal 0.0 0.0 -1.0
outer loop
vertex 82.0 -112.0 4.25
vertex 98.0 -112.0 4.25
vertex 98.0 -135.0 4.25
endloop
endfacet
facet normal 0.0 -1.0 0.0
outer loop
vertex 82.0 -112.0 4.25
vertex 105.0 -112.0 4.0
vertex 98.0 -112.0 4.25
endloop
endfacet
facet normal 0.9999999999999999 0.0 -0.0
outer loop
vertex 98.0 -135.0 4.25
vertex 98.0 -112.0 4.25
vertex 98.0 -135.0 7.75
endloop
endfacet
facet normal 0.0 -1.0 0.0
outer loop
vertex 82.0 -135.0 7.75
vertex 98.0 -135.0 4.25
vertex 98.0 -135.0 7.75
endloop
endfacet
facet normal 0.0 0.0 1.0
outer loop
vertex 82.0 -135.0 7.75
vertex 98.0 -135.0 7.75
vertex 98.0 -112.0 7.75
endloop
endfacet
facet normal 0.9999999999999999 0.0 -0.0
outer loop
vertex 98.0 -112.0 4.25
vertex 98.0 -112.0 7.75
vertex 98.0 -135.0 7.75
endloop
endfacet
facet normal 0.0 -0.9999999999999999 0.0
outer loop
vertex 98.0 -112.0 4.25
vertex 105.0 -112.0 4.0
vertex 98.0 -112.0 7.75
endloop
endfacet
facet normal 0.0 -1.0 0.0
outer loop
vertex 98.0 -112.0 7.75
vertex 105.0 -112.0 4.0
vertex 105.0 -112.0 12.0
endloop
endfacet
facet normal 0.0 -1.0 0.0
outer loop
vertex 82.0 -112.0 7.75
vertex 98.0 -112.0 7.75
vertex 105.0 -112.0 12.0
endloop
endfacet
facet normal 0.0 0.0 -1.0
outer loop
vertex 105.0 -112.0 4.0
vertex 88.39286041259766 -12.0 4.0
vertex 91.60713958740234 12.0 4.0
endloop
endfacet
facet normal -0.0 -0.0 1.0
outer loop
vertex 75.0 -12.0 12.0
vertex 105.0 -112.0 12.0
vertex 97.5 -12.0 12.0
endloop
endfacet
facet normal 1.0 0.0 -0.0
outer loop
vertex 105.0 -112.0 4.0
vertex 105.0 112.0 12.0
vertex 105.0 -112.0 12.0
endloop
endfacet
facet normal 0.0 0.0 1.0
outer loop
vertex 105.0 -112.0 12.0
vertex 97.5 12.0 12.0
vertex 97.5 -12.0 12.0
endloop
endfacet
facet normal 0.0 -1.0 0.0
outer loop
vertex 75.0 -12.0 12.0
vertex 97.5 -12.0 12.0
vertex 97.5 -12.0 20.0
endloop
endfacet
facet normal -0.0 0.0 0.9999999999999999
outer loop
vertex 74.0244369506836 -7.17241096496582 20.0
vertex 97.5 -12.0 20.0
vertex 97.5 12.0 20.0
endloop
endfacet
facet normal 1.0 0.0 -0.0
outer loop
vertex 97.5 -12.0 12.0
vertex 97.5 12.0 20.0
vertex 97.5 -12.0 20.0
endloop
endfacet
facet normal -0.0 -0.0 -1.0
outer loop
vertex 75.0 112.0 4.0
vertex 91.60713958740234 12.0 4.0
vertex 75.0 12.0 4.0
endloop
endfacet
facet normal 0.0 -0.0 1.0
outer loop
vertex 75.0 12.0 12.0
vertex 97.5 12.0 12.0
vertex 75.0 112.0 12.0
endloop
endfacet
facet normal -0.0 0.9999999999999999 0.0
outer loop
vertex 75.0 112.0 4.0
vertex 82.0 112.0 7.75
vertex 82.0 112.0 4.25
endloop
endfacet
facet normal -0.9999999999999999 0.0 0.0
outer loop
vertex 82.0 112.0 4.25
vertex 82.0 135.0 7.75
vertex 82.0 135.0 4.25
endloop
endfacet
facet normal 0.0 1.0 0.0
outer loop
vertex 75.0 112.0 4.0
vertex 82.0 112.0 4.25
vertex 98.0 112.0 4.25
endloop
endfacet
facet normal -0.9999999999999999 0.0 0.0
outer loop
vertex 82.0 112.0 4.25
vertex 82.0 112.0 7.75
vertex 82.0 135.0 7.75
endloop
endfacet
facet normal 0.0 -0.0 -1.0
outer loop
vertex 75.0 112.0 4.0
vertex 105.0 112.0 4.0
vertex 91.60713958740234 12.0 4.0
endloop
endfacet
facet normal 0.0 0.0 -1.0
outer loop
vertex 82.0 112.0 4.25
vertex 82.0 135.0 4.25
vertex 98.0 112.0 4.25
endloop
endfacet
facet normal 0.0 1.0 0.0
outer loop
vertex 82.0 135.0 4.25
vertex 82.0 135.0 7.75
vertex 98.0 135.0 7.75
endloop
endfacet
facet normal 0.0 -0.0 1.0
outer loop
vertex 82.0 112.0 7.75
vertex 98.0 135.0 7.75
vertex 82.0 135.0 7.75
endloop
endfacet
facet normal 0.0 1.0 0.0
outer loop
vertex 75.0 112.0 12.0
vertex 98.0 112.0 7.75
vertex 82.0 112.0 7.75
endloop
endfacet
facet normal 0.0 0.0 -1.0
outer loop
vertex 105.0 -112.0 4.0
vertex 91.60713958740234 12.0 4.0
vertex 105.0 112.0 4.0
endloop
endfacet
facet normal 1.0 0.0 0.0
outer loop
vertex 105.0 -112.0 4.0
vertex 105.0 112.0 4.0
vertex 105.0 112.0 12.0
endloop
endfacet
facet normal 0.0 -0.0 1.0
outer loop
vertex 105.0 -112.0 12.0
vertex 105.0 112.0 12.0
vertex 97.5 12.0 12.0
endloop
endfacet
facet normal -0.0 1.0 0.0
outer loop
vertex 75.0 112.0 4.0
vertex 98.0 112.0 4.25
vertex 105.0 112.0 4.0
endloop
endfacet
facet normal 0.0 0.0 -1.0
outer loop
vertex 82.0 135.0 4.25
vertex 98.0 135.0 4.25
vertex 98.0 112.0 4.25
endloop
endfacet
facet normal -0.0 1.0 0.0
outer loop
vertex 82.0 135.0 4.25
vertex 98.0 135.0 7.75
vertex 98.0 135.0 4.25
endloop
endfacet
facet normal 0.9999999999999999 0.0 -0.0
outer loop
vertex 98.0 112.0 4.25
vertex 98.0 135.0 4.25
vertex 98.0 112.0 7.75
endloop
endfacet
facet normal 0.0 0.0 1.0
outer loop
vertex 82.0 112.0 7.75
vertex 98.0 112.0 7.75
vertex 98.0 135.0 7.75
endloop
endfacet
facet normal 0.9999999999999999 0.0 -0.0
outer loop
vertex 98.0 135.0 4.25
vertex 98.0 135.0 7.75
vertex 98.0 112.0 7.75
endloop
endfacet
facet normal -0.0 0.9999999999999999 0.0
outer loop
vertex 98.0 112.0 4.25
vertex 98.0 112.0 7.75
vertex 105.0 112.0 4.0
endloop
endfacet
facet normal -0.0 1.0 0.0
outer loop
vertex 98.0 112.0 7.75
vertex 105.0 112.0 12.0
vertex 105.0 112.0 4.0
endloop
endfacet
facet normal -0.0 0.0 1.0
outer loop
vertex 75.0 112.0 12.0
vertex 97.5 12.0 12.0
vertex 105.0 112.0 12.0
endloop
endfacet
facet normal -0.0 1.0 0.0
outer loop
vertex 75.0 112.0 12.0
vertex 105.0 112.0 12.0
vertex 98.0 112.0 7.75
endloop
endfacet
facet normal 0.0 0.9999999999999999 -0.0
outer loop
vertex 75.0 12.0 12.0
vertex 74.0244369506836 12.0 20.0
vertex 97.5 12.0 20.0
endloop
endfacet
facet normal -0.0 1.0 0.0
outer loop
vertex 75.0 12.0 12.0
vertex 97.5 12.0 20.0
vertex 97.5 12.0 12.0
endloop
endfacet
facet normal 0.0 -0.0 1.0
outer loop
vertex 74.0244369506836 -7.17241096496582 20.0
vertex 97.5 12.0 20.0
vertex 74.0244369506836 12.0 20.0
endloop
endfacet
facet normal 1.0 0.0 0.0
outer loop
vertex 97.5 -12.0 12.0
vertex 97.5 12.0 12.0
vertex 97.5 12.0 20.0
endloop
endfacet
facet normal -1.0 0.0 0.0
outer loop
vertex 52.5 -12.0 4.0
vertex 52.5 -12.0 8.0
vertex 52.5 12.0 8.0
endloop
endfacet
facet normal 0.0 -1.0 0.0
outer loop
vertex 52.5 -12.0 4.0
vertex 75.0 -12.0 4.0
vertex 52.5 -12.0 8.0
endloop
endfacet
facet normal 0.0 -1.0 0.0
outer loop
vertex 75.0 -12.0 4.0
vertex 75.0 -12.0 8.0
vertex 52.5 -12.0 8.0
endloop
endfacet
facet normal 0.0 -0.0 -1.0
outer loop
vertex 52.5 -12.0 4.0
vertex 91.60713958740234 12.0 4.0
vertex 75.0 -12.0 4.0
endloop
endfacet
facet normal -1.0 0.0 0.0
outer loop
vertex 52.5 -12.0 4.0
vertex 52.5 12.0 8.0
vertex 52.5 12.0 4.0
endloop
endfacet
facet normal 0.0 -0.0 -1.0
outer loop
vertex 52.5 12.0 4.0
vertex 75.0 12.0 4.0
vertex 52.5 -12.0 4.0
endloop
endfacet
facet normal 0.0 1.0 0.0
outer loop
vertex 52.5 12.0 4.0
vertex 52.5 12.0 8.0
vertex 75.0 12.0 8.0
endloop
endfacet
facet normal -0.0 1.0 0.0
outer loop
vertex 52.5 12.0 4.0
vertex 75.0 12.0 8.0
vertex 75.0 12.0 4.0
endloop
endfacet
facet normal 0.0 0.0 -1.0
outer loop
vertex 52.5 -12.0 4.0
vertex 75.0 12.0 4.0
vertex 91.60713958740234 12.0 4.0
endloop
endfacet
facet normal -0.0 0.0 -1.0
outer loop
vertex 91.60713958740234 12.0 4.0
vertex 88.39286041259766 -12.0 4.0
vertex 75.0 -12.0 4.0
endloop
endfacet

endsolid
