solid 
facet normal 0.0 -1.0 0.0
outer loop
vertex 0.0 0.0 0.0
vertex 17.0 0.0 0.0
vertex 0.0 0.0 16.0
endloop
endfacet
facet normal 0.0 0.0 -0.9999999999999999
outer loop
vertex 0.0 0.0 0.0
vertex 0.0 11.0 0.0
vertex 17.0 0.0 0.0
endloop
endfacet
facet normal -1.0 0.0 0.0
outer loop
vertex 0.0 0.0 0.0
vertex 0.0 0.0 16.0
vertex 0.0 11.0 16.0
endloop
endfacet
facet normal 0.0 0.0 1.0
outer loop
vertex 0.0 0.0 16.0
vertex 3.6999998092651367 2.700000047683716 16.0
vertex 3.6999998092651367 8.299999952316284 16.0
endloop
endfacet
facet normal 0.0 -0.0 1.0
outer loop
vertex 0.0 0.0 16.0
vertex 17.0 0.0 16.0
vertex 3.6999998092651367 2.700000047683716 16.0
endloop
endfacet
facet normal -1.0 0.0 0.0
outer loop
vertex 0.0 0.0 0.0
vertex 0.0 11.0 16.0
vertex 0.0 11.0 0.0
endloop
endfacet
facet normal 0.0 -0.0 1.0
outer loop
vertex 0.0 0.0 16.0
vertex 3.6999998092651367 8.299999952316284 16.0
vertex 0.0 11.0 16.0
endloop
endfacet
facet normal 0.0 1.0 0.0
outer loop
vertex 0.0 11.0 0.0
vertex 0.0 11.0 16.0
vertex 17.0 11.0 16.0
endloop
endfacet
facet normal -0.0 0.0 1.0
outer loop
vertex 0.0 11.0 16.0
vertex 3.6999998092651367 8.299999952316284 16.0
vertex 13.300000190734863 8.299999952316284 16.0
endloop
endfacet
facet normal 1.0 0.0 -0.0
outer loop
vertex 17.0 0.0 0.0
vertex 17.0 11.0 0.0
vertex 17.0 0.0 16.0
endloop
endfacet
facet normal 0.0 -1.0 0.0
outer loop
vertex 0.0 0.0 16.0
vertex 17.0 0.0 0.0
vertex 17.0 0.0 16.0
endloop
endfacet
facet normal 0.0 0.0 1.0
outer loop
vertex 17.0 0.0 16.0
vertex 13.300000190734863 2.700000047683716 16.0
vertex 3.6999998092651367 2.700000047683716 16.0
endloop
endfacet
facet normal 0.0 -0.0 1.0
outer loop
vertex 17.0 0.0 16.0
vertex 17.0 11.0 16.0
vertex 13.300000190734863 2.700000047683716 16.0
endloop
endfacet
facet normal 0.0 0.0 -0.9999999999999999
outer loop
vertex 0.0 11.0 0.0
vertex 17.0 11.0 0.0
vertex 17.0 0.0 0.0
endloop
endfacet
facet normal -0.0 1.0 0.0
outer loop
vertex 0.0 11.0 0.0
vertex 17.0 11.0 16.0
vertex 17.0 11.0 0.0
endloop
endfacet
facet normal -0.0 0.0 1.0
outer loop
vertex 0.0 11.0 16.0
vertex 13.300000190734863 8.299999952316284 16.0
vertex 17.0 11.0 16.0
endloop
endfacet
facet normal 1.0 -0.0 0.0
outer loop
vertex 17.0 0.0 16.0
vertex 17.0 11.0 0.0
vertex 17.0 11.0 16.0
endloop
endfacet
facet normal 0.0 0.0 1.0
outer loop
vertex 17.0 11.0 16.0
vertex 13.300000190734863 8.299999952316284 16.0
vertex 13.300000190734863 2.700000047683716 16.0
endloop
endfacet
facet normal -0.0 1.0 0.0
outer loop
vertex 3.6999998092651367 2.700000047683716 3.4000000953674316
vertex 3.6999998092651367 2.700000047683716 16.0
vertex 13.300000190734863 2.700000047683716 3.4000000953674316
endloop
endfacet
facet normal 0.0 -0.0 1.0
outer loop
vertex 3.6999998092651367 2.700000047683716 3.4000000953674316
vertex 13.300000190734863 2.700000047683716 3.4000000953674316
vertex 3.6999998092651367 8.299999952316284 3.4000000953674316
endloop
endfacet
facet normal 1.0 0.0 -0.0
outer loop
vertex 3.6999998092651367 2.700000047683716 3.4000000953674316
vertex 3.6999998092651367 8.299999952316284 16.0
vertex 3.6999998092651367 2.700000047683716 16.0
endloop
endfacet
facet normal 1.0 0.0 0.0
outer loop
vertex 3.6999998092651367 2.700000047683716 3.4000000953674316
vertex 3.6999998092651367 8.299999952316284 3.4000000953674316
vertex 3.6999998092651367 8.299999952316284 16.0
endloop
endfacet
facet normal 0.0 -1.0 0.0
outer loop
vertex 3.6999998092651367 8.299999952316284 3.4000000953674316
vertex 13.300000190734863 8.299999952316284 16.0
vertex 3.6999998092651367 8.299999952316284 16.0
endloop
endfacet
facet normal -1.0 0.0 0.0
outer loop
vertex 13.300000190734863 2.700000047683716 3.4000000953674316
vertex 13.300000190734863 2.700000047683716 16.0
vertex 13.300000190734863 8.299999952316284 3.4000000953674316
endloop
endfacet
facet normal 0.0 1.0 -0.0
outer loop
vertex 13.300000190734863 2.700000047683716 3.4000000953674316
vertex 3.6999998092651367 2.700000047683716 16.0
vertex 13.300000190734863 2.700000047683716 16.0
endloop
endfacet
facet normal -0.0 0.0 1.0
outer loop
vertex 3.6999998092651367 8.299999952316284 3.4000000953674316
vertex 13.300000190734863 2.700000047683716 3.4000000953674316
vertex 13.300000190734863 8.299999952316284 3.4000000953674316
endloop
endfacet
facet normal 0.0 -1.0 0.0
outer loop
vertex 3.6999998092651367 8.299999952316284 3.4000000953674316
vertex 13.300000190734863 8.299999952316284 3.4000000953674316
vertex 13.300000190734863 8.299999952316284 16.0
endloop
endfacet
facet normal -1.0 0.0 0.0
outer loop
vertex 13.300000190734863 8.299999952316284 3.4000000953674316
vertex 13.300000190734863 2.700000047683716 16.0
vertex 13.300000190734863 8.299999952316284 16.0
endloop
endfacet

endsolid
