solid 
facet normal 0.0 -1.0 0.0
outer loop
vertex 4.0 3.0 14.0
vertex 4.0 3.0 4.0
vertex 7.180000066757202 3.0 5.0
endloop
endfacet
facet normal -1.0 -0.0 -0.0
outer loop
vertex 4.0 3.0 14.0
vertex 4.0 10.0 4.0
vertex 4.0 3.0 4.0
endloop
endfacet
facet normal 0.0 -1.0 -0.0
outer loop
vertex 7.180000066757202 3.0 5.0
vertex 4.0 3.0 4.0
vertex 18.0 3.0 4.0
endloop
endfacet
facet normal -0.9284766603520029 0.0 0.37139075268723565
outer loop
vertex 4.0 3.0 14.0
vertex 4.800000190734863 3.799999952316284 16.0
vertex 4.800000190734863 9.200000047683716 16.0
endloop
endfacet
facet normal 0.0 -1.0 0.0
outer loop
vertex 4.0 3.0 14.0
vertex 7.180000066757202 3.0 5.0
vertex 7.180000066757202 3.0 14.0
endloop
endfacet
facet normal 0.0 -1.0 0.0
outer loop
vertex 8.380000114440918 3.0 5.0
vertex 13.619999885559082 3.0 5.0
vertex 8.380000114440918 3.0 14.0
endloop
endfacet
facet normal 0.0 -0.9284768130182423 0.3713903710215009
outer loop
vertex 4.0 3.0 14.0
vertex 7.180000066757202 3.0 14.0
vertex 7.180000066757202 3.0999999046325684 14.25
endloop
endfacet
facet normal 0.0 -0.9284768130182421 0.3713903710215009
outer loop
vertex 8.380000114440918 3.0999999046325684 14.25
vertex 8.380000114440918 3.0 14.0
vertex 13.619999885559082 3.0 14.0
endloop
endfacet
facet normal -5.425638545136087e-08 -0.9284765750384776 0.37139096597092325
outer loop
vertex 4.0 3.0 14.0
vertex 7.180000066757202 3.0999999046325684 14.25
vertex 17.199999809265137 3.799999952316284 16.0
endloop
endfacet
facet normal 0.0 -0.9284766985185727 0.3713906572708196
outer loop
vertex 4.0 3.0 14.0
vertex 17.199999809265137 3.799999952316284 16.0
vertex 4.800000190734863 3.799999952316284 16.0
endloop
endfacet
facet normal 0.0 -0.9284766821614723 0.3713906981635708
outer loop
vertex 17.199999809265137 3.799999952316284 16.0
vertex 7.180000066757202 3.0999999046325684 14.25
vertex 8.380000114440918 3.0999999046325684 14.25
endloop
endfacet
facet normal 0.0 -0.0 1.0
outer loop
vertex 4.800000190734863 3.799999952316284 16.0
vertex 17.199999809265137 3.799999952316284 16.0
vertex 4.800000190734863 9.200000047683716 16.0
endloop
endfacet
facet normal -0.0 1.0 0.0
outer loop
vertex 7.180000066757202 10.0 5.0
vertex 8.380000114440918 10.0 5.0
vertex 4.0 10.0 4.0
endloop
endfacet
facet normal 0.0 1.0 -0.0
outer loop
vertex 7.180000066757202 10.0 5.0
vertex 4.0 10.0 4.0
vertex 7.180000066757202 10.0 14.0
endloop
endfacet
facet normal -0.0 1.0 0.0
outer loop
vertex 8.380000114440918 10.0 5.0
vertex 13.619999885559082 10.0 5.0
vertex 4.0 10.0 4.0
endloop
endfacet
facet normal -0.0 1.0 0.0
outer loop
vertex 13.619999885559082 10.0 5.0
vertex 14.819999933242798 10.0 5.0
vertex 4.0 10.0 4.0
endloop
endfacet
facet normal -1.0 0.0 0.0
outer loop
vertex 4.0 3.0 14.0
vertex 4.0 10.0 14.0
vertex 4.0 10.0 4.0
endloop
endfacet
facet normal -0.9284766603520028 0.0 0.3713907526872356
outer loop
vertex 4.0 3.0 14.0
vertex 4.800000190734863 9.200000047683716 16.0
vertex 4.0 10.0 14.0
endloop
endfacet
facet normal -2.6952040326984365e-08 0.9284766948010488 0.37139066656462877
outer loop
vertex 4.0 10.0 14.0
vertex 4.800000190734863 9.200000047683716 16.0
vertex 7.180000066757202 9.900000095367432 14.25
endloop
endfacet
facet normal -0.0 1.0 0.0
outer loop
vertex 4.0 10.0 14.0
vertex 7.180000066757202 10.0 14.0
vertex 4.0 10.0 4.0
endloop
endfacet
facet normal 0.0 0.9284766821614723 0.3713906981635708
outer loop
vertex 4.800000190734863 9.200000047683716 16.0
vertex 8.380000114440918 9.900000095367432 14.25
vertex 7.180000066757202 9.900000095367432 14.25
endloop
endfacet
facet normal 0.0 0.9284766821614723 0.37139069816357073
outer loop
vertex 4.800000190734863 9.200000047683716 16.0
vertex 13.619999885559082 9.900000095367432 14.25
vertex 8.380000114440918 9.900000095367432 14.25
endloop
endfacet
facet normal -0.0 1.0 0.0
outer loop
vertex 8.380000114440918 10.0 14.0
vertex 13.619999885559082 10.0 14.0
vertex 8.380000114440918 10.0 5.0
endloop
endfacet
facet normal 0.0 0.9284768130182423 0.3713903710215009
outer loop
vertex 4.0 10.0 14.0
vertex 7.180000066757202 9.900000095367432 14.25
vertex 7.180000066757202 10.0 14.0
endloop
endfacet
facet normal -0.0 0.9284768130182421 0.3713903710215009
outer loop
vertex 8.380000114440918 9.900000095367432 14.25
vertex 13.619999885559082 9.900000095367432 14.25
vertex 8.380000114440918 10.0 14.0
endloop
endfacet
facet normal -0.0 -1.0 -0.0
outer loop
vertex 8.380000114440918 3.0 5.0
vertex 7.180000066757202 3.0 5.0
vertex 18.0 3.0 4.0
endloop
endfacet
facet normal 0.0 -1.0 0.0
outer loop
vertex 8.380000114440918 3.0 5.0
vertex 18.0 3.0 4.0
vertex 13.619999885559082 3.0 5.0
endloop
endfacet
facet normal -0.0 -1.0 -0.0
outer loop
vertex 14.819999933242798 3.0 5.0
vertex 13.619999885559082 3.0 5.0
vertex 18.0 3.0 4.0
endloop
endfacet
facet normal 0.0 -1.0 0.0
outer loop
vertex 14.819999933242798 3.0 5.0
vertex 18.0 3.0 4.0
vertex 14.819999933242798 3.0 14.0
endloop
endfacet
facet normal 0.0 -1.0 0.0
outer loop
vertex 8.380000114440918 3.0 14.0
vertex 13.619999885559082 3.0 5.0
vertex 13.619999885559082 3.0 14.0
endloop
endfacet
facet normal 0.0 -0.9284768130182421 0.3713903710215009
outer loop
vertex 8.380000114440918 3.0999999046325684 14.25
vertex 13.619999885559082 3.0 14.0
vertex 13.619999885559082 3.0999999046325684 14.25
endloop
endfacet
facet normal 0.0 -0.9284768130182423 0.3713903710215009
outer loop
vertex 18.0 3.0 14.0
vertex 14.819999933242798 3.0999999046325684 14.25
vertex 14.819999933242798 3.0 14.0
endloop
endfacet
facet normal 0.0 -0.9284766821614723 0.37139069816357073
outer loop
vertex 17.199999809265137 3.799999952316284 16.0
vertex 8.380000114440918 3.0999999046325684 14.25
vertex 13.619999885559082 3.0999999046325684 14.25
endloop
endfacet
facet normal 0.0 -0.9284766821614723 0.3713906981635708
outer loop
vertex 17.199999809265137 3.799999952316284 16.0
vertex 13.619999885559082 3.0999999046325684 14.25
vertex 14.819999933242798 3.0999999046325684 14.25
endloop
endfacet
facet normal -0.0 -1.0 -0.0
outer loop
vertex 18.0 3.0 14.0
vertex 14.819999933242798 3.0 14.0
vertex 18.0 3.0 4.0
endloop
endfacet
facet normal 1.0 -0.0 0.0
outer loop
vertex 18.0 3.0 14.0
vertex 18.0 3.0 4.0
vertex 18.0 10.0 14.0
endloop
endfacet
facet normal 2.6952040326984365e-08 -0.9284766948010488 0.37139066656462877
outer loop
vertex 18.0 3.0 14.0
vertex 17.199999809265137 3.799999952316284 16.0
vertex 14.819999933242798 3.0999999046325684 14.25
endloop
endfacet
facet normal 0.9284766603520028 -0.0 0.3713907526872356
outer loop
vertex 18.0 3.0 14.0
vertex 18.0 10.0 14.0
vertex 17.199999809265137 3.799999952316284 16.0
endloop
endfacet
facet normal 0.0 1.0 -0.0
outer loop
vertex 18.0 10.0 4.0
vertex 4.0 10.0 4.0
vertex 14.819999933242798 10.0 5.0
endloop
endfacet
facet normal 1.0 -0.0 0.0
outer loop
vertex 18.0 10.0 14.0
vertex 18.0 3.0 4.0
vertex 18.0 10.0 4.0
endloop
endfacet
facet normal 0.0 1.0 0.0
outer loop
vertex 18.0 10.0 14.0
vertex 18.0 10.0 4.0
vertex 14.819999933242798 10.0 5.0
endloop
endfacet
facet normal -0.0 0.0 1.0
outer loop
vertex 4.800000190734863 9.200000047683716 16.0
vertex 17.199999809265137 3.799999952316284 16.0
vertex 17.199999809265137 9.200000047683716 16.0
endloop
endfacet
facet normal 0.0 0.9284766821614723 0.3713906981635708
outer loop
vertex 4.800000190734863 9.200000047683716 16.0
vertex 14.819999933242798 9.900000095367432 14.25
vertex 13.619999885559082 9.900000095367432 14.25
endloop
endfacet
facet normal 5.425638545136087e-08 0.9284765750384776 0.37139096597092325
outer loop
vertex 4.800000190734863 9.200000047683716 16.0
vertex 18.0 10.0 14.0
vertex 14.819999933242798 9.900000095367432 14.25
endloop
endfacet
facet normal -0.0 0.9284766985185727 0.3713906572708196
outer loop
vertex 4.800000190734863 9.200000047683716 16.0
vertex 17.199999809265137 9.200000047683716 16.0
vertex 18.0 10.0 14.0
endloop
endfacet
facet normal 0.0 1.0 -0.0
outer loop
vertex 13.619999885559082 10.0 5.0
vertex 8.380000114440918 10.0 5.0
vertex 13.619999885559082 10.0 14.0
endloop
endfacet
facet normal 0.0 1.0 -0.0
outer loop
vertex 18.0 10.0 14.0
vertex 14.819999933242798 10.0 5.0
vertex 14.819999933242798 10.0 14.0
endloop
endfacet
facet normal 0.0 0.9284768130182421 0.3713903710215009
outer loop
vertex 8.380000114440918 10.0 14.0
vertex 13.619999885559082 9.900000095367432 14.25
vertex 13.619999885559082 10.0 14.0
endloop
endfacet
facet normal 0.0 0.9284768130182423 0.3713903710215009
outer loop
vertex 18.0 10.0 14.0
vertex 14.819999933242798 10.0 14.0
vertex 14.819999933242798 9.900000095367432 14.25
endloop
endfacet
facet normal 0.9284766603520029 0.0 0.37139075268723565
outer loop
vertex 17.199999809265137 3.799999952316284 16.0
vertex 18.0 10.0 14.0
vertex 17.199999809265137 9.200000047683716 16.0
endloop
endfacet
facet normal 0.0 -0.9889363563271844 -0.14834042987099755
outer loop
vertex 7.180000066757202 2.700000047683716 7.0
vertex 7.180000066757202 3.0 5.0
vertex 8.380000114440918 3.0 5.0
endloop
endfacet
facet normal 0.0 -0.9889363563271844 -0.14834042987099755
outer loop
vertex 7.180000066757202 2.700000047683716 7.0
vertex 8.380000114440918 3.0 5.0
vertex 8.380000114440918 2.700000047683716 7.0
endloop
endfacet
facet normal -1.0 0.0 0.0
outer loop
vertex 7.180000066757202 2.700000047683716 7.0
vertex 7.180000066757202 3.0 14.0
vertex 7.180000066757202 3.0 5.0
endloop
endfacet
facet normal 0.0 -1.0 0.0
outer loop
vertex 7.180000066757202 2.700000047683716 7.0
vertex 8.380000114440918 2.700000047683716 7.0
vertex 7.180000066757202 2.700000047683716 13.0
endloop
endfacet
facet normal -1.0 0.0 0.0
outer loop
vertex 7.180000066757202 2.700000047683716 7.0
vertex 7.180000066757202 2.700000047683716 13.0
vertex 7.180000066757202 3.0 15.0
endloop
endfacet
facet normal 0.0 -1.0 0.0
outer loop
vertex 8.380000114440918 2.700000047683716 7.0
vertex 8.380000114440918 2.700000047683716 13.0
vertex 7.180000066757202 2.700000047683716 13.0
endloop
endfacet
facet normal 1.0 -0.0 0.0
outer loop
vertex 8.380000114440918 2.700000047683716 7.0
vertex 8.380000114440918 3.0 5.0
vertex 8.380000114440918 3.0 14.0
endloop
endfacet
facet normal 1.0 0.0 -0.0
outer loop
vertex 8.380000114440918 2.700000047683716 7.0
vertex 8.380000114440918 3.0 15.0
vertex 8.380000114440918 2.700000047683716 13.0
endloop
endfacet
facet normal -1.0 0.0 0.0
outer loop
vertex 7.180000066757202 2.700000047683716 7.0
vertex 7.180000066757202 3.0 15.0
vertex 7.180000066757202 3.0 14.0
endloop
endfacet
facet normal 0.0 -0.9889363563271844 0.14834042987099755
outer loop
vertex 7.180000066757202 2.700000047683716 13.0
vertex 8.380000114440918 2.700000047683716 13.0
vertex 7.180000066757202 3.0 15.0
endloop
endfacet
facet normal -1.0 0.0 -0.0
outer loop
vertex 7.180000066757202 3.0 15.0
vertex 7.180000066757202 3.0999999046325684 14.25
vertex 7.180000066757202 3.0 14.0
endloop
endfacet
facet normal -1.0 0.0 0.0
outer loop
vertex 7.180000066757202 3.0 15.0
vertex 7.180000066757202 3.0999999046325684 15.0
vertex 7.180000066757202 3.0999999046325684 14.25
endloop
endfacet
facet normal 0.0 -0.9889363563271844 0.14834042987099755
outer loop
vertex 7.180000066757202 3.0 15.0
vertex 8.380000114440918 2.700000047683716 13.0
vertex 8.380000114440918 3.0 15.0
endloop
endfacet
facet normal 0.0 1.0 0.0
outer loop
vertex 8.380000114440918 3.0999999046325684 15.0
vertex 8.380000114440918 3.0999999046325684 14.25
vertex 7.180000066757202 3.0999999046325684 14.25
endloop
endfacet
facet normal -0.0 1.0 0.0
outer loop
vertex 7.180000066757202 3.0999999046325684 15.0
vertex 8.380000114440918 3.0999999046325684 15.0
vertex 7.180000066757202 3.0999999046325684 14.25
endloop
endfacet
facet normal 0.0 -0.0 1.0
outer loop
vertex 7.180000066757202 3.0 15.0
vertex 8.380000114440918 3.0999999046325684 15.0
vertex 7.180000066757202 3.0999999046325684 15.0
endloop
endfacet
facet normal 0.0 0.0 1.0
outer loop
vertex 7.180000066757202 3.0 15.0
vertex 8.380000114440918 3.0 15.0
vertex 8.380000114440918 3.0999999046325684 15.0
endloop
endfacet
facet normal 1.0 0.0 0.0
outer loop
vertex 8.380000114440918 2.700000047683716 7.0
vertex 8.380000114440918 3.0 14.0
vertex 8.380000114440918 3.0 15.0
endloop
endfacet
facet normal 1.0 -0.0 0.0
outer loop
vertex 8.380000114440918 3.0 15.0
vertex 8.380000114440918 3.0 14.0
vertex 8.380000114440918 3.0999999046325684 14.25
endloop
endfacet
facet normal 1.0 -0.0 0.0
outer loop
vertex 8.380000114440918 3.0 15.0
vertex 8.380000114440918 3.0999999046325684 14.25
vertex 8.380000114440918 3.0999999046325684 15.0
endloop
endfacet
facet normal 0.0 0.9889363563271844 -0.14834042987099755
outer loop
vertex 7.180000066757202 10.299999952316284 7.0
vertex 8.380000114440918 10.0 5.0
vertex 7.180000066757202 10.0 5.0
endloop
endfacet
facet normal 0.0 0.9889363563271844 -0.14834042987099755
outer loop
vertex 7.180000066757202 10.299999952316284 7.0
vertex 8.380000114440918 10.299999952316284 7.0
vertex 8.380000114440918 10.0 5.0
endloop
endfacet
facet normal -1.0 -0.0 0.0
outer loop
vertex 7.180000066757202 10.299999952316284 7.0
vertex 7.180000066757202 10.0 5.0
vertex 7.180000066757202 10.0 14.0
endloop
endfacet
facet normal -0.0 1.0 0.0
outer loop
vertex 7.180000066757202 10.299999952316284 7.0
vertex 7.180000066757202 10.299999952316284 13.0
vertex 8.380000114440918 10.299999952316284 7.0
endloop
endfacet
facet normal -1.0 0.0 0.0
outer loop
vertex 7.180000066757202 10.299999952316284 7.0
vertex 7.180000066757202 10.0 15.0
vertex 7.180000066757202 10.299999952316284 13.0
endloop
endfacet
facet normal 0.0 1.0 -0.0
outer loop
vertex 8.380000114440918 10.299999952316284 7.0
vertex 7.180000066757202 10.299999952316284 13.0
vertex 8.380000114440918 10.299999952316284 13.0
endloop
endfacet
facet normal 1.0 0.0 0.0
outer loop
vertex 8.380000114440918 10.299999952316284 7.0
vertex 8.380000114440918 10.0 14.0
vertex 8.380000114440918 10.0 5.0
endloop
endfacet
facet normal 1.0 0.0 -0.0
outer loop
vertex 8.380000114440918 10.299999952316284 7.0
vertex 8.380000114440918 10.299999952316284 13.0
vertex 8.380000114440918 10.0 15.0
endloop
endfacet
facet normal -1.0 0.0 0.0
outer loop
vertex 7.180000066757202 10.299999952316284 7.0
vertex 7.180000066757202 10.0 14.0
vertex 7.180000066757202 10.0 15.0
endloop
endfacet
facet normal 0.0 0.9889363563271844 0.14834042987099755
outer loop
vertex 7.180000066757202 10.299999952316284 13.0
vertex 7.180000066757202 10.0 15.0
vertex 8.380000114440918 10.299999952316284 13.0
endloop
endfacet
facet normal -1.0 -0.0 -0.0
outer loop
vertex 7.180000066757202 10.0 15.0
vertex 7.180000066757202 10.0 14.0
vertex 7.180000066757202 9.900000095367432 14.25
endloop
endfacet
facet normal -1.0 0.0 -0.0
outer loop
vertex 7.180000066757202 9.900000095367432 15.0
vertex 7.180000066757202 10.0 15.0
vertex 7.180000066757202 9.900000095367432 14.25
endloop
endfacet
facet normal 0.0 -1.0 0.0
outer loop
vertex 7.180000066757202 9.900000095367432 15.0
vertex 7.180000066757202 9.900000095367432 14.25
vertex 8.380000114440918 9.900000095367432 14.25
endloop
endfacet
facet normal -0.0 0.9889363563271844 0.14834042987099755
outer loop
vertex 7.180000066757202 10.0 15.0
vertex 8.380000114440918 10.0 15.0
vertex 8.380000114440918 10.299999952316284 13.0
endloop
endfacet
facet normal 0.0 -1.0 0.0
outer loop
vertex 7.180000066757202 9.900000095367432 15.0
vertex 8.380000114440918 9.900000095367432 14.25
vertex 8.380000114440918 9.900000095367432 15.0
endloop
endfacet
facet normal 0.0 -0.0 1.0
outer loop
vertex 7.180000066757202 9.900000095367432 15.0
vertex 8.380000114440918 9.900000095367432 15.0
vertex 7.180000066757202 10.0 15.0
endloop
endfacet
facet normal -0.0 0.0 1.0
outer loop
vertex 7.180000066757202 10.0 15.0
vertex 8.380000114440918 9.900000095367432 15.0
vertex 8.380000114440918 10.0 15.0
endloop
endfacet
facet normal 1.0 0.0 0.0
outer loop
vertex 8.380000114440918 10.299999952316284 7.0
vertex 8.380000114440918 10.0 15.0
vertex 8.380000114440918 10.0 14.0
endloop
endfacet
facet normal 1.0 0.0 0.0
outer loop
vertex 8.380000114440918 10.0 15.0
vertex 8.380000114440918 9.900000095367432 14.25
vertex 8.380000114440918 10.0 14.0
endloop
endfacet
facet normal 1.0 -0.0 0.0
outer loop
vertex 8.380000114440918 9.900000095367432 15.0
vertex 8.380000114440918 9.900000095367432 14.25
vertex 8.380000114440918 10.0 15.0
endloop
endfacet
facet normal 0.0 -0.9889363563271844 -0.14834042987099755
outer loop
vertex 13.619999885559082 2.700000047683716 7.0
vertex 13.619999885559082 3.0 5.0
vertex 14.819999933242798 3.0 5.0
endloop
endfacet
facet normal 0.0 -0.9889363563271844 -0.14834042987099755
outer loop
vertex 13.619999885559082 2.700000047683716 7.0
vertex 14.819999933242798 3.0 5.0
vertex 14.819999933242798 2.700000047683716 7.0
endloop
endfacet
facet normal -1.0 0.0 0.0
outer loop
vertex 13.619999885559082 2.700000047683716 7.0
vertex 13.619999885559082 3.0 14.0
vertex 13.619999885559082 3.0 5.0
endloop
endfacet
facet normal -1.0 0.0 0.0
outer loop
vertex 13.619999885559082 2.700000047683716 7.0
vertex 13.619999885559082 2.700000047683716 13.0
vertex 13.619999885559082 3.0 15.0
endloop
endfacet
facet normal 1.0 -0.0 0.0
outer loop
vertex 14.819999933242798 2.700000047683716 7.0
vertex 14.819999933242798 3.0 5.0
vertex 14.819999933242798 3.0 14.0
endloop
endfacet
facet normal 0.0 -1.0 0.0
outer loop
vertex 13.619999885559082 2.700000047683716 7.0
vertex 14.819999933242798 2.700000047683716 7.0
vertex 13.619999885559082 2.700000047683716 13.0
endloop
endfacet
facet normal 0.0 -1.0 0.0
outer loop
vertex 14.819999933242798 2.700000047683716 7.0
vertex 14.819999933242798 2.700000047683716 13.0
vertex 13.619999885559082 2.700000047683716 13.0
endloop
endfacet
facet normal 1.0 0.0 -0.0
outer loop
vertex 14.819999933242798 2.700000047683716 7.0
vertex 14.819999933242798 3.0 15.0
vertex 14.819999933242798 2.700000047683716 13.0
endloop
endfacet
facet normal -1.0 0.0 0.0
outer loop
vertex 13.619999885559082 2.700000047683716 7.0
vertex 13.619999885559082 3.0 15.0
vertex 13.619999885559082 3.0 14.0
endloop
endfacet
facet normal -1.0 0.0 -0.0
outer loop
vertex 13.619999885559082 3.0 15.0
vertex 13.619999885559082 3.0999999046325684 14.25
vertex 13.619999885559082 3.0 14.0
endloop
endfacet
facet normal -1.0 0.0 0.0
outer loop
vertex 13.619999885559082 3.0 15.0
vertex 13.619999885559082 3.0999999046325684 15.0
vertex 13.619999885559082 3.0999999046325684 14.25
endloop
endfacet
facet normal 1.0 0.0 0.0
outer loop
vertex 14.819999933242798 2.700000047683716 7.0
vertex 14.819999933242798 3.0 14.0
vertex 14.819999933242798 3.0 15.0
endloop
endfacet
facet normal 0.0 -0.9889363563271844 0.14834042987099755
outer loop
vertex 13.619999885559082 2.700000047683716 13.0
vertex 14.819999933242798 2.700000047683716 13.0
vertex 13.619999885559082 3.0 15.0
endloop
endfacet
facet normal 0.0 -0.9889363563271844 0.14834042987099755
outer loop
vertex 13.619999885559082 3.0 15.0
vertex 14.819999933242798 2.700000047683716 13.0
vertex 14.819999933242798 3.0 15.0
endloop
endfacet
facet normal 0.0 1.0 0.0
outer loop
vertex 14.819999933242798 3.0999999046325684 15.0
vertex 14.819999933242798 3.0999999046325684 14.25
vertex 13.619999885559082 3.0999999046325684 14.25
endloop
endfacet
facet normal -0.0 1.0 0.0
outer loop
vertex 13.619999885559082 3.0999999046325684 15.0
vertex 14.819999933242798 3.0999999046325684 15.0
vertex 13.619999885559082 3.0999999046325684 14.25
endloop
endfacet
facet normal 1.0 -0.0 0.0
outer loop
vertex 14.819999933242798 3.0 15.0
vertex 14.819999933242798 3.0 14.0
vertex 14.819999933242798 3.0999999046325684 14.25
endloop
endfacet
facet normal 1.0 -0.0 0.0
outer loop
vertex 14.819999933242798 3.0 15.0
vertex 14.819999933242798 3.0999999046325684 14.25
vertex 14.819999933242798 3.0999999046325684 15.0
endloop
endfacet
facet normal 0.0 -0.0 1.0
outer loop
vertex 13.619999885559082 3.0 15.0
vertex 14.819999933242798 3.0999999046325684 15.0
vertex 13.619999885559082 3.0999999046325684 15.0
endloop
endfacet
facet normal 0.0 0.0 1.0
outer loop
vertex 13.619999885559082 3.0 15.0
vertex 14.819999933242798 3.0 15.0
vertex 14.819999933242798 3.0999999046325684 15.0
endloop
endfacet
facet normal 0.0 0.9889363563271844 -0.14834042987099755
outer loop
vertex 13.619999885559082 10.299999952316284 7.0
vertex 14.819999933242798 10.0 5.0
vertex 13.619999885559082 10.0 5.0
endloop
endfacet
facet normal 0.0 0.9889363563271844 -0.14834042987099755
outer loop
vertex 13.619999885559082 10.299999952316284 7.0
vertex 14.819999933242798 10.299999952316284 7.0
vertex 14.819999933242798 10.0 5.0
endloop
endfacet
facet normal -1.0 -0.0 0.0
outer loop
vertex 13.619999885559082 10.299999952316284 7.0
vertex 13.619999885559082 10.0 5.0
vertex 13.619999885559082 10.0 14.0
endloop
endfacet
facet normal -1.0 0.0 0.0
outer loop
vertex 13.619999885559082 10.299999952316284 7.0
vertex 13.619999885559082 10.0 15.0
vertex 13.619999885559082 10.299999952316284 13.0
endloop
endfacet
facet normal 1.0 0.0 0.0
outer loop
vertex 14.819999933242798 10.299999952316284 7.0
vertex 14.819999933242798 10.0 14.0
vertex 14.819999933242798 10.0 5.0
endloop
endfacet
facet normal -0.0 1.0 0.0
outer loop
vertex 13.619999885559082 10.299999952316284 7.0
vertex 13.619999885559082 10.299999952316284 13.0
vertex 14.819999933242798 10.299999952316284 7.0
endloop
endfacet
facet normal 0.0 1.0 -0.0
outer loop
vertex 14.819999933242798 10.299999952316284 7.0
vertex 13.619999885559082 10.299999952316284 13.0
vertex 14.819999933242798 10.299999952316284 13.0
endloop
endfacet
facet normal 1.0 0.0 -0.0
outer loop
vertex 14.819999933242798 10.299999952316284 7.0
vertex 14.819999933242798 10.299999952316284 13.0
vertex 14.819999933242798 10.0 15.0
endloop
endfacet
facet normal -1.0 0.0 0.0
outer loop
vertex 13.619999885559082 10.299999952316284 7.0
vertex 13.619999885559082 10.0 14.0
vertex 13.619999885559082 10.0 15.0
endloop
endfacet
facet normal -1.0 -0.0 -0.0
outer loop
vertex 13.619999885559082 10.0 15.0
vertex 13.619999885559082 10.0 14.0
vertex 13.619999885559082 9.900000095367432 14.25
endloop
endfacet
facet normal -1.0 0.0 -0.0
outer loop
vertex 13.619999885559082 9.900000095367432 15.0
vertex 13.619999885559082 10.0 15.0
vertex 13.619999885559082 9.900000095367432 14.25
endloop
endfacet
facet normal 1.0 0.0 0.0
outer loop
vertex 14.819999933242798 10.299999952316284 7.0
vertex 14.819999933242798 10.0 15.0
vertex 14.819999933242798 10.0 14.0
endloop
endfacet
facet normal 0.0 0.9889363563271844 0.14834042987099755
outer loop
vertex 13.619999885559082 10.299999952316284 13.0
vertex 13.619999885559082 10.0 15.0
vertex 14.819999933242798 10.299999952316284 13.0
endloop
endfacet
facet normal 0.0 -1.0 0.0
outer loop
vertex 13.619999885559082 9.900000095367432 15.0
vertex 13.619999885559082 9.900000095367432 14.25
vertex 14.819999933242798 9.900000095367432 14.25
endloop
endfacet
facet normal -0.0 0.9889363563271844 0.14834042987099755
outer loop
vertex 13.619999885559082 10.0 15.0
vertex 14.819999933242798 10.0 15.0
vertex 14.819999933242798 10.299999952316284 13.0
endloop
endfacet
facet normal 0.0 -1.0 0.0
outer loop
vertex 13.619999885559082 9.900000095367432 15.0
vertex 14.819999933242798 9.900000095367432 14.25
vertex 14.819999933242798 9.900000095367432 15.0
endloop
endfacet
facet normal 1.0 0.0 0.0
outer loop
vertex 14.819999933242798 10.0 15.0
vertex 14.819999933242798 9.900000095367432 14.25
vertex 14.819999933242798 10.0 14.0
endloop
endfacet
facet normal 1.0 -0.0 0.0
outer loop
vertex 14.819999933242798 9.900000095367432 15.0
vertex 14.819999933242798 9.900000095367432 14.25
vertex 14.819999933242798 10.0 15.0
endloop
endfacet
facet normal 0.0 -0.0 1.0
outer loop
vertex 13.619999885559082 9.900000095367432 15.0
vertex 14.819999933242798 9.900000095367432 15.0
vertex 13.619999885559082 10.0 15.0
endloop
endfacet
facet normal -0.0 0.0 1.0
outer loop
vertex 13.619999885559082 10.0 15.0
vertex 14.819999933242798 9.900000095367432 15.0
vertex 14.819999933242798 10.0 15.0
endloop
endfacet
facet normal -1.0 0.0 0.0
outer loop
vertex 0.0 0.0 0.0
vertex 0.0 0.0 4.0
vertex 0.0 13.0 4.0
endloop
endfacet
facet normal 0.0 0.0 1.0
outer loop
vertex 0.0 0.0 4.0
vertex 4.0 3.0 4.0
vertex 4.0 10.0 4.0
endloop
endfacet
facet normal 0.0 -1.0 0.0
outer loop
vertex 0.0 0.0 0.0
vertex 22.0 0.0 0.0
vertex 0.0 0.0 4.0
endloop
endfacet
facet normal 0.0 -0.0 1.0
outer loop
vertex 0.0 0.0 4.0
vertex 18.0 3.0 4.0
vertex 4.0 3.0 4.0
endloop
endfacet
facet normal 0.0 0.0 -1.0
outer loop
vertex 0.0 0.0 0.0
vertex 0.0 13.0 0.0
vertex 22.0 0.0 0.0
endloop
endfacet
facet normal -1.0 0.0 0.0
outer loop
vertex 0.0 0.0 0.0
vertex 0.0 13.0 4.0
vertex 0.0 13.0 0.0
endloop
endfacet
facet normal 0.0 -0.0 1.0
outer loop
vertex 0.0 0.0 4.0
vertex 4.0 10.0 4.0
vertex 0.0 13.0 4.0
endloop
endfacet
facet normal 0.0 1.0 0.0
outer loop
vertex 0.0 13.0 0.0
vertex 0.0 13.0 4.0
vertex 22.0 13.0 4.0
endloop
endfacet
facet normal -0.0 0.0 1.0
outer loop
vertex 0.0 13.0 4.0
vertex 4.0 10.0 4.0
vertex 22.0 13.0 4.0
endloop
endfacet
facet normal 0.0 -1.0 0.0
outer loop
vertex 0.0 0.0 4.0
vertex 22.0 0.0 0.0
vertex 22.0 0.0 4.0
endloop
endfacet
facet normal 0.0 -0.0 1.0
outer loop
vertex 0.0 0.0 4.0
vertex 22.0 0.0 4.0
vertex 18.0 3.0 4.0
endloop
endfacet
facet normal 1.0 0.0 -0.0
outer loop
vertex 22.0 0.0 0.0
vertex 22.0 13.0 0.0
vertex 22.0 0.0 4.0
endloop
endfacet
facet normal 0.0 -0.0 1.0
outer loop
vertex 22.0 0.0 4.0
vertex 22.0 13.0 4.0
vertex 18.0 3.0 4.0
endloop
endfacet
facet normal 0.0 0.0 -1.0
outer loop
vertex 0.0 13.0 0.0
vertex 22.0 13.0 0.0
vertex 22.0 0.0 0.0
endloop
endfacet
facet normal -0.0 1.0 0.0
outer loop
vertex 0.0 13.0 0.0
vertex 22.0 13.0 4.0
vertex 22.0 13.0 0.0
endloop
endfacet
facet normal -0.0 0.0 1.0
outer loop
vertex 22.0 13.0 4.0
vertex 4.0 10.0 4.0
vertex 18.0 10.0 4.0
endloop
endfacet
facet normal 1.0 -0.0 0.0
outer loop
vertex 22.0 0.0 4.0
vertex 22.0 13.0 0.0
vertex 22.0 13.0 4.0
endloop
endfacet
facet normal 0.0 0.0 1.0
outer loop
vertex 22.0 13.0 4.0
vertex 18.0 10.0 4.0
vertex 18.0 3.0 4.0
endloop
endfacet

endsolid
