solid 
facet normal 0.0 -1.0 0.0
outer loop
vertex 0.0 0.0 0.0
vertex 22.0 0.0 0.0
vertex 0.0 0.0 16.0
endloop
endfacet
facet normal 0.0 0.0 -1.0
outer loop
vertex 0.0 0.0 0.0
vertex 0.0 13.0 0.0
vertex 22.0 0.0 0.0
endloop
endfacet
facet normal -1.0 0.0 0.0
outer loop
vertex 0.0 0.0 0.0
vertex 0.0 0.0 16.0
vertex 0.0 13.0 16.0
endloop
endfacet
facet normal 0.0 0.0 0.9999999999999999
outer loop
vertex 0.0 0.0 16.0
vertex 3.6999998092651367 2.700000047683716 16.0
vertex 3.6999998092651367 10.299999952316284 16.0
endloop
endfacet
facet normal 0.0 -0.0 1.0
outer loop
vertex 0.0 0.0 16.0
vertex 22.0 0.0 16.0
vertex 3.6999998092651367 2.700000047683716 16.0
endloop
endfacet
facet normal -1.0 0.0 0.0
outer loop
vertex 0.0 0.0 0.0
vertex 0.0 13.0 16.0
vertex 0.0 13.0 0.0
endloop
endfacet
facet normal 0.0 -0.0 1.0
outer loop
vertex 0.0 0.0 16.0
vertex 3.6999998092651367 10.299999952316284 16.0
vertex 0.0 13.0 16.0
endloop
endfacet
facet normal 0.0 1.0 0.0
outer loop
vertex 0.0 13.0 0.0
vertex 0.0 13.0 16.0
vertex 22.0 13.0 16.0
endloop
endfacet
facet normal -0.0 0.0 1.0
outer loop
vertex 0.0 13.0 16.0
vertex 3.6999998092651367 10.299999952316284 16.0
vertex 18.300000190734863 10.299999952316284 16.0
endloop
endfacet
facet normal 1.0 0.0 -0.0
outer loop
vertex 22.0 0.0 0.0
vertex 22.0 13.0 0.0
vertex 22.0 0.0 16.0
endloop
endfacet
facet normal 0.0 -1.0 0.0
outer loop
vertex 0.0 0.0 16.0
vertex 22.0 0.0 0.0
vertex 22.0 0.0 16.0
endloop
endfacet
facet normal 0.0 0.0 1.0
outer loop
vertex 22.0 0.0 16.0
vertex 18.300000190734863 2.700000047683716 16.0
vertex 3.6999998092651367 2.700000047683716 16.0
endloop
endfacet
facet normal 0.0 -0.0 1.0
outer loop
vertex 22.0 0.0 16.0
vertex 22.0 13.0 16.0
vertex 18.300000190734863 2.700000047683716 16.0
endloop
endfacet
facet normal 0.0 0.0 -1.0
outer loop
vertex 0.0 13.0 0.0
vertex 22.0 13.0 0.0
vertex 22.0 0.0 0.0
endloop
endfacet
facet normal -0.0 1.0 0.0
outer loop
vertex 0.0 13.0 0.0
vertex 22.0 13.0 16.0
vertex 22.0 13.0 0.0
endloop
endfacet
facet normal -0.0 0.0 1.0
outer loop
vertex 0.0 13.0 16.0
vertex 18.300000190734863 10.299999952316284 16.0
vertex 22.0 13.0 16.0
endloop
endfacet
facet normal 1.0 -0.0 0.0
outer loop
vertex 22.0 0.0 16.0
vertex 22.0 13.0 0.0
vertex 22.0 13.0 16.0
endloop
endfacet
facet normal 0.0 0.0 0.9999999999999999
outer loop
vertex 22.0 13.0 16.0
vertex 18.300000190734863 10.299999952316284 16.0
vertex 18.300000190734863 2.700000047683716 16.0
endloop
endfacet
facet normal -0.0 1.0 0.0
outer loop
vertex 3.6999998092651367 2.700000047683716 3.4000000953674316
vertex 3.6999998092651367 2.700000047683716 16.0
vertex 18.300000190734863 2.700000047683716 3.4000000953674316
endloop
endfacet
facet normal 0.0 -0.0 1.0
outer loop
vertex 3.6999998092651367 2.700000047683716 3.4000000953674316
vertex 18.300000190734863 2.700000047683716 3.4000000953674316
vertex 3.6999998092651367 10.299999952316284 3.4000000953674316
endloop
endfacet
facet normal 1.0 0.0 -0.0
outer loop
vertex 3.6999998092651367 2.700000047683716 3.4000000953674316
vertex 3.6999998092651367 10.299999952316284 16.0
vertex 3.6999998092651367 2.700000047683716 16.0
endloop
endfacet
facet normal 1.0 0.0 0.0
outer loop
vertex 3.6999998092651367 2.700000047683716 3.4000000953674316
vertex 3.6999998092651367 10.299999952316284 3.4000000953674316
vertex 3.6999998092651367 10.299999952316284 16.0
endloop
endfacet
facet normal 0.0 -1.0 0.0
outer loop
vertex 3.6999998092651367 10.299999952316284 3.4000000953674316
vertex 18.300000190734863 10.299999952316284 16.0
vertex 3.6999998092651367 10.299999952316284 16.0
endloop
endfacet
facet normal -1.0 0.0 0.0
outer loop
vertex 18.300000190734863 2.700000047683716 3.4000000953674316
vertex 18.300000190734863 2.700000047683716 16.0
vertex 18.300000190734863 10.299999952316284 3.4000000953674316
endloop
endfacet
facet normal 0.0 1.0 -0.0
outer loop
vertex 18.300000190734863 2.700000047683716 3.4000000953674316
vertex 3.6999998092651367 2.700000047683716 16.0
vertex 18.300000190734863 2.700000047683716 16.0
endloop
endfacet
facet normal -0.0 0.0 1.0
outer loop
vertex 3.6999998092651367 10.299999952316284 3.4000000953674316
vertex 18.300000190734863 2.700000047683716 3.4000000953674316
vertex 18.300000190734863 10.299999952316284 3.4000000953674316
endloop
endfacet
facet normal 0.0 -1.0 0.0
outer loop
vertex 3.6999998092651367 10.299999952316284 3.4000000953674316
vertex 18.300000190734863 10.299999952316284 3.4000000953674316
vertex 18.300000190734863 10.299999952316284 16.0
endloop
endfacet
facet normal -1.0 0.0 0.0
outer loop
vertex 18.300000190734863 10.299999952316284 3.4000000953674316
vertex 18.300000190734863 2.700000047683716 16.0
vertex 18.300000190734863 10.299999952316284 16.0
endloop
endfacet

endsolid
