solid 
facet normal -1.0 -0.0 -0.0
outer loop
vertex 4.0 3.0 14.0
vertex 4.0 8.0 4.0
vertex 4.0 3.0 4.0
endloop
endfacet
facet normal 0.0 -1.0 -0.0
outer loop
vertex 5.829999923706055 3.0 5.0
vertex 4.0 3.0 4.0
vertex 7.0299999713897705 3.0 5.0
endloop
endfacet
facet normal 0.0 -1.0 0.0
outer loop
vertex 4.0 3.0 14.0
vertex 4.0 3.0 4.0
vertex 5.829999923706055 3.0 5.0
endloop
endfacet
facet normal 0.0 -1.0 -0.0
outer loop
vertex 7.0299999713897705 3.0 5.0
vertex 4.0 3.0 4.0
vertex 13.0 3.0 4.0
endloop
endfacet
facet normal 0.0 -1.0 0.0
outer loop
vertex 4.0 3.0 14.0
vertex 5.829999923706055 3.0 5.0
vertex 5.829999923706055 3.0 14.0
endloop
endfacet
facet normal 0.0 -1.0 0.0
outer loop
vertex 7.0299999713897705 3.0 5.0
vertex 9.97000002861023 3.0 5.0
vertex 7.0299999713897705 3.0 14.0
endloop
endfacet
facet normal 0.0 -0.9284768130182423 0.3713903710215009
outer loop
vertex 4.0 3.0 14.0
vertex 5.829999923706055 3.0 14.0
vertex 5.829999923706055 3.0999999046325684 14.25
endloop
endfacet
facet normal -0.9284766985185727 0.0 0.37139065727081955
outer loop
vertex 4.0 3.0 14.0
vertex 4.799999952316284 3.799999952316284 16.0
vertex 4.799999952316284 7.200000047683716 16.0
endloop
endfacet
facet normal -1.0312084614099246e-07 -0.9284765527269605 0.3713910217496498
outer loop
vertex 4.0 3.0 14.0
vertex 5.829999923706055 3.0999999046325684 14.25
vertex 12.200000047683716 3.799999952316284 16.0
endloop
endfacet
facet normal 0.0 -0.9284766985185728 0.3713906572708196
outer loop
vertex 4.0 3.0 14.0
vertex 12.200000047683716 3.799999952316284 16.0
vertex 4.799999952316284 3.799999952316284 16.0
endloop
endfacet
facet normal 0.0 -0.9284768130182424 0.37139037102150096
outer loop
vertex 7.0299999713897705 3.0999999046325684 14.25
vertex 7.0299999713897705 3.0 14.0
vertex 9.97000002861023 3.0 14.0
endloop
endfacet
facet normal 0.0 -0.9284766821614723 0.3713906981635708
outer loop
vertex 12.200000047683716 3.799999952316284 16.0
vertex 5.829999923706055 3.0999999046325684 14.25
vertex 7.0299999713897705 3.0999999046325684 14.25
endloop
endfacet
facet normal 0.0 -0.0 0.9999999999999999
outer loop
vertex 4.799999952316284 3.799999952316284 16.0
vertex 12.200000047683716 3.799999952316284 16.0
vertex 4.799999952316284 7.200000047683716 16.0
endloop
endfacet
facet normal -0.0 1.0 0.0
outer loop
vertex 5.829999923706055 8.0 5.0
vertex 7.0299999713897705 8.0 5.0
vertex 4.0 8.0 4.0
endloop
endfacet
facet normal 0.0 1.0 -0.0
outer loop
vertex 5.829999923706055 8.0 5.0
vertex 4.0 8.0 4.0
vertex 5.829999923706055 8.0 14.0
endloop
endfacet
facet normal -0.0 1.0 0.0
outer loop
vertex 7.0299999713897705 8.0 5.0
vertex 9.97000002861023 8.0 5.0
vertex 4.0 8.0 4.0
endloop
endfacet
facet normal -1.0 0.0 0.0
outer loop
vertex 4.0 3.0 14.0
vertex 4.0 8.0 14.0
vertex 4.0 8.0 4.0
endloop
endfacet
facet normal -0.0 1.0 0.0
outer loop
vertex 4.0 8.0 14.0
vertex 5.829999923706055 8.0 14.0
vertex 4.0 8.0 4.0
endloop
endfacet
facet normal -0.0 1.0 0.0
outer loop
vertex 7.0299999713897705 8.0 14.0
vertex 9.97000002861023 8.0 14.0
vertex 7.0299999713897705 8.0 5.0
endloop
endfacet
facet normal -0.9284766985185727 0.0 0.37139065727081955
outer loop
vertex 4.0 3.0 14.0
vertex 4.799999952316284 7.200000047683716 16.0
vertex 4.0 8.0 14.0
endloop
endfacet
facet normal -4.798398177993217e-08 0.928476691900092 0.371390673817019
outer loop
vertex 4.799999952316284 7.200000047683716 16.0
vertex 5.829999923706055 7.900000095367432 14.25
vertex 4.0 8.0 14.0
endloop
endfacet
facet normal 0.0 0.9284768130182423 0.3713903710215009
outer loop
vertex 4.0 8.0 14.0
vertex 5.829999923706055 7.900000095367432 14.25
vertex 5.829999923706055 8.0 14.0
endloop
endfacet
facet normal 0.0 0.9284766821614723 0.3713906981635708
outer loop
vertex 4.799999952316284 7.200000047683716 16.0
vertex 7.0299999713897705 7.900000095367432 14.25
vertex 5.829999923706055 7.900000095367432 14.25
endloop
endfacet
facet normal 0.0 0.9284766821614723 0.3713906981635708
outer loop
vertex 4.799999952316284 7.200000047683716 16.0
vertex 9.97000002861023 7.900000095367432 14.25
vertex 7.0299999713897705 7.900000095367432 14.25
endloop
endfacet
facet normal -0.0 0.9284768130182424 0.37139037102150096
outer loop
vertex 7.0299999713897705 7.900000095367432 14.25
vertex 9.97000002861023 7.900000095367432 14.25
vertex 7.0299999713897705 8.0 14.0
endloop
endfacet
facet normal 0.0 -1.0 0.0
outer loop
vertex 7.0299999713897705 3.0 5.0
vertex 13.0 3.0 4.0
vertex 9.97000002861023 3.0 5.0
endloop
endfacet
facet normal 0.0 -1.0 0.0
outer loop
vertex 9.97000002861023 3.0 5.0
vertex 13.0 3.0 4.0
vertex 11.170000076293945 3.0 5.0
endloop
endfacet
facet normal 0.0 -1.0 0.0
outer loop
vertex 11.170000076293945 3.0 5.0
vertex 13.0 3.0 4.0
vertex 11.170000076293945 3.0 14.0
endloop
endfacet
facet normal 0.0 -1.0 0.0
outer loop
vertex 7.0299999713897705 3.0 14.0
vertex 9.97000002861023 3.0 5.0
vertex 9.97000002861023 3.0 14.0
endloop
endfacet
facet normal -0.0 -1.0 -0.0
outer loop
vertex 13.0 3.0 14.0
vertex 11.170000076293945 3.0 14.0
vertex 13.0 3.0 4.0
endloop
endfacet
facet normal 0.0 -0.9284768130182424 0.37139037102150096
outer loop
vertex 7.0299999713897705 3.0999999046325684 14.25
vertex 9.97000002861023 3.0 14.0
vertex 9.97000002861023 3.0999999046325684 14.25
endloop
endfacet
facet normal 0.0 -0.9284766821614723 0.3713906981635708
outer loop
vertex 12.200000047683716 3.799999952316284 16.0
vertex 7.0299999713897705 3.0999999046325684 14.25
vertex 9.97000002861023 3.0999999046325684 14.25
endloop
endfacet
facet normal 0.0 -0.9284766821614723 0.3713906981635708
outer loop
vertex 12.200000047683716 3.799999952316284 16.0
vertex 9.97000002861023 3.0999999046325684 14.25
vertex 11.170000076293945 3.0999999046325684 14.25
endloop
endfacet
facet normal 0.0 -0.9284768130182423 0.3713903710215009
outer loop
vertex 13.0 3.0 14.0
vertex 11.170000076293945 3.0999999046325684 14.25
vertex 11.170000076293945 3.0 14.0
endloop
endfacet
facet normal 4.798398177993217e-08 -0.928476691900092 0.371390673817019
outer loop
vertex 13.0 3.0 14.0
vertex 12.200000047683716 3.799999952316284 16.0
vertex 11.170000076293945 3.0999999046325684 14.25
endloop
endfacet
facet normal 0.9284766985185727 -0.0 0.37139065727081955
outer loop
vertex 13.0 3.0 14.0
vertex 13.0 8.0 14.0
vertex 12.200000047683716 3.799999952316284 16.0
endloop
endfacet
facet normal 1.0 -0.0 0.0
outer loop
vertex 13.0 3.0 14.0
vertex 13.0 3.0 4.0
vertex 13.0 8.0 14.0
endloop
endfacet
facet normal 0.0 1.0 -0.0
outer loop
vertex 13.0 8.0 4.0
vertex 4.0 8.0 4.0
vertex 9.97000002861023 8.0 5.0
endloop
endfacet
facet normal 0.0 1.0 -0.0
outer loop
vertex 13.0 8.0 4.0
vertex 9.97000002861023 8.0 5.0
vertex 11.170000076293945 8.0 5.0
endloop
endfacet
facet normal 0.0 1.0 0.0
outer loop
vertex 13.0 8.0 14.0
vertex 13.0 8.0 4.0
vertex 11.170000076293945 8.0 5.0
endloop
endfacet
facet normal 1.0 -0.0 0.0
outer loop
vertex 13.0 8.0 14.0
vertex 13.0 3.0 4.0
vertex 13.0 8.0 4.0
endloop
endfacet
facet normal 0.0 1.0 -0.0
outer loop
vertex 9.97000002861023 8.0 5.0
vertex 7.0299999713897705 8.0 5.0
vertex 9.97000002861023 8.0 14.0
endloop
endfacet
facet normal 0.0 1.0 -0.0
outer loop
vertex 13.0 8.0 14.0
vertex 11.170000076293945 8.0 5.0
vertex 11.170000076293945 8.0 14.0
endloop
endfacet
facet normal -0.0 0.0 0.9999999999999999
outer loop
vertex 4.799999952316284 7.200000047683716 16.0
vertex 12.200000047683716 3.799999952316284 16.0
vertex 12.200000047683716 7.200000047683716 16.0
endloop
endfacet
facet normal 0.0 0.9284766821614723 0.3713906981635708
outer loop
vertex 4.799999952316284 7.200000047683716 16.0
vertex 11.170000076293945 7.900000095367432 14.25
vertex 9.97000002861023 7.900000095367432 14.25
endloop
endfacet
facet normal 0.0 0.9284768130182424 0.37139037102150096
outer loop
vertex 7.0299999713897705 8.0 14.0
vertex 9.97000002861023 7.900000095367432 14.25
vertex 9.97000002861023 8.0 14.0
endloop
endfacet
facet normal -0.0 0.9284766985185728 0.3713906572708196
outer loop
vertex 4.799999952316284 7.200000047683716 16.0
vertex 12.200000047683716 7.200000047683716 16.0
vertex 13.0 8.0 14.0
endloop
endfacet
facet normal 1.0312084614099246e-07 0.9284765527269605 0.3713910217496498
outer loop
vertex 4.799999952316284 7.200000047683716 16.0
vertex 13.0 8.0 14.0
vertex 11.170000076293945 7.900000095367432 14.25
endloop
endfacet
facet normal 0.9284766985185727 0.0 0.37139065727081955
outer loop
vertex 12.200000047683716 3.799999952316284 16.0
vertex 13.0 8.0 14.0
vertex 12.200000047683716 7.200000047683716 16.0
endloop
endfacet
facet normal 0.0 0.9284768130182423 0.3713903710215009
outer loop
vertex 13.0 8.0 14.0
vertex 11.170000076293945 8.0 14.0
vertex 11.170000076293945 7.900000095367432 14.25
endloop
endfacet
facet normal 0.0 -0.9889363563271844 -0.14834042987099755
outer loop
vertex 5.829999923706055 2.700000047683716 7.0
vertex 5.829999923706055 3.0 5.0
vertex 7.0299999713897705 3.0 5.0
endloop
endfacet
facet normal 0.0 -0.9889363563271844 -0.14834042987099755
outer loop
vertex 5.829999923706055 2.700000047683716 7.0
vertex 7.0299999713897705 3.0 5.0
vertex 7.0299999713897705 2.700000047683716 7.0
endloop
endfacet
facet normal 0.0 -1.0 0.0
outer loop
vertex 5.829999923706055 2.700000047683716 7.0
vertex 7.0299999713897705 2.700000047683716 7.0
vertex 5.829999923706055 2.700000047683716 13.0
endloop
endfacet
facet normal 0.0 -1.0 0.0
outer loop
vertex 7.0299999713897705 2.700000047683716 7.0
vertex 7.0299999713897705 2.700000047683716 13.0
vertex 5.829999923706055 2.700000047683716 13.0
endloop
endfacet
facet normal -1.0 0.0 0.0
outer loop
vertex 5.829999923706055 2.700000047683716 7.0
vertex 5.829999923706055 3.0 14.0
vertex 5.829999923706055 3.0 5.0
endloop
endfacet
facet normal -1.0 0.0 0.0
outer loop
vertex 5.829999923706055 2.700000047683716 7.0
vertex 5.829999923706055 2.700000047683716 13.0
vertex 5.829999923706055 3.0 15.0
endloop
endfacet
facet normal 1.0 -0.0 0.0
outer loop
vertex 7.0299999713897705 2.700000047683716 7.0
vertex 7.0299999713897705 3.0 5.0
vertex 7.0299999713897705 3.0 14.0
endloop
endfacet
facet normal 1.0 0.0 -0.0
outer loop
vertex 7.0299999713897705 2.700000047683716 7.0
vertex 7.0299999713897705 3.0 15.0
vertex 7.0299999713897705 2.700000047683716 13.0
endloop
endfacet
facet normal -1.0 0.0 0.0
outer loop
vertex 5.829999923706055 2.700000047683716 7.0
vertex 5.829999923706055 3.0 15.0
vertex 5.829999923706055 3.0 14.0
endloop
endfacet
facet normal 0.0 -0.9889363563271844 0.14834042987099755
outer loop
vertex 5.829999923706055 2.700000047683716 13.0
vertex 7.0299999713897705 2.700000047683716 13.0
vertex 5.829999923706055 3.0 15.0
endloop
endfacet
facet normal -1.0 0.0 -0.0
outer loop
vertex 5.829999923706055 3.0 15.0
vertex 5.829999923706055 3.0999999046325684 14.25
vertex 5.829999923706055 3.0 14.0
endloop
endfacet
facet normal -1.0 0.0 0.0
outer loop
vertex 5.829999923706055 3.0 15.0
vertex 5.829999923706055 3.0999999046325684 15.0
vertex 5.829999923706055 3.0999999046325684 14.25
endloop
endfacet
facet normal -0.0 1.0 0.0
outer loop
vertex 5.829999923706055 3.0999999046325684 15.0
vertex 7.0299999713897705 3.0999999046325684 15.0
vertex 5.829999923706055 3.0999999046325684 14.25
endloop
endfacet
facet normal 0.0 -0.0 1.0
outer loop
vertex 5.829999923706055 3.0 15.0
vertex 7.0299999713897705 3.0999999046325684 15.0
vertex 5.829999923706055 3.0999999046325684 15.0
endloop
endfacet
facet normal 1.0 0.0 0.0
outer loop
vertex 7.0299999713897705 2.700000047683716 7.0
vertex 7.0299999713897705 3.0 14.0
vertex 7.0299999713897705 3.0 15.0
endloop
endfacet
facet normal 0.0 -0.9889363563271844 0.14834042987099755
outer loop
vertex 7.0299999713897705 2.700000047683716 13.0
vertex 7.0299999713897705 3.0 15.0
vertex 5.829999923706055 3.0 15.0
endloop
endfacet
facet normal 0.0 1.0 0.0
outer loop
vertex 7.0299999713897705 3.0999999046325684 15.0
vertex 7.0299999713897705 3.0999999046325684 14.25
vertex 5.829999923706055 3.0999999046325684 14.25
endloop
endfacet
facet normal 1.0 -0.0 0.0
outer loop
vertex 7.0299999713897705 3.0 15.0
vertex 7.0299999713897705 3.0 14.0
vertex 7.0299999713897705 3.0999999046325684 14.25
endloop
endfacet
facet normal 1.0 -0.0 0.0
outer loop
vertex 7.0299999713897705 3.0 15.0
vertex 7.0299999713897705 3.0999999046325684 14.25
vertex 7.0299999713897705 3.0999999046325684 15.0
endloop
endfacet
facet normal 0.0 0.0 1.0
outer loop
vertex 5.829999923706055 3.0 15.0
vertex 7.0299999713897705 3.0 15.0
vertex 7.0299999713897705 3.0999999046325684 15.0
endloop
endfacet
facet normal 0.0 0.9889363563271844 -0.14834042987099755
outer loop
vertex 5.829999923706055 8.299999952316284 7.0
vertex 7.0299999713897705 8.0 5.0
vertex 5.829999923706055 8.0 5.0
endloop
endfacet
facet normal 0.0 0.9889363563271844 -0.14834042987099755
outer loop
vertex 5.829999923706055 8.299999952316284 7.0
vertex 7.0299999713897705 8.299999952316284 7.0
vertex 7.0299999713897705 8.0 5.0
endloop
endfacet
facet normal -1.0 -0.0 0.0
outer loop
vertex 5.829999923706055 8.299999952316284 7.0
vertex 5.829999923706055 8.0 5.0
vertex 5.829999923706055 8.0 14.0
endloop
endfacet
facet normal -1.0 0.0 0.0
outer loop
vertex 5.829999923706055 8.299999952316284 7.0
vertex 5.829999923706055 8.0 15.0
vertex 5.829999923706055 8.299999952316284 13.0
endloop
endfacet
facet normal 1.0 0.0 0.0
outer loop
vertex 7.0299999713897705 8.299999952316284 7.0
vertex 7.0299999713897705 8.0 14.0
vertex 7.0299999713897705 8.0 5.0
endloop
endfacet
facet normal 1.0 0.0 -0.0
outer loop
vertex 7.0299999713897705 8.299999952316284 7.0
vertex 7.0299999713897705 8.299999952316284 13.0
vertex 7.0299999713897705 8.0 15.0
endloop
endfacet
facet normal -1.0 0.0 0.0
outer loop
vertex 5.829999923706055 8.299999952316284 7.0
vertex 5.829999923706055 8.0 14.0
vertex 5.829999923706055 8.0 15.0
endloop
endfacet
facet normal 0.0 0.9889363563271844 0.14834042987099755
outer loop
vertex 5.829999923706055 8.0 15.0
vertex 7.0299999713897705 8.299999952316284 13.0
vertex 5.829999923706055 8.299999952316284 13.0
endloop
endfacet
facet normal -1.0 -0.0 -0.0
outer loop
vertex 5.829999923706055 8.0 15.0
vertex 5.829999923706055 8.0 14.0
vertex 5.829999923706055 7.900000095367432 14.25
endloop
endfacet
facet normal -1.0 0.0 -0.0
outer loop
vertex 5.829999923706055 7.900000095367432 15.0
vertex 5.829999923706055 8.0 15.0
vertex 5.829999923706055 7.900000095367432 14.25
endloop
endfacet
facet normal 0.0 -1.0 0.0
outer loop
vertex 5.829999923706055 7.900000095367432 15.0
vertex 5.829999923706055 7.900000095367432 14.25
vertex 7.0299999713897705 7.900000095367432 14.25
endloop
endfacet
facet normal 0.0 -0.0 1.0
outer loop
vertex 5.829999923706055 7.900000095367432 15.0
vertex 7.0299999713897705 7.900000095367432 15.0
vertex 5.829999923706055 8.0 15.0
endloop
endfacet
facet normal 1.0 0.0 0.0
outer loop
vertex 7.0299999713897705 8.299999952316284 7.0
vertex 7.0299999713897705 8.0 15.0
vertex 7.0299999713897705 8.0 14.0
endloop
endfacet
facet normal 0.0 -1.0 0.0
outer loop
vertex 5.829999923706055 7.900000095367432 15.0
vertex 7.0299999713897705 7.900000095367432 14.25
vertex 7.0299999713897705 7.900000095367432 15.0
endloop
endfacet
facet normal -0.0 0.9889363563271844 0.14834042987099755
outer loop
vertex 5.829999923706055 8.0 15.0
vertex 7.0299999713897705 8.0 15.0
vertex 7.0299999713897705 8.299999952316284 13.0
endloop
endfacet
facet normal 1.0 0.0 0.0
outer loop
vertex 7.0299999713897705 8.0 15.0
vertex 7.0299999713897705 7.900000095367432 14.25
vertex 7.0299999713897705 8.0 14.0
endloop
endfacet
facet normal 1.0 -0.0 0.0
outer loop
vertex 7.0299999713897705 7.900000095367432 15.0
vertex 7.0299999713897705 7.900000095367432 14.25
vertex 7.0299999713897705 8.0 15.0
endloop
endfacet
facet normal -0.0 0.0 1.0
outer loop
vertex 5.829999923706055 8.0 15.0
vertex 7.0299999713897705 7.900000095367432 15.0
vertex 7.0299999713897705 8.0 15.0
endloop
endfacet
facet normal -0.0 1.0 0.0
outer loop
vertex 5.829999923706055 8.299999952316284 7.0
vertex 5.829999923706055 8.299999952316284 13.0
vertex 7.0299999713897705 8.299999952316284 7.0
endloop
endfacet
facet normal 0.0 1.0 -0.0
outer loop
vertex 7.0299999713897705 8.299999952316284 7.0
vertex 5.829999923706055 8.299999952316284 13.0
vertex 7.0299999713897705 8.299999952316284 13.0
endloop
endfacet
facet normal 0.0 -0.9889363563271844 -0.14834042987099755
outer loop
vertex 9.97000002861023 2.700000047683716 7.0
vertex 9.97000002861023 3.0 5.0
vertex 11.170000076293945 3.0 5.0
endloop
endfacet
facet normal 0.0 -0.9889363563271844 -0.14834042987099755
outer loop
vertex 9.97000002861023 2.700000047683716 7.0
vertex 11.170000076293945 3.0 5.0
vertex 11.170000076293945 2.700000047683716 7.0
endloop
endfacet
facet normal 0.0 -1.0 0.0
outer loop
vertex 9.97000002861023 2.700000047683716 7.0
vertex 11.170000076293945 2.700000047683716 7.0
vertex 9.97000002861023 2.700000047683716 13.0
endloop
endfacet
facet normal 0.0 -1.0 0.0
outer loop
vertex 11.170000076293945 2.700000047683716 7.0
vertex 11.170000076293945 2.700000047683716 13.0
vertex 9.97000002861023 2.700000047683716 13.0
endloop
endfacet
facet normal -1.0 0.0 0.0
outer loop
vertex 9.97000002861023 2.700000047683716 7.0
vertex 9.97000002861023 3.0 14.0
vertex 9.97000002861023 3.0 5.0
endloop
endfacet
facet normal -1.0 0.0 0.0
outer loop
vertex 9.97000002861023 2.700000047683716 7.0
vertex 9.97000002861023 2.700000047683716 13.0
vertex 9.97000002861023 3.0 15.0
endloop
endfacet
facet normal 1.0 -0.0 0.0
outer loop
vertex 11.170000076293945 2.700000047683716 7.0
vertex 11.170000076293945 3.0 5.0
vertex 11.170000076293945 3.0 14.0
endloop
endfacet
facet normal 1.0 0.0 -0.0
outer loop
vertex 11.170000076293945 2.700000047683716 7.0
vertex 11.170000076293945 3.0 15.0
vertex 11.170000076293945 2.700000047683716 13.0
endloop
endfacet
facet normal -1.0 0.0 0.0
outer loop
vertex 9.97000002861023 2.700000047683716 7.0
vertex 9.97000002861023 3.0 15.0
vertex 9.97000002861023 3.0 14.0
endloop
endfacet
facet normal 0.0 -0.9889363563271844 0.14834042987099755
outer loop
vertex 9.97000002861023 2.700000047683716 13.0
vertex 11.170000076293945 2.700000047683716 13.0
vertex 9.97000002861023 3.0 15.0
endloop
endfacet
facet normal -1.0 0.0 -0.0
outer loop
vertex 9.97000002861023 3.0 15.0
vertex 9.97000002861023 3.0999999046325684 14.25
vertex 9.97000002861023 3.0 14.0
endloop
endfacet
facet normal -1.0 0.0 0.0
outer loop
vertex 9.97000002861023 3.0 15.0
vertex 9.97000002861023 3.0999999046325684 15.0
vertex 9.97000002861023 3.0999999046325684 14.25
endloop
endfacet
facet normal -0.0 1.0 0.0
outer loop
vertex 9.97000002861023 3.0999999046325684 15.0
vertex 11.170000076293945 3.0999999046325684 15.0
vertex 9.97000002861023 3.0999999046325684 14.25
endloop
endfacet
facet normal 0.0 -0.0 1.0
outer loop
vertex 9.97000002861023 3.0 15.0
vertex 11.170000076293945 3.0999999046325684 15.0
vertex 9.97000002861023 3.0999999046325684 15.0
endloop
endfacet
facet normal 1.0 0.0 0.0
outer loop
vertex 11.170000076293945 2.700000047683716 7.0
vertex 11.170000076293945 3.0 14.0
vertex 11.170000076293945 3.0 15.0
endloop
endfacet
facet normal 0.0 -0.9889363563271844 0.14834042987099755
outer loop
vertex 11.170000076293945 2.700000047683716 13.0
vertex 11.170000076293945 3.0 15.0
vertex 9.97000002861023 3.0 15.0
endloop
endfacet
facet normal 0.0 1.0 0.0
outer loop
vertex 11.170000076293945 3.0999999046325684 15.0
vertex 11.170000076293945 3.0999999046325684 14.25
vertex 9.97000002861023 3.0999999046325684 14.25
endloop
endfacet
facet normal 1.0 -0.0 0.0
outer loop
vertex 11.170000076293945 3.0 15.0
vertex 11.170000076293945 3.0 14.0
vertex 11.170000076293945 3.0999999046325684 14.25
endloop
endfacet
facet normal 1.0 -0.0 0.0
outer loop
vertex 11.170000076293945 3.0 15.0
vertex 11.170000076293945 3.0999999046325684 14.25
vertex 11.170000076293945 3.0999999046325684 15.0
endloop
endfacet
facet normal 0.0 0.0 1.0
outer loop
vertex 9.97000002861023 3.0 15.0
vertex 11.170000076293945 3.0 15.0
vertex 11.170000076293945 3.0999999046325684 15.0
endloop
endfacet
facet normal 0.0 0.9889363563271844 -0.14834042987099755
outer loop
vertex 9.97000002861023 8.299999952316284 7.0
vertex 11.170000076293945 8.0 5.0
vertex 9.97000002861023 8.0 5.0
endloop
endfacet
facet normal 0.0 0.9889363563271844 -0.14834042987099755
outer loop
vertex 9.97000002861023 8.299999952316284 7.0
vertex 11.170000076293945 8.299999952316284 7.0
vertex 11.170000076293945 8.0 5.0
endloop
endfacet
facet normal -1.0 -0.0 0.0
outer loop
vertex 9.97000002861023 8.299999952316284 7.0
vertex 9.97000002861023 8.0 5.0
vertex 9.97000002861023 8.0 14.0
endloop
endfacet
facet normal -1.0 0.0 0.0
outer loop
vertex 9.97000002861023 8.299999952316284 7.0
vertex 9.97000002861023 8.0 15.0
vertex 9.97000002861023 8.299999952316284 13.0
endloop
endfacet
facet normal 1.0 0.0 0.0
outer loop
vertex 11.170000076293945 8.299999952316284 7.0
vertex 11.170000076293945 8.0 14.0
vertex 11.170000076293945 8.0 5.0
endloop
endfacet
facet normal 1.0 0.0 -0.0
outer loop
vertex 11.170000076293945 8.299999952316284 7.0
vertex 11.170000076293945 8.299999952316284 13.0
vertex 11.170000076293945 8.0 15.0
endloop
endfacet
facet normal -1.0 0.0 0.0
outer loop
vertex 9.97000002861023 8.299999952316284 7.0
vertex 9.97000002861023 8.0 14.0
vertex 9.97000002861023 8.0 15.0
endloop
endfacet
facet normal 0.0 0.9889363563271844 0.14834042987099755
outer loop
vertex 9.97000002861023 8.0 15.0
vertex 11.170000076293945 8.299999952316284 13.0
vertex 9.97000002861023 8.299999952316284 13.0
endloop
endfacet
facet normal -1.0 -0.0 -0.0
outer loop
vertex 9.97000002861023 8.0 15.0
vertex 9.97000002861023 8.0 14.0
vertex 9.97000002861023 7.900000095367432 14.25
endloop
endfacet
facet normal -1.0 0.0 -0.0
outer loop
vertex 9.97000002861023 7.900000095367432 15.0
vertex 9.97000002861023 8.0 15.0
vertex 9.97000002861023 7.900000095367432 14.25
endloop
endfacet
facet normal 0.0 -1.0 0.0
outer loop
vertex 9.97000002861023 7.900000095367432 15.0
vertex 9.97000002861023 7.900000095367432 14.25
vertex 11.170000076293945 7.900000095367432 14.25
endloop
endfacet
facet normal 0.0 -0.0 1.0
outer loop
vertex 9.97000002861023 7.900000095367432 15.0
vertex 11.170000076293945 7.900000095367432 15.0
vertex 9.97000002861023 8.0 15.0
endloop
endfacet
facet normal 1.0 0.0 0.0
outer loop
vertex 11.170000076293945 8.299999952316284 7.0
vertex 11.170000076293945 8.0 15.0
vertex 11.170000076293945 8.0 14.0
endloop
endfacet
facet normal 0.0 -1.0 0.0
outer loop
vertex 9.97000002861023 7.900000095367432 15.0
vertex 11.170000076293945 7.900000095367432 14.25
vertex 11.170000076293945 7.900000095367432 15.0
endloop
endfacet
facet normal -0.0 0.9889363563271844 0.14834042987099755
outer loop
vertex 9.97000002861023 8.0 15.0
vertex 11.170000076293945 8.0 15.0
vertex 11.170000076293945 8.299999952316284 13.0
endloop
endfacet
facet normal 1.0 0.0 0.0
outer loop
vertex 11.170000076293945 8.0 15.0
vertex 11.170000076293945 7.900000095367432 14.25
vertex 11.170000076293945 8.0 14.0
endloop
endfacet
facet normal 1.0 -0.0 0.0
outer loop
vertex 11.170000076293945 7.900000095367432 15.0
vertex 11.170000076293945 7.900000095367432 14.25
vertex 11.170000076293945 8.0 15.0
endloop
endfacet
facet normal -0.0 0.0 1.0
outer loop
vertex 9.97000002861023 8.0 15.0
vertex 11.170000076293945 7.900000095367432 15.0
vertex 11.170000076293945 8.0 15.0
endloop
endfacet
facet normal -0.0 1.0 0.0
outer loop
vertex 9.97000002861023 8.299999952316284 7.0
vertex 9.97000002861023 8.299999952316284 13.0
vertex 11.170000076293945 8.299999952316284 7.0
endloop
endfacet
facet normal 0.0 1.0 -0.0
outer loop
vertex 11.170000076293945 8.299999952316284 7.0
vertex 9.97000002861023 8.299999952316284 13.0
vertex 11.170000076293945 8.299999952316284 13.0
endloop
endfacet
facet normal -1.0 0.0 0.0
outer loop
vertex 0.0 0.0 0.0
vertex 0.0 0.0 4.0
vertex 0.0 11.0 4.0
endloop
endfacet
facet normal 0.0 0.0 1.0
outer loop
vertex 0.0 0.0 4.0
vertex 4.0 3.0 4.0
vertex 4.0 8.0 4.0
endloop
endfacet
facet normal 0.0 -1.0 0.0
outer loop
vertex 0.0 0.0 0.0
vertex 17.0 0.0 0.0
vertex 0.0 0.0 4.0
endloop
endfacet
facet normal 0.0 -0.0 1.0
outer loop
vertex 0.0 0.0 4.0
vertex 13.0 3.0 4.0
vertex 4.0 3.0 4.0
endloop
endfacet
facet normal 0.0 0.0 -0.9999999999999999
outer loop
vertex 0.0 0.0 0.0
vertex 0.0 11.0 0.0
vertex 17.0 0.0 0.0
endloop
endfacet
facet normal -1.0 0.0 0.0
outer loop
vertex 0.0 0.0 0.0
vertex 0.0 11.0 4.0
vertex 0.0 11.0 0.0
endloop
endfacet
facet normal 0.0 -0.0 1.0
outer loop
vertex 0.0 0.0 4.0
vertex 4.0 8.0 4.0
vertex 0.0 11.0 4.0
endloop
endfacet
facet normal 0.0 1.0 0.0
outer loop
vertex 0.0 11.0 0.0
vertex 0.0 11.0 4.0
vertex 17.0 11.0 4.0
endloop
endfacet
facet normal -0.0 0.0 1.0
outer loop
vertex 0.0 11.0 4.0
vertex 4.0 8.0 4.0
vertex 17.0 11.0 4.0
endloop
endfacet
facet normal 0.0 -1.0 0.0
outer loop
vertex 0.0 0.0 4.0
vertex 17.0 0.0 0.0
vertex 17.0 0.0 4.0
endloop
endfacet
facet normal 0.0 -0.0 1.0
outer loop
vertex 0.0 0.0 4.0
vertex 17.0 0.0 4.0
vertex 13.0 3.0 4.0
endloop
endfacet
facet normal 1.0 0.0 -0.0
outer loop
vertex 17.0 0.0 0.0
vertex 17.0 11.0 0.0
vertex 17.0 0.0 4.0
endloop
endfacet
facet normal 0.0 -0.0 1.0
outer loop
vertex 17.0 0.0 4.0
vertex 17.0 11.0 4.0
vertex 13.0 3.0 4.0
endloop
endfacet
facet normal 0.0 0.0 -0.9999999999999999
outer loop
vertex 0.0 11.0 0.0
vertex 17.0 11.0 0.0
vertex 17.0 0.0 0.0
endloop
endfacet
facet normal -0.0 1.0 0.0
outer loop
vertex 0.0 11.0 0.0
vertex 17.0 11.0 4.0
vertex 17.0 11.0 0.0
endloop
endfacet
facet normal -0.0 0.0 1.0
outer loop
vertex 17.0 11.0 4.0
vertex 4.0 8.0 4.0
vertex 13.0 8.0 4.0
endloop
endfacet
facet normal 1.0 -0.0 0.0
outer loop
vertex 17.0 0.0 4.0
vertex 17.0 11.0 0.0
vertex 17.0 11.0 4.0
endloop
endfacet
facet normal 0.0 0.0 1.0
outer loop
vertex 17.0 11.0 4.0
vertex 13.0 8.0 4.0
vertex 13.0 3.0 4.0
endloop
endfacet

endsolid
