solid 
facet normal -1.0 0.0 -0.0
outer loop
vertex 0.0 130.0 11.463973045349121
vertex 0.0 140.0 11.463973045349121
vertex 0.0 123.0 4.0
endloop
endfacet
facet normal 0.5047294046123116 1.0788565804630972e-07 0.8632776077946709
outer loop
vertex 5.785228729248047 132.5 8.081543922424316
vertex 0.0 130.0 11.463973045349121
vertex 8.401691436767578 130.0 6.551786422729492
endloop
endfacet
facet normal 1.0 0.0 0.0
outer loop
vertex 8.401691436767578 129.80000019073486 5.995026588439941
vertex 8.401691436767578 132.5 5.995026588439941
vertex 8.401691436767578 132.5 6.551786422729492
endloop
endfacet
facet normal 0.0 -0.0 1.0
outer loop
vertex 8.401691436767578 129.80000019073486 5.995026588439941
vertex 9.353961944580078 132.5 5.995026588439941
vertex 8.401691436767578 132.5 5.995026588439941
endloop
endfacet
facet normal 0.0 -1.0 0.0
outer loop
vertex 8.401691436767578 132.5 5.995026588439941
vertex 9.353961944580078 132.5 5.995026588439941
vertex 8.401691436767578 132.5 6.551786422729492
endloop
endfacet
facet normal 0.0 0.0 1.0
outer loop
vertex 8.401691436767578 129.80000019073486 5.995026588439941
vertex 9.353961944580078 130.0 5.995026588439941
vertex 9.353961944580078 130.87546157836914 5.995026588439941
endloop
endfacet
facet normal 0.0 0.0 0.9999999999999999
outer loop
vertex 8.401691436767578 129.80000019073486 5.995026588439941
vertex 9.353961944580078 130.87546157836914 5.995026588439941
vertex 9.353961944580078 132.5 5.995026588439941
endloop
endfacet
facet normal 0.0 -1.0 0.0
outer loop
vertex 9.353961944580078 132.5 5.995026588439941
vertex 11.277145385742188 132.5 4.87060546875
vertex 8.856422424316406 132.5 7.403553009033203
endloop
endfacet
facet normal 1.0 0.0 -0.0
outer loop
vertex 8.401691436767578 129.80000019073486 5.995026588439941
vertex 8.401691436767578 132.5 6.551786422729492
vertex 8.401691436767578 130.0 6.551786422729492
endloop
endfacet
facet normal 1.0 0.0 -0.0
outer loop
vertex 8.401691436767578 129.80000019073486 5.995026588439941
vertex 8.401691436767578 130.0 6.551786422729492
vertex 8.401691436767578 127.82758903503418 7.168205261230469
endloop
endfacet
facet normal -0.0 -1.0 0.0
outer loop
vertex 9.353961944580078 132.5 5.995026588439941
vertex 8.856422424316406 132.5 7.403553009033203
vertex 8.401691436767578 132.5 6.551786422729492
endloop
endfacet
facet normal 0.5047295368073149 0.0 0.8632775305046886
outer loop
vertex 9.353961944580078 130.0 5.995026588439941
vertex 11.277145385742188 130.0 4.87060546875
vertex 9.353961944580078 130.87546157836914 5.995026588439941
endloop
endfacet
facet normal 0.5047295368073149 -0.0 0.8632775305046885
outer loop
vertex 9.353961944580078 130.87546157836914 5.995026588439941
vertex 11.277145385742188 130.0 4.87060546875
vertex 11.277145385742188 132.5 4.87060546875
endloop
endfacet
facet normal 0.5047295368073149 0.0 0.8632775305046885
outer loop
vertex 9.353961944580078 130.87546157836914 5.995026588439941
vertex 11.277145385742188 132.5 4.87060546875
vertex 9.353961944580078 132.5 5.995026588439941
endloop
endfacet
facet normal -0.0 1.0 0.0
outer loop
vertex 9.353961944580078 130.0 5.995026588439941
vertex 11.875007629394531 130.0 5.995026588439941
vertex 11.277145385742188 130.0 4.87060546875
endloop
endfacet
facet normal -0.8829476112239156 0.0 0.46947152824636884
outer loop
vertex 11.277145385742188 130.0 4.87060546875
vertex 11.793563842773438 132.5 5.8418474197387695
vertex 11.277145385742188 132.5 4.87060546875
endloop
endfacet
facet normal 0.0 -1.0 0.0
outer loop
vertex 11.277145385742188 132.5 4.87060546875
vertex 11.65521240234375 132.5 5.915410041809082
vertex 11.452289581298828 132.5 6.023306846618652
endloop
endfacet
facet normal -0.8829542987375595 6.267796016599873e-06 0.4694589506033297
outer loop
vertex 11.277145385742188 130.0 4.87060546875
vertex 11.875007629394531 132.4696400165558 5.995026588439941
vertex 11.793563842773438 132.5 5.8418474197387695
endloop
endfacet
facet normal -0.8829485924165429 0.0 0.46946968288660057
outer loop
vertex 11.277145385742188 130.0 4.87060546875
vertex 11.875007629394531 130.0 5.995026588439941
vertex 11.875007629394531 132.4696400165558 5.995026588439941
endloop
endfacet
facet normal 0.0 -1.0 0.0
outer loop
vertex 11.277145385742188 132.5 4.87060546875
vertex 11.793563842773438 132.5 5.8418474197387695
vertex 11.65521240234375 132.5 5.915410041809082
endloop
endfacet
facet normal 0.0 -0.0 1.0
outer loop
vertex 8.401691436767578 129.80000019073486 5.995026588439941
vertex 11.875007629394531 130.0 5.995026588439941
vertex 9.353961944580078 130.0 5.995026588439941
endloop
endfacet
facet normal 0.0 -1.0 0.0
outer loop
vertex 11.277145385742188 132.5 4.87060546875
vertex 11.452289581298828 132.5 6.023306846618652
vertex 8.856422424316406 132.5 7.403553009033203
endloop
endfacet
facet normal 0.0 0.5112021172616991 0.859460525741093
outer loop
vertex 8.401691436767578 129.80000019073486 5.995026588439941
vertex 8.401691436767578 127.82758903503418 7.168205261230469
vertex 17.058494567871094 129.80000019073486 5.995026588439941
endloop
endfacet
facet normal -0.08092794768963257 -0.9850303153734044 -0.1522036303053098
outer loop
vertex 11.65521240234375 132.5 5.915410041809082
vertex 11.793563842773438 132.5 5.8418474197387695
vertex 11.875007629394531 132.4696400165558 5.995026588439941
endloop
endfacet
facet normal -0.08092818830790392 -0.985030451868092 -0.1522026189976471
outer loop
vertex 11.452289581298828 132.5 6.023306846618652
vertex 11.65521240234375 132.5 5.915410041809082
vertex 11.593002319335938 132.49280905723572 5.995026588439941
endloop
endfacet
facet normal -0.08092829915738163 -0.9850304296871464 -0.15220270360886906
outer loop
vertex 11.65521240234375 132.5 5.915410041809082
vertex 11.875007629394531 132.4696400165558 5.995026588439941
vertex 11.593002319335938 132.49280905723572 5.995026588439941
endloop
endfacet
facet normal 0.0 -0.0 1.0
outer loop
vertex 8.401691436767578 129.80000019073486 5.995026588439941
vertex 17.058494567871094 129.80000019073486 5.995026588439941
vertex 11.875007629394531 130.0 5.995026588439941
endloop
endfacet
facet normal -0.0809281458472369 -0.9850304894786958 -0.15220239816471215
outer loop
vertex 11.452289581298828 132.5 6.023306846618652
vertex 11.593002319335938 132.49280905723572 5.995026588439941
vertex 12.3912353515625 132.15000009536743 7.789201736450195
endloop
endfacet
facet normal -0.08092830390055764 -0.9850304874193951 -0.1522023274529267
outer loop
vertex 11.593002319335938 132.49280905723572 5.995026588439941
vertex 11.875007629394531 132.4696400165558 5.995026588439941
vertex 12.3912353515625 132.15000009536743 7.789201736450195
endloop
endfacet
facet normal 0.8829471950903003 0.0 -0.46947231087910957
outer loop
vertex 12.796333312988281 132.39394617080688 5.995026588439941
vertex 12.796333312988281 132.5 5.995026588439941
vertex 13.450767517089844 132.15000009536743 7.225835800170898
endloop
endfacet
facet normal -0.08092767719483059 -0.9850305104132433 -0.15220251186782183
outer loop
vertex 11.875007629394531 132.4696400165558 5.995026588439941
vertex 12.796333312988281 132.39394617080688 5.995026588439941
vertex 12.3912353515625 132.15000009536743 7.789201736450195
endloop
endfacet
facet normal 0.5047293277895096 -0.0 0.8632776527103836
outer loop
vertex 5.785228729248047 132.5 8.081543922424316
vertex 8.401691436767578 130.0 6.551786422729492
vertex 8.401691436767578 132.5 6.551786422729492
endloop
endfacet
facet normal 0.0 -1.0 0.0
outer loop
vertex 5.785228729248047 132.5 8.081543922424316
vertex 8.401691436767578 132.5 6.551786422729492
vertex 8.856422424316406 132.5 7.403553009033203
endloop
endfacet
facet normal 0.0 -1.0 0.0
outer loop
vertex 5.785228729248047 132.5 8.081543922424316
vertex 8.856422424316406 132.5 7.403553009033203
vertex 7.796886444091797 132.5 7.9669189453125
endloop
endfacet
facet normal -0.8829474041753026 5.011843578651713e-06 0.4694719176212526
outer loop
vertex 7.796886444091797 132.5 7.9669189453125
vertex 8.401691436767578 132.27455306053162 9.104393005371094
vertex 8.401691436767578 132.36388611793518 9.104392051696777
endloop
endfacet
facet normal -0.08092770727559918 -0.9850304785801876 -0.1522027018919236
outer loop
vertex 8.856422424316406 132.5 7.403553009033203
vertex 8.401691436767578 132.27455306053162 9.104393005371094
vertex 7.796886444091797 132.5 7.9669189453125
endloop
endfacet
facet normal -0.08092806288650894 -0.9850304355546254 -0.15220279126383346
outer loop
vertex 8.856422424316406 132.5 7.403553009033203
vertex 8.735828399658203 132.15000009536743 9.732813835144043
vertex 8.401691436767578 132.27455306053162 9.104393005371094
endloop
endfacet
facet normal -0.08092745088958893 -0.9850304894787012 -0.152202767681352
outer loop
vertex 8.856422424316406 132.5 7.403553009033203
vertex 9.795368194580078 132.15000009536743 9.169447898864746
vertex 8.735828399658203 132.15000009536743 9.732813835144043
endloop
endfacet
facet normal -0.0809279253403872 -0.9850304819666829 -0.1522025640276304
outer loop
vertex 12.796333312988281 132.39394617080688 5.995026588439941
vertex 13.450767517089844 132.15000009536743 7.225835800170898
vertex 12.3912353515625 132.15000009536743 7.789201736450195
endloop
endfacet
facet normal 0.0 -1.0 0.0
outer loop
vertex 22.5 23.0 0.0
vertex 29.5 23.0 3.75
vertex 22.5 23.0 8.0
endloop
endfacet
facet normal -1.0 0.0 0.0
outer loop
vertex 22.5 23.0 0.0
vertex 22.5 23.0 8.0
vertex 22.5 123.0 4.0
endloop
endfacet
facet normal -1.0 0.0 0.0
outer loop
vertex 22.5 23.0 0.0
vertex 22.5 123.0 4.0
vertex 22.5 123.0 0.0
endloop
endfacet
facet normal 0.0 -1.0 -0.0
outer loop
vertex 22.5 123.0 8.0
vertex 0.0 123.0 4.0
vertex 22.5 123.0 4.0
endloop
endfacet
facet normal -0.0 -0.0 1.0
outer loop
vertex 11.875007629394531 130.0 5.995026588439941
vertex 17.058494567871094 129.80000019073486 5.995026588439941
vertex 11.875007629394531 132.4696400165558 5.995026588439941
endloop
endfacet
facet normal -0.0 -0.0 1.0
outer loop
vertex 11.875007629394531 132.4696400165558 5.995026588439941
vertex 17.058494567871094 129.80000019073486 5.995026588439941
vertex 12.796333312988281 132.39394617080688 5.995026588439941
endloop
endfacet
facet normal -0.0 -0.0 1.0
outer loop
vertex 12.796333312988281 132.39394617080688 5.995026588439941
vertex 17.058494567871094 129.80000019073486 5.995026588439941
vertex 12.796333312988281 132.5 5.995026588439941
endloop
endfacet
facet normal -0.0 -0.0 1.0
outer loop
vertex 12.796333312988281 132.5 5.995026588439941
vertex 17.058494567871094 129.80000019073486 5.995026588439941
vertex 14.868942260742188 132.5 5.995026588439941
endloop
endfacet
facet normal -0.0 0.0 1.0
outer loop
vertex 14.868942260742188 132.5 5.995026588439941
vertex 17.058494567871094 129.80000019073486 5.995026588439941
vertex 17.058494567871094 140.19999980926514 5.995026588439941
endloop
endfacet
facet normal -0.0 0.5112021172616991 0.8594605257410929
outer loop
vertex 8.401691436767578 127.82758903503418 7.168205261230469
vertex 21.524436950683594 127.82758903503418 7.168205261230469
vertex 17.058494567871094 129.80000019073486 5.995026588439941
endloop
endfacet
facet normal -0.25407414953806834 0.0 0.9671847427128425
outer loop
vertex 17.058494567871094 129.80000019073486 5.995026588439941
vertex 21.524436950683594 127.82758903503418 7.168205261230469
vertex 17.058494567871094 140.19999980926514 5.995026588439941
endloop
endfacet
facet normal 0.8829475510103301 3.019504963801275e-06 -0.4694716414819357
outer loop
vertex 12.796333312988281 132.5 5.995026588439941
vertex 16.73706817626953 132.5 13.406469345092773
vertex 13.450767517089844 132.15000009536743 7.225835800170898
endloop
endfacet
facet normal 0.0 -0.9999999999999999 0.0
outer loop
vertex 12.796333312988281 132.5 5.995026588439941
vertex 14.868942260742188 132.5 5.995026588439941
vertex 18.352867126464844 132.5 12.54733657836914
endloop
endfacet
facet normal -1.0 0.0 0.0
outer loop
vertex 22.5 23.0 8.0
vertex 22.5 123.0 8.0
vertex 22.5 123.0 4.0
endloop
endfacet
facet normal -1.0 -0.0 0.0
outer loop
vertex 0.0 130.0 11.463973045349121
vertex 0.0 123.0 4.0
vertex 0.0 128.0 15.36760139465332
endloop
endfacet
facet normal 0.0 1.0 -0.0
outer loop
vertex 8.401691436767578 130.0 6.551786422729492
vertex 0.0 130.0 11.463973045349121
vertex 0.0 130.0 15.36760139465332
endloop
endfacet
facet normal 0.5047294393566594 -0.0 0.8632775874808243
outer loop
vertex 5.785228729248047 132.5 8.081543922424316
vertex 5.785228729248047 137.5 8.081543922424316
vertex 0.0 130.0 11.463973045349121
endloop
endfacet
facet normal -1.0 -0.0 0.0
outer loop
vertex 0.0 128.0 15.36760139465332
vertex 0.0 123.0 4.0
vertex 0.0 123.0 16.0
endloop
endfacet
facet normal 0.0 1.0 -0.0
outer loop
vertex 8.401691436767578 130.0 6.551786422729492
vertex 0.0 130.0 15.36760139465332
vertex 8.401691436767578 130.0 15.36760139465332
endloop
endfacet
facet normal -0.0 -1.0 -0.0
outer loop
vertex 22.5 123.0 8.0
vertex 0.0 123.0 16.0
vertex 0.0 123.0 4.0
endloop
endfacet
facet normal -0.8829473670804114 5.011844323430273e-06 0.4694719873865223
outer loop
vertex 8.401691436767578 132.27455306053162 9.104393005371094
vertex 8.735828399658203 132.15000009536743 9.732813835144043
vertex 8.401691436767578 132.36388611793518 9.104392051696777
endloop
endfacet
facet normal 1.0 0.0 0.0
outer loop
vertex 8.401691436767578 130.0 6.551786422729492
vertex 8.401691436767578 128.0 15.36760139465332
vertex 8.401691436767578 127.82758903503418 7.168205261230469
endloop
endfacet
facet normal 0.0 -1.0 0.0
outer loop
vertex 5.785228729248047 132.5 8.081543922424316
vertex 7.796886444091797 132.5 7.9669189453125
vertex 12.022132873535156 132.5 15.913448333740234
endloop
endfacet
facet normal -0.8829475097377399 2.883836227433968e-06 0.4694717191052163
outer loop
vertex 7.796886444091797 132.5 7.9669189453125
vertex 8.401691436767578 132.36388611793518 9.104392051696777
vertex 12.022132873535156 132.5 15.913448333740234
endloop
endfacet
facet normal -0.0 -1.0 0.0
outer loop
vertex 11.452289581298828 132.5 6.023306846618652
vertex 15.677536010742188 132.5 13.969837188720703
vertex 8.856422424316406 132.5 7.403553009033203
endloop
endfacet
facet normal -0.0 1.0 0.0
outer loop
vertex 8.401691436767578 127.82758903503418 7.168205261230469
vertex 8.401691436767578 127.82758903503418 16.0
vertex 21.524436950683594 127.82758903503418 7.168205261230469
endloop
endfacet
facet normal 0.8829473340386393 3.918460598529363e-06 -0.4694720495393788
outer loop
vertex 8.856422424316406 132.5 7.403553009033203
vertex 13.081672668457031 132.5 15.350082397460938
vertex 9.795368194580078 132.15000009536743 9.169447898864746
endloop
endfacet
facet normal -0.0 -1.0 0.0
outer loop
vertex 9.795368194580078 132.15000009536743 9.169447898864746
vertex 11.552658081054688 132.15000009536743 15.030500411987305
vertex 8.735828399658203 132.15000009536743 9.732813835144043
endloop
endfacet
facet normal -0.8829474834377623 2.927166949749283e-07 0.46947176857702144
outer loop
vertex 5.785228729248047 132.5 8.081543922424316
vertex 8.401691436767578 132.5 13.002391815185547
vertex 8.401691436767578 135.55908870697021 13.002389907836914
endloop
endfacet
facet normal -0.8829475184761302 3.9387805287187566e-06 0.4694717026630355
outer loop
vertex 8.401691436767578 132.36388611793518 9.104392051696777
vertex 8.735828399658203 132.15000009536743 9.732813835144043
vertex 12.022132873535156 132.5 15.913448333740234
endloop
endfacet
facet normal 1.0 0.0 -0.0
outer loop
vertex 8.401691436767578 130.0 6.551786422729492
vertex 8.401691436767578 130.0 15.36760139465332
vertex 8.401691436767578 128.0 15.36760139465332
endloop
endfacet
facet normal -0.0 -1.0 0.0
outer loop
vertex 5.785228729248047 132.5 8.081543922424316
vertex 12.022132873535156 132.5 15.913448333740234
vertex 8.401691436767578 132.5 13.002391815185547
endloop
endfacet
facet normal 1.0 0.0 -0.0
outer loop
vertex 8.401691436767578 127.82758903503418 7.168205261230469
vertex 8.401691436767578 128.0 15.36760139465332
vertex 8.401691436767578 127.82758903503418 16.0
endloop
endfacet
facet normal 0.0 -1.0 0.0
outer loop
vertex 8.856422424316406 132.5 7.403553009033203
vertex 15.677536010742188 132.5 13.969837188720703
vertex 13.081672668457031 132.5 15.350082397460938
endloop
endfacet
facet normal 0.0 -1.0 0.0
outer loop
vertex 9.795368194580078 132.15000009536743 9.169447898864746
vertex 12.612197875976562 132.15000009536743 14.467134475708008
vertex 11.552658081054688 132.15000009536743 15.030500411987305
endloop
endfacet
facet normal 0.8829476092662745 1.0757746925016913e-06 -0.4694715319269239
outer loop
vertex 9.795368194580078 132.15000009536743 9.169447898864746
vertex 13.551139831542969 132.5 16.233028411865234
vertex 12.612197875976562 132.15000009536743 14.467134475708008
endloop
endfacet
facet normal 0.8829490665589117 -6.998083707829938e-05 -0.4694687859330255
outer loop
vertex 9.795368194580078 132.15000009536743 9.169447898864746
vertex 13.081672668457031 132.5 15.350082397460938
vertex 13.551139831542969 132.5 16.233028411865234
endloop
endfacet
facet normal -1.0 0.0 0.0
outer loop
vertex 0.0 130.0 11.463973045349121
vertex 0.0 128.0 15.36760139465332
vertex 0.0 130.0 15.36760139465332
endloop
endfacet
facet normal -1.0 0.0 0.0
outer loop
vertex 0.0 128.0 15.36760139465332
vertex 0.0 123.0 16.0
vertex 0.0 128.0 16.0
endloop
endfacet
facet normal -0.0 1.0 0.0
outer loop
vertex 0.0 128.0 15.36760139465332
vertex 0.0 128.0 16.0
vertex 8.401691436767578 128.0 15.36760139465332
endloop
endfacet
facet normal 0.0 -0.0 1.0
outer loop
vertex 0.0 128.0 15.36760139465332
vertex 8.401691436767578 130.0 15.36760139465332
vertex 0.0 130.0 15.36760139465332
endloop
endfacet
facet normal 0.0 0.0 1.0
outer loop
vertex 0.0 128.0 15.36760139465332
vertex 8.401691436767578 128.0 15.36760139465332
vertex 8.401691436767578 130.0 15.36760139465332
endloop
endfacet
facet normal -0.0 1.0 0.0
outer loop
vertex 0.0 128.0 16.0
vertex 8.401691436767578 128.0 16.0
vertex 8.401691436767578 128.0 15.36760139465332
endloop
endfacet
facet normal -0.0 0.0 1.0
outer loop
vertex 0.0 128.0 16.0
vertex 8.401691436767578 127.82758903503418 16.0
vertex 8.401691436767578 128.0 16.0
endloop
endfacet
facet normal -0.882947559561168 2.9271660570982823e-07 0.4694716254097709
outer loop
vertex 8.401691436767578 132.5 13.002391815185547
vertex 10.101890563964844 132.5 16.200000762939453
vertex 8.401691436767578 135.55908870697021 13.002389907836914
endloop
endfacet
facet normal 1.0 0.0 -0.0
outer loop
vertex 8.401691436767578 128.0 15.36760139465332
vertex 8.401691436767578 128.0 16.0
vertex 8.401691436767578 127.82758903503418 16.0
endloop
endfacet
facet normal -0.8829476092660454 -1.2947394613737319e-06 0.46947153192680213
outer loop
vertex 8.735828399658203 132.15000009536743 9.732813835144043
vertex 11.552658081054688 132.15000009536743 15.030500411987305
vertex 12.174491882324219 132.5 16.200000762939453
endloop
endfacet
facet normal -0.8829521986996868 0.00020410657197439435 0.46946285598745296
outer loop
vertex 8.735828399658203 132.15000009536743 9.732813835144043
vertex 12.174491882324219 132.5 16.200000762939453
vertex 12.022132873535156 132.5 15.913448333740234
endloop
endfacet
facet normal 0.0 -1.0 0.0
outer loop
vertex 8.401691436767578 132.5 13.002391815185547
vertex 12.022132873535156 132.5 15.913448333740234
vertex 10.101890563964844 132.5 16.200000762939453
endloop
endfacet
facet normal 0.0809275761738115 -0.985030442777723 0.15220300330727632
outer loop
vertex 12.612197875976562 132.15000009536743 14.467134475708008
vertex 12.174491882324219 132.3817949295044 16.200000762939453
vertex 11.552658081054688 132.15000009536743 15.030500411987305
endloop
endfacet
facet normal -0.8829477698847401 0.0 0.46947122984860756
outer loop
vertex 11.552658081054688 132.15000009536743 15.030500411987305
vertex 12.174491882324219 132.3817949295044 16.200000762939453
vertex 12.174491882324219 132.5 16.200000762939453
endloop
endfacet
facet normal 0.0809273724858974 -0.9850304669621196 0.15220295509259107
outer loop
vertex 12.612197875976562 132.15000009536743 14.467134475708008
vertex 12.491600036621094 132.5 16.79639434814453
vertex 12.174491882324219 132.3817949295044 16.200000762939453
endloop
endfacet
facet normal 0.08092755426218379 -0.9850304509455122 0.15220296209739828
outer loop
vertex 12.612197875976562 132.15000009536743 14.467134475708008
vertex 13.551139831542969 132.5 16.233028411865234
vertex 12.491600036621094 132.5 16.79639434814453
endloop
endfacet
facet normal 0.0 -1.0 0.0
outer loop
vertex 10.101890563964844 132.5 16.200000762939453
vertex 12.022132873535156 132.5 15.913448333740234
vertex 10.40633773803711 132.5 16.772581100463867
endloop
endfacet
facet normal 0.1743576361857434 -0.9284763559937411 0.3279193057206356
outer loop
vertex 10.40633773803711 132.5 16.772581100463867
vertex 12.022132873535156 132.5 15.913448333740234
vertex 11.854789733886719 132.56977939605713 16.200000762939453
endloop
endfacet
facet normal -0.8829470762331622 0.0 0.4694725344163495
outer loop
vertex 10.101890563964844 132.5 16.200000762939453
vertex 10.40633773803711 132.5 16.772581100463867
vertex 10.40633773803711 137.5 16.772581100463867
endloop
endfacet
facet normal 0.17435893719716766 -0.9284758839382682 0.3279199505436132
outer loop
vertex 12.022132873535156 132.5 15.913448333740234
vertex 12.139495849609375 132.59999990463257 16.134185791015625
vertex 11.854789733886719 132.56977939605713 16.200000762939453
endloop
endfacet
facet normal -0.8829490680861033 -3.8159031060299784e-05 0.46946878672577386
outer loop
vertex 12.022132873535156 132.5 15.913448333740234
vertex 12.174491882324219 132.55703616142273 16.200000762939453
vertex 12.139495849609375 132.59999990463257 16.134185791015625
endloop
endfacet
facet normal -0.8829522170913577 0.0 0.46946286576624546
outer loop
vertex 12.022132873535156 132.5 15.913448333740234
vertex 12.174491882324219 132.5 16.200000762939453
vertex 12.174491882324219 132.55703616142273 16.200000762939453
endloop
endfacet
facet normal 0.174358322560332 -0.9284755804865291 0.3279211365468078
outer loop
vertex 10.40633773803711 132.5 16.772581100463867
vertex 11.854789733886719 132.56977939605713 16.200000762939453
vertex 12.223251342773438 132.63897275924683 16.200000762939453
endloop
endfacet
facet normal 0.17435853442418772 -0.9284767086828408 0.32791782950447906
outer loop
vertex 12.139495849609375 132.59999990463257 16.134185791015625
vertex 12.223251342773438 132.63897275924683 16.200000762939453
vertex 11.854789733886719 132.56977939605713 16.200000762939453
endloop
endfacet
facet normal -0.8829490680722513 -3.815897986219724e-05 0.46946878675183024
outer loop
vertex 12.139495849609375 132.59999990463257 16.134185791015625
vertex 12.174491882324219 132.55703616142273 16.200000762939453
vertex 12.491600036621094 132.5 16.79639434814453
endloop
endfacet
facet normal -0.8829475560003762 0.0 0.46947163210673637
outer loop
vertex 12.174491882324219 132.55703616142273 16.200000762939453
vertex 12.174491882324219 132.5 16.200000762939453
vertex 12.491600036621094 132.5 16.79639434814453
endloop
endfacet
facet normal -0.8829475560003761 0.0 0.4694716321067363
outer loop
vertex 12.174491882324219 132.3817949295044 16.200000762939453
vertex 12.491600036621094 132.5 16.79639434814453
vertex 12.174491882324219 132.5 16.200000762939453
endloop
endfacet
facet normal -0.0 0.9999999999999999 0.0
outer loop
vertex 12.139495849609375 132.59999990463257 16.134185791015625
vertex 12.835853576660156 132.59999990463257 16.200000762939453
vertex 13.19903564453125 132.59999990463257 15.570817947387695
endloop
endfacet
facet normal -0.0 1.0 0.0
outer loop
vertex 12.139495849609375 132.59999990463257 16.134185791015625
vertex 12.491600036621094 132.59999990463257 16.79639434814453
vertex 12.835853576660156 132.59999990463257 16.200000762939453
endloop
endfacet
facet normal -0.0 1.0 -0.0
outer loop
vertex 12.835853576660156 132.59999990463257 16.200000762939453
vertex 12.491600036621094 132.59999990463257 16.79639434814453
vertex 13.551139831542969 132.59999990463257 16.233028411865234
endloop
endfacet
facet normal -0.8829466801073607 0.0 0.46947327941789235
outer loop
vertex 12.139495849609375 132.59999990463257 16.134185791015625
vertex 12.491600036621094 132.5 16.79639434814453
vertex 12.491600036621094 132.59999990463257 16.79639434814453
endloop
endfacet
facet normal 0.4694706754108997 0.0 0.882948064684007
outer loop
vertex 12.491600036621094 132.59999990463257 16.79639434814453
vertex 12.491600036621094 132.5 16.79639434814453
vertex 13.551139831542969 132.59999990463257 16.233028411865234
endloop
endfacet
facet normal -0.6454396243596391 0.0 0.7638112929948654
outer loop
vertex 10.40633773803711 132.5 16.772581100463867
vertex 12.0516357421875 133.29999995231628 18.162899017333984
vertex 12.0516357421875 136.70000004768372 18.162899017333984
endloop
endfacet
facet normal -0.8829475330784665 -6.341255458927286e-06 0.4694716751737413
outer loop
vertex 11.452289581298828 132.5 6.023306846618652
vertex 12.3912353515625 132.15000009536743 7.789201736450195
vertex 15.677536010742188 132.5 13.969837188720703
endloop
endfacet
facet normal 0.0 -1.0 0.0
outer loop
vertex 12.3912353515625 132.15000009536743 7.789201736450195
vertex 13.450767517089844 132.15000009536743 7.225835800170898
vertex 15.208061218261719 132.15000009536743 13.08688735961914
endloop
endfacet
facet normal 0.0 -0.9999999999999999 0.0
outer loop
vertex 12.796333312988281 132.5 5.995026588439941
vertex 18.352867126464844 132.5 12.54733657836914
vertex 16.73706817626953 132.5 13.406469345092773
endloop
endfacet
facet normal 0.0 -1.0 0.0
outer loop
vertex 13.450767517089844 132.15000009536743 7.225835800170898
vertex 16.267601013183594 132.15000009536743 12.523521423339844
vertex 15.208061218261719 132.15000009536743 13.08688735961914
endloop
endfacet
facet normal 0.8829473106672531 7.268383255697143e-06 -0.46947209345459073
outer loop
vertex 13.450767517089844 132.15000009536743 7.225835800170898
vertex 17.20654296875 132.5 14.289417266845703
vertex 16.267601013183594 132.15000009536743 12.523521423339844
endloop
endfacet
facet normal 0.8829476015220662 0.0 -0.46947154649289496
outer loop
vertex 14.868942260742188 132.5 5.995026588439941
vertex 18.352867126464844 137.5 12.54733657836914
vertex 18.352867126464844 132.5 12.54733657836914
endloop
endfacet
facet normal -0.8829478377781588 -8.528050560351845e-07 0.46947110215874516
outer loop
vertex 12.3912353515625 132.15000009536743 7.789201736450195
vertex 15.208061218261719 132.15000009536743 13.08688735961914
vertex 16.147003173828125 132.5 14.852783203125
endloop
endfacet
facet normal -0.8829490671801007 5.907825211089549e-05 0.46946878626331506
outer loop
vertex 12.3912353515625 132.15000009536743 7.789201736450195
vertex 16.147003173828125 132.5 14.852783203125
vertex 15.677536010742188 132.5 13.969837188720703
endloop
endfacet
facet normal 0.8829463252340374 5.518169249563098e-05 -0.46947394359079225
outer loop
vertex 13.450767517089844 132.15000009536743 7.225835800170898
vertex 16.73706817626953 132.5 13.406469345092773
vertex 17.20654296875 132.5 14.289417266845703
endloop
endfacet
facet normal 0.08092748814246718 -0.9850304755923168 0.15220283774399587
outer loop
vertex 16.267601013183594 132.15000009536743 12.523521423339844
vertex 16.147003173828125 132.5 14.852783203125
vertex 15.208061218261719 132.15000009536743 13.08688735961914
endloop
endfacet
facet normal 0.0 1.0 -0.0
outer loop
vertex 21.524436950683594 127.82758903503418 7.168205261230469
vertex 8.401691436767578 127.82758903503418 16.0
vertex 21.524436950683594 127.82758903503418 16.0
endloop
endfacet
facet normal 0.1743557158313714 -0.9284777187544104 0.32791646822557696
outer loop
vertex 16.73706817626953 132.5 13.406469345092773
vertex 18.352867126464844 132.5 12.54733657836914
vertex 16.85443878173828 132.59999990463257 13.627206802368164
endloop
endfacet
facet normal 0.1743574450423847 -0.9284765837177774 0.32791876257094016
outer loop
vertex 18.352867126464844 132.5 12.54733657836914
vertex 18.58544921875 133.29999995231628 14.68880844116211
vertex 16.85443878173828 132.59999990463257 13.627206802368164
endloop
endfacet
facet normal 0.994153764827807 0.0 -0.10797357027855119
outer loop
vertex 18.352867126464844 132.5 12.54733657836914
vertex 18.352867126464844 137.5 12.54733657836914
vertex 18.58544921875 133.29999995231628 14.68880844116211
endloop
endfacet
facet normal 0.0 -1.0 0.0
outer loop
vertex 22.5 123.0 8.0
vertex 45.0 123.0 16.0
vertex 0.0 123.0 16.0
endloop
endfacet
facet normal -1.0 0.0 0.0
outer loop
vertex 21.524436950683594 127.82758903503418 7.168205261230469
vertex 21.524436950683594 127.82758903503418 16.0
vertex 21.524436950683594 147.0 16.0
endloop
endfacet
facet normal 0.1743593392168929 -0.9284750212240949 0.3279221794736748
outer loop
vertex 13.081672668457031 132.5 15.350082397460938
vertex 15.677536010742188 132.5 13.969837188720703
vertex 15.794898986816406 132.59999990463257 14.190572738647461
endloop
endfacet
facet normal -0.8829490683444138 -2.920465857468725e-05 0.4694687868823866
outer loop
vertex 15.677536010742188 132.5 13.969837188720703
vertex 16.147003173828125 132.5 14.852783203125
vertex 15.794898986816406 132.59999990463257 14.190572738647461
endloop
endfacet
facet normal -0.0 1.0 0.0
outer loop
vertex 15.794898986816406 132.59999990463257 14.190572738647461
vertex 16.147003173828125 132.59999990463257 14.852783203125
vertex 16.85443878173828 132.59999990463257 13.627206802368164
endloop
endfacet
facet normal -0.88294724062601 0.0 0.4694722252390599
outer loop
vertex 15.794898986816406 132.59999990463257 14.190572738647461
vertex 16.147003173828125 132.5 14.852783203125
vertex 16.147003173828125 132.59999990463257 14.852783203125
endloop
endfacet
facet normal 0.1743593392168929 -0.9284750212240949 0.3279221794736748
outer loop
vertex 13.081672668457031 132.5 15.350082397460938
vertex 15.794898986816406 132.59999990463257 14.190572738647461
vertex 13.19903564453125 132.59999990463257 15.570817947387695
endloop
endfacet
facet normal 0.8829490683444138 2.920465857468725e-05 -0.4694687868823866
outer loop
vertex 13.081672668457031 132.5 15.350082397460938
vertex 13.19903564453125 132.59999990463257 15.570817947387695
vertex 13.551139831542969 132.5 16.233028411865234
endloop
endfacet
facet normal 0.17435699511340244 -0.9284774803042294 0.327916463177643
outer loop
vertex 10.40633773803711 132.5 16.772581100463867
vertex 12.223251342773438 132.63897275924683 16.200000762939453
vertex 18.58544921875 133.29999995231628 14.68880844116211
endloop
endfacet
facet normal 0.17435733996882263 -0.9284768203095598 0.32791814854753865
outer loop
vertex 12.139495849609375 132.59999990463257 16.134185791015625
vertex 13.19903564453125 132.59999990463257 15.570817947387695
vertex 18.58544921875 133.29999995231628 14.68880844116211
endloop
endfacet
facet normal 0.17435749793293565 -0.9284764843815138 0.3279190157113661
outer loop
vertex 12.139495849609375 132.59999990463257 16.134185791015625
vertex 18.58544921875 133.29999995231628 14.68880844116211
vertex 12.223251342773438 132.63897275924683 16.200000762939453
endloop
endfacet
facet normal 0.17435737973639456 -0.9284766907548796 0.3279184942273408
outer loop
vertex 15.794898986816406 132.59999990463257 14.190572738647461
vertex 18.58544921875 133.29999995231628 14.68880844116211
vertex 13.19903564453125 132.59999990463257 15.570817947387695
endloop
endfacet
facet normal 0.08092748814246718 -0.9850304755923168 0.15220283774399587
outer loop
vertex 16.267601013183594 132.15000009536743 12.523521423339844
vertex 17.20654296875 132.5 14.289417266845703
vertex 16.147003173828125 132.5 14.852783203125
endloop
endfacet
facet normal 0.8829463264841981 -1.460225239816548e-05 -0.46947394425551886
outer loop
vertex 16.73706817626953 132.5 13.406469345092773
vertex 16.85443878173828 132.59999990463257 13.627206802368164
vertex 17.20654296875 132.5 14.289417266845703
endloop
endfacet
facet normal 0.88294724062601 0.0 -0.4694722252390599
outer loop
vertex 16.85443878173828 132.59999990463257 13.627206802368164
vertex 17.20654296875 132.59999990463257 14.289417266845703
vertex 17.20654296875 132.5 14.289417266845703
endloop
endfacet
facet normal 0.17435723503707848 -0.9284765176110125 0.32791906140868365
outer loop
vertex 15.794898986816406 132.59999990463257 14.190572738647461
vertex 16.85443878173828 132.59999990463257 13.627206802368164
vertex 18.58544921875 133.29999995231628 14.68880844116211
endloop
endfacet
facet normal 0.0 1.0 0.0
outer loop
vertex 16.147003173828125 132.59999990463257 14.852783203125
vertex 17.20654296875 132.59999990463257 14.289417266845703
vertex 16.85443878173828 132.59999990463257 13.627206802368164
endloop
endfacet
facet normal 0.4694706754108997 0.0 0.882948064684007
outer loop
vertex 16.147003173828125 132.5 14.852783203125
vertex 17.20654296875 132.59999990463257 14.289417266845703
vertex 16.147003173828125 132.59999990463257 14.852783203125
endloop
endfacet
facet normal 0.4694706754108997 -0.0 0.882948064684007
outer loop
vertex 16.147003173828125 132.5 14.852783203125
vertex 17.20654296875 132.5 14.289417266845703
vertex 17.20654296875 132.59999990463257 14.289417266845703
endloop
endfacet
facet normal -0.0 1.0 0.0
outer loop
vertex 12.835853576660156 132.59999990463257 16.200000762939453
vertex 13.551139831542969 132.59999990463257 16.233028411865234
vertex 13.19903564453125 132.59999990463257 15.570817947387695
endloop
endfacet
facet normal 0.88294724062601 0.0 -0.4694722252390599
outer loop
vertex 13.19903564453125 132.59999990463257 15.570817947387695
vertex 13.551139831542969 132.59999990463257 16.233028411865234
vertex 13.551139831542969 132.5 16.233028411865234
endloop
endfacet
facet normal 0.4694706754108997 -0.0 0.882948064684007
outer loop
vertex 12.491600036621094 132.5 16.79639434814453
vertex 13.551139831542969 132.5 16.233028411865234
vertex 13.551139831542969 132.59999990463257 16.233028411865234
endloop
endfacet
facet normal 0.17435747667724102 -0.9284766033900178 0.32791869004995916
outer loop
vertex 10.40633773803711 132.5 16.772581100463867
vertex 18.58544921875 133.29999995231628 14.68880844116211
vertex 12.0516357421875 133.29999995231628 18.162899017333984
endloop
endfacet
facet normal 0.4694715971267608 0.0 0.8829475745995615
outer loop
vertex 12.0516357421875 133.29999995231628 18.162899017333984
vertex 18.58544921875 133.29999995231628 14.68880844116211
vertex 12.0516357421875 136.70000004768372 18.162899017333984
endloop
endfacet
facet normal 0.0 -0.0 1.0
outer loop
vertex 0.0 123.0 16.0
vertex 45.0 123.0 16.0
vertex 0.0 128.0 16.0
endloop
endfacet
facet normal -0.0 -0.0 1.0
outer loop
vertex 0.0 128.0 16.0
vertex 45.0 123.0 16.0
vertex 8.401691436767578 127.82758903503418 16.0
endloop
endfacet
facet normal -0.0 -0.0 1.0
outer loop
vertex 8.401691436767578 127.82758903503418 16.0
vertex 45.0 123.0 16.0
vertex 21.524436950683594 127.82758903503418 16.0
endloop
endfacet
facet normal -1.0 -0.0 -0.0
outer loop
vertex 0.0 140.0 11.463973045349121
vertex 0.0 147.0 4.0
vertex 0.0 123.0 4.0
endloop
endfacet
facet normal 0.0 1.0 -0.0
outer loop
vertex 8.401691436767578 147.0 7.134685516357422
vertex 0.0 147.0 4.0
vertex 0.0 147.0 15.36760139465332
endloop
endfacet
facet normal 0.5047294046123116 -1.0788565804630972e-07 0.8632776077946709
outer loop
vertex 5.785228729248047 137.5 8.081543922424316
vertex 8.401691436767578 140.0 6.551786422729492
vertex 0.0 140.0 11.463973045349121
endloop
endfacet
facet normal 1.0 0.0 -0.0
outer loop
vertex 8.401691436767578 137.5 5.995026588439941
vertex 8.401691436767578 140.19999980926514 5.995026588439941
vertex 8.401691436767578 137.5 6.551786422729492
endloop
endfacet
facet normal 0.0 -0.0 1.0
outer loop
vertex 8.401691436767578 137.5 5.995026588439941
vertex 9.353961944580078 137.5 5.995026588439941
vertex 8.401691436767578 140.19999980926514 5.995026588439941
endloop
endfacet
facet normal -0.0 1.0 0.0
outer loop
vertex 8.401691436767578 137.5 5.995026588439941
vertex 8.401691436767578 137.5 6.551786422729492
vertex 9.353961944580078 137.5 5.995026588439941
endloop
endfacet
facet normal -0.0 0.0 1.0
outer loop
vertex 8.401691436767578 140.19999980926514 5.995026588439941
vertex 9.353961944580078 137.5 5.995026588439941
vertex 9.353961944580078 137.92634558677673 5.995026588439941
endloop
endfacet
facet normal -0.0 1.0 -0.0
outer loop
vertex 9.353961944580078 137.5 5.995026588439941
vertex 8.856422424316406 137.5 7.403553009033203
vertex 11.277145385742188 137.5 4.87060546875
endloop
endfacet
facet normal -0.0 0.0 0.9999999999999999
outer loop
vertex 8.401691436767578 140.19999980926514 5.995026588439941
vertex 9.353961944580078 137.92634558677673 5.995026588439941
vertex 9.353961944580078 140.0 5.995026588439941
endloop
endfacet
facet normal 0.0 1.0 -0.0
outer loop
vertex 9.353961944580078 137.5 5.995026588439941
vertex 8.401691436767578 137.5 6.551786422729492
vertex 8.856422424316406 137.5 7.403553009033203
endloop
endfacet
facet normal 1.0 0.0 0.0
outer loop
vertex 8.401691436767578 140.19999980926514 5.995026588439941
vertex 8.401691436767578 140.0 6.551786422729492
vertex 8.401691436767578 137.5 6.551786422729492
endloop
endfacet
facet normal 0.5047295368073149 -0.0 0.8632775305046885
outer loop
vertex 9.353961944580078 137.92634558677673 5.995026588439941
vertex 11.277145385742188 137.5 4.87060546875
vertex 11.277145385742188 140.0 4.87060546875
endloop
endfacet
facet normal 0.5047295368073149 0.0 0.8632775305046885
outer loop
vertex 9.353961944580078 137.5 5.995026588439941
vertex 11.277145385742188 137.5 4.87060546875
vertex 9.353961944580078 137.92634558677673 5.995026588439941
endloop
endfacet
facet normal 0.5047295368073149 0.0 0.8632775305046886
outer loop
vertex 9.353961944580078 137.92634558677673 5.995026588439941
vertex 11.277145385742188 140.0 4.87060546875
vertex 9.353961944580078 140.0 5.995026588439941
endloop
endfacet
facet normal -0.8829476112239156 0.0 0.46947152824636884
outer loop
vertex 11.277145385742188 137.5 4.87060546875
vertex 11.793563842773438 137.5 5.8418474197387695
vertex 11.277145385742188 140.0 4.87060546875
endloop
endfacet
facet normal -0.0 1.0 0.0
outer loop
vertex 11.277145385742188 137.5 4.87060546875
vertex 11.452289581298828 137.5 6.023306846618652
vertex 11.65521240234375 137.5 5.915410041809082
endloop
endfacet
facet normal 0.0 -1.0 0.0
outer loop
vertex 9.353961944580078 140.0 5.995026588439941
vertex 11.277145385742188 140.0 4.87060546875
vertex 11.875007629394531 140.0 5.995026588439941
endloop
endfacet
facet normal -0.0 1.0 0.0
outer loop
vertex 11.277145385742188 137.5 4.87060546875
vertex 11.65521240234375 137.5 5.915410041809082
vertex 11.793563842773438 137.5 5.8418474197387695
endloop
endfacet
facet normal -0.8829485924161696 -9.195987217014982e-07 0.4694696828864021
outer loop
vertex 11.277145385742188 140.0 4.87060546875
vertex 11.793563842773438 137.5 5.8418474197387695
vertex 11.875007629394531 140.0 5.995026588439941
endloop
endfacet
facet normal -0.0 1.0 -0.0
outer loop
vertex 11.277145385742188 137.5 4.87060546875
vertex 8.856422424316406 137.5 7.403553009033203
vertex 11.452289581298828 137.5 6.023306846618652
endloop
endfacet
facet normal -0.0 0.9999999999999999 0.0
outer loop
vertex 8.401691436767578 147.0 7.134685516357422
vertex 21.396835327148438 147.0 7.134685516357422
vertex 0.0 147.0 4.0
endloop
endfacet
facet normal -0.08092794768963257 0.9850303153734044 -0.1522036303053098
outer loop
vertex 11.65521240234375 137.5 5.915410041809082
vertex 11.875007629394531 137.5303599834442 5.995026588439941
vertex 11.793563842773438 137.5 5.8418474197387695
endloop
endfacet
facet normal -0.8829548136898066 0.0 0.4694579821261953
outer loop
vertex 11.793563842773438 137.5 5.8418474197387695
vertex 11.875007629394531 137.5303599834442 5.995026588439941
vertex 11.875007629394531 140.0 5.995026588439941
endloop
endfacet
facet normal -0.08092818830790392 0.985030451868092 -0.1522026189976471
outer loop
vertex 11.452289581298828 137.5 6.023306846618652
vertex 11.593002319335938 137.50719094276428 5.995026588439941
vertex 11.65521240234375 137.5 5.915410041809082
endloop
endfacet
facet normal -0.08092829915738163 0.9850304296871464 -0.15220270360886906
outer loop
vertex 11.65521240234375 137.5 5.915410041809082
vertex 11.593002319335938 137.50719094276428 5.995026588439941
vertex 11.875007629394531 137.5303599834442 5.995026588439941
endloop
endfacet
facet normal -0.0 0.0 1.0
outer loop
vertex 8.401691436767578 140.19999980926514 5.995026588439941
vertex 9.353961944580078 140.0 5.995026588439941
vertex 17.058494567871094 140.19999980926514 5.995026588439941
endloop
endfacet
facet normal 0.0 0.0 1.0
outer loop
vertex 9.353961944580078 140.0 5.995026588439941
vertex 11.875007629394531 140.0 5.995026588439941
vertex 17.058494567871094 140.19999980926514 5.995026588439941
endloop
endfacet
facet normal -0.0809281458472369 0.9850304894786958 -0.15220239816471215
outer loop
vertex 11.452289581298828 137.5 6.023306846618652
vertex 12.3912353515625 137.84999990463257 7.789201736450195
vertex 11.593002319335938 137.50719094276428 5.995026588439941
endloop
endfacet
facet normal -0.08092830390055764 0.9850304874193951 -0.1522023274529267
outer loop
vertex 11.593002319335938 137.50719094276428 5.995026588439941
vertex 12.3912353515625 137.84999990463257 7.789201736450195
vertex 11.875007629394531 137.5303599834442 5.995026588439941
endloop
endfacet
facet normal -0.08092767485773258 0.985030481966698 -0.15220269721189558
outer loop
vertex 11.875007629394531 137.5303599834442 5.995026588439941
vertex 13.450767517089844 137.84999990463257 7.225835800170898
vertex 12.796333312988281 137.60605382919312 5.995026588439941
endloop
endfacet
facet normal 0.8829471950903003 0.0 -0.46947231087910957
outer loop
vertex 12.796333312988281 137.5 5.995026588439941
vertex 12.796333312988281 137.60605382919312 5.995026588439941
vertex 13.450767517089844 137.84999990463257 7.225835800170898
endloop
endfacet
facet normal 0.0 -0.165291558719156 0.9862447468129765
outer loop
vertex 8.401691436767578 140.19999980926514 5.995026588439941
vertex 21.396835327148438 147.0 7.134685516357422
vertex 8.401691436767578 147.0 7.134685516357422
endloop
endfacet
facet normal 0.5047293277895096 -0.0 0.8632776527103836
outer loop
vertex 5.785228729248047 137.5 8.081543922424316
vertex 8.401691436767578 137.5 6.551786422729492
vertex 8.401691436767578 140.0 6.551786422729492
endloop
endfacet
facet normal 0.0 1.0 0.0
outer loop
vertex 5.785228729248047 137.5 8.081543922424316
vertex 7.796886444091797 137.5 7.9669189453125
vertex 8.401691436767578 137.5 6.551786422729492
endloop
endfacet
facet normal -0.0 1.0 -0.0
outer loop
vertex 8.401691436767578 137.5 6.551786422729492
vertex 7.796886444091797 137.5 7.9669189453125
vertex 8.856422424316406 137.5 7.403553009033203
endloop
endfacet
facet normal -0.8829474041753026 -5.011843578651713e-06 0.4694719176212526
outer loop
vertex 7.796886444091797 137.5 7.9669189453125
vertex 8.401691436767578 137.63611388206482 9.104392051696777
vertex 8.401691436767578 137.72544693946838 9.104393005371094
endloop
endfacet
facet normal -0.08092770727559918 0.9850304785801876 -0.1522027018919236
outer loop
vertex 8.856422424316406 137.5 7.403553009033203
vertex 7.796886444091797 137.5 7.9669189453125
vertex 8.401691436767578 137.72544693946838 9.104393005371094
endloop
endfacet
facet normal -0.08092806288650894 0.9850304355546254 -0.15220279126383346
outer loop
vertex 8.856422424316406 137.5 7.403553009033203
vertex 8.401691436767578 137.72544693946838 9.104393005371094
vertex 8.735828399658203 137.84999990463257 9.732813835144043
endloop
endfacet
facet normal -0.08092745088958893 0.9850304894787012 -0.152202767681352
outer loop
vertex 8.856422424316406 137.5 7.403553009033203
vertex 8.735828399658203 137.84999990463257 9.732813835144043
vertex 9.795368194580078 137.84999990463257 9.169447898864746
endloop
endfacet
facet normal -0.08092786778611115 0.9850305034204894 -0.15220245578429725
outer loop
vertex 11.875007629394531 137.5303599834442 5.995026588439941
vertex 12.3912353515625 137.84999990463257 7.789201736450195
vertex 13.450767517089844 137.84999990463257 7.225835800170898
endloop
endfacet
facet normal -1.0 0.0 0.0
outer loop
vertex 22.5 247.0 0.0
vertex 22.5 147.0 0.0
vertex 22.5 147.0 4.0
endloop
endfacet
facet normal -1.0 -0.0 -0.0
outer loop
vertex 22.5 147.0 8.0
vertex 22.5 247.0 0.0
vertex 22.5 147.0 4.0
endloop
endfacet
facet normal 0.0 1.0 0.0
outer loop
vertex 21.396835327148438 147.0 7.134685516357422
vertex 22.5 147.0 4.0
vertex 0.0 147.0 4.0
endloop
endfacet
facet normal 0.0 -0.0 1.0
outer loop
vertex 12.796333312988281 137.5 5.995026588439941
vertex 14.868942260742188 137.5 5.995026588439941
vertex 12.796333312988281 137.60605382919312 5.995026588439941
endloop
endfacet
facet normal 0.0 0.0 1.0
outer loop
vertex 11.875007629394531 137.5303599834442 5.995026588439941
vertex 12.796333312988281 137.60605382919312 5.995026588439941
vertex 17.058494567871094 140.19999980926514 5.995026588439941
endloop
endfacet
facet normal 0.0 -0.0 1.0
outer loop
vertex 11.875007629394531 137.5303599834442 5.995026588439941
vertex 17.058494567871094 140.19999980926514 5.995026588439941
vertex 11.875007629394531 140.0 5.995026588439941
endloop
endfacet
facet normal -0.0 0.0 1.0
outer loop
vertex 12.796333312988281 137.60605382919312 5.995026588439941
vertex 14.868942260742188 137.5 5.995026588439941
vertex 17.058494567871094 140.19999980926514 5.995026588439941
endloop
endfacet
facet normal 0.0 -0.0 1.0
outer loop
vertex 14.868942260742188 132.5 5.995026588439941
vertex 17.058494567871094 140.19999980926514 5.995026588439941
vertex 14.868942260742188 137.5 5.995026588439941
endloop
endfacet
facet normal 0.0 -0.165291558719156 0.9862447468129764
outer loop
vertex 8.401691436767578 140.19999980926514 5.995026588439941
vertex 17.058494567871094 140.19999980926514 5.995026588439941
vertex 21.396835327148438 147.0 7.134685516357422
endloop
endfacet
facet normal 0.8829475510103301 -3.019504963801275e-06 -0.4694716414819357
outer loop
vertex 12.796333312988281 137.5 5.995026588439941
vertex 13.450767517089844 137.84999990463257 7.225835800170898
vertex 16.73706817626953 137.5 13.406469345092773
endloop
endfacet
facet normal -0.0 0.9999999999999999 0.0
outer loop
vertex 12.796333312988281 137.5 5.995026588439941
vertex 16.73706817626953 137.5 13.406469345092773
vertex 14.868942260742188 137.5 5.995026588439941
endloop
endfacet
facet normal 0.8829476015220662 0.0 -0.46947154649289496
outer loop
vertex 14.868942260742188 132.5 5.995026588439941
vertex 14.868942260742188 137.5 5.995026588439941
vertex 18.352867126464844 137.5 12.54733657836914
endloop
endfacet
facet normal -0.2540741495380683 0.0 0.9671847427128425
outer loop
vertex 21.524436950683594 127.82758903503418 7.168205261230469
vertex 21.524436950683594 147.0 7.168205261230469
vertex 17.058494567871094 140.19999980926514 5.995026588439941
endloop
endfacet
facet normal -0.2540705708463361 -2.512518675550017e-06 0.9671856828052741
outer loop
vertex 17.058494567871094 140.19999980926514 5.995026588439941
vertex 21.524436950683594 147.0 7.168205261230469
vertex 21.396835327148438 147.0 7.134685516357422
endloop
endfacet
facet normal -0.0 1.0 0.0
outer loop
vertex 21.396835327148438 147.0 7.134685516357422
vertex 21.524436950683594 147.0 7.168205261230469
vertex 22.5 147.0 4.0
endloop
endfacet
facet normal -0.0 1.0 0.0
outer loop
vertex 21.524436950683594 147.0 7.168205261230469
vertex 21.524436950683594 147.0 16.0
vertex 22.5 147.0 4.0
endloop
endfacet
facet normal -0.0 1.0 0.0
outer loop
vertex 22.5 247.0 0.0
vertex 22.5 247.0 8.0
vertex 29.5 247.0 3.75
endloop
endfacet
facet normal -1.0 0.0 0.0
outer loop
vertex 22.5 147.0 8.0
vertex 22.5 247.0 8.0
vertex 22.5 247.0 0.0
endloop
endfacet
facet normal -1.0 0.0 0.0
outer loop
vertex 0.0 140.0 11.463973045349121
vertex 0.0 140.0 15.36760139465332
vertex 0.0 147.0 4.0
endloop
endfacet
facet normal 0.5047294393566594 0.0 0.8632775874808243
outer loop
vertex 0.0 130.0 11.463973045349121
vertex 5.785228729248047 137.5 8.081543922424316
vertex 0.0 140.0 11.463973045349121
endloop
endfacet
facet normal -0.0 -1.0 0.0
outer loop
vertex 8.401691436767578 140.0 6.551786422729492
vertex 8.401691436767578 140.0 15.36760139465332
vertex 0.0 140.0 11.463973045349121
endloop
endfacet
facet normal -1.0 0.0 0.0
outer loop
vertex 0.0 140.0 15.36760139465332
vertex 0.0 147.0 15.36760139465332
vertex 0.0 147.0 4.0
endloop
endfacet
facet normal 0.0 1.0 -0.0
outer loop
vertex 8.401691436767578 147.0 7.134685516357422
vertex 0.0 147.0 15.36760139465332
vertex 8.401691436767578 147.0 15.36760139465332
endloop
endfacet
facet normal -0.8829474834378003 0.0 0.46947176857704165
outer loop
vertex 5.785228729248047 132.5 8.081543922424316
vertex 8.401691436767578 137.5 13.002391815185547
vertex 5.785228729248047 137.5 8.081543922424316
endloop
endfacet
facet normal -0.0 0.9999999999999999 0.0
outer loop
vertex 5.785228729248047 137.5 8.081543922424316
vertex 8.401691436767578 137.5 13.002391815185547
vertex 7.796886444091797 137.5 7.9669189453125
endloop
endfacet
facet normal -0.8829473670804114 -5.011844323430273e-06 0.4694719873865223
outer loop
vertex 8.401691436767578 137.63611388206482 9.104392051696777
vertex 8.735828399658203 137.84999990463257 9.732813835144043
vertex 8.401691436767578 137.72544693946838 9.104393005371094
endloop
endfacet
facet normal 1.0 0.0 -0.0
outer loop
vertex 8.401691436767578 140.19999980926514 5.995026588439941
vertex 8.401691436767578 147.0 15.36760139465332
vertex 8.401691436767578 140.0 6.551786422729492
endloop
endfacet
facet normal 1.0 0.0 0.0
outer loop
vertex 8.401691436767578 140.19999980926514 5.995026588439941
vertex 8.401691436767578 147.0 7.134685516357422
vertex 8.401691436767578 147.0 15.36760139465332
endloop
endfacet
facet normal -0.8829475097377399 -2.883836227433968e-06 0.4694717191052163
outer loop
vertex 7.796886444091797 137.5 7.9669189453125
vertex 12.022132873535156 137.5 15.913448333740234
vertex 8.401691436767578 137.63611388206482 9.104392051696777
endloop
endfacet
facet normal 0.0 1.0 -0.0
outer loop
vertex 11.452289581298828 137.5 6.023306846618652
vertex 8.856422424316406 137.5 7.403553009033203
vertex 13.081672668457031 137.5 15.350082397460938
endloop
endfacet
facet normal 0.8829473340386393 -3.918460598529363e-06 -0.4694720495393788
outer loop
vertex 8.856422424316406 137.5 7.403553009033203
vertex 9.795368194580078 137.84999990463257 9.169447898864746
vertex 13.081672668457031 137.5 15.350082397460938
endloop
endfacet
facet normal 0.0 1.0 -0.0
outer loop
vertex 9.795368194580078 137.84999990463257 9.169447898864746
vertex 8.735828399658203 137.84999990463257 9.732813835144043
vertex 11.552658081054688 137.84999990463257 15.030500411987305
endloop
endfacet
facet normal -0.882947289121599 -4.61353919782595e-07 0.4694721340320494
outer loop
vertex 5.785228729248047 132.5 8.081543922424316
vertex 8.401691436767578 135.55908870697021 13.002389907836914
vertex 8.401691436767578 137.5 13.002391815185547
endloop
endfacet
facet normal -0.8829475184761302 -3.9387805287187566e-06 0.4694717026630355
outer loop
vertex 8.401691436767578 137.63611388206482 9.104392051696777
vertex 12.022132873535156 137.5 15.913448333740234
vertex 8.735828399658203 137.84999990463257 9.732813835144043
endloop
endfacet
facet normal 0.0 0.9999999999999999 0.0
outer loop
vertex 7.796886444091797 137.5 7.9669189453125
vertex 8.401691436767578 137.5 13.002391815185547
vertex 10.101890563964844 137.5 16.200000762939453
endloop
endfacet
facet normal 1.0 0.0 -0.0
outer loop
vertex 8.401691436767578 140.0 6.551786422729492
vertex 8.401691436767578 147.0 15.36760139465332
vertex 8.401691436767578 140.0 15.36760139465332
endloop
endfacet
facet normal -0.0 1.0 0.0
outer loop
vertex 9.795368194580078 137.84999990463257 9.169447898864746
vertex 11.552658081054688 137.84999990463257 15.030500411987305
vertex 12.612197875976562 137.84999990463257 14.467134475708008
endloop
endfacet
facet normal -0.0 1.0 0.0
outer loop
vertex 7.796886444091797 137.5 7.9669189453125
vertex 10.40633773803711 137.5 16.772581100463867
vertex 12.022132873535156 137.5 15.913448333740234
endloop
endfacet
facet normal 0.8829476092662745 -1.0757746925016913e-06 -0.4694715319269239
outer loop
vertex 9.795368194580078 137.84999990463257 9.169447898864746
vertex 12.612197875976562 137.84999990463257 14.467134475708008
vertex 13.551139831542969 137.5 16.233028411865234
endloop
endfacet
facet normal 0.8829490665589117 6.998083707829938e-05 -0.4694687859330255
outer loop
vertex 9.795368194580078 137.84999990463257 9.169447898864746
vertex 13.551139831542969 137.5 16.233028411865234
vertex 13.081672668457031 137.5 15.350082397460938
endloop
endfacet
facet normal 0.0 -1.0 0.0
outer loop
vertex 0.0 140.0 11.463973045349121
vertex 8.401691436767578 140.0 15.36760139465332
vertex 0.0 140.0 15.36760139465332
endloop
endfacet
facet normal 0.0 -0.0 1.0
outer loop
vertex 0.0 140.0 15.36760139465332
vertex 8.401691436767578 147.0 15.36760139465332
vertex 0.0 147.0 15.36760139465332
endloop
endfacet
facet normal 0.0 0.0 1.0
outer loop
vertex 0.0 140.0 15.36760139465332
vertex 8.401691436767578 140.0 15.36760139465332
vertex 8.401691436767578 147.0 15.36760139465332
endloop
endfacet
facet normal -0.8829475595611117 -4.6135341995549414e-07 0.46947162540974097
outer loop
vertex 8.401691436767578 135.55908870697021 13.002389907836914
vertex 10.101890563964844 137.5 16.200000762939453
vertex 8.401691436767578 137.5 13.002391815185547
endloop
endfacet
facet normal 0.0 1.0 0.0
outer loop
vertex 7.796886444091797 137.5 7.9669189453125
vertex 10.101890563964844 137.5 16.200000762939453
vertex 10.40633773803711 137.5 16.772581100463867
endloop
endfacet
facet normal -0.8829476756413761 0.0 0.46947140709471447
outer loop
vertex 10.101890563964844 132.5 16.200000762939453
vertex 10.101890563964844 137.5 16.200000762939453
vertex 8.401691436767578 135.55908870697021 13.002389907836914
endloop
endfacet
facet normal -0.8829476092650982 1.954999082233992e-06 0.4694715319262984
outer loop
vertex 8.735828399658203 137.84999990463257 9.732813835144043
vertex 12.174491882324219 137.6182050704956 16.200000762939453
vertex 11.552658081054688 137.84999990463257 15.030500411987305
endloop
endfacet
facet normal -0.8829480040797322 -2.4637175062663067e-05 0.4694707887447599
outer loop
vertex 8.735828399658203 137.84999990463257 9.732813835144043
vertex 12.022132873535156 137.5 15.913448333740234
vertex 12.174491882324219 137.6182050704956 16.200000762939453
endloop
endfacet
facet normal 0.0809275761738115 0.985030442777723 0.15220300330727632
outer loop
vertex 12.612197875976562 137.84999990463257 14.467134475708008
vertex 11.552658081054688 137.84999990463257 15.030500411987305
vertex 12.174491882324219 137.6182050704956 16.200000762939453
endloop
endfacet
facet normal 0.0809273724858974 0.9850304669621196 0.15220295509259107
outer loop
vertex 12.612197875976562 137.84999990463257 14.467134475708008
vertex 12.174491882324219 137.6182050704956 16.200000762939453
vertex 12.491600036621094 137.5 16.79639434814453
endloop
endfacet
facet normal 0.08092755426218379 0.9850304509455122 0.15220296209739828
outer loop
vertex 12.612197875976562 137.84999990463257 14.467134475708008
vertex 12.491600036621094 137.5 16.79639434814453
vertex 13.551139831542969 137.5 16.233028411865234
endloop
endfacet
facet normal -0.8829470762331622 0.0 0.4694725344163495
outer loop
vertex 10.101890563964844 132.5 16.200000762939453
vertex 10.40633773803711 137.5 16.772581100463867
vertex 10.101890563964844 137.5 16.200000762939453
endloop
endfacet
facet normal 0.1743576361857434 0.9284763559937411 0.3279193057206356
outer loop
vertex 10.40633773803711 137.5 16.772581100463867
vertex 11.854789733886719 137.43022060394287 16.200000762939453
vertex 12.022132873535156 137.5 15.913448333740234
endloop
endfacet
facet normal 0.1743481638565781 0.9284870578912932 0.32789403942159484
outer loop
vertex 10.40633773803711 137.5 16.772581100463867
vertex 11.523628234863281 137.4431118965149 16.339582443237305
vertex 11.854789733886719 137.43022060394287 16.200000762939453
endloop
endfacet
facet normal 0.1743601098350734 0.9284754584595152 0.3279205317400765
outer loop
vertex 12.022132873535156 137.5 15.913448333740234
vertex 11.854789733886719 137.43022060394287 16.200000762939453
vertex 12.136642456054688 137.3772909641266 16.200000762939453
endloop
endfacet
facet normal 0.17434960916131786 0.9284758839604985 0.32792491013807806
outer loop
vertex 12.022132873535156 137.5 15.913448333740234
vertex 12.136642456054688 137.3772909641266 16.200000762939453
vertex 12.139495849609375 137.40000009536743 16.134185791015625
endloop
endfacet
facet normal -0.8829490680861033 3.8159031060299784e-05 0.46946878672577386
outer loop
vertex 12.022132873535156 137.5 15.913448333740234
vertex 12.139495849609375 137.40000009536743 16.134185791015625
vertex 12.174491882324219 137.44296383857727 16.200000762939453
endloop
endfacet
facet normal -0.8829522170913578 0.0 0.4694628657662455
outer loop
vertex 12.022132873535156 137.5 15.913448333740234
vertex 12.174491882324219 137.44296383857727 16.200000762939453
vertex 12.174491882324219 137.6182050704956 16.200000762939453
endloop
endfacet
facet normal -0.8829490680722513 3.815897986219724e-05 0.46946878675183024
outer loop
vertex 12.139495849609375 137.40000009536743 16.134185791015625
vertex 12.491600036621094 137.5 16.79639434814453
vertex 12.174491882324219 137.44296383857727 16.200000762939453
endloop
endfacet
facet normal -0.8829475560003761 0.0 0.4694716321067363
outer loop
vertex 12.174491882324219 137.6182050704956 16.200000762939453
vertex 12.174491882324219 137.44296383857727 16.200000762939453
vertex 12.491600036621094 137.5 16.79639434814453
endloop
endfacet
facet normal 0.0 -1.0 0.0
outer loop
vertex 12.139495849609375 137.40000009536743 16.134185791015625
vertex 13.19903564453125 137.40000009536743 15.570817947387695
vertex 13.551139831542969 137.40000009536743 16.233028411865234
endloop
endfacet
facet normal 0.17435764846057067 0.928476557468062 0.3279187287355759
outer loop
vertex 12.139495849609375 137.40000009536743 16.134185791015625
vertex 13.951019287109375 137.03657150268555 16.200000762939453
vertex 13.19903564453125 137.40000009536743 15.570817947387695
endloop
endfacet
facet normal 0.17435702458823293 0.9284745415085869 0.32792476842586565
outer loop
vertex 12.139495849609375 137.40000009536743 16.134185791015625
vertex 12.136642456054688 137.3772909641266 16.200000762939453
vertex 13.951019287109375 137.03657150268555 16.200000762939453
endloop
endfacet
facet normal 0.0 -1.0 0.0
outer loop
vertex 12.139495849609375 137.40000009536743 16.134185791015625
vertex 13.551139831542969 137.40000009536743 16.233028411865234
vertex 12.491600036621094 137.40000009536743 16.79639434814453
endloop
endfacet
facet normal 0.17435812177593465 0.9284764999364644 0.3279186399650087
outer loop
vertex 11.854789733886719 137.43022060394287 16.200000762939453
vertex 11.523628234863281 137.4431118965149 16.339582443237305
vertex 12.0516357421875 136.70000004768372 18.162899017333984
endloop
endfacet
facet normal 0.17436025155096552 0.9284762131030401 0.32791831967873064
outer loop
vertex 11.854789733886719 137.43022060394287 16.200000762939453
vertex 12.0516357421875 136.70000004768372 18.162899017333984
vertex 12.136642456054688 137.3772909641266 16.200000762939453
endloop
endfacet
facet normal -0.8829466801073607 0.0 0.46947327941789235
outer loop
vertex 12.139495849609375 137.40000009536743 16.134185791015625
vertex 12.491600036621094 137.40000009536743 16.79639434814453
vertex 12.491600036621094 137.5 16.79639434814453
endloop
endfacet
facet normal 0.4694706754108997 0.0 0.882948064684007
outer loop
vertex 12.491600036621094 137.40000009536743 16.79639434814453
vertex 13.551139831542969 137.40000009536743 16.233028411865234
vertex 12.491600036621094 137.5 16.79639434814453
endloop
endfacet
facet normal 0.17435743426681066 0.9284767231019613 0.3279183736446295
outer loop
vertex 12.136642456054688 137.3772909641266 16.200000762939453
vertex 12.0516357421875 136.70000004768372 18.162899017333984
vertex 13.951019287109375 137.03657150268555 16.200000762939453
endloop
endfacet
facet normal -0.6454396243596391 0.0 0.7638112929948654
outer loop
vertex 10.40633773803711 132.5 16.772581100463867
vertex 12.0516357421875 136.70000004768372 18.162899017333984
vertex 10.40633773803711 137.5 16.772581100463867
endloop
endfacet
facet normal 0.1743572690763554 0.928476563678322 0.32791891287379266
outer loop
vertex 10.40633773803711 137.5 16.772581100463867
vertex 12.0516357421875 136.70000004768372 18.162899017333984
vertex 11.523628234863281 137.4431118965149 16.339582443237305
endloop
endfacet
facet normal -0.8829475330784665 6.341255458927286e-06 0.4694716751737413
outer loop
vertex 11.452289581298828 137.5 6.023306846618652
vertex 15.677536010742188 137.5 13.969837188720703
vertex 12.3912353515625 137.84999990463257 7.789201736450195
endloop
endfacet
facet normal -0.0 1.0 0.0
outer loop
vertex 12.3912353515625 137.84999990463257 7.789201736450195
vertex 15.208061218261719 137.84999990463257 13.08688735961914
vertex 13.450767517089844 137.84999990463257 7.225835800170898
endloop
endfacet
facet normal -0.0 1.0 0.0
outer loop
vertex 13.450767517089844 137.84999990463257 7.225835800170898
vertex 15.208061218261719 137.84999990463257 13.08688735961914
vertex 16.267601013183594 137.84999990463257 12.523521423339844
endloop
endfacet
facet normal 0.8829473106672531 -7.268383255697143e-06 -0.46947209345459073
outer loop
vertex 13.450767517089844 137.84999990463257 7.225835800170898
vertex 16.267601013183594 137.84999990463257 12.523521423339844
vertex 17.20654296875 137.5 14.289417266845703
endloop
endfacet
facet normal -0.0 1.0 0.0
outer loop
vertex 14.868942260742188 137.5 5.995026588439941
vertex 16.73706817626953 137.5 13.406469345092773
vertex 18.352867126464844 137.5 12.54733657836914
endloop
endfacet
facet normal -0.0 1.0 0.0
outer loop
vertex 11.452289581298828 137.5 6.023306846618652
vertex 13.081672668457031 137.5 15.350082397460938
vertex 15.677536010742188 137.5 13.969837188720703
endloop
endfacet
facet normal -0.8829478377781588 8.528050560351845e-07 0.46947110215874516
outer loop
vertex 12.3912353515625 137.84999990463257 7.789201736450195
vertex 16.147003173828125 137.5 14.852783203125
vertex 15.208061218261719 137.84999990463257 13.08688735961914
endloop
endfacet
facet normal -0.8829490671801007 -5.907825211089549e-05 0.46946878626331506
outer loop
vertex 12.3912353515625 137.84999990463257 7.789201736450195
vertex 15.677536010742188 137.5 13.969837188720703
vertex 16.147003173828125 137.5 14.852783203125
endloop
endfacet
facet normal 0.8829463252340374 -5.518169249563098e-05 -0.46947394359079225
outer loop
vertex 13.450767517089844 137.84999990463257 7.225835800170898
vertex 17.20654296875 137.5 14.289417266845703
vertex 16.73706817626953 137.5 13.406469345092773
endloop
endfacet
facet normal 0.08092748814246718 0.9850304755923168 0.15220283774399587
outer loop
vertex 16.267601013183594 137.84999990463257 12.523521423339844
vertex 15.208061218261719 137.84999990463257 13.08688735961914
vertex 16.147003173828125 137.5 14.852783203125
endloop
endfacet
facet normal 0.1743557158313714 0.9284777187544104 0.32791646822557696
outer loop
vertex 16.73706817626953 137.5 13.406469345092773
vertex 16.85443878173828 137.40000009536743 13.627206802368164
vertex 18.352867126464844 137.5 12.54733657836914
endloop
endfacet
facet normal -1.0 0.0 0.0
outer loop
vertex 21.524436950683594 127.82758903503418 7.168205261230469
vertex 21.524436950683594 147.0 16.0
vertex 21.524436950683594 147.0 7.168205261230469
endloop
endfacet
facet normal 0.0 1.0 0.0
outer loop
vertex 22.5 147.0 8.0
vertex 22.5 147.0 4.0
vertex 21.524436950683594 147.0 16.0
endloop
endfacet
facet normal 0.1743593392168929 0.9284750212240949 0.3279221794736748
outer loop
vertex 15.677536010742188 137.5 13.969837188720703
vertex 13.19903564453125 137.40000009536743 15.570817947387695
vertex 15.794898986816406 137.40000009536743 14.190572738647461
endloop
endfacet
facet normal 0.1743567578005168 0.928476924227634 0.32791816385507566
outer loop
vertex 15.794898986816406 137.40000009536743 14.190572738647461
vertex 13.951019287109375 137.03657150268555 16.200000762939453
vertex 16.85443878173828 137.40000009536743 13.627206802368164
endloop
endfacet
facet normal -0.8829490683444138 2.920465857468725e-05 0.4694687868823866
outer loop
vertex 15.677536010742188 137.5 13.969837188720703
vertex 15.794898986816406 137.40000009536743 14.190572738647461
vertex 16.147003173828125 137.5 14.852783203125
endloop
endfacet
facet normal 0.0 -1.0 0.0
outer loop
vertex 15.794898986816406 137.40000009536743 14.190572738647461
vertex 17.20654296875 137.40000009536743 14.289417266845703
vertex 16.147003173828125 137.40000009536743 14.852783203125
endloop
endfacet
facet normal -0.88294724062601 0.0 0.4694722252390599
outer loop
vertex 15.794898986816406 137.40000009536743 14.190572738647461
vertex 16.147003173828125 137.40000009536743 14.852783203125
vertex 16.147003173828125 137.5 14.852783203125
endloop
endfacet
facet normal 0.1743593392168929 0.9284750212240949 0.3279221794736748
outer loop
vertex 13.081672668457031 137.5 15.350082397460938
vertex 13.19903564453125 137.40000009536743 15.570817947387695
vertex 15.677536010742188 137.5 13.969837188720703
endloop
endfacet
facet normal 0.17435755705186212 0.9284765396781645 0.3279188277091884
outer loop
vertex 15.794898986816406 137.40000009536743 14.190572738647461
vertex 13.19903564453125 137.40000009536743 15.570817947387695
vertex 13.951019287109375 137.03657150268555 16.200000762939453
endloop
endfacet
facet normal 0.8829490683444138 -2.920465857468725e-05 -0.4694687868823866
outer loop
vertex 13.081672668457031 137.5 15.350082397460938
vertex 13.551139831542969 137.5 16.233028411865234
vertex 13.19903564453125 137.40000009536743 15.570817947387695
endloop
endfacet
facet normal 0.17435717117814548 0.9284767634801597 0.3279183992034643
outer loop
vertex 12.0516357421875 136.70000004768372 18.162899017333984
vertex 18.352867126464844 137.5 12.54733657836914
vertex 16.85443878173828 137.40000009536743 13.627206802368164
endloop
endfacet
facet normal 0.1743575097996459 0.9284765751689866 0.3279187523441368
outer loop
vertex 12.0516357421875 136.70000004768372 18.162899017333984
vertex 18.58544921875 136.70000004768372 14.68880844116211
vertex 18.352867126464844 137.5 12.54733657836914
endloop
endfacet
facet normal 0.08092748814246718 0.9850304755923168 0.15220283774399587
outer loop
vertex 16.267601013183594 137.84999990463257 12.523521423339844
vertex 16.147003173828125 137.5 14.852783203125
vertex 17.20654296875 137.5 14.289417266845703
endloop
endfacet
facet normal 0.8829463264841981 1.460225239816548e-05 -0.46947394425551886
outer loop
vertex 16.73706817626953 137.5 13.406469345092773
vertex 17.20654296875 137.5 14.289417266845703
vertex 16.85443878173828 137.40000009536743 13.627206802368164
endloop
endfacet
facet normal 0.0 -1.0 0.0
outer loop
vertex 15.794898986816406 137.40000009536743 14.190572738647461
vertex 16.85443878173828 137.40000009536743 13.627206802368164
vertex 17.20654296875 137.40000009536743 14.289417266845703
endloop
endfacet
facet normal 0.88294724062601 0.0 -0.4694722252390599
outer loop
vertex 16.85443878173828 137.40000009536743 13.627206802368164
vertex 17.20654296875 137.5 14.289417266845703
vertex 17.20654296875 137.40000009536743 14.289417266845703
endloop
endfacet
facet normal 0.4694706754108997 0.0 0.882948064684007
outer loop
vertex 16.147003173828125 137.40000009536743 14.852783203125
vertex 17.20654296875 137.40000009536743 14.289417266845703
vertex 16.147003173828125 137.5 14.852783203125
endloop
endfacet
facet normal 0.4694706754108997 -0.0 0.882948064684007
outer loop
vertex 16.147003173828125 137.5 14.852783203125
vertex 17.20654296875 137.40000009536743 14.289417266845703
vertex 17.20654296875 137.5 14.289417266845703
endloop
endfacet
facet normal 0.9941537648278073 0.0 -0.1079735702785512
outer loop
vertex 18.58544921875 133.29999995231628 14.68880844116211
vertex 18.352867126464844 137.5 12.54733657836914
vertex 18.58544921875 136.70000004768372 14.68880844116211
endloop
endfacet
facet normal 0.4694715971267608 -0.0 0.8829475745995615
outer loop
vertex 18.58544921875 133.29999995231628 14.68880844116211
vertex 18.58544921875 136.70000004768372 14.68880844116211
vertex 12.0516357421875 136.70000004768372 18.162899017333984
endloop
endfacet
facet normal 0.88294724062601 0.0 -0.4694722252390599
outer loop
vertex 13.19903564453125 137.40000009536743 15.570817947387695
vertex 13.551139831542969 137.5 16.233028411865234
vertex 13.551139831542969 137.40000009536743 16.233028411865234
endloop
endfacet
facet normal 0.4694706754108997 -0.0 0.882948064684007
outer loop
vertex 12.491600036621094 137.5 16.79639434814453
vertex 13.551139831542969 137.40000009536743 16.233028411865234
vertex 13.551139831542969 137.5 16.233028411865234
endloop
endfacet
facet normal 0.1743544493233681 0.928478213482812 0.3279157408373537
outer loop
vertex 12.0516357421875 136.70000004768372 18.162899017333984
vertex 16.85443878173828 137.40000009536743 13.627206802368164
vertex 13.951019287109375 137.03657150268555 16.200000762939453
endloop
endfacet
facet normal -0.9999999999999999 0.0 0.0
outer loop
vertex 29.5 0.0 0.25
vertex 29.5 23.0 3.75
vertex 29.5 23.0 0.25
endloop
endfacet
facet normal 0.0 -0.9999999999999999 0.0
outer loop
vertex 22.5 23.0 0.0
vertex 29.5 23.0 0.25
vertex 29.5 23.0 3.75
endloop
endfacet
facet normal -0.9999999999999999 0.0 0.0
outer loop
vertex 29.5 0.0 0.25
vertex 29.5 0.0 3.75
vertex 29.5 23.0 3.75
endloop
endfacet
facet normal 0.0 0.0 -1.0
outer loop
vertex 29.5 0.0 0.25
vertex 29.5 23.0 0.25
vertex 45.5 0.0 0.25
endloop
endfacet
facet normal 0.0 -1.0 0.0
outer loop
vertex 29.5 0.0 0.25
vertex 45.5 0.0 0.25
vertex 29.5 0.0 3.75
endloop
endfacet
facet normal 0.0 -1.0 0.0
outer loop
vertex 22.5 23.0 0.0
vertex 52.5 23.0 0.0
vertex 29.5 23.0 0.25
endloop
endfacet
facet normal 0.0 -0.0 1.0
outer loop
vertex 29.5 0.0 3.75
vertex 45.5 23.0 3.75
vertex 29.5 23.0 3.75
endloop
endfacet
facet normal 0.0 0.0 -1.0
outer loop
vertex 22.5 23.0 0.0
vertex 35.892860412597656 123.0 0.0
vertex 52.5 23.0 0.0
endloop
endfacet
facet normal 0.0 -0.0 1.0
outer loop
vertex 22.5 23.0 8.0
vertex 52.5 23.0 8.0
vertex 22.5 123.0 8.0
endloop
endfacet
facet normal 0.0 -1.0 0.0
outer loop
vertex 22.5 23.0 8.0
vertex 29.5 23.0 3.75
vertex 52.5 23.0 8.0
endloop
endfacet
facet normal 0.0 0.0 -1.0
outer loop
vertex 22.5 23.0 0.0
vertex 22.5 123.0 0.0
vertex 35.892860412597656 123.0 0.0
endloop
endfacet
facet normal 0.0 0.0 -1.0
outer loop
vertex 29.5 23.0 0.25
vertex 45.5 23.0 0.25
vertex 45.5 0.0 0.25
endloop
endfacet
facet normal 0.0 -1.0 0.0
outer loop
vertex 29.5 23.0 0.25
vertex 52.5 23.0 0.0
vertex 45.5 23.0 0.25
endloop
endfacet
facet normal 0.9999999999999999 0.0 -0.0
outer loop
vertex 45.5 0.0 0.25
vertex 45.5 23.0 0.25
vertex 45.5 0.0 3.75
endloop
endfacet
facet normal 0.0 -1.0 0.0
outer loop
vertex 29.5 0.0 3.75
vertex 45.5 0.0 0.25
vertex 45.5 0.0 3.75
endloop
endfacet
facet normal 0.0 0.0 1.0
outer loop
vertex 29.5 0.0 3.75
vertex 45.5 0.0 3.75
vertex 45.5 23.0 3.75
endloop
endfacet
facet normal 0.9999999999999999 0.0 -0.0
outer loop
vertex 45.5 23.0 0.25
vertex 45.5 23.0 3.75
vertex 45.5 0.0 3.75
endloop
endfacet
facet normal 0.0 -0.9999999999999999 0.0
outer loop
vertex 45.5 23.0 0.25
vertex 52.5 23.0 0.0
vertex 45.5 23.0 3.75
endloop
endfacet
facet normal 0.0 -1.0 0.0
outer loop
vertex 45.5 23.0 3.75
vertex 52.5 23.0 0.0
vertex 52.5 23.0 8.0
endloop
endfacet
facet normal 0.0 -1.0 0.0
outer loop
vertex 29.5 23.0 3.75
vertex 45.5 23.0 3.75
vertex 52.5 23.0 8.0
endloop
endfacet
facet normal 0.0 0.0 -1.0
outer loop
vertex 52.5 23.0 0.0
vertex 35.892860412597656 123.0 0.0
vertex 39.107139587402344 147.0 0.0
endloop
endfacet
facet normal -0.0 -0.0 1.0
outer loop
vertex 22.5 123.0 8.0
vertex 52.5 23.0 8.0
vertex 45.0 123.0 8.0
endloop
endfacet
facet normal 1.0 0.0 -0.0
outer loop
vertex 52.5 23.0 0.0
vertex 52.5 247.0 8.0
vertex 52.5 23.0 8.0
endloop
endfacet
facet normal 0.0 0.0 1.0
outer loop
vertex 52.5 23.0 8.0
vertex 45.0 147.0 8.0
vertex 45.0 123.0 8.0
endloop
endfacet
facet normal 0.0 -1.0 0.0
outer loop
vertex 22.5 123.0 8.0
vertex 45.0 123.0 8.0
vertex 45.0 123.0 16.0
endloop
endfacet
facet normal -0.0 0.0 0.9999999999999999
outer loop
vertex 21.524436950683594 127.82758903503418 16.0
vertex 45.0 123.0 16.0
vertex 45.0 147.0 16.0
endloop
endfacet
facet normal 1.0 0.0 -0.0
outer loop
vertex 45.0 123.0 8.0
vertex 45.0 147.0 16.0
vertex 45.0 123.0 16.0
endloop
endfacet
facet normal -0.0 -0.0 -1.0
outer loop
vertex 22.5 247.0 0.0
vertex 39.107139587402344 147.0 0.0
vertex 22.5 147.0 0.0
endloop
endfacet
facet normal 0.0 -0.0 1.0
outer loop
vertex 22.5 147.0 8.0
vertex 45.0 147.0 8.0
vertex 22.5 247.0 8.0
endloop
endfacet
facet normal -0.0 0.9999999999999999 0.0
outer loop
vertex 22.5 247.0 0.0
vertex 29.5 247.0 3.75
vertex 29.5 247.0 0.25
endloop
endfacet
facet normal -0.9999999999999999 0.0 0.0
outer loop
vertex 29.5 247.0 0.25
vertex 29.5 270.0 3.75
vertex 29.5 270.0 0.25
endloop
endfacet
facet normal 0.0 1.0 0.0
outer loop
vertex 22.5 247.0 0.0
vertex 29.5 247.0 0.25
vertex 45.5 247.0 0.25
endloop
endfacet
facet normal -0.9999999999999999 0.0 0.0
outer loop
vertex 29.5 247.0 0.25
vertex 29.5 247.0 3.75
vertex 29.5 270.0 3.75
endloop
endfacet
facet normal 0.0 -0.0 -1.0
outer loop
vertex 22.5 247.0 0.0
vertex 52.5 247.0 0.0
vertex 39.107139587402344 147.0 0.0
endloop
endfacet
facet normal 0.0 0.0 -1.0
outer loop
vertex 29.5 247.0 0.25
vertex 29.5 270.0 0.25
vertex 45.5 247.0 0.25
endloop
endfacet
facet normal 0.0 1.0 0.0
outer loop
vertex 29.5 270.0 0.25
vertex 29.5 270.0 3.75
vertex 45.5 270.0 3.75
endloop
endfacet
facet normal 0.0 -0.0 1.0
outer loop
vertex 29.5 247.0 3.75
vertex 45.5 270.0 3.75
vertex 29.5 270.0 3.75
endloop
endfacet
facet normal 0.0 1.0 0.0
outer loop
vertex 22.5 247.0 8.0
vertex 45.5 247.0 3.75
vertex 29.5 247.0 3.75
endloop
endfacet
facet normal 0.0 0.0 -1.0
outer loop
vertex 52.5 23.0 0.0
vertex 39.107139587402344 147.0 0.0
vertex 52.5 247.0 0.0
endloop
endfacet
facet normal 1.0 0.0 0.0
outer loop
vertex 52.5 23.0 0.0
vertex 52.5 247.0 0.0
vertex 52.5 247.0 8.0
endloop
endfacet
facet normal 0.0 -0.0 1.0
outer loop
vertex 52.5 23.0 8.0
vertex 52.5 247.0 8.0
vertex 45.0 147.0 8.0
endloop
endfacet
facet normal -0.0 1.0 0.0
outer loop
vertex 22.5 247.0 0.0
vertex 45.5 247.0 0.25
vertex 52.5 247.0 0.0
endloop
endfacet
facet normal 0.0 0.0 -1.0
outer loop
vertex 29.5 270.0 0.25
vertex 45.5 270.0 0.25
vertex 45.5 247.0 0.25
endloop
endfacet
facet normal -0.0 1.0 0.0
outer loop
vertex 29.5 270.0 0.25
vertex 45.5 270.0 3.75
vertex 45.5 270.0 0.25
endloop
endfacet
facet normal 0.9999999999999999 0.0 -0.0
outer loop
vertex 45.5 247.0 0.25
vertex 45.5 270.0 0.25
vertex 45.5 247.0 3.75
endloop
endfacet
facet normal 0.0 0.0 1.0
outer loop
vertex 29.5 247.0 3.75
vertex 45.5 247.0 3.75
vertex 45.5 270.0 3.75
endloop
endfacet
facet normal 0.9999999999999999 0.0 -0.0
outer loop
vertex 45.5 270.0 0.25
vertex 45.5 270.0 3.75
vertex 45.5 247.0 3.75
endloop
endfacet
facet normal -0.0 0.9999999999999999 0.0
outer loop
vertex 45.5 247.0 0.25
vertex 45.5 247.0 3.75
vertex 52.5 247.0 0.0
endloop
endfacet
facet normal -0.0 1.0 0.0
outer loop
vertex 45.5 247.0 3.75
vertex 52.5 247.0 8.0
vertex 52.5 247.0 0.0
endloop
endfacet
facet normal -0.0 0.0 1.0
outer loop
vertex 22.5 247.0 8.0
vertex 45.0 147.0 8.0
vertex 52.5 247.0 8.0
endloop
endfacet
facet normal -0.0 1.0 0.0
outer loop
vertex 22.5 247.0 8.0
vertex 52.5 247.0 8.0
vertex 45.5 247.0 3.75
endloop
endfacet
facet normal 0.0 0.9999999999999999 -0.0
outer loop
vertex 22.5 147.0 8.0
vertex 21.524436950683594 147.0 16.0
vertex 45.0 147.0 16.0
endloop
endfacet
facet normal -0.0 1.0 0.0
outer loop
vertex 22.5 147.0 8.0
vertex 45.0 147.0 16.0
vertex 45.0 147.0 8.0
endloop
endfacet
facet normal 0.0 -0.0 1.0
outer loop
vertex 21.524436950683594 127.82758903503418 16.0
vertex 45.0 147.0 16.0
vertex 21.524436950683594 147.0 16.0
endloop
endfacet
facet normal 1.0 0.0 0.0
outer loop
vertex 45.0 123.0 8.0
vertex 45.0 147.0 8.0
vertex 45.0 147.0 16.0
endloop
endfacet
facet normal -1.0 0.0 0.0
outer loop
vertex 0.0 123.0 0.0
vertex 0.0 123.0 4.0
vertex 0.0 147.0 4.0
endloop
endfacet
facet normal 0.0 -1.0 0.0
outer loop
vertex 0.0 123.0 0.0
vertex 22.5 123.0 0.0
vertex 0.0 123.0 4.0
endloop
endfacet
facet normal 0.0 -1.0 0.0
outer loop
vertex 22.5 123.0 0.0
vertex 22.5 123.0 4.0
vertex 0.0 123.0 4.0
endloop
endfacet
facet normal 0.0 -0.0 -1.0
outer loop
vertex 0.0 123.0 0.0
vertex 39.107139587402344 147.0 0.0
vertex 22.5 123.0 0.0
endloop
endfacet
facet normal -1.0 0.0 0.0
outer loop
vertex 0.0 123.0 0.0
vertex 0.0 147.0 4.0
vertex 0.0 147.0 0.0
endloop
endfacet
facet normal 0.0 -0.0 -1.0
outer loop
vertex 0.0 147.0 0.0
vertex 22.5 147.0 0.0
vertex 0.0 123.0 0.0
endloop
endfacet
facet normal 0.0 1.0 0.0
outer loop
vertex 0.0 147.0 0.0
vertex 0.0 147.0 4.0
vertex 22.5 147.0 4.0
endloop
endfacet
facet normal -0.0 1.0 0.0
outer loop
vertex 0.0 147.0 0.0
vertex 22.5 147.0 4.0
vertex 22.5 147.0 0.0
endloop
endfacet
facet normal 0.0 0.0 -1.0
outer loop
vertex 0.0 123.0 0.0
vertex 22.5 147.0 0.0
vertex 39.107139587402344 147.0 0.0
endloop
endfacet
facet normal -0.0 0.0 -1.0
outer loop
vertex 39.107139587402344 147.0 0.0
vertex 35.892860412597656 123.0 0.0
vertex 22.5 123.0 0.0
endloop
endfacet

endsolid
