solid 
facet normal -1.0 0.0 0.0
outer loop
vertex -27.5 -174.0 0.0
vertex -27.5 -174.0 10.0
vertex -27.5 -112.0 10.0
endloop
endfacet
facet normal 0.0 0.0 1.0
outer loop
vertex -27.5 -174.0 10.0
vertex 31.0 -163.0 10.0
vertex 31.0 -123.0 10.0
endloop
endfacet
facet normal 0.0 -1.0 0.0
outer loop
vertex -27.5 -174.0 0.0
vertex 137.5 -174.0 0.0
vertex -27.5 -174.0 10.0
endloop
endfacet
facet normal 0.0 -0.0 0.9999999999999999
outer loop
vertex -27.5 -174.0 10.0
vertex 137.5 -174.0 10.0
vertex 31.0 -163.0 10.0
endloop
endfacet
facet normal 0.0 0.0 -1.0
outer loop
vertex -27.5 -174.0 0.0
vertex -27.5 -112.0 0.0
vertex 137.5 -174.0 0.0
endloop
endfacet
facet normal 0.0 -1.0 0.0
outer loop
vertex 31.0 -163.0 10.0
vertex 91.0 -163.0 21.0
vertex 31.0 -163.0 21.0
endloop
endfacet
facet normal -1.0 0.0 0.0
outer loop
vertex 31.0 -163.0 10.0
vertex 31.0 -163.0 21.0
vertex 31.0 -123.0 10.0
endloop
endfacet
facet normal 0.5047293104593723 -2.281615690394864e-08 0.86327766284273
outer loop
vertex 54.97085952758789 -146.5 11.828993797302246
vertex 43.61516571044922 -149.0 18.468284606933594
vertex 62.622764587402344 -149.0 7.355183124542236
endloop
endfacet
facet normal -0.0 0.9999999999999999 0.0
outer loop
vertex 43.61516571044922 -149.0 18.468284606933594
vertex 44.9613037109375 -149.0 21.0
vertex 62.622764587402344 -149.0 7.355183124542236
endloop
endfacet
facet normal 0.5047293067159414 -0.0 0.863277665031388
outer loop
vertex 54.97085952758789 -146.5 11.828993797302246
vertex 54.97085952758789 -139.5 11.828993797302246
vertex 43.61516571044922 -149.0 18.468284606933594
endloop
endfacet
facet normal 0.0 0.0 1.0
outer loop
vertex 31.0 -163.0 21.0
vertex 44.9613037109375 -149.0 21.0
vertex 44.9613037109375 -137.0 21.0
endloop
endfacet
facet normal 0.8829474413959904 0.0 -0.4694718476461333
outer loop
vertex 43.61516571044922 -149.0 18.468284606933594
vertex 44.9613037109375 -137.0 21.0
vertex 44.9613037109375 -149.0 21.0
endloop
endfacet
facet normal -1.0 0.0 0.0
outer loop
vertex -27.5 -174.0 0.0
vertex -27.5 -112.0 10.0
vertex -27.5 -112.0 0.0
endloop
endfacet
facet normal 0.0 -0.0 1.0
outer loop
vertex -27.5 -174.0 10.0
vertex 31.0 -123.0 10.0
vertex -27.5 -112.0 10.0
endloop
endfacet
facet normal -0.0 1.0 0.0
outer loop
vertex -27.5 -112.0 0.0
vertex -27.5 -112.0 10.0
vertex 81.69999694824219 -112.0 3.950000047683716
endloop
endfacet
facet normal 0.0 1.0 0.0
outer loop
vertex -27.5 -112.0 0.0
vertex 81.69999694824219 -112.0 3.950000047683716
vertex 98.30000305175781 -112.0 3.950000047683716
endloop
endfacet
facet normal -0.0 0.0 1.0
outer loop
vertex -27.5 -112.0 10.0
vertex 31.0 -123.0 10.0
vertex 91.0 -123.0 10.0
endloop
endfacet
facet normal 0.0 1.0 0.0
outer loop
vertex -27.5 -112.0 10.0
vertex 81.69999694824219 -112.0 8.050000190734863
vertex 81.69999694824219 -112.0 3.950000047683716
endloop
endfacet
facet normal 0.0 1.0 0.0
outer loop
vertex -27.5 -112.0 10.0
vertex 98.30000305175781 -112.0 8.050000190734863
vertex 81.69999694824219 -112.0 8.050000190734863
endloop
endfacet
facet normal 0.5047293160147536 5.667612879696295e-08 0.8632776595946843
outer loop
vertex 54.97085952758789 -139.5 11.828993797302246
vertex 62.622764587402344 -139.5 7.355183124542236
vertex 43.61516571044922 -137.0 18.468284606933594
endloop
endfacet
facet normal 0.5047293067159413 0.0 0.8632776650313879
outer loop
vertex 43.61516571044922 -149.0 18.468284606933594
vertex 54.97085952758789 -139.5 11.828993797302246
vertex 43.61516571044922 -137.0 18.468284606933594
endloop
endfacet
facet normal -1.0 0.0 0.0
outer loop
vertex 31.0 -163.0 21.0
vertex 31.0 -123.0 21.0
vertex 31.0 -123.0 10.0
endloop
endfacet
facet normal 0.8829474413959904 0.0 -0.4694718476461333
outer loop
vertex 43.61516571044922 -149.0 18.468284606933594
vertex 43.61516571044922 -137.0 18.468284606933594
vertex 44.9613037109375 -137.0 21.0
endloop
endfacet
facet normal 0.0 -0.0 1.0
outer loop
vertex 31.0 -163.0 21.0
vertex 44.9613037109375 -137.0 21.0
vertex 31.0 -123.0 21.0
endloop
endfacet
facet normal 0.0 -0.9999999999999999 0.0
outer loop
vertex 43.61516571044922 -137.0 18.468284606933594
vertex 69.87784576416016 -137.0 21.0
vertex 44.9613037109375 -137.0 21.0
endloop
endfacet
facet normal 0.0 -0.0 1.0
outer loop
vertex 44.9613037109375 -137.0 21.0
vertex 69.87784576416016 -137.0 21.0
vertex 31.0 -123.0 21.0
endloop
endfacet
facet normal -0.0 1.0 0.0
outer loop
vertex 31.0 -123.0 10.0
vertex 31.0 -123.0 21.0
vertex 91.0 -123.0 10.0
endloop
endfacet
facet normal 0.0 -1.0 0.0
outer loop
vertex -27.5 -174.0 10.0
vertex 137.5 -174.0 0.0
vertex 137.5 -174.0 10.0
endloop
endfacet
facet normal -0.0 -0.0 1.0
outer loop
vertex 31.0 -163.0 10.0
vertex 137.5 -174.0 10.0
vertex 91.0 -163.0 10.0
endloop
endfacet
facet normal 0.5047293160147545 -0.0 0.8632776595946857
outer loop
vertex 54.97085952758789 -146.5 11.828993797302246
vertex 62.622764587402344 -149.0 7.355183124542236
vertex 62.622764587402344 -146.5 7.355183124542236
endloop
endfacet
facet normal -0.882947374638786 0.0 0.46947197319805495
outer loop
vertex 62.622764587402344 -149.0 7.355183124542236
vertex 67.36443328857422 -146.5 16.2729549407959
vertex 62.622764587402344 -146.5 7.355183124542236
endloop
endfacet
facet normal 0.0 -1.0 0.0
outer loop
vertex 54.97085952758789 -146.5 11.828993797302246
vertex 62.622764587402344 -146.5 7.355183124542236
vertex 59.186614990234375 -146.5 10.428043365478516
endloop
endfacet
facet normal 1.0 0.0 -0.0
outer loop
vertex 137.5 -174.0 0.0
vertex 137.5 -112.0 0.0
vertex 137.5 -174.0 10.0
endloop
endfacet
facet normal -0.0 0.0 1.0
outer loop
vertex 91.0 -163.0 10.0
vertex 137.5 -174.0 10.0
vertex 137.5 -112.0 10.0
endloop
endfacet
facet normal 0.0 -1.0 0.0
outer loop
vertex 31.0 -163.0 10.0
vertex 91.0 -163.0 10.0
vertex 91.0 -163.0 21.0
endloop
endfacet
facet normal 0.0 -1.0 0.0
outer loop
vertex 54.97085952758789 -146.5 11.828993797302246
vertex 59.186614990234375 -146.5 10.428043365478516
vertex 58.127079010009766 -146.5 10.991409301757812
endloop
endfacet
facet normal -0.08092913907833499 -0.9850299448579014 -0.15220539471805572
outer loop
vertex 59.186614990234375 -146.5 10.428043365478516
vertex 59.06602096557617 -146.85000610351562 12.757304191589355
vertex 58.127079010009766 -146.5 10.991409301757812
endloop
endfacet
facet normal -0.08092913907833499 -0.9850299448579014 -0.15220539471805572
outer loop
vertex 59.186614990234375 -146.5 10.428043365478516
vertex 60.12555694580078 -146.85000610351562 12.193938255310059
vertex 59.06602096557617 -146.85000610351562 12.757304191589355
endloop
endfacet
facet normal -0.0 -1.0 0.0
outer loop
vertex 62.622764587402344 -146.5 7.355183124542236
vertex 63.411861419677734 -146.5 18.374570846557617
vertex 59.186614990234375 -146.5 10.428043365478516
endloop
endfacet
facet normal 0.0 -0.9999999999999999 0.0
outer loop
vertex 54.97085952758789 -146.5 11.828993797302246
vertex 58.127079010009766 -146.5 10.991409301757812
vertex 62.35232162475586 -146.5 18.937936782836914
endloop
endfacet
facet normal -0.8829476387260138 1.9963566138703362e-06 0.4694714765181916
outer loop
vertex 58.127079010009766 -146.5 10.991409301757812
vertex 59.06602096557617 -146.85000610351562 12.757304191589355
vertex 62.35232162475586 -146.5 18.937936782836914
endloop
endfacet
facet normal -0.8829477260640447 0.0 0.4694713122634149
outer loop
vertex 54.97085952758789 -146.5 11.828993797302246
vertex 59.54454803466797 -146.5 20.430856704711914
vertex 54.97085952758789 -139.5 11.828993797302246
endloop
endfacet
facet normal 0.8829474630242292 -4.134844048642147e-06 -0.4694718069511526
outer loop
vertex 59.186614990234375 -146.5 10.428043365478516
vertex 63.411861419677734 -146.5 18.374570846557617
vertex 60.12555694580078 -146.85000610351562 12.193938255310059
endloop
endfacet
facet normal 0.0 -0.9999999999999999 0.0
outer loop
vertex 62.622764587402344 -146.5 7.355183124542236
vertex 67.36443328857422 -146.5 16.2729549407959
vertex 63.411861419677734 -146.5 18.374570846557617
endloop
endfacet
facet normal -0.0 -1.0 0.0
outer loop
vertex 60.12555694580078 -146.85000610351562 12.193938255310059
vertex 61.882850646972656 -146.85000610351562 18.054988861083984
vertex 59.06602096557617 -146.85000610351562 12.757304191589355
endloop
endfacet
facet normal 0.0 -1.0 0.0
outer loop
vertex 60.12555694580078 -146.85000610351562 12.193938255310059
vertex 62.942386627197266 -146.85000610351562 17.491622924804688
vertex 61.882850646972656 -146.85000610351562 18.054988861083984
endloop
endfacet
facet normal 0.8829475391907297 -5.1362779761811736e-06 -0.469471663692979
outer loop
vertex 60.12555694580078 -146.85000610351562 12.193938255310059
vertex 63.88133239746094 -146.5 19.257518768310547
vertex 62.942386627197266 -146.85000610351562 17.491622924804688
endloop
endfacet
facet normal -0.8829475029794782 1.1044299312601567e-06 0.46947173182321056
outer loop
vertex 62.622764587402344 -149.0 7.355183124542236
vertex 69.87784576416016 -149.0 21.0
vertex 67.36443328857422 -146.5 16.2729549407959
endloop
endfacet
facet normal 0.0 -0.0 1.0
outer loop
vertex 31.0 -163.0 21.0
vertex 91.0 -163.0 21.0
vertex 44.9613037109375 -149.0 21.0
endloop
endfacet
facet normal -0.0 -0.0 1.0
outer loop
vertex 44.9613037109375 -149.0 21.0
vertex 91.0 -163.0 21.0
vertex 69.87784576416016 -149.0 21.0
endloop
endfacet
facet normal -0.0 1.0 0.0
outer loop
vertex 44.9613037109375 -149.0 21.0
vertex 69.87784576416016 -149.0 21.0
vertex 62.622764587402344 -149.0 7.355183124542236
endloop
endfacet
facet normal 0.0 -0.9999999999999999 0.0
outer loop
vertex 54.97085952758789 -146.5 11.828993797302246
vertex 62.35232162475586 -146.5 18.937936782836914
vertex 59.54454803466797 -146.5 20.430856704711914
endloop
endfacet
facet normal 0.8829479076074848 -2.3083955040886644e-05 -0.46947097026194884
outer loop
vertex 60.12555694580078 -146.85000610351562 12.193938255310059
vertex 63.411861419677734 -146.5 18.374570846557617
vertex 63.88133239746094 -146.5 19.257518768310547
endloop
endfacet
facet normal -0.8829475391934883 -4.48691867557591e-06 0.4694716636944458
outer loop
vertex 59.06602096557617 -146.85000610351562 12.757304191589355
vertex 61.882850646972656 -146.85000610351562 18.054988861083984
vertex 62.82179260253906 -146.5 19.820884704589844
endloop
endfacet
facet normal -0.882947907762741 1.3460754376156553e-05 0.4694709703444999
outer loop
vertex 59.06602096557617 -146.85000610351562 12.757304191589355
vertex 62.82179260253906 -146.5 19.820884704589844
vertex 62.35232162475586 -146.5 18.937936782836914
endloop
endfacet
facet normal 0.17435794066817445 -0.9284758737487555 0.32792050925862853
outer loop
vertex 63.411861419677734 -146.5 18.374570846557617
vertex 68.30337524414062 -145.6999969482422 18.038846969604492
vertex 63.52923583984375 -146.39999389648438 18.595319747924805
endloop
endfacet
facet normal 0.08092910601789009 -0.9850299571817034 0.15220533254047514
outer loop
vertex 62.942386627197266 -146.85000610351562 17.491622924804688
vertex 62.82179260253906 -146.5 19.820884704589844
vertex 61.882850646972656 -146.85000610351562 18.054988861083984
endloop
endfacet
facet normal 0.8829479078388183 -2.97764938453466e-06 -0.46947097038495084
outer loop
vertex 63.411861419677734 -146.5 18.374570846557617
vertex 63.52923583984375 -146.39999389648438 18.595319747924805
vertex 63.88133239746094 -146.5 19.257518768310547
endloop
endfacet
facet normal 0.17435785263092746 -0.9284763835103008 0.3279191127238003
outer loop
vertex 63.52923583984375 -146.39999389648438 18.595319747924805
vertex 68.30337524414062 -145.6999969482422 18.038846969604492
vertex 62.469696044921875 -146.39999389648438 19.158687591552734
endloop
endfacet
facet normal 0.08092880855145042 -0.9850299833923555 0.15220532107813667
outer loop
vertex 62.942386627197266 -146.85000610351562 17.491622924804688
vertex 63.88133239746094 -146.5 19.257518768310547
vertex 62.82179260253906 -146.5 19.820884704589844
endloop
endfacet
facet normal 0.8829480942467574 0.0 -0.46947061981131394
outer loop
vertex 63.52923583984375 -146.39999389648438 18.595319747924805
vertex 63.88133239746094 -146.39999389648438 19.257518768310547
vertex 63.88133239746094 -146.5 19.257518768310547
endloop
endfacet
facet normal -0.8829476063284678 6.330076666268267e-07 0.4694715374529411
outer loop
vertex 67.36443328857422 -146.5 16.2729549407959
vertex 69.87784576416016 -149.0 21.0
vertex 68.30337524414062 -145.6999969482422 18.038846969604492
endloop
endfacet
facet normal 0.17435793725455936 -0.9284759886942792 0.32792018561612796
outer loop
vertex 67.36443328857422 -146.5 16.2729549407959
vertex 68.30337524414062 -145.6999969482422 18.038846969604492
vertex 63.411861419677734 -146.5 18.374570846557617
endloop
endfacet
facet normal -0.8829479078269651 -5.976252247688873e-06 0.4694709703786484
outer loop
vertex 62.35232162475586 -146.5 18.937936782836914
vertex 62.82179260253906 -146.5 19.820884704589844
vertex 62.469696044921875 -146.39999389648438 19.158687591552734
endloop
endfacet
facet normal 0.17435732803091733 -0.9284767363993907 0.32791839248059185
outer loop
vertex 62.35232162475586 -146.5 18.937936782836914
vertex 62.469696044921875 -146.39999389648438 19.158687591552734
vertex 59.54454803466797 -146.5 20.430856704711914
endloop
endfacet
facet normal -0.8829475337217126 0.0 0.469471674006798
outer loop
vertex 62.469696044921875 -146.39999389648438 19.158687591552734
vertex 62.82179260253906 -146.5 19.820884704589844
vertex 62.82179260253906 -146.39999389648438 19.820884704589844
endloop
endfacet
facet normal 0.0 1.0 -0.0
outer loop
vertex 63.52923583984375 -146.39999389648438 18.595319747924805
vertex 62.469696044921875 -146.39999389648438 19.158687591552734
vertex 62.82179260253906 -146.39999389648438 19.820884704589844
endloop
endfacet
facet normal -0.0 1.0 -0.0
outer loop
vertex 63.52923583984375 -146.39999389648438 18.595319747924805
vertex 62.82179260253906 -146.39999389648438 19.820884704589844
vertex 63.88133239746094 -146.39999389648438 19.257518768310547
endloop
endfacet
facet normal 0.1743579712198875 -0.9284760749297039 0.32791992338864656
outer loop
vertex 68.30337524414062 -145.6999969482422 18.038846969604492
vertex 59.54454803466797 -146.5 20.430856704711914
vertex 62.469696044921875 -146.39999389648438 19.158687591552734
endloop
endfacet
facet normal 0.46947067541089976 -0.0 0.8829480646840072
outer loop
vertex 63.88133239746094 -146.5 19.257518768310547
vertex 63.88133239746094 -146.39999389648438 19.257518768310547
vertex 62.82179260253906 -146.5 19.820884704589844
endloop
endfacet
facet normal 0.46947067541089976 0.0 0.8829480646840072
outer loop
vertex 63.88133239746094 -146.39999389648438 19.257518768310547
vertex 62.82179260253906 -146.39999389648438 19.820884704589844
vertex 62.82179260253906 -146.5 19.820884704589844
endloop
endfacet
facet normal 0.17435788786985043 -0.9284762149080525 0.3279195713701466
outer loop
vertex 68.30337524414062 -145.6999969482422 18.038846969604492
vertex 61.189849853515625 -145.6999969482422 21.82117462158203
vertex 59.54454803466797 -146.5 20.430856704711914
endloop
endfacet
facet normal 0.46947147660848015 0.0 0.8829476386802636
outer loop
vertex 68.30337524414062 -145.6999969482422 18.038846969604492
vertex 61.189849853515625 -140.3000030517578 21.82117462158203
vertex 61.189849853515625 -145.6999969482422 21.82117462158203
endloop
endfacet
facet normal -0.6454387513020263 0.0 0.7638120307495038
outer loop
vertex 59.54454803466797 -146.5 20.430856704711914
vertex 61.189849853515625 -145.6999969482422 21.82117462158203
vertex 61.189849853515625 -140.3000030517578 21.82117462158203
endloop
endfacet
facet normal -0.8829478987482927 0.0 0.46947098749121297
outer loop
vertex 68.30337524414062 -145.6999969482422 18.038846969604492
vertex 69.87784576416016 -149.0 21.0
vertex 69.87784576416016 -137.0 21.0
endloop
endfacet
facet normal 1.0 0.0 -0.0
outer loop
vertex 91.0 -163.0 10.0
vertex 91.0 -123.0 21.0
vertex 91.0 -163.0 21.0
endloop
endfacet
facet normal 0.0 -0.0 0.9999999999999999
outer loop
vertex 91.0 -163.0 21.0
vertex 91.0 -123.0 21.0
vertex 69.87784576416016 -149.0 21.0
endloop
endfacet
facet normal 0.0 0.0 -1.0
outer loop
vertex -27.5 -112.0 0.0
vertex 137.5 -112.0 0.0
vertex 137.5 -174.0 0.0
endloop
endfacet
facet normal -0.0 1.0 -0.0
outer loop
vertex 62.622764587402344 -139.5 7.355183124542236
vertex 58.127079010009766 -139.5 10.991409301757812
vertex 59.186614990234375 -139.5 10.428043365478516
endloop
endfacet
facet normal 0.0 1.0 0.0
outer loop
vertex 54.97085952758789 -139.5 11.828993797302246
vertex 58.127079010009766 -139.5 10.991409301757812
vertex 62.622764587402344 -139.5 7.355183124542236
endloop
endfacet
facet normal -0.882947374638786 0.0 0.46947197319805495
outer loop
vertex 62.622764587402344 -139.5 7.355183124542236
vertex 67.36443328857422 -139.5 16.2729549407959
vertex 62.622764587402344 -137.0 7.355183124542236
endloop
endfacet
facet normal -0.0 1.0 0.0
outer loop
vertex -27.5 -112.0 0.0
vertex 98.30000305175781 -112.0 3.950000047683716
vertex 137.5 -112.0 0.0
endloop
endfacet
facet normal -0.0 1.0 0.0
outer loop
vertex -27.5 -112.0 10.0
vertex 137.5 -112.0 10.0
vertex 98.30000305175781 -112.0 8.050000190734863
endloop
endfacet
facet normal -0.0 0.0 0.9999999999999999
outer loop
vertex -27.5 -112.0 10.0
vertex 91.0 -123.0 10.0
vertex 137.5 -112.0 10.0
endloop
endfacet
facet normal 0.0 -0.0 1.0
outer loop
vertex 91.0 -163.0 10.0
vertex 137.5 -112.0 10.0
vertex 91.0 -123.0 10.0
endloop
endfacet
facet normal 1.0 -0.0 0.0
outer loop
vertex 137.5 -174.0 10.0
vertex 137.5 -112.0 0.0
vertex 137.5 -112.0 10.0
endloop
endfacet
facet normal 0.0 1.0 -0.0
outer loop
vertex 137.5 -112.0 0.0
vertex 98.30000305175781 -112.0 3.950000047683716
vertex 98.30000305175781 -112.0 8.050000190734863
endloop
endfacet
facet normal 0.0 1.0 -0.0
outer loop
vertex 137.5 -112.0 0.0
vertex 98.30000305175781 -112.0 8.050000190734863
vertex 137.5 -112.0 10.0
endloop
endfacet
facet normal -0.08092913907833499 0.9850299448579014 -0.15220539471805572
outer loop
vertex 59.186614990234375 -139.5 10.428043365478516
vertex 58.127079010009766 -139.5 10.991409301757812
vertex 59.06602096557617 -139.14999389648438 12.757304191589355
endloop
endfacet
facet normal -0.08092913907833499 0.9850299448579014 -0.15220539471805572
outer loop
vertex 59.186614990234375 -139.5 10.428043365478516
vertex 59.06602096557617 -139.14999389648438 12.757304191589355
vertex 60.12555694580078 -139.14999389648438 12.193938255310059
endloop
endfacet
facet normal 0.0 0.9999999999999999 -0.0
outer loop
vertex 62.622764587402344 -139.5 7.355183124542236
vertex 59.186614990234375 -139.5 10.428043365478516
vertex 67.36443328857422 -139.5 16.2729549407959
endloop
endfacet
facet normal 0.5047293104593723 -0.0 0.8632776628427302
outer loop
vertex 43.61516571044922 -137.0 18.468284606933594
vertex 62.622764587402344 -139.5 7.355183124542236
vertex 62.622764587402344 -137.0 7.355183124542236
endloop
endfacet
facet normal -0.8829476387260138 -1.9963566138703362e-06 0.4694714765181916
outer loop
vertex 58.127079010009766 -139.5 10.991409301757812
vertex 62.35232162475586 -139.5 18.937936782836914
vertex 59.06602096557617 -139.14999389648438 12.757304191589355
endloop
endfacet
facet normal -0.0 1.0 0.0
outer loop
vertex 54.97085952758789 -139.5 11.828993797302246
vertex 59.54454803466797 -139.5 20.430856704711914
vertex 58.127079010009766 -139.5 10.991409301757812
endloop
endfacet
facet normal 0.8829474630242292 4.134844048642147e-06 -0.4694718069511526
outer loop
vertex 59.186614990234375 -139.5 10.428043365478516
vertex 60.12555694580078 -139.14999389648438 12.193938255310059
vertex 63.411861419677734 -139.5 18.374570846557617
endloop
endfacet
facet normal 0.0 1.0 -0.0
outer loop
vertex 60.12555694580078 -139.14999389648438 12.193938255310059
vertex 59.06602096557617 -139.14999389648438 12.757304191589355
vertex 61.882850646972656 -139.14999389648438 18.054988861083984
endloop
endfacet
facet normal -0.0 1.0 0.0
outer loop
vertex 59.186614990234375 -139.5 10.428043365478516
vertex 63.411861419677734 -139.5 18.374570846557617
vertex 67.36443328857422 -139.5 16.2729549407959
endloop
endfacet
facet normal -0.0 1.0 0.0
outer loop
vertex 60.12555694580078 -139.14999389648438 12.193938255310059
vertex 61.882850646972656 -139.14999389648438 18.054988861083984
vertex 62.942386627197266 -139.14999389648438 17.491622924804688
endloop
endfacet
facet normal 0.8829475391907297 5.1362779761811736e-06 -0.469471663692979
outer loop
vertex 60.12555694580078 -139.14999389648438 12.193938255310059
vertex 62.942386627197266 -139.14999389648438 17.491622924804688
vertex 63.88133239746094 -139.5 19.257518768310547
endloop
endfacet
facet normal 0.0 -1.0 0.0
outer loop
vertex 43.61516571044922 -137.0 18.468284606933594
vertex 62.622764587402344 -137.0 7.355183124542236
vertex 69.87784576416016 -137.0 21.0
endloop
endfacet
facet normal -0.8829475029794782 -1.1044299312601567e-06 0.46947173182321056
outer loop
vertex 62.622764587402344 -137.0 7.355183124542236
vertex 67.36443328857422 -139.5 16.2729549407959
vertex 69.87784576416016 -137.0 21.0
endloop
endfacet
facet normal 1.0 0.0 0.0
outer loop
vertex 91.0 -163.0 10.0
vertex 91.0 -123.0 10.0
vertex 91.0 -123.0 21.0
endloop
endfacet
facet normal -0.8829477260640447 0.0 0.4694713122634149
outer loop
vertex 54.97085952758789 -139.5 11.828993797302246
vertex 59.54454803466797 -146.5 20.430856704711914
vertex 59.54454803466797 -139.5 20.430856704711914
endloop
endfacet
facet normal -0.0 1.0 0.0
outer loop
vertex 58.127079010009766 -139.5 10.991409301757812
vertex 59.54454803466797 -139.5 20.430856704711914
vertex 62.35232162475586 -139.5 18.937936782836914
endloop
endfacet
facet normal 0.8829479076074848 2.3083955040886644e-05 -0.46947097026194884
outer loop
vertex 60.12555694580078 -139.14999389648438 12.193938255310059
vertex 63.88133239746094 -139.5 19.257518768310547
vertex 63.411861419677734 -139.5 18.374570846557617
endloop
endfacet
facet normal -0.8829475391934883 4.48691867557591e-06 0.4694716636944458
outer loop
vertex 59.06602096557617 -139.14999389648438 12.757304191589355
vertex 62.82179260253906 -139.5 19.820884704589844
vertex 61.882850646972656 -139.14999389648438 18.054988861083984
endloop
endfacet
facet normal -0.882947907762741 -1.3460754376156553e-05 0.4694709703444999
outer loop
vertex 59.06602096557617 -139.14999389648438 12.757304191589355
vertex 62.35232162475586 -139.5 18.937936782836914
vertex 62.82179260253906 -139.5 19.820884704589844
endloop
endfacet
facet normal 0.17435807216261467 0.9284758737488314 0.3279204393417411
outer loop
vertex 67.36443328857422 -139.5 16.2729549407959
vertex 63.411861419677734 -139.5 18.374570846557617
vertex 63.52923583984375 -139.60000610351562 18.595319747924805
endloop
endfacet
facet normal 0.08092910601789009 0.9850299571817034 0.15220533254047514
outer loop
vertex 62.942386627197266 -139.14999389648438 17.491622924804688
vertex 61.882850646972656 -139.14999389648438 18.054988861083984
vertex 62.82179260253906 -139.5 19.820884704589844
endloop
endfacet
facet normal 0.8829479078388183 2.97764938453466e-06 -0.46947097038495084
outer loop
vertex 63.411861419677734 -139.5 18.374570846557617
vertex 63.88133239746094 -139.5 19.257518768310547
vertex 63.52923583984375 -139.60000610351562 18.595319747924805
endloop
endfacet
facet normal 0.08092880855145042 0.9850299833923555 0.15220532107813667
outer loop
vertex 62.942386627197266 -139.14999389648438 17.491622924804688
vertex 62.82179260253906 -139.5 19.820884704589844
vertex 63.88133239746094 -139.5 19.257518768310547
endloop
endfacet
facet normal -0.0 -1.0 0.0
outer loop
vertex 63.52923583984375 -139.60000610351562 18.595319747924805
vertex 63.88133239746094 -139.60000610351562 19.257518768310547
vertex 62.469696044921875 -139.60000610351562 19.158687591552734
endloop
endfacet
facet normal 0.8829480942467574 0.0 -0.46947061981131394
outer loop
vertex 63.52923583984375 -139.60000610351562 18.595319747924805
vertex 63.88133239746094 -139.5 19.257518768310547
vertex 63.88133239746094 -139.60000610351562 19.257518768310547
endloop
endfacet
facet normal 0.17435729926575438 0.9284764607543232 0.3279191882428931
outer loop
vertex 67.36443328857422 -139.5 16.2729549407959
vertex 63.52923583984375 -139.60000610351562 18.595319747924805
vertex 61.189849853515625 -140.3000030517578 21.82117462158203
endloop
endfacet
facet normal 0.17435815337084998 0.9284759886943342 0.3279200707050206
outer loop
vertex 67.36443328857422 -139.5 16.2729549407959
vertex 61.189849853515625 -140.3000030517578 21.82117462158203
vertex 68.30337524414062 -140.3000030517578 18.038846969604492
endloop
endfacet
facet normal -0.8829478987482926 0.0 0.46947098749121297
outer loop
vertex 68.30337524414062 -145.6999969482422 18.038846969604492
vertex 69.87784576416016 -137.0 21.0
vertex 68.30337524414062 -140.3000030517578 18.038846969604492
endloop
endfacet
facet normal -0.8829476063284678 -6.330076666268267e-07 0.4694715374529411
outer loop
vertex 67.36443328857422 -139.5 16.2729549407959
vertex 68.30337524414062 -140.3000030517578 18.038846969604492
vertex 69.87784576416016 -137.0 21.0
endloop
endfacet
facet normal -0.8829479078269651 5.976252247688873e-06 0.4694709703786484
outer loop
vertex 62.35232162475586 -139.5 18.937936782836914
vertex 62.469696044921875 -139.60000610351562 19.158687591552734
vertex 62.82179260253906 -139.5 19.820884704589844
endloop
endfacet
facet normal 0.17435732803091733 0.9284767363993907 0.32791839248059185
outer loop
vertex 62.35232162475586 -139.5 18.937936782836914
vertex 59.54454803466797 -139.5 20.430856704711914
vertex 62.469696044921875 -139.60000610351562 19.158687591552734
endloop
endfacet
facet normal -0.8829475337217126 0.0 0.469471674006798
outer loop
vertex 62.469696044921875 -139.60000610351562 19.158687591552734
vertex 62.82179260253906 -139.60000610351562 19.820884704589844
vertex 62.82179260253906 -139.5 19.820884704589844
endloop
endfacet
facet normal 0.0 -1.0 0.0
outer loop
vertex 62.469696044921875 -139.60000610351562 19.158687591552734
vertex 63.88133239746094 -139.60000610351562 19.257518768310547
vertex 62.82179260253906 -139.60000610351562 19.820884704589844
endloop
endfacet
facet normal 0.46947067541089976 -0.0 0.8829480646840072
outer loop
vertex 63.88133239746094 -139.60000610351562 19.257518768310547
vertex 63.88133239746094 -139.5 19.257518768310547
vertex 62.82179260253906 -139.5 19.820884704589844
endloop
endfacet
facet normal 0.46947067541089976 0.0 0.8829480646840072
outer loop
vertex 63.88133239746094 -139.60000610351562 19.257518768310547
vertex 62.82179260253906 -139.5 19.820884704589844
vertex 62.82179260253906 -139.60000610351562 19.820884704589844
endloop
endfacet
facet normal 0.17435819585178916 0.9284760910778321 0.327919758227738
outer loop
vertex 63.52923583984375 -139.60000610351562 18.595319747924805
vertex 62.469696044921875 -139.60000610351562 19.158687591552734
vertex 61.189849853515625 -140.3000030517578 21.82117462158203
endloop
endfacet
facet normal -0.6454387513020264 0.0 0.7638120307495039
outer loop
vertex 59.54454803466797 -146.5 20.430856704711914
vertex 61.189849853515625 -140.3000030517578 21.82117462158203
vertex 59.54454803466797 -139.5 20.430856704711914
endloop
endfacet
facet normal 0.17435784338470384 0.9284762063985009 0.3279196191173738
outer loop
vertex 59.54454803466797 -139.5 20.430856704711914
vertex 61.189849853515625 -140.3000030517578 21.82117462158203
vertex 62.469696044921875 -139.60000610351562 19.158687591552734
endloop
endfacet
facet normal 0.46947147660848015 -0.0 0.8829476386802636
outer loop
vertex 68.30337524414062 -145.6999969482422 18.038846969604492
vertex 68.30337524414062 -140.3000030517578 18.038846969604492
vertex 61.189849853515625 -140.3000030517578 21.82117462158203
endloop
endfacet
facet normal -0.0 0.0 1.0
outer loop
vertex 31.0 -123.0 21.0
vertex 69.87784576416016 -137.0 21.0
vertex 91.0 -123.0 21.0
endloop
endfacet
facet normal 0.0 -0.0 0.9999999999999999
outer loop
vertex 69.87784576416016 -149.0 21.0
vertex 91.0 -123.0 21.0
vertex 69.87784576416016 -137.0 21.0
endloop
endfacet
facet normal -0.0 1.0 0.0
outer loop
vertex 31.0 -123.0 21.0
vertex 91.0 -123.0 21.0
vertex 91.0 -123.0 10.0
endloop
endfacet
facet normal -0.0 1.0 0.0
outer loop
vertex 81.69999694824219 -135.3000030517578 3.950000047683716
vertex 81.69999694824219 -135.3000030517578 8.050000190734863
vertex 98.30000305175781 -135.3000030517578 3.950000047683716
endloop
endfacet
facet normal 1.0 0.0 -0.0
outer loop
vertex 81.69999694824219 -135.3000030517578 3.950000047683716
vertex 81.69999694824219 -112.0 3.950000047683716
vertex 81.69999694824219 -135.3000030517578 8.050000190734863
endloop
endfacet
facet normal 0.0 0.0 1.0
outer loop
vertex 81.69999694824219 -135.3000030517578 3.950000047683716
vertex 98.30000305175781 -135.3000030517578 3.950000047683716
vertex 98.30000305175781 -112.0 3.950000047683716
endloop
endfacet
facet normal -0.0 1.0 0.0
outer loop
vertex 81.69999694824219 -135.3000030517578 8.050000190734863
vertex 98.30000305175781 -135.3000030517578 8.050000190734863
vertex 98.30000305175781 -135.3000030517578 3.950000047683716
endloop
endfacet
facet normal 0.0 0.0 -1.0
outer loop
vertex 81.69999694824219 -135.3000030517578 8.050000190734863
vertex 81.69999694824219 -112.0 8.050000190734863
vertex 98.30000305175781 -135.3000030517578 8.050000190734863
endloop
endfacet
facet normal 0.0 -0.0 1.0
outer loop
vertex 81.69999694824219 -135.3000030517578 3.950000047683716
vertex 98.30000305175781 -112.0 3.950000047683716
vertex 81.69999694824219 -112.0 3.950000047683716
endloop
endfacet
facet normal 1.0 -0.0 0.0
outer loop
vertex 81.69999694824219 -135.3000030517578 8.050000190734863
vertex 81.69999694824219 -112.0 3.950000047683716
vertex 81.69999694824219 -112.0 8.050000190734863
endloop
endfacet
facet normal 0.0 0.0 -1.0
outer loop
vertex 98.30000305175781 -135.3000030517578 8.050000190734863
vertex 81.69999694824219 -112.0 8.050000190734863
vertex 98.30000305175781 -112.0 8.050000190734863
endloop
endfacet
facet normal -1.0 0.0 0.0
outer loop
vertex 98.30000305175781 -135.3000030517578 3.950000047683716
vertex 98.30000305175781 -135.3000030517578 8.050000190734863
vertex 98.30000305175781 -112.0 8.050000190734863
endloop
endfacet
facet normal -1.0 0.0 0.0
outer loop
vertex 98.30000305175781 -135.3000030517578 3.950000047683716
vertex 98.30000305175781 -112.0 8.050000190734863
vertex 98.30000305175781 -112.0 3.950000047683716
endloop
endfacet

endsolid
