solid 
facet normal -1.0 0.0 0.0
outer loop
vertex -27.5 112.0 0.0
vertex -27.5 112.0 10.0
vertex -27.5 174.0 10.0
endloop
endfacet
facet normal 0.0 0.0 1.0
outer loop
vertex -27.5 112.0 10.0
vertex 31.0 123.0 10.0
vertex 31.0 163.0 10.0
endloop
endfacet
facet normal 0.0 -1.0 0.0
outer loop
vertex -27.5 112.0 0.0
vertex 137.5 112.0 0.0
vertex -27.5 112.0 10.0
endloop
endfacet
facet normal 0.0 -1.0 0.0
outer loop
vertex -27.5 112.0 10.0
vertex 81.69999694824219 112.0 3.950000047683716
vertex 81.69999694824219 112.0 8.050000190734863
endloop
endfacet
facet normal 0.0 -1.0 0.0
outer loop
vertex -27.5 112.0 10.0
vertex 81.69999694824219 112.0 8.050000190734863
vertex 98.30000305175781 112.0 8.050000190734863
endloop
endfacet
facet normal 0.0 -0.0 0.9999999999999999
outer loop
vertex -27.5 112.0 10.0
vertex 137.5 112.0 10.0
vertex 31.0 123.0 10.0
endloop
endfacet
facet normal -0.0 0.0 0.9999999999999999
outer loop
vertex 31.0 123.0 10.0
vertex 40.51557540893555 122.80000305175781 10.0
vertex 40.51557540893555 123.0 10.0
endloop
endfacet
facet normal 0.0 -1.0 0.0
outer loop
vertex 31.0 123.0 10.0
vertex 40.51557540893555 123.0 10.0
vertex 40.00004959106445 123.0 11.741656303405762
endloop
endfacet
facet normal 0.9588762264102245 0.0 0.2838245627589123
outer loop
vertex 40.70425796508789 122.80000305175781 9.362552642822266
vertex 40.51557540893555 123.0 10.0
vertex 40.51557540893555 122.80000305175781 10.0
endloop
endfacet
facet normal -0.0 1.0 -0.0
outer loop
vertex 40.70425796508789 122.80000305175781 9.362552642822266
vertex 40.51557540893555 122.80000305175781 10.0
vertex 58.73188018798828 122.80000305175781 7.5966572761535645
endloop
endfacet
facet normal 0.0 0.0 -1.0
outer loop
vertex -27.5 112.0 0.0
vertex -27.5 174.0 0.0
vertex 137.5 112.0 0.0
endloop
endfacet
facet normal 0.9588762264102245 -0.0 0.2838245627589123
outer loop
vertex 40.70425796508789 122.80000305175781 9.362552642822266
vertex 40.70425796508789 148.58119201660156 9.362552642822266
vertex 40.51557540893555 123.0 10.0
endloop
endfacet
facet normal 0.9588761307681198 8.757091670515575e-09 0.28382488587711874
outer loop
vertex 40.51557540893555 123.0 10.0
vertex 40.70425796508789 148.58119201660156 9.362552642822266
vertex 40.00004959106445 123.0 11.741656303405762
endloop
endfacet
facet normal 0.09748838695087264 0.0 0.9952366625128503
outer loop
vertex 40.70425796508789 122.80000305175781 9.362552642822266
vertex 58.73188018798828 122.80000305175781 7.5966572761535645
vertex 40.70425796508789 148.58119201660156 9.362552642822266
endloop
endfacet
facet normal 0.09748838695087263 -0.0 0.9952366625128501
outer loop
vertex 40.70425796508789 148.58119201660156 9.362552642822266
vertex 58.73188018798828 122.80000305175781 7.5966572761535645
vertex 58.73188018798828 149.1999969482422 7.5966572761535645
endloop
endfacet
facet normal 0.0 -1.0 0.0
outer loop
vertex 31.0 123.0 10.0
vertex 40.00004959106445 123.0 11.741656303405762
vertex 39.7305793762207 123.0 11.823467254638672
endloop
endfacet
facet normal 0.0 -1.0 0.0
outer loop
vertex 40.00004959106445 123.0 11.741656303405762
vertex 40.00004959106445 123.0 11.823467254638672
vertex 39.7305793762207 123.0 11.823467254638672
endloop
endfacet
facet normal 0.0 -1.0 0.0
outer loop
vertex 31.0 123.0 10.0
vertex 39.7305793762207 123.0 11.823467254638672
vertex 39.7305793762207 123.0 21.0
endloop
endfacet
facet normal 0.0 -1.0 0.0
outer loop
vertex 31.0 123.0 10.0
vertex 39.7305793762207 123.0 21.0
vertex 31.0 123.0 21.0
endloop
endfacet
facet normal -1.0 0.0 0.0
outer loop
vertex 31.0 123.0 10.0
vertex 31.0 123.0 21.0
vertex 31.0 163.0 10.0
endloop
endfacet
facet normal 0.0 0.0 1.0
outer loop
vertex 39.7305793762207 123.0 11.823467254638672
vertex 40.00004959106445 123.0 11.823467254638672
vertex 40.00004959106445 146.0 11.823467254638672
endloop
endfacet
facet normal 1.0 0.0 -0.0
outer loop
vertex 40.00004959106445 123.0 11.741656303405762
vertex 40.00004959106445 147.0500030517578 11.741656303405762
vertex 40.00004959106445 123.0 11.823467254638672
endloop
endfacet
facet normal 0.0 -0.0 1.0
outer loop
vertex 39.7305793762207 123.0 11.823467254638672
vertex 40.00004959106445 146.0 11.823467254638672
vertex 39.7305793762207 146.0 11.823467254638672
endloop
endfacet
facet normal 1.0 -0.0 -0.0
outer loop
vertex 40.00004959106445 123.0 11.823467254638672
vertex 40.00004959106445 147.0500030517578 11.741656303405762
vertex 40.00004959106445 146.0 11.823467254638672
endloop
endfacet
facet normal 0.9588761563940852 0.0 0.2838247993021504
outer loop
vertex 40.00004959106445 123.0 11.741656303405762
vertex 40.70425796508789 148.58119201660156 9.362552642822266
vertex 40.00004959106445 147.0500030517578 11.741656303405762
endloop
endfacet
facet normal 1.0 0.0 0.0
outer loop
vertex 39.7305793762207 123.0 11.823467254638672
vertex 39.7305793762207 146.0 11.823467254638672
vertex 39.7305793762207 146.0 21.0
endloop
endfacet
facet normal 1.0 0.0 -0.0
outer loop
vertex 39.7305793762207 123.0 11.823467254638672
vertex 39.7305793762207 146.0 21.0
vertex 39.7305793762207 123.0 21.0
endloop
endfacet
facet normal 0.0 0.0 1.0
outer loop
vertex 31.0 123.0 21.0
vertex 39.7305793762207 123.0 21.0
vertex 39.7305793762207 146.0 21.0
endloop
endfacet
facet normal -1.0 0.0 0.0
outer loop
vertex -27.5 112.0 0.0
vertex -27.5 174.0 10.0
vertex -27.5 174.0 0.0
endloop
endfacet
facet normal 0.0 -0.0 1.0
outer loop
vertex -27.5 112.0 10.0
vertex 31.0 163.0 10.0
vertex -27.5 174.0 10.0
endloop
endfacet
facet normal 0.05825784426630276 -0.9647398445145701 0.25667694868734586
outer loop
vertex 40.70425796508789 148.58119201660156 9.362552642822266
vertex 58.73188018798828 149.1999969482422 7.5966572761535645
vertex 40.469520568847656 149.1999969482422 11.741656303405762
endloop
endfacet
facet normal 0.0 1.0 0.0
outer loop
vertex -27.5 174.0 0.0
vertex -27.5 174.0 10.0
vertex 137.5 174.0 10.0
endloop
endfacet
facet normal -0.0 0.0 1.0
outer loop
vertex -27.5 174.0 10.0
vertex 31.0 163.0 10.0
vertex 91.0 163.0 10.0
endloop
endfacet
facet normal 0.9659022729163576 -0.2109136613134363 0.15016066943902173
outer loop
vertex 40.70425796508789 148.58119201660156 9.362552642822266
vertex 40.469520568847656 149.1999969482422 11.741656303405762
vertex 40.00004959106445 147.0500030517578 11.741656303405762
endloop
endfacet
facet normal 0.0 -1.0 0.0
outer loop
vertex 39.7305793762207 146.0 11.823467254638672
vertex 40.00004959106445 146.0 11.823467254638672
vertex 40.00004959106445 146.0 21.0
endloop
endfacet
facet normal 1.0 -0.0 -0.0
outer loop
vertex 40.00004959106445 146.0 11.823467254638672
vertex 40.00004959106445 147.0500030517578 11.741656303405762
vertex 40.00004959106445 146.0 21.0
endloop
endfacet
facet normal 0.9769796520667614 -0.21333250912017618 0.0
outer loop
vertex 40.00004959106445 147.0500030517578 11.741656303405762
vertex 40.469520568847656 149.1999969482422 11.741656303405762
vertex 40.469520568847656 149.1999969482422 21.0
endloop
endfacet
facet normal -1.0 0.0 0.0
outer loop
vertex 31.0 123.0 21.0
vertex 31.0 163.0 21.0
vertex 31.0 163.0 10.0
endloop
endfacet
facet normal 0.0 -0.0 1.0
outer loop
vertex 31.0 123.0 21.0
vertex 39.7305793762207 146.0 21.0
vertex 31.0 163.0 21.0
endloop
endfacet
facet normal 0.0 -1.0 0.0
outer loop
vertex 39.7305793762207 146.0 11.823467254638672
vertex 40.00004959106445 146.0 21.0
vertex 39.7305793762207 146.0 21.0
endloop
endfacet
facet normal 1.0 0.0 -0.0
outer loop
vertex 40.00004959106445 147.0500030517578 11.741656303405762
vertex 40.00004959106445 147.0500030517578 21.0
vertex 40.00004959106445 146.0 21.0
endloop
endfacet
facet normal 0.9769796520667614 -0.21333250912017618 0.0
outer loop
vertex 40.00004959106445 147.0500030517578 11.741656303405762
vertex 40.469520568847656 149.1999969482422 21.0
vertex 40.00004959106445 147.0500030517578 21.0
endloop
endfacet
facet normal 0.0 -1.0 0.0
outer loop
vertex 40.469520568847656 149.1999969482422 11.741656303405762
vertex 75.68635559082031 149.1999969482422 21.0
vertex 40.469520568847656 149.1999969482422 21.0
endloop
endfacet
facet normal 0.0 0.0 0.9999999999999999
outer loop
vertex 39.7305793762207 146.0 21.0
vertex 40.00004959106445 146.0 21.0
vertex 40.00004959106445 147.0500030517578 21.0
endloop
endfacet
facet normal 0.0 -0.0 0.9999999999999999
outer loop
vertex 39.7305793762207 146.0 21.0
vertex 40.00004959106445 147.0500030517578 21.0
vertex 31.0 163.0 21.0
endloop
endfacet
facet normal 0.0 -0.0 0.9999999999999999
outer loop
vertex 40.00004959106445 147.0500030517578 21.0
vertex 40.469520568847656 149.1999969482422 21.0
vertex 31.0 163.0 21.0
endloop
endfacet
facet normal 0.0 -0.0 0.9999999999999999
outer loop
vertex 40.469520568847656 149.1999969482422 21.0
vertex 75.68635559082031 149.1999969482422 21.0
vertex 31.0 163.0 21.0
endloop
endfacet
facet normal -0.0 1.0 0.0
outer loop
vertex 31.0 163.0 10.0
vertex 31.0 163.0 21.0
vertex 91.0 163.0 10.0
endloop
endfacet
facet normal 0.0 -1.0 0.0
outer loop
vertex -27.5 112.0 10.0
vertex 137.5 112.0 0.0
vertex 81.69999694824219 112.0 3.950000047683716
endloop
endfacet
facet normal 1.0 0.0 -0.0
outer loop
vertex 81.69999694824219 112.0 3.950000047683716
vertex 81.69999694824219 135.3000030517578 3.950000047683716
vertex 81.69999694824219 112.0 8.050000190734863
endloop
endfacet
facet normal 0.0 0.0 1.0
outer loop
vertex 81.69999694824219 112.0 3.950000047683716
vertex 98.30000305175781 112.0 3.950000047683716
vertex 98.30000305175781 135.3000030517578 3.950000047683716
endloop
endfacet
facet normal 0.0 -1.0 0.0
outer loop
vertex -27.5 112.0 10.0
vertex 98.30000305175781 112.0 8.050000190734863
vertex 137.5 112.0 10.0
endloop
endfacet
facet normal -0.0 -0.0 1.0
outer loop
vertex 31.0 123.0 10.0
vertex 137.5 112.0 10.0
vertex 40.51557540893555 122.80000305175781 10.0
endloop
endfacet
facet normal -0.0 1.0 0.0
outer loop
vertex 58.73188018798828 122.80000305175781 7.5966572761535645
vertex 72.6347885131836 122.80000305175781 8.479604721069336
vertex 72.16531372070312 122.80000305175781 7.5966572761535645
endloop
endfacet
facet normal 0.0 1.0 0.0
outer loop
vertex 40.51557540893555 122.80000305175781 10.0
vertex 73.33899688720703 122.80000305175781 9.804025650024414
vertex 58.73188018798828 122.80000305175781 7.5966572761535645
endloop
endfacet
facet normal -0.0 1.0 0.0
outer loop
vertex 40.51557540893555 122.80000305175781 10.0
vertex 73.44319915771484 122.80000305175781 10.0
vertex 73.33899688720703 122.80000305175781 9.804025650024414
endloop
endfacet
facet normal -0.0 1.0 0.0
outer loop
vertex 58.73188018798828 122.80000305175781 7.5966572761535645
vertex 73.33899688720703 122.80000305175781 9.804025650024414
vertex 72.6347885131836 122.80000305175781 8.479604721069336
endloop
endfacet
facet normal -0.8829459862458698 0.0 0.4694745843731142
outer loop
vertex 73.33899688720703 122.80000305175781 9.804025650024414
vertex 73.44319915771484 122.80000305175781 10.0
vertex 73.44319915771484 123.0 10.0
endloop
endfacet
facet normal -0.0 -0.0 1.0
outer loop
vertex 40.51557540893555 122.80000305175781 10.0
vertex 137.5 112.0 10.0
vertex 73.44319915771484 122.80000305175781 10.0
endloop
endfacet
facet normal 0.0 0.0 -1.0
outer loop
vertex 81.69999694824219 112.0 8.050000190734863
vertex 81.69999694824219 135.3000030517578 8.050000190734863
vertex 98.30000305175781 112.0 8.050000190734863
endloop
endfacet
facet normal 0.0 -0.0 1.0
outer loop
vertex 73.44319915771484 122.80000305175781 10.0
vertex 91.0 123.0 10.0
vertex 73.44319915771484 123.0 10.0
endloop
endfacet
facet normal 0.0 -0.0 1.0
outer loop
vertex 81.69999694824219 112.0 3.950000047683716
vertex 98.30000305175781 135.3000030517578 3.950000047683716
vertex 81.69999694824219 135.3000030517578 3.950000047683716
endloop
endfacet
facet normal 0.0 -1.0 0.0
outer loop
vertex 81.69999694824219 135.3000030517578 3.950000047683716
vertex 98.30000305175781 135.3000030517578 3.950000047683716
vertex 98.30000305175781 135.3000030517578 8.050000190734863
endloop
endfacet
facet normal 0.0 -0.0 0.9999999999999999
outer loop
vertex 58.73188018798828 122.80000305175781 7.5966572761535645
vertex 62.75115966796875 137.0 7.5966572761535645
vertex 62.20975112915039 137.0 7.5966572761535645
endloop
endfacet
facet normal 0.0 0.0 1.0
outer loop
vertex 58.73188018798828 122.80000305175781 7.5966572761535645
vertex 62.20975112915039 137.0 7.5966572761535645
vertex 62.20975112915039 139.5 7.5966572761535645
endloop
endfacet
facet normal 0.0 -0.0 1.0
outer loop
vertex 58.73188018798828 122.80000305175781 7.5966572761535645
vertex 68.57646942138672 139.5 7.5966572761535645
vertex 62.75115966796875 137.0 7.5966572761535645
endloop
endfacet
facet normal 0.0 -0.0 1.0
outer loop
vertex 58.73188018798828 122.80000305175781 7.5966572761535645
vertex 62.20975112915039 139.5 7.5966572761535645
vertex 60.25157165527344 139.5 7.5966572761535645
endloop
endfacet
facet normal 0.0 -0.0 1.0
outer loop
vertex 58.73188018798828 122.80000305175781 7.5966572761535645
vertex 72.16531372070312 122.80000305175781 7.5966572761535645
vertex 68.57646942138672 139.5 7.5966572761535645
endloop
endfacet
facet normal -0.8829462214807872 0.0 0.46947414196396436
outer loop
vertex 72.16531372070312 122.80000305175781 7.5966572761535645
vertex 72.6347885131836 122.80000305175781 8.479604721069336
vertex 72.16531372070312 149.1999969482422 7.5966572761535645
endloop
endfacet
facet normal -0.88294724062601 0.0 0.4694722252390599
outer loop
vertex 72.6347885131836 122.80000305175781 8.479604721069336
vertex 73.33899688720703 122.80000305175781 9.804025650024414
vertex 73.33899688720703 149.1999969482422 9.804025650024414
endloop
endfacet
facet normal -0.8829459862458697 0.0 0.4694745843731141
outer loop
vertex 73.33899688720703 122.80000305175781 9.804025650024414
vertex 73.44319915771484 123.0 10.0
vertex 73.33899688720703 149.1999969482422 9.804025650024414
endloop
endfacet
facet normal 0.0 0.0 1.0
outer loop
vertex 58.73188018798828 122.80000305175781 7.5966572761535645
vertex 60.25157165527344 139.5 7.5966572761535645
vertex 60.25157165527344 146.5 7.5966572761535645
endloop
endfacet
facet normal 0.0 1.0 -0.0
outer loop
vertex 62.622764587402344 137.0 7.355183124542236
vertex 62.20975112915039 137.0 7.5966572761535645
vertex 62.75115966796875 137.0 7.5966572761535645
endloop
endfacet
facet normal 0.5047279449580464 -0.0 0.8632784612038155
outer loop
vertex 62.622764587402344 137.0 7.355183124542236
vertex 62.622764587402344 139.5 7.355183124542236
vertex 62.20975112915039 137.0 7.5966572761535645
endloop
endfacet
facet normal -0.8829460822477257 0.0 0.4694744038213291
outer loop
vertex 62.622764587402344 137.0 7.355183124542236
vertex 62.75115966796875 139.5 7.5966572761535645
vertex 62.622764587402344 139.5 7.355183124542236
endloop
endfacet
facet normal -0.8829460822477257 0.0 0.4694744038213291
outer loop
vertex 62.622764587402344 137.0 7.355183124542236
vertex 62.75115966796875 137.0 7.5966572761535645
vertex 62.75115966796875 139.5 7.5966572761535645
endloop
endfacet
facet normal 0.5047279449580464 0.0 0.8632784612038155
outer loop
vertex 62.20975112915039 137.0 7.5966572761535645
vertex 62.622764587402344 139.5 7.355183124542236
vertex 62.20975112915039 139.5 7.5966572761535645
endloop
endfacet
facet normal 0.0 -0.0 1.0
outer loop
vertex 62.75115966796875 137.0 7.5966572761535645
vertex 64.51167297363281 139.5 7.5966572761535645
vertex 62.75115966796875 139.5 7.5966572761535645
endloop
endfacet
facet normal 0.0 -0.0 1.0
outer loop
vertex 62.75115966796875 137.0 7.5966572761535645
vertex 64.97489166259766 139.46194458007812 7.5966572761535645
vertex 64.51167297363281 139.5 7.5966572761535645
endloop
endfacet
facet normal 0.0 -0.0 1.0
outer loop
vertex 58.73188018798828 122.80000305175781 7.5966572761535645
vertex 60.25157165527344 146.5 7.5966572761535645
vertex 58.73188018798828 149.1999969482422 7.5966572761535645
endloop
endfacet
facet normal 0.0 -0.0 1.0
outer loop
vertex 62.75115966796875 137.0 7.5966572761535645
vertex 68.57646942138672 139.5 7.5966572761535645
vertex 64.97489166259766 139.46194458007812 7.5966572761535645
endloop
endfacet
facet normal 0.0 -0.0 1.0
outer loop
vertex 72.16531372070312 122.80000305175781 7.5966572761535645
vertex 72.16531372070312 149.1999969482422 7.5966572761535645
vertex 68.57646942138672 139.5 7.5966572761535645
endloop
endfacet
facet normal 0.0 -0.0 1.0
outer loop
vertex 64.97489166259766 139.46194458007812 7.5966572761535645
vertex 68.57646942138672 139.5 7.5966572761535645
vertex 64.97489166259766 139.5 7.5966572761535645
endloop
endfacet
facet normal -0.8829462214807872 0.0 0.46947414196396436
outer loop
vertex 72.6347885131836 122.80000305175781 8.479604721069336
vertex 72.6347885131836 149.1999969482422 8.479604721069336
vertex 72.16531372070312 149.1999969482422 7.5966572761535645
endloop
endfacet
facet normal -0.88294724062601 0.0 0.4694722252390599
outer loop
vertex 72.6347885131836 122.80000305175781 8.479604721069336
vertex 73.33899688720703 149.1999969482422 9.804025650024414
vertex 72.6347885131836 149.1999969482422 8.479604721069336
endloop
endfacet
facet normal -0.8829473807550823 -2.5163692525640454e-08 0.46947196169498684
outer loop
vertex 73.44319915771484 123.0 10.0
vertex 74.04320526123047 149.1999969482422 11.128447532653809
vertex 73.33899688720703 149.1999969482422 9.804025650024414
endloop
endfacet
facet normal 1.0 -0.0 0.0
outer loop
vertex 81.69999694824219 112.0 8.050000190734863
vertex 81.69999694824219 135.3000030517578 3.950000047683716
vertex 81.69999694824219 135.3000030517578 8.050000190734863
endloop
endfacet
facet normal 0.0 0.0 -1.0
outer loop
vertex 81.69999694824219 135.3000030517578 8.050000190734863
vertex 98.30000305175781 135.3000030517578 8.050000190734863
vertex 98.30000305175781 112.0 8.050000190734863
endloop
endfacet
facet normal 0.0 -1.0 0.0
outer loop
vertex 81.69999694824219 135.3000030517578 3.950000047683716
vertex 98.30000305175781 135.3000030517578 8.050000190734863
vertex 81.69999694824219 135.3000030517578 8.050000190734863
endloop
endfacet
facet normal 0.0 -1.0 0.0
outer loop
vertex 81.69999694824219 112.0 3.950000047683716
vertex 137.5 112.0 0.0
vertex 98.30000305175781 112.0 3.950000047683716
endloop
endfacet
facet normal 0.0 -1.0 0.0
outer loop
vertex 98.30000305175781 112.0 3.950000047683716
vertex 137.5 112.0 0.0
vertex 137.5 112.0 10.0
endloop
endfacet
facet normal -0.0 -1.0 0.0
outer loop
vertex 98.30000305175781 112.0 3.950000047683716
vertex 137.5 112.0 10.0
vertex 98.30000305175781 112.0 8.050000190734863
endloop
endfacet
facet normal -0.0 -0.0 1.0
outer loop
vertex 73.44319915771484 122.80000305175781 10.0
vertex 137.5 112.0 10.0
vertex 91.0 123.0 10.0
endloop
endfacet
facet normal -1.0 0.0 0.0
outer loop
vertex 98.30000305175781 112.0 3.950000047683716
vertex 98.30000305175781 112.0 8.050000190734863
vertex 98.30000305175781 135.3000030517578 8.050000190734863
endloop
endfacet
facet normal -1.0 0.0 0.0
outer loop
vertex 98.30000305175781 112.0 3.950000047683716
vertex 98.30000305175781 135.3000030517578 8.050000190734863
vertex 98.30000305175781 135.3000030517578 3.950000047683716
endloop
endfacet
facet normal 1.0 0.0 -0.0
outer loop
vertex 137.5 112.0 0.0
vertex 137.5 174.0 0.0
vertex 137.5 112.0 10.0
endloop
endfacet
facet normal -0.0 0.0 1.0
outer loop
vertex 91.0 123.0 10.0
vertex 137.5 112.0 10.0
vertex 137.5 174.0 10.0
endloop
endfacet
facet normal 0.0 -0.9999999999999999 0.0
outer loop
vertex 73.44319915771484 123.0 10.0
vertex 91.0 123.0 10.0
vertex 76.62529754638672 123.0 15.984660148620605
endloop
endfacet
facet normal -0.0 -1.0 0.0
outer loop
vertex 91.0 123.0 10.0
vertex 91.0 123.0 21.0
vertex 76.62529754638672 123.0 15.984660148620605
endloop
endfacet
facet normal 0.0 -1.0 0.0
outer loop
vertex 76.62529754638672 123.0 15.984660148620605
vertex 91.0 123.0 21.0
vertex 76.62529754638672 123.0 21.0
endloop
endfacet
facet normal -0.8829477064647943 8.679125652831243e-09 0.46947134912426663
outer loop
vertex 73.44319915771484 123.0 10.0
vertex 76.62529754638672 123.0 15.984660148620605
vertex 74.04320526123047 149.1999969482422 11.128447532653809
endloop
endfacet
facet normal -0.8829476218929203 4.6495356759239274e-08 0.46947150818088484
outer loop
vertex 76.62529754638672 123.0 15.984660148620605
vertex 75.68635559082031 149.1999969482422 14.218764305114746
vertex 74.04320526123047 149.1999969482422 11.128447532653809
endloop
endfacet
facet normal -0.8829479078427324 0.0 0.469470970387032
outer loop
vertex 76.62529754638672 123.0 15.984660148620605
vertex 76.62529754638672 148.7169189453125 15.984660148620605
vertex 75.68635559082031 149.1999969482422 14.218764305114746
endloop
endfacet
facet normal 0.17436104540122987 -0.9284734971833495 0.3279255874046897
outer loop
vertex 60.45475387573242 139.94256591796875 21.200000762939453
vertex 62.35810852050781 140.3000030517578 21.200000762939453
vertex 61.189849853515625 140.3000030517578 21.82117462158203
endloop
endfacet
facet normal 0.4694713900209457 0.0 0.8829476847196562
outer loop
vertex 62.35810852050781 140.3000030517578 21.200000762939453
vertex 61.189849853515625 145.6999969482422 21.82117462158203
vertex 61.189849853515625 140.3000030517578 21.82117462158203
endloop
endfacet
facet normal -1.0 0.0 0.0
outer loop
vertex 76.62529754638672 123.0 15.984660148620605
vertex 76.62529754638672 123.0 21.0
vertex 76.62529754638672 148.7169189453125 15.984660148620605
endloop
endfacet
facet normal 1.0 0.0 -0.0
outer loop
vertex 91.0 123.0 10.0
vertex 91.0 163.0 21.0
vertex 91.0 123.0 21.0
endloop
endfacet
facet normal -1.0 0.0 0.0
outer loop
vertex 76.62529754638672 123.0 21.0
vertex 76.62529754638672 148.7169189453125 21.0
vertex 76.62529754638672 148.7169189453125 15.984660148620605
endloop
endfacet
facet normal 0.0 0.0 1.0
outer loop
vertex 76.62529754638672 123.0 21.0
vertex 91.0 123.0 21.0
vertex 91.0 163.0 21.0
endloop
endfacet
facet normal 0.0 0.0 -1.0
outer loop
vertex -27.5 174.0 0.0
vertex 137.5 174.0 0.0
vertex 137.5 112.0 0.0
endloop
endfacet
facet normal 0.5047279449580464 0.0 0.8632784612038155
outer loop
vertex 62.622764587402344 149.0 7.355183124542236
vertex 62.20975112915039 148.82872009277344 7.5966572761535645
vertex 62.622764587402344 146.5 7.355183124542236
endloop
endfacet
facet normal -0.8829460822477257 0.0 0.4694744038213291
outer loop
vertex 62.622764587402344 149.0 7.355183124542236
vertex 62.622764587402344 146.5 7.355183124542236
vertex 62.75115966796875 149.0 7.5966572761535645
endloop
endfacet
facet normal -0.0 0.0 1.0
outer loop
vertex 58.73188018798828 149.1999969482422 7.5966572761535645
vertex 60.25157165527344 146.5 7.5966572761535645
vertex 62.20975112915039 146.5 7.5966572761535645
endloop
endfacet
facet normal 0.5047279449580464 0.0 0.8632784612038155
outer loop
vertex 62.20975112915039 148.82872009277344 7.5966572761535645
vertex 62.20975112915039 146.5 7.5966572761535645
vertex 62.622764587402344 146.5 7.355183124542236
endloop
endfacet
facet normal -0.8829460822477257 0.0 0.4694744038213291
outer loop
vertex 62.75115966796875 149.0 7.5966572761535645
vertex 62.622764587402344 146.5 7.355183124542236
vertex 62.75115966796875 146.5 7.5966572761535645
endloop
endfacet
facet normal -0.0 0.0 1.0
outer loop
vertex 58.73188018798828 149.1999969482422 7.5966572761535645
vertex 62.20975112915039 146.5 7.5966572761535645
vertex 62.20975112915039 148.82872009277344 7.5966572761535645
endloop
endfacet
facet normal -0.0 0.0 1.0
outer loop
vertex 58.73188018798828 149.1999969482422 7.5966572761535645
vertex 62.20975112915039 148.82872009277344 7.5966572761535645
vertex 62.20975112915039 149.0 7.5966572761535645
endloop
endfacet
facet normal -0.0 0.0 1.0
outer loop
vertex 58.73188018798828 149.1999969482422 7.5966572761535645
vertex 62.20975112915039 149.0 7.5966572761535645
vertex 62.75115966796875 149.0 7.5966572761535645
endloop
endfacet
facet normal 0.5047279449580463 0.0 0.8632784612038155
outer loop
vertex 62.622764587402344 149.0 7.355183124542236
vertex 62.20975112915039 149.0 7.5966572761535645
vertex 62.20975112915039 148.82872009277344 7.5966572761535645
endloop
endfacet
facet normal 0.0 -1.0 0.0
outer loop
vertex 62.622764587402344 149.0 7.355183124542236
vertex 62.75115966796875 149.0 7.5966572761535645
vertex 62.20975112915039 149.0 7.5966572761535645
endloop
endfacet
facet normal -0.0 0.0 1.0
outer loop
vertex 58.73188018798828 149.1999969482422 7.5966572761535645
vertex 62.75115966796875 149.0 7.5966572761535645
vertex 72.16531372070312 149.1999969482422 7.5966572761535645
endloop
endfacet
facet normal -0.0 0.0 1.0
outer loop
vertex 64.97489166259766 146.53805541992188 7.5966572761535645
vertex 64.97489166259766 146.5 7.5966572761535645
vertex 68.57646942138672 146.5 7.5966572761535645
endloop
endfacet
facet normal 0.0 0.0 1.0
outer loop
vertex 72.16531372070312 149.1999969482422 7.5966572761535645
vertex 68.57646942138672 146.5 7.5966572761535645
vertex 68.57646942138672 139.5 7.5966572761535645
endloop
endfacet
facet normal -0.0 0.0 1.0
outer loop
vertex 72.16531372070312 149.1999969482422 7.5966572761535645
vertex 62.75115966796875 146.5 7.5966572761535645
vertex 64.51167297363281 146.5 7.5966572761535645
endloop
endfacet
facet normal -0.0 0.0 0.9999999999999999
outer loop
vertex 72.16531372070312 149.1999969482422 7.5966572761535645
vertex 64.51167297363281 146.5 7.5966572761535645
vertex 64.97489166259766 146.53805541992188 7.5966572761535645
endloop
endfacet
facet normal -0.0 0.0 1.0
outer loop
vertex 62.75115966796875 149.0 7.5966572761535645
vertex 62.75115966796875 146.5 7.5966572761535645
vertex 72.16531372070312 149.1999969482422 7.5966572761535645
endloop
endfacet
facet normal 0.0 0.0 1.0
outer loop
vertex 72.16531372070312 149.1999969482422 7.5966572761535645
vertex 64.97489166259766 146.53805541992188 7.5966572761535645
vertex 68.57646942138672 146.5 7.5966572761535645
endloop
endfacet
facet normal 0.0 -1.0 0.0
outer loop
vertex 58.73188018798828 149.1999969482422 7.5966572761535645
vertex 72.16531372070312 149.1999969482422 7.5966572761535645
vertex 72.6347885131836 149.1999969482422 8.479604721069336
endloop
endfacet
facet normal 0.0 -0.9999999999999999 0.0
outer loop
vertex 40.469520568847656 149.1999969482422 11.741656303405762
vertex 58.73188018798828 149.1999969482422 7.5966572761535645
vertex 73.33899688720703 149.1999969482422 9.804025650024414
endloop
endfacet
facet normal 0.0 -1.0 0.0
outer loop
vertex 58.73188018798828 149.1999969482422 7.5966572761535645
vertex 72.6347885131836 149.1999969482422 8.479604721069336
vertex 73.33899688720703 149.1999969482422 9.804025650024414
endloop
endfacet
facet normal -0.0 1.0 0.0
outer loop
vertex -27.5 174.0 0.0
vertex 137.5 174.0 10.0
vertex 137.5 174.0 0.0
endloop
endfacet
facet normal -0.0 0.0 0.9999999999999999
outer loop
vertex -27.5 174.0 10.0
vertex 91.0 163.0 10.0
vertex 137.5 174.0 10.0
endloop
endfacet
facet normal 0.0 -0.0 1.0
outer loop
vertex 91.0 123.0 10.0
vertex 137.5 174.0 10.0
vertex 91.0 163.0 10.0
endloop
endfacet
facet normal 1.0 -0.0 0.0
outer loop
vertex 137.5 112.0 10.0
vertex 137.5 174.0 0.0
vertex 137.5 174.0 10.0
endloop
endfacet
facet normal 0.0 -1.0 0.0
outer loop
vertex 40.469520568847656 149.1999969482422 11.741656303405762
vertex 73.33899688720703 149.1999969482422 9.804025650024414
vertex 75.68635559082031 149.1999969482422 21.0
endloop
endfacet
facet normal 0.0 -1.0 0.0
outer loop
vertex 73.33899688720703 149.1999969482422 9.804025650024414
vertex 74.04320526123047 149.1999969482422 11.128447532653809
vertex 75.68635559082031 149.1999969482422 21.0
endloop
endfacet
facet normal 0.0 -1.0 0.0
outer loop
vertex 74.04320526123047 149.1999969482422 11.128447532653809
vertex 75.68635559082031 149.1999969482422 14.218764305114746
vertex 75.68635559082031 149.1999969482422 21.0
endloop
endfacet
facet normal 1.0 0.0 0.0
outer loop
vertex 91.0 123.0 10.0
vertex 91.0 163.0 10.0
vertex 91.0 163.0 21.0
endloop
endfacet
facet normal 0.4694713900209456 -0.0 0.8829476847196561
outer loop
vertex 61.189849853515625 145.6999969482422 21.82117462158203
vertex 62.35810852050781 140.3000030517578 21.200000762939453
vertex 62.35810852050781 145.12379455566406 21.200000762939453
endloop
endfacet
facet normal 0.17436104540122987 0.9284734971833495 0.3279255874046897
outer loop
vertex 62.35810852050781 145.6999969482422 21.200000762939453
vertex 60.45475387573242 146.05743408203125 21.200000762939453
vertex 61.189849853515625 145.6999969482422 21.82117462158203
endloop
endfacet
facet normal 0.4694713900209456 -0.0 0.882947684719656
outer loop
vertex 62.35810852050781 145.12379455566406 21.200000762939453
vertex 62.35810852050781 145.6999969482422 21.200000762939453
vertex 61.189849853515625 145.6999969482422 21.82117462158203
endloop
endfacet
facet normal -0.0 0.0 1.0
outer loop
vertex 31.0 163.0 21.0
vertex 75.68635559082031 149.1999969482422 21.0
vertex 91.0 163.0 21.0
endloop
endfacet
facet normal -0.45749297944728046 -0.8892132330079496 0.0
outer loop
vertex 75.68635559082031 149.1999969482422 14.218764305114746
vertex 76.62529754638672 148.7169189453125 15.984660148620605
vertex 76.62529754638672 148.7169189453125 21.0
endloop
endfacet
facet normal -0.45749297944728046 -0.8892132330079497 0.0
outer loop
vertex 75.68635559082031 149.1999969482422 14.218764305114746
vertex 76.62529754638672 148.7169189453125 21.0
vertex 75.68635559082031 149.1999969482422 21.0
endloop
endfacet
facet normal 0.0 -0.0 1.0
outer loop
vertex 76.62529754638672 123.0 21.0
vertex 91.0 163.0 21.0
vertex 76.62529754638672 148.7169189453125 21.0
endloop
endfacet
facet normal 0.0 -0.0 1.0
outer loop
vertex 76.62529754638672 148.7169189453125 21.0
vertex 91.0 163.0 21.0
vertex 75.68635559082031 149.1999969482422 21.0
endloop
endfacet
facet normal -0.0 1.0 0.0
outer loop
vertex 31.0 163.0 21.0
vertex 91.0 163.0 21.0
vertex 91.0 163.0 10.0
endloop
endfacet
facet normal 0.0 -1.0 0.0
outer loop
vertex 62.20975112915039 139.5 7.5966572761535645
vertex 62.622764587402344 139.5 7.355183124542236
vertex 62.75115966796875 139.5 7.5966572761535645
endloop
endfacet
facet normal 0.0 -0.9999999999999999 -0.0
outer loop
vertex 63.81325912475586 139.5 7.96801233291626
vertex 62.75115966796875 139.5 7.5966572761535645
vertex 64.51167297363281 139.5 7.5966572761535645
endloop
endfacet
facet normal 0.8829467089144667 0.0 -0.46947322523985563
outer loop
vertex 65.8117446899414 139.14999389648438 9.170541763305664
vertex 64.97489166259766 139.46194458007812 7.5966572761535645
vertex 64.97489166259766 139.5 7.5966572761535645
endloop
endfacet
facet normal 0.0 -1.0 0.0
outer loop
vertex 54.38036346435547 139.5 10.718433380126953
vertex 60.25157165527344 139.5 7.5966572761535645
vertex 62.20975112915039 139.5 7.5966572761535645
endloop
endfacet
facet normal 0.0 -1.0 0.0
outer loop
vertex 54.38036346435547 139.5 10.718433380126953
vertex 62.20975112915039 139.5 7.5966572761535645
vertex 62.75115966796875 139.5 7.5966572761535645
endloop
endfacet
facet normal -0.46947148465854327 -0.0 -0.8829476343999701
outer loop
vertex 54.38036346435547 139.5 10.718433380126953
vertex 60.25157165527344 146.5 7.5966572761535645
vertex 60.25157165527344 139.5 7.5966572761535645
endloop
endfacet
facet normal 0.0 -1.0 0.0
outer loop
vertex 54.38036346435547 139.5 10.718433380126953
vertex 62.75115966796875 139.5 7.5966572761535645
vertex 63.81325912475586 139.5 7.96801233291626
endloop
endfacet
facet normal -0.08092450028907748 -0.9850302796815034 -0.152205694254658
outer loop
vertex 64.75220489501953 139.14999389648438 9.733907699584961
vertex 64.51167297363281 139.5 7.5966572761535645
vertex 64.97489166259766 139.46194458007812 7.5966572761535645
endloop
endfacet
facet normal -0.08092928830106806 -0.9850299772305218 -0.1522051058681032
outer loop
vertex 63.81325912475586 139.5 7.96801233291626
vertex 64.51167297363281 139.5 7.5966572761535645
vertex 64.75220489501953 139.14999389648438 9.733907699584961
endloop
endfacet
facet normal -0.08092923391706687 -0.9850298248299175 -0.1522061210764486
outer loop
vertex 64.75220489501953 139.14999389648438 9.733907699584961
vertex 64.97489166259766 139.46194458007812 7.5966572761535645
vertex 65.8117446899414 139.14999389648438 9.170541763305664
endloop
endfacet
facet normal 0.0 -0.9999999999999999 0.0
outer loop
vertex 54.38036346435547 139.5 10.718433380126953
vertex 63.81325912475586 139.5 7.96801233291626
vertex 59.186614990234375 139.5 10.428043365478516
endloop
endfacet
facet normal 0.0 -1.0 0.0
outer loop
vertex 54.38036346435547 139.5 10.718433380126953
vertex 59.186614990234375 139.5 10.428043365478516
vertex 58.127079010009766 139.5 10.991409301757812
endloop
endfacet
facet normal 0.0 -1.0 -0.0
outer loop
vertex 69.09803771972656 139.5 15.351175308227539
vertex 64.97489166259766 139.5 7.5966572761535645
vertex 68.57646942138672 139.5 7.5966572761535645
endloop
endfacet
facet normal 0.8829477966229804 1.1800215377214761e-05 -0.4694711794129423
outer loop
vertex 65.8117446899414 139.14999389648438 9.170541763305664
vertex 64.97489166259766 139.5 7.5966572761535645
vertex 69.09803771972656 139.5 15.351175308227539
endloop
endfacet
facet normal -0.08092913907833499 -0.9850299448579014 -0.15220539471805572
outer loop
vertex 58.127079010009766 139.5 10.991409301757812
vertex 59.186614990234375 139.5 10.428043365478516
vertex 59.06602096557617 139.14999389648438 12.757304191589355
endloop
endfacet
facet normal -0.08092913907833499 -0.9850299448579014 -0.15220539471805572
outer loop
vertex 59.186614990234375 139.5 10.428043365478516
vertex 60.12555694580078 139.14999389648438 12.193938255310059
vertex 59.06602096557617 139.14999389648438 12.757304191589355
endloop
endfacet
facet normal 0.0 -0.9999999999999999 0.0
outer loop
vertex 59.186614990234375 139.5 10.428043365478516
vertex 63.81325912475586 139.5 7.96801233291626
vertex 68.03850555419922 139.5 15.914542198181152
endloop
endfacet
facet normal 0.0 -1.0 0.0
outer loop
vertex 54.38036346435547 139.5 10.718433380126953
vertex 58.127079010009766 139.5 10.991409301757812
vertex 62.35232162475586 139.5 18.937936782836914
endloop
endfacet
facet normal -0.8829475214051713 -5.559418012628942e-06 0.46947169713791853
outer loop
vertex 63.81325912475586 139.5 7.96801233291626
vertex 64.75220489501953 139.14999389648438 9.733907699584961
vertex 68.03850555419922 139.5 15.914542198181152
endloop
endfacet
facet normal 0.0 -0.9999999999999999 0.0
outer loop
vertex 64.75220489501953 139.14999389648438 9.733907699584961
vertex 65.8117446899414 139.14999389648438 9.170541763305664
vertex 67.56903076171875 139.14999389648438 15.031593322753906
endloop
endfacet
facet normal 0.0 -1.0 -0.0
outer loop
vertex 69.09803771972656 139.5 15.351175308227539
vertex 68.57646942138672 139.5 7.5966572761535645
vertex 71.90581512451172 139.5 13.858255386352539
endloop
endfacet
facet normal 0.8829478891683007 0.0 -0.4694710055085854
outer loop
vertex 71.90581512451172 139.5 13.858255386352539
vertex 68.57646942138672 139.5 7.5966572761535645
vertex 71.90581512451172 146.5 13.858255386352539
endloop
endfacet
facet normal 0.0 -0.9999999999999999 0.0
outer loop
vertex 65.8117446899414 139.14999389648438 9.170541763305664
vertex 68.62857055664062 139.14999389648438 14.46822738647461
vertex 67.56903076171875 139.14999389648438 15.031593322753906
endloop
endfacet
facet normal 0.8829478377771957 -1.7055799043735034e-06 -0.469471102158233
outer loop
vertex 65.8117446899414 139.14999389648438 9.170541763305664
vertex 69.56751251220703 139.5 16.234121322631836
vertex 68.62857055664062 139.14999389648438 14.46822738647461
endloop
endfacet
facet normal 0.882945902423406 9.233576835603822e-05 -0.4694747329386569
outer loop
vertex 65.8117446899414 139.14999389648438 9.170541763305664
vertex 69.09803771972656 139.5 15.351175308227539
vertex 69.56751251220703 139.5 16.234121322631836
endloop
endfacet
facet normal -0.8829476387260138 1.9963566138703362e-06 0.4694714765181916
outer loop
vertex 58.127079010009766 139.5 10.991409301757812
vertex 59.06602096557617 139.14999389648438 12.757304191589355
vertex 62.35232162475586 139.5 18.937936782836914
endloop
endfacet
facet normal 0.8829474630242292 -4.134844048642147e-06 -0.4694718069511526
outer loop
vertex 59.186614990234375 139.5 10.428043365478516
vertex 63.411861419677734 139.5 18.374570846557617
vertex 60.12555694580078 139.14999389648438 12.193938255310059
endloop
endfacet
facet normal 0.0 -1.0 0.0
outer loop
vertex 59.06602096557617 139.14999389648438 12.757304191589355
vertex 60.12555694580078 139.14999389648438 12.193938255310059
vertex 61.882850646972656 139.14999389648438 18.054988861083984
endloop
endfacet
facet normal 0.0 -1.0 0.0
outer loop
vertex 59.186614990234375 139.5 10.428043365478516
vertex 68.03850555419922 139.5 15.914542198181152
vertex 63.411861419677734 139.5 18.374570846557617
endloop
endfacet
facet normal 0.0 -1.0 0.0
outer loop
vertex 60.12555694580078 139.14999389648438 12.193938255310059
vertex 62.942386627197266 139.14999389648438 17.491622924804688
vertex 61.882850646972656 139.14999389648438 18.054988861083984
endloop
endfacet
facet normal 0.8829475391907297 -5.1362779761811736e-06 -0.469471663692979
outer loop
vertex 60.12555694580078 139.14999389648438 12.193938255310059
vertex 63.88133239746094 139.5 19.257518768310547
vertex 62.942386627197266 139.14999389648438 17.491622924804688
endloop
endfacet
facet normal -0.8829478377771957 1.7055799043735034e-06 0.469471102158233
outer loop
vertex 64.75220489501953 139.14999389648438 9.733907699584961
vertex 67.56903076171875 139.14999389648438 15.031593322753906
vertex 68.50797271728516 139.5 16.797487258911133
endloop
endfacet
facet normal -0.8829488573627896 5.140209423239722e-05 0.4694691817782814
outer loop
vertex 64.75220489501953 139.14999389648438 9.733907699584961
vertex 68.50797271728516 139.5 16.797487258911133
vertex 68.03850555419922 139.5 15.914542198181152
endloop
endfacet
facet normal 0.17435707914779072 -0.9284767911063075 0.3279183699154185
outer loop
vertex 69.09803771972656 139.5 15.351175308227539
vertex 71.90581512451172 139.5 13.858255386352539
vertex 69.21541595458984 139.60000610351562 15.571924209594727
endloop
endfacet
facet normal 0.994153764827807 0.0 -0.1079735702785512
outer loop
vertex 71.90581512451172 139.5 13.858255386352539
vertex 71.90581512451172 146.5 13.858255386352539
vertex 72.13839721679688 140.3000030517578 15.999727249145508
endloop
endfacet
facet normal 0.08092894498603465 -0.9850299325340827 0.15220557767489215
outer loop
vertex 67.56903076171875 139.14999389648438 15.031593322753906
vertex 68.62857055664062 139.14999389648438 14.46822738647461
vertex 68.50797271728516 139.5 16.797487258911133
endloop
endfacet
facet normal 0.08092894498603465 -0.9850299325340827 0.15220557767489215
outer loop
vertex 68.62857055664062 139.14999389648438 14.46822738647461
vertex 69.56751251220703 139.5 16.234121322631836
vertex 68.50797271728516 139.5 16.797487258911133
endloop
endfacet
facet normal 0.8829459058889605 -2.599831693176089e-05 -0.46947473478134083
outer loop
vertex 69.09803771972656 139.5 15.351175308227539
vertex 69.21541595458984 139.60000610351562 15.571924209594727
vertex 69.56751251220703 139.5 16.234121322631836
endloop
endfacet
facet normal 0.8829475337217126 0.0 -0.469471674006798
outer loop
vertex 69.21541595458984 139.60000610351562 15.571924209594727
vertex 69.56751251220703 139.60000610351562 16.234121322631836
vertex 69.56751251220703 139.5 16.234121322631836
endloop
endfacet
facet normal 0.174357935017555 -0.928475921209073 0.3279203778836829
outer loop
vertex 68.15587615966797 139.60000610351562 16.135290145874023
vertex 69.21541595458984 139.60000610351562 15.571924209594727
vertex 72.13839721679688 140.3000030517578 15.999727249145508
endloop
endfacet
facet normal -0.0 1.0 0.0
outer loop
vertex 68.15587615966797 139.60000610351562 16.135290145874023
vertex 68.50797271728516 139.60000610351562 16.797487258911133
vertex 69.21541595458984 139.60000610351562 15.571924209594727
endloop
endfacet
facet normal -0.8829488583315243 -2.116266831102766e-05 0.46946918229336343
outer loop
vertex 68.03850555419922 139.5 15.914542198181152
vertex 68.50797271728516 139.5 16.797487258911133
vertex 68.15587615966797 139.60000610351562 16.135290145874023
endloop
endfacet
facet normal 0.0 1.0 0.0
outer loop
vertex 68.50797271728516 139.60000610351562 16.797487258911133
vertex 69.56751251220703 139.60000610351562 16.234121322631836
vertex 69.21541595458984 139.60000610351562 15.571924209594727
endloop
endfacet
facet normal 0.17435805077436176 -0.9284760844629034 0.32791985409639457
outer loop
vertex 69.21541595458984 139.60000610351562 15.571924209594727
vertex 71.90581512451172 139.5 13.858255386352539
vertex 72.13839721679688 140.3000030517578 15.999727249145508
endloop
endfacet
facet normal 0.0 -1.0 0.0
outer loop
vertex 54.38036346435547 139.5 10.718433380126953
vertex 62.35232162475586 139.5 18.937936782836914
vertex 59.54454803466797 139.5 20.430856704711914
endloop
endfacet
facet normal -0.8829476876577945 0.0 0.46947138449510817
outer loop
vertex 54.38036346435547 139.5 10.718433380126953
vertex 59.54454803466797 139.5 20.430856704711914
vertex 59.54454803466797 146.5 20.430856704711914
endloop
endfacet
facet normal 0.8829479076074848 -2.3083955040886644e-05 -0.46947097026194884
outer loop
vertex 60.12555694580078 139.14999389648438 12.193938255310059
vertex 63.411861419677734 139.5 18.374570846557617
vertex 63.88133239746094 139.5 19.257518768310547
endloop
endfacet
facet normal -0.8829475391934883 -4.48691867557591e-06 0.4694716636944458
outer loop
vertex 59.06602096557617 139.14999389648438 12.757304191589355
vertex 61.882850646972656 139.14999389648438 18.054988861083984
vertex 62.82179260253906 139.5 19.820884704589844
endloop
endfacet
facet normal -0.882947907762741 1.3460754376156553e-05 0.4694709703444999
outer loop
vertex 59.06602096557617 139.14999389648438 12.757304191589355
vertex 62.82179260253906 139.5 19.820884704589844
vertex 62.35232162475586 139.5 18.937936782836914
endloop
endfacet
facet normal 0.17435839250834415 -0.9284758737489299 0.32792026901072624
outer loop
vertex 63.411861419677734 139.5 18.374570846557617
vertex 68.15587615966797 139.60000610351562 16.135290145874023
vertex 63.52923583984375 139.60000610351562 18.595319747924805
endloop
endfacet
facet normal 0.08092910601789009 -0.9850299571817034 0.15220533254047514
outer loop
vertex 61.882850646972656 139.14999389648438 18.054988861083984
vertex 62.942386627197266 139.14999389648438 17.491622924804688
vertex 62.82179260253906 139.5 19.820884704589844
endloop
endfacet
facet normal 0.8829479078388183 -2.97764938453466e-06 -0.46947097038495084
outer loop
vertex 63.411861419677734 139.5 18.374570846557617
vertex 63.52923583984375 139.60000610351562 18.595319747924805
vertex 63.88133239746094 139.5 19.257518768310547
endloop
endfacet
facet normal 0.17435843530404277 -0.9284755976531509 0.32792102799447076
outer loop
vertex 59.54454803466797 139.5 20.430856704711914
vertex 62.469696044921875 139.60000610351562 19.158687591552734
vertex 72.13839721679688 140.3000030517578 15.999727249145508
endloop
endfacet
facet normal 0.08092880855145042 -0.9850299833923555 0.15220532107813667
outer loop
vertex 62.942386627197266 139.14999389648438 17.491622924804688
vertex 63.88133239746094 139.5 19.257518768310547
vertex 62.82179260253906 139.5 19.820884704589844
endloop
endfacet
facet normal 0.8829480942467574 0.0 -0.46947061981131394
outer loop
vertex 63.52923583984375 139.60000610351562 18.595319747924805
vertex 63.88133239746094 139.60000610351562 19.257518768310547
vertex 63.88133239746094 139.5 19.257518768310547
endloop
endfacet
facet normal 0.17435981067616682 -0.9284745250351439 0.3279233336951416
outer loop
vertex 63.411861419677734 139.5 18.374570846557617
vertex 68.03850555419922 139.5 15.914542198181152
vertex 68.15587615966797 139.60000610351562 16.135290145874023
endloop
endfacet
facet normal -0.8829475337217126 0.0 0.469471674006798
outer loop
vertex 68.15587615966797 139.60000610351562 16.135290145874023
vertex 68.50797271728516 139.5 16.797487258911133
vertex 68.50797271728516 139.60000610351562 16.797487258911133
endloop
endfacet
facet normal 0.46947067541089976 0.0 0.8829480646840072
outer loop
vertex 68.50797271728516 139.5 16.797487258911133
vertex 69.56751251220703 139.60000610351562 16.234121322631836
vertex 68.50797271728516 139.60000610351562 16.797487258911133
endloop
endfacet
facet normal 0.46947067541089976 -0.0 0.8829480646840072
outer loop
vertex 68.50797271728516 139.5 16.797487258911133
vertex 69.56751251220703 139.5 16.234121322631836
vertex 69.56751251220703 139.60000610351562 16.234121322631836
endloop
endfacet
facet normal 0.1743579600484648 -0.9284762422158378 0.3279194556724181
outer loop
vertex 63.52923583984375 139.60000610351562 18.595319747924805
vertex 68.15587615966797 139.60000610351562 16.135290145874023
vertex 72.13839721679688 140.3000030517578 15.999727249145508
endloop
endfacet
facet normal 0.1743578835112134 -0.9284763571995783 0.3279191708011155
outer loop
vertex 62.469696044921875 139.60000610351562 19.158687591552734
vertex 63.52923583984375 139.60000610351562 18.595319747924805
vertex 72.13839721679688 140.3000030517578 15.999727249145508
endloop
endfacet
facet normal -0.8829479078269651 -5.976252247688873e-06 0.4694709703786484
outer loop
vertex 62.35232162475586 139.5 18.937936782836914
vertex 62.82179260253906 139.5 19.820884704589844
vertex 62.469696044921875 139.60000610351562 19.158687591552734
endloop
endfacet
facet normal 0.17435732803091733 -0.9284767363993907 0.32791839248059185
outer loop
vertex 59.54454803466797 139.5 20.430856704711914
vertex 62.35232162475586 139.5 18.937936782836914
vertex 62.469696044921875 139.60000610351562 19.158687591552734
endloop
endfacet
facet normal -0.8829475337217126 0.0 0.469471674006798
outer loop
vertex 62.469696044921875 139.60000610351562 19.158687591552734
vertex 62.82179260253906 139.5 19.820884704589844
vertex 62.82179260253906 139.60000610351562 19.820884704589844
endloop
endfacet
facet normal -0.0 1.0 0.0
outer loop
vertex 62.469696044921875 139.60000610351562 19.158687591552734
vertex 62.82179260253906 139.60000610351562 19.820884704589844
vertex 63.52923583984375 139.60000610351562 18.595319747924805
endloop
endfacet
facet normal 0.0 1.0 0.0
outer loop
vertex 62.82179260253906 139.60000610351562 19.820884704589844
vertex 63.88133239746094 139.60000610351562 19.257518768310547
vertex 63.52923583984375 139.60000610351562 18.595319747924805
endloop
endfacet
facet normal 0.17435610974861118 -0.9284785574305929 0.3279138840990658
outer loop
vertex 59.54454803466797 139.5 20.430856704711914
vertex 72.13839721679688 140.3000030517578 15.999727249145508
vertex 60.45475387573242 139.94256591796875 21.200000762939453
endloop
endfacet
facet normal 0.46947067541089976 -0.0 0.8829480646840072
outer loop
vertex 62.82179260253906 139.5 19.820884704589844
vertex 63.88133239746094 139.5 19.257518768310547
vertex 63.88133239746094 139.60000610351562 19.257518768310547
endloop
endfacet
facet normal 0.46947067541089976 0.0 0.8829480646840072
outer loop
vertex 62.82179260253906 139.5 19.820884704589844
vertex 63.88133239746094 139.60000610351562 19.257518768310547
vertex 62.82179260253906 139.60000610351562 19.820884704589844
endloop
endfacet
facet normal 0.17436106063233336 -0.9284735782890569 0.32792534966708914
outer loop
vertex 72.13839721679688 140.3000030517578 15.999727249145508
vertex 62.35810852050781 140.3000030517578 21.200000762939453
vertex 60.45475387573242 139.94256591796875 21.200000762939453
endloop
endfacet
facet normal -0.6454382829397076 -2.1304087352494078e-07 0.7638124265261705
outer loop
vertex 59.54454803466797 139.5 20.430856704711914
vertex 60.45475387573242 139.94256591796875 21.200000762939453
vertex 61.189849853515625 145.6999969482422 21.82117462158203
endloop
endfacet
facet normal -0.6454392564047853 0.0 0.7638116039257572
outer loop
vertex 60.45475387573242 139.94256591796875 21.200000762939453
vertex 61.189849853515625 140.3000030517578 21.82117462158203
vertex 61.189849853515625 145.6999969482422 21.82117462158203
endloop
endfacet
facet normal 0.4694716873317721 0.0 0.8829475266366958
outer loop
vertex 72.13839721679688 140.3000030517578 15.999727249145508
vertex 62.35810852050781 145.12379455566406 21.200000762939453
vertex 62.35810852050781 140.3000030517578 21.200000762939453
endloop
endfacet
facet normal -0.0 1.0 0.0
outer loop
vertex 62.20975112915039 146.5 7.5966572761535645
vertex 62.75115966796875 146.5 7.5966572761535645
vertex 62.622764587402344 146.5 7.355183124542236
endloop
endfacet
facet normal 0.0 0.9999999999999999 0.0
outer loop
vertex 63.81325912475586 146.5 7.96801233291626
vertex 64.51167297363281 146.5 7.5966572761535645
vertex 62.75115966796875 146.5 7.5966572761535645
endloop
endfacet
facet normal -0.08092446291965219 0.9850298248128875 -0.1522086578689197
outer loop
vertex 65.8117446899414 146.85000610351562 9.170541763305664
vertex 64.97489166259766 146.53805541992188 7.5966572761535645
vertex 64.51167297363281 146.5 7.5966572761535645
endloop
endfacet
facet normal 0.8829467089144667 0.0 -0.46947322523985563
outer loop
vertex 65.8117446899414 146.85000610351562 9.170541763305664
vertex 64.97489166259766 146.5 7.5966572761535645
vertex 64.97489166259766 146.53805541992188 7.5966572761535645
endloop
endfacet
facet normal 0.0 1.0 0.0
outer loop
vertex 54.38036346435547 146.5 10.718433380126953
vertex 62.20975112915039 146.5 7.5966572761535645
vertex 60.25157165527344 146.5 7.5966572761535645
endloop
endfacet
facet normal 0.0 1.0 0.0
outer loop
vertex 54.38036346435547 146.5 10.718433380126953
vertex 62.75115966796875 146.5 7.5966572761535645
vertex 62.20975112915039 146.5 7.5966572761535645
endloop
endfacet
facet normal 0.0 1.0 0.0
outer loop
vertex 54.38036346435547 146.5 10.718433380126953
vertex 63.81325912475586 146.5 7.96801233291626
vertex 62.75115966796875 146.5 7.5966572761535645
endloop
endfacet
facet normal -0.08092928830106806 0.9850299772305218 -0.1522051058681032
outer loop
vertex 63.81325912475586 146.5 7.96801233291626
vertex 64.75220489501953 146.85000610351562 9.733907699584961
vertex 64.51167297363281 146.5 7.5966572761535645
endloop
endfacet
facet normal -0.08092873056522865 0.9850300124629839 -0.15220517440702983
outer loop
vertex 64.75220489501953 146.85000610351562 9.733907699584961
vertex 65.8117446899414 146.85000610351562 9.170541763305664
vertex 64.51167297363281 146.5 7.5966572761535645
endloop
endfacet
facet normal -0.46947148465854327 0.0 -0.8829476343999701
outer loop
vertex 54.38036346435547 139.5 10.718433380126953
vertex 54.38036346435547 146.5 10.718433380126953
vertex 60.25157165527344 146.5 7.5966572761535645
endloop
endfacet
facet normal 0.0 0.9999999999999999 0.0
outer loop
vertex 54.38036346435547 146.5 10.718433380126953
vertex 59.186614990234375 146.5 10.428043365478516
vertex 63.81325912475586 146.5 7.96801233291626
endloop
endfacet
facet normal -0.0 1.0 0.0
outer loop
vertex 54.38036346435547 146.5 10.718433380126953
vertex 58.127079010009766 146.5 10.991409301757812
vertex 59.186614990234375 146.5 10.428043365478516
endloop
endfacet
facet normal 0.8829478891683007 0.0 -0.4694710055085854
outer loop
vertex 71.90581512451172 146.5 13.858255386352539
vertex 68.57646942138672 139.5 7.5966572761535645
vertex 68.57646942138672 146.5 7.5966572761535645
endloop
endfacet
facet normal 0.0 1.0 0.0
outer loop
vertex 69.09803771972656 146.5 15.351175308227539
vertex 68.57646942138672 146.5 7.5966572761535645
vertex 64.97489166259766 146.5 7.5966572761535645
endloop
endfacet
facet normal 0.8829477966229804 -1.1800215377214761e-05 -0.4694711794129423
outer loop
vertex 65.8117446899414 146.85000610351562 9.170541763305664
vertex 69.09803771972656 146.5 15.351175308227539
vertex 64.97489166259766 146.5 7.5966572761535645
endloop
endfacet
facet normal -0.08092913907833499 0.9850299448579014 -0.15220539471805572
outer loop
vertex 58.127079010009766 146.5 10.991409301757812
vertex 59.06602096557617 146.85000610351562 12.757304191589355
vertex 59.186614990234375 146.5 10.428043365478516
endloop
endfacet
facet normal -0.08092913907833499 0.9850299448579014 -0.15220539471805572
outer loop
vertex 59.186614990234375 146.5 10.428043365478516
vertex 59.06602096557617 146.85000610351562 12.757304191589355
vertex 60.12555694580078 146.85000610351562 12.193938255310059
endloop
endfacet
facet normal -0.0 0.9999999999999999 0.0
outer loop
vertex 59.186614990234375 146.5 10.428043365478516
vertex 63.411861419677734 146.5 18.374570846557617
vertex 63.81325912475586 146.5 7.96801233291626
endloop
endfacet
facet normal -0.8829475214051713 5.559418012628942e-06 0.46947169713791853
outer loop
vertex 63.81325912475586 146.5 7.96801233291626
vertex 68.03850555419922 146.5 15.914542198181152
vertex 64.75220489501953 146.85000610351562 9.733907699584961
endloop
endfacet
facet normal -0.0 0.9999999999999999 0.0
outer loop
vertex 64.75220489501953 146.85000610351562 9.733907699584961
vertex 67.56903076171875 146.85000610351562 15.031593322753906
vertex 65.8117446899414 146.85000610351562 9.170541763305664
endloop
endfacet
facet normal 0.0 1.0 0.0
outer loop
vertex 69.09803771972656 146.5 15.351175308227539
vertex 71.90581512451172 146.5 13.858255386352539
vertex 68.57646942138672 146.5 7.5966572761535645
endloop
endfacet
facet normal -0.0 0.9999999999999999 0.0
outer loop
vertex 65.8117446899414 146.85000610351562 9.170541763305664
vertex 67.56903076171875 146.85000610351562 15.031593322753906
vertex 68.62857055664062 146.85000610351562 14.46822738647461
endloop
endfacet
facet normal 0.8829478377771957 1.7055799043735034e-06 -0.469471102158233
outer loop
vertex 65.8117446899414 146.85000610351562 9.170541763305664
vertex 68.62857055664062 146.85000610351562 14.46822738647461
vertex 69.56751251220703 146.5 16.234121322631836
endloop
endfacet
facet normal 0.882945902423406 -9.233576835603822e-05 -0.4694747329386569
outer loop
vertex 65.8117446899414 146.85000610351562 9.170541763305664
vertex 69.56751251220703 146.5 16.234121322631836
vertex 69.09803771972656 146.5 15.351175308227539
endloop
endfacet
facet normal -0.8829476876577945 0.0 0.46947138449510817
outer loop
vertex 54.38036346435547 139.5 10.718433380126953
vertex 59.54454803466797 146.5 20.430856704711914
vertex 54.38036346435547 146.5 10.718433380126953
endloop
endfacet
facet normal -0.0 1.0 0.0
outer loop
vertex 54.38036346435547 146.5 10.718433380126953
vertex 59.54454803466797 146.5 20.430856704711914
vertex 58.127079010009766 146.5 10.991409301757812
endloop
endfacet
facet normal -0.8829476387260138 -1.9963566138703362e-06 0.4694714765181916
outer loop
vertex 58.127079010009766 146.5 10.991409301757812
vertex 62.35232162475586 146.5 18.937936782836914
vertex 59.06602096557617 146.85000610351562 12.757304191589355
endloop
endfacet
facet normal 0.8829474630242292 4.134844048642147e-06 -0.4694718069511526
outer loop
vertex 59.186614990234375 146.5 10.428043365478516
vertex 60.12555694580078 146.85000610351562 12.193938255310059
vertex 63.411861419677734 146.5 18.374570846557617
endloop
endfacet
facet normal -0.0 1.0 -0.0
outer loop
vertex 63.81325912475586 146.5 7.96801233291626
vertex 63.411861419677734 146.5 18.374570846557617
vertex 68.03850555419922 146.5 15.914542198181152
endloop
endfacet
facet normal -0.0 1.0 0.0
outer loop
vertex 59.06602096557617 146.85000610351562 12.757304191589355
vertex 61.882850646972656 146.85000610351562 18.054988861083984
vertex 60.12555694580078 146.85000610351562 12.193938255310059
endloop
endfacet
facet normal -0.0 1.0 0.0
outer loop
vertex 60.12555694580078 146.85000610351562 12.193938255310059
vertex 61.882850646972656 146.85000610351562 18.054988861083984
vertex 62.942386627197266 146.85000610351562 17.491622924804688
endloop
endfacet
facet normal 0.8829475391907297 5.1362779761811736e-06 -0.469471663692979
outer loop
vertex 60.12555694580078 146.85000610351562 12.193938255310059
vertex 62.942386627197266 146.85000610351562 17.491622924804688
vertex 63.88133239746094 146.5 19.257518768310547
endloop
endfacet
facet normal -0.8829478377771957 -1.7055799043735034e-06 0.469471102158233
outer loop
vertex 64.75220489501953 146.85000610351562 9.733907699584961
vertex 68.50797271728516 146.5 16.797487258911133
vertex 67.56903076171875 146.85000610351562 15.031593322753906
endloop
endfacet
facet normal -0.8829488573627896 -5.140209423239722e-05 0.4694691817782814
outer loop
vertex 64.75220489501953 146.85000610351562 9.733907699584961
vertex 68.03850555419922 146.5 15.914542198181152
vertex 68.50797271728516 146.5 16.797487258911133
endloop
endfacet
facet normal 0.17435707914779072 0.9284767911063075 0.3279183699154185
outer loop
vertex 69.21541595458984 146.39999389648438 15.571924209594727
vertex 71.90581512451172 146.5 13.858255386352539
vertex 69.09803771972656 146.5 15.351175308227539
endloop
endfacet
facet normal 0.08092894498603465 0.9850299325340827 0.15220557767489215
outer loop
vertex 67.56903076171875 146.85000610351562 15.031593322753906
vertex 68.50797271728516 146.5 16.797487258911133
vertex 68.62857055664062 146.85000610351562 14.46822738647461
endloop
endfacet
facet normal 0.08092894498603465 0.9850299325340827 0.15220557767489215
outer loop
vertex 68.62857055664062 146.85000610351562 14.46822738647461
vertex 68.50797271728516 146.5 16.797487258911133
vertex 69.56751251220703 146.5 16.234121322631836
endloop
endfacet
facet normal 0.0 -1.0 0.0
outer loop
vertex 68.15587615966797 146.39999389648438 16.135292053222656
vertex 69.21541595458984 146.39999389648438 15.571924209594727
vertex 69.56751251220703 146.39999389648438 16.234121322631836
endloop
endfacet
facet normal 0.8829459058889605 2.599831693176089e-05 -0.46947473478134083
outer loop
vertex 69.21541595458984 146.39999389648438 15.571924209594727
vertex 69.09803771972656 146.5 15.351175308227539
vertex 69.56751251220703 146.5 16.234121322631836
endloop
endfacet
facet normal 0.8829475337217126 0.0 -0.469471674006798
outer loop
vertex 69.21541595458984 146.39999389648438 15.571924209594727
vertex 69.56751251220703 146.5 16.234121322631836
vertex 69.56751251220703 146.39999389648438 16.234121322631836
endloop
endfacet
facet normal -0.8829488581288225 3.0116535833358503e-05 0.4694691821855857
outer loop
vertex 68.15587615966797 146.39999389648438 16.135292053222656
vertex 68.50797271728516 146.5 16.797487258911133
vertex 68.03850555419922 146.5 15.914542198181152
endloop
endfacet
facet normal 0.994153764827807 0.0 -0.1079735702785512
outer loop
vertex 72.13839721679688 140.3000030517578 15.999727249145508
vertex 71.90581512451172 146.5 13.858255386352539
vertex 72.13839721679688 145.6999969482422 15.999727249145508
endloop
endfacet
facet normal -0.0 1.0 0.0
outer loop
vertex 58.127079010009766 146.5 10.991409301757812
vertex 59.54454803466797 146.5 20.430856704711914
vertex 62.35232162475586 146.5 18.937936782836914
endloop
endfacet
facet normal 0.8829479076074848 2.3083955040886644e-05 -0.46947097026194884
outer loop
vertex 60.12555694580078 146.85000610351562 12.193938255310059
vertex 63.88133239746094 146.5 19.257518768310547
vertex 63.411861419677734 146.5 18.374570846557617
endloop
endfacet
facet normal -0.8829475391934883 4.48691867557591e-06 0.4694716636944458
outer loop
vertex 59.06602096557617 146.85000610351562 12.757304191589355
vertex 62.82179260253906 146.5 19.820884704589844
vertex 61.882850646972656 146.85000610351562 18.054988861083984
endloop
endfacet
facet normal -0.882947907762741 -1.3460754376156553e-05 0.4694709703444999
outer loop
vertex 59.06602096557617 146.85000610351562 12.757304191589355
vertex 62.35232162475586 146.5 18.937936782836914
vertex 62.82179260253906 146.5 19.820884704589844
endloop
endfacet
facet normal 0.17435822773856163 0.9284758737488947 0.32792035662046765
outer loop
vertex 63.411861419677734 146.5 18.374570846557617
vertex 63.52923583984375 146.39999389648438 18.595319747924805
vertex 68.03850555419922 146.5 15.914542198181152
endloop
endfacet
facet normal 0.08092910601789009 0.9850299571817034 0.15220533254047514
outer loop
vertex 61.882850646972656 146.85000610351562 18.054988861083984
vertex 62.82179260253906 146.5 19.820884704589844
vertex 62.942386627197266 146.85000610351562 17.491622924804688
endloop
endfacet
facet normal 0.8829479078388183 2.97764938453466e-06 -0.46947097038495084
outer loop
vertex 63.411861419677734 146.5 18.374570846557617
vertex 63.88133239746094 146.5 19.257518768310547
vertex 63.52923583984375 146.39999389648438 18.595319747924805
endloop
endfacet
facet normal 0.17435786770024925 0.9284762311035009 0.3279195362384818
outer loop
vertex 63.52923583984375 146.39999389648438 18.595319747924805
vertex 62.35810852050781 145.6999969482422 21.200000762939453
vertex 68.15587615966797 146.39999389648438 16.135292053222656
endloop
endfacet
facet normal 0.08092880855145042 0.9850299833923555 0.15220532107813667
outer loop
vertex 62.942386627197266 146.85000610351562 17.491622924804688
vertex 62.82179260253906 146.5 19.820884704589844
vertex 63.88133239746094 146.5 19.257518768310547
endloop
endfacet
facet normal 0.0 -1.0 0.0
outer loop
vertex 62.469696044921875 146.39999389648438 19.158687591552734
vertex 63.52923583984375 146.39999389648438 18.595319747924805
vertex 63.88133239746094 146.39999389648438 19.257518768310547
endloop
endfacet
facet normal 0.8829480942467574 0.0 -0.46947061981131394
outer loop
vertex 63.52923583984375 146.39999389648438 18.595319747924805
vertex 63.88133239746094 146.5 19.257518768310547
vertex 63.88133239746094 146.39999389648438 19.257518768310547
endloop
endfacet
facet normal 0.17435885756766828 0.9284753877089278 0.3279213979087882
outer loop
vertex 63.52923583984375 146.39999389648438 18.595319747924805
vertex 68.15587615966797 146.39999389648438 16.135292053222656
vertex 68.03850555419922 146.5 15.914542198181152
endloop
endfacet
facet normal 0.1743576688771718 0.9284763622090915 0.32791927074005683
outer loop
vertex 69.21541595458984 146.39999389648438 15.571924209594727
vertex 62.35810852050781 145.6999969482422 21.200000762939453
vertex 71.90581512451172 146.5 13.858255386352539
endloop
endfacet
facet normal 0.0 -1.0 0.0
outer loop
vertex 68.15587615966797 146.39999389648438 16.135292053222656
vertex 69.56751251220703 146.39999389648438 16.234121322631836
vertex 68.50797271728516 146.39999389648438 16.797487258911133
endloop
endfacet
facet normal -0.8829469731928917 0.0 0.46947272820634717
outer loop
vertex 68.15587615966797 146.39999389648438 16.135292053222656
vertex 68.50797271728516 146.39999389648438 16.797487258911133
vertex 68.50797271728516 146.5 16.797487258911133
endloop
endfacet
facet normal 0.46947067541089976 0.0 0.8829480646840072
outer loop
vertex 68.50797271728516 146.39999389648438 16.797487258911133
vertex 69.56751251220703 146.39999389648438 16.234121322631836
vertex 68.50797271728516 146.5 16.797487258911133
endloop
endfacet
facet normal 0.46947067541089976 -0.0 0.8829480646840072
outer loop
vertex 68.50797271728516 146.5 16.797487258911133
vertex 69.56751251220703 146.39999389648438 16.234121322631836
vertex 69.56751251220703 146.5 16.234121322631836
endloop
endfacet
facet normal 0.17435813178228957 0.9284760737687813 0.3279198413031732
outer loop
vertex 72.13839721679688 145.6999969482422 15.999727249145508
vertex 71.90581512451172 146.5 13.858255386352539
vertex 62.35810852050781 145.6999969482422 21.200000762939453
endloop
endfacet
facet normal 0.17435835316506457 0.9284759570428968 0.327920054090694
outer loop
vertex 68.15587615966797 146.39999389648438 16.135292053222656
vertex 62.35810852050781 145.6999969482422 21.200000762939453
vertex 69.21541595458984 146.39999389648438 15.571924209594727
endloop
endfacet
facet normal 0.4694716873317722 -0.0 0.8829475266366961
outer loop
vertex 72.13839721679688 140.3000030517578 15.999727249145508
vertex 72.13839721679688 145.6999969482422 15.999727249145508
vertex 62.35810852050781 145.12379455566406 21.200000762939453
endloop
endfacet
facet normal -0.8829479078269651 5.976252247688873e-06 0.4694709703786484
outer loop
vertex 62.35232162475586 146.5 18.937936782836914
vertex 62.469696044921875 146.39999389648438 19.158687591552734
vertex 62.82179260253906 146.5 19.820884704589844
endloop
endfacet
facet normal 0.17435732803091733 0.9284767363993907 0.32791839248059185
outer loop
vertex 59.54454803466797 146.5 20.430856704711914
vertex 62.469696044921875 146.39999389648438 19.158687591552734
vertex 62.35232162475586 146.5 18.937936782836914
endloop
endfacet
facet normal -0.8829475337217126 0.0 0.469471674006798
outer loop
vertex 62.469696044921875 146.39999389648438 19.158687591552734
vertex 62.82179260253906 146.39999389648438 19.820884704589844
vertex 62.82179260253906 146.5 19.820884704589844
endloop
endfacet
facet normal 0.0 -1.0 0.0
outer loop
vertex 62.469696044921875 146.39999389648438 19.158687591552734
vertex 63.88133239746094 146.39999389648438 19.257518768310547
vertex 62.82179260253906 146.39999389648438 19.820884704589844
endloop
endfacet
facet normal 0.17435812833949207 0.9284761485999935 0.3279196312556962
outer loop
vertex 62.469696044921875 146.39999389648438 19.158687591552734
vertex 62.35810852050781 145.6999969482422 21.200000762939453
vertex 63.52923583984375 146.39999389648438 18.595319747924805
endloop
endfacet
facet normal 0.46947067541089976 -0.0 0.8829480646840072
outer loop
vertex 62.82179260253906 146.5 19.820884704589844
vertex 63.88133239746094 146.39999389648438 19.257518768310547
vertex 63.88133239746094 146.5 19.257518768310547
endloop
endfacet
facet normal 0.46947067541089976 0.0 0.8829480646840072
outer loop
vertex 62.82179260253906 146.39999389648438 19.820884704589844
vertex 63.88133239746094 146.39999389648438 19.257518768310547
vertex 62.82179260253906 146.5 19.820884704589844
endloop
endfacet
facet normal 0.1743556439491917 0.928478468329321 0.3279143840576393
outer loop
vertex 59.54454803466797 146.5 20.430856704711914
vertex 60.45475387573242 146.05743408203125 21.200000762939453
vertex 62.469696044921875 146.39999389648438 19.158687591552734
endloop
endfacet
facet normal -0.645438343372795 0.0 0.7638123754589092
outer loop
vertex 59.54454803466797 139.5 20.430856704711914
vertex 60.45475387573242 146.05743408203125 21.200000762939453
vertex 59.54454803466797 146.5 20.430856704711914
endloop
endfacet
facet normal -0.6454391986774399 2.0349481411328814e-07 0.7638116527067278
outer loop
vertex 59.54454803466797 139.5 20.430856704711914
vertex 61.189849853515625 145.6999969482422 21.82117462158203
vertex 60.45475387573242 146.05743408203125 21.200000762939453
endloop
endfacet
facet normal 0.17436142882480346 0.9284755389159249 0.3279196026055101
outer loop
vertex 62.469696044921875 146.39999389648438 19.158687591552734
vertex 60.45475387573242 146.05743408203125 21.200000762939453
vertex 62.35810852050781 145.6999969482422 21.200000762939453
endloop
endfacet
facet normal 0.4694716873317721 0.0 0.8829475266366958
outer loop
vertex 72.13839721679688 145.6999969482422 15.999727249145508
vertex 62.35810852050781 145.6999969482422 21.200000762939453
vertex 62.35810852050781 145.12379455566406 21.200000762939453
endloop
endfacet

endsolid
