solid 
facet normal -1.0 0.0 0.0
outer loop
vertex 0.0 0.0 0.0
vertex 0.0 0.0 10.0
vertex 0.0 62.0 10.0
endloop
endfacet
facet normal 0.0 0.0 1.0
outer loop
vertex 0.0 0.0 10.0
vertex 58.5 11.0 10.0
vertex 58.5 51.0 10.0
endloop
endfacet
facet normal 0.0 -1.0 0.0
outer loop
vertex 0.0 0.0 0.0
vertex 165.0 0.0 0.0
vertex 0.0 0.0 10.0
endloop
endfacet
facet normal 0.0 -1.0 0.0
outer loop
vertex 0.0 0.0 10.0
vertex 109.19999694824219 0.0 3.950000047683716
vertex 109.19999694824219 0.0 8.050000190734863
endloop
endfacet
facet normal 0.0 -1.0 0.0
outer loop
vertex 0.0 0.0 10.0
vertex 109.19999694824219 0.0 8.050000190734863
vertex 125.80000305175781 0.0 8.050000190734863
endloop
endfacet
facet normal 0.0 -0.0 0.9999999999999999
outer loop
vertex 0.0 0.0 10.0
vertex 165.0 0.0 10.0
vertex 58.5 11.0 10.0
endloop
endfacet
facet normal -0.0 0.0 0.9999999999999999
outer loop
vertex 58.5 11.0 10.0
vertex 68.01557540893555 10.800003051757812 10.0
vertex 68.01557540893555 11.0 10.0
endloop
endfacet
facet normal 0.0 -1.0 0.0
outer loop
vertex 58.5 11.0 10.0
vertex 68.01557540893555 11.0 10.0
vertex 67.50004959106445 11.0 11.741656303405762
endloop
endfacet
facet normal 0.9588762264102245 0.0 0.2838245627589123
outer loop
vertex 68.20425796508789 10.800003051757812 9.362552642822266
vertex 68.01557540893555 11.0 10.0
vertex 68.01557540893555 10.800003051757812 10.0
endloop
endfacet
facet normal -0.0 1.0 -0.0
outer loop
vertex 68.20425796508789 10.800003051757812 9.362552642822266
vertex 68.01557540893555 10.800003051757812 10.0
vertex 86.23188018798828 10.800003051757812 7.5966572761535645
endloop
endfacet
facet normal 0.0 0.0 -1.0
outer loop
vertex 0.0 0.0 0.0
vertex 0.0 62.0 0.0
vertex 165.0 0.0 0.0
endloop
endfacet
facet normal 0.9588762264102245 -0.0 0.2838245627589123
outer loop
vertex 68.20425796508789 10.800003051757812 9.362552642822266
vertex 68.20425796508789 36.58119201660156 9.362552642822266
vertex 68.01557540893555 11.0 10.0
endloop
endfacet
facet normal 0.9588761307681198 8.757091670515575e-09 0.28382488587711874
outer loop
vertex 68.01557540893555 11.0 10.0
vertex 68.20425796508789 36.58119201660156 9.362552642822266
vertex 67.50004959106445 11.0 11.741656303405762
endloop
endfacet
facet normal 0.09748838695087264 0.0 0.9952366625128503
outer loop
vertex 68.20425796508789 10.800003051757812 9.362552642822266
vertex 86.23188018798828 10.800003051757812 7.5966572761535645
vertex 68.20425796508789 36.58119201660156 9.362552642822266
endloop
endfacet
facet normal 0.09748838695087263 -0.0 0.9952366625128501
outer loop
vertex 68.20425796508789 36.58119201660156 9.362552642822266
vertex 86.23188018798828 10.800003051757812 7.5966572761535645
vertex 86.23188018798828 37.19999694824219 7.5966572761535645
endloop
endfacet
facet normal 0.0 -1.0 0.0
outer loop
vertex 58.5 11.0 10.0
vertex 67.50004959106445 11.0 11.741656303405762
vertex 67.2305793762207 11.0 11.823467254638672
endloop
endfacet
facet normal 0.0 -1.0 0.0
outer loop
vertex 67.50004959106445 11.0 11.741656303405762
vertex 67.50004959106445 11.0 11.823467254638672
vertex 67.2305793762207 11.0 11.823467254638672
endloop
endfacet
facet normal 0.0 -1.0 0.0
outer loop
vertex 58.5 11.0 10.0
vertex 67.2305793762207 11.0 11.823467254638672
vertex 67.2305793762207 11.0 21.0
endloop
endfacet
facet normal 0.0 -1.0 0.0
outer loop
vertex 58.5 11.0 10.0
vertex 67.2305793762207 11.0 21.0
vertex 58.5 11.0 21.0
endloop
endfacet
facet normal -1.0 0.0 0.0
outer loop
vertex 58.5 11.0 10.0
vertex 58.5 11.0 21.0
vertex 58.5 51.0 10.0
endloop
endfacet
facet normal 0.0 0.0 1.0
outer loop
vertex 67.2305793762207 11.0 11.823467254638672
vertex 67.50004959106445 11.0 11.823467254638672
vertex 67.50004959106445 34.0 11.823467254638672
endloop
endfacet
facet normal 1.0 0.0 -0.0
outer loop
vertex 67.50004959106445 11.0 11.741656303405762
vertex 67.50004959106445 35.05000305175781 11.741656303405762
vertex 67.50004959106445 11.0 11.823467254638672
endloop
endfacet
facet normal 0.0 -0.0 1.0
outer loop
vertex 67.2305793762207 11.0 11.823467254638672
vertex 67.50004959106445 34.0 11.823467254638672
vertex 67.2305793762207 34.0 11.823467254638672
endloop
endfacet
facet normal 1.0 -0.0 -0.0
outer loop
vertex 67.50004959106445 11.0 11.823467254638672
vertex 67.50004959106445 35.05000305175781 11.741656303405762
vertex 67.50004959106445 34.0 11.823467254638672
endloop
endfacet
facet normal 0.9588761563940852 0.0 0.2838247993021504
outer loop
vertex 67.50004959106445 11.0 11.741656303405762
vertex 68.20425796508789 36.58119201660156 9.362552642822266
vertex 67.50004959106445 35.05000305175781 11.741656303405762
endloop
endfacet
facet normal 1.0 0.0 0.0
outer loop
vertex 67.2305793762207 11.0 11.823467254638672
vertex 67.2305793762207 34.0 11.823467254638672
vertex 67.2305793762207 34.0 21.0
endloop
endfacet
facet normal 1.0 0.0 -0.0
outer loop
vertex 67.2305793762207 11.0 11.823467254638672
vertex 67.2305793762207 34.0 21.0
vertex 67.2305793762207 11.0 21.0
endloop
endfacet
facet normal 0.0 0.0 1.0
outer loop
vertex 58.5 11.0 21.0
vertex 67.2305793762207 11.0 21.0
vertex 67.2305793762207 34.0 21.0
endloop
endfacet
facet normal -1.0 0.0 0.0
outer loop
vertex 0.0 0.0 0.0
vertex 0.0 62.0 10.0
vertex 0.0 62.0 0.0
endloop
endfacet
facet normal 0.0 -0.0 1.0
outer loop
vertex 0.0 0.0 10.0
vertex 58.5 51.0 10.0
vertex 0.0 62.0 10.0
endloop
endfacet
facet normal 0.05825784426630276 -0.9647398445145701 0.25667694868734586
outer loop
vertex 68.20425796508789 36.58119201660156 9.362552642822266
vertex 86.23188018798828 37.19999694824219 7.5966572761535645
vertex 67.96952056884766 37.19999694824219 11.741656303405762
endloop
endfacet
facet normal 0.0 1.0 0.0
outer loop
vertex 0.0 62.0 0.0
vertex 0.0 62.0 10.0
vertex 165.0 62.0 10.0
endloop
endfacet
facet normal -0.0 0.0 1.0
outer loop
vertex 0.0 62.0 10.0
vertex 58.5 51.0 10.0
vertex 118.5 51.0 10.0
endloop
endfacet
facet normal 0.9659022729163576 -0.2109136613134363 0.15016066943902173
outer loop
vertex 68.20425796508789 36.58119201660156 9.362552642822266
vertex 67.96952056884766 37.19999694824219 11.741656303405762
vertex 67.50004959106445 35.05000305175781 11.741656303405762
endloop
endfacet
facet normal 0.0 -1.0 0.0
outer loop
vertex 67.2305793762207 34.0 11.823467254638672
vertex 67.50004959106445 34.0 11.823467254638672
vertex 67.50004959106445 34.0 21.0
endloop
endfacet
facet normal 1.0 -0.0 -0.0
outer loop
vertex 67.50004959106445 34.0 11.823467254638672
vertex 67.50004959106445 35.05000305175781 11.741656303405762
vertex 67.50004959106445 34.0 21.0
endloop
endfacet
facet normal 0.9769796520667614 -0.21333250912017618 0.0
outer loop
vertex 67.50004959106445 35.05000305175781 11.741656303405762
vertex 67.96952056884766 37.19999694824219 11.741656303405762
vertex 67.96952056884766 37.19999694824219 21.0
endloop
endfacet
facet normal -1.0 0.0 0.0
outer loop
vertex 58.5 11.0 21.0
vertex 58.5 51.0 21.0
vertex 58.5 51.0 10.0
endloop
endfacet
facet normal 0.0 -0.0 1.0
outer loop
vertex 58.5 11.0 21.0
vertex 67.2305793762207 34.0 21.0
vertex 58.5 51.0 21.0
endloop
endfacet
facet normal 0.0 -1.0 0.0
outer loop
vertex 67.2305793762207 34.0 11.823467254638672
vertex 67.50004959106445 34.0 21.0
vertex 67.2305793762207 34.0 21.0
endloop
endfacet
facet normal 1.0 0.0 -0.0
outer loop
vertex 67.50004959106445 35.05000305175781 11.741656303405762
vertex 67.50004959106445 35.05000305175781 21.0
vertex 67.50004959106445 34.0 21.0
endloop
endfacet
facet normal 0.9769796520667614 -0.21333250912017618 0.0
outer loop
vertex 67.50004959106445 35.05000305175781 11.741656303405762
vertex 67.96952056884766 37.19999694824219 21.0
vertex 67.50004959106445 35.05000305175781 21.0
endloop
endfacet
facet normal 0.0 -1.0 0.0
outer loop
vertex 67.96952056884766 37.19999694824219 11.741656303405762
vertex 103.18635559082031 37.19999694824219 21.0
vertex 67.96952056884766 37.19999694824219 21.0
endloop
endfacet
facet normal 0.0 0.0 0.9999999999999999
outer loop
vertex 67.2305793762207 34.0 21.0
vertex 67.50004959106445 34.0 21.0
vertex 67.50004959106445 35.05000305175781 21.0
endloop
endfacet
facet normal 0.0 -0.0 0.9999999999999999
outer loop
vertex 67.2305793762207 34.0 21.0
vertex 67.50004959106445 35.05000305175781 21.0
vertex 58.5 51.0 21.0
endloop
endfacet
facet normal 0.0 -0.0 0.9999999999999999
outer loop
vertex 67.50004959106445 35.05000305175781 21.0
vertex 67.96952056884766 37.19999694824219 21.0
vertex 58.5 51.0 21.0
endloop
endfacet
facet normal 0.0 -0.0 0.9999999999999999
outer loop
vertex 67.96952056884766 37.19999694824219 21.0
vertex 103.18635559082031 37.19999694824219 21.0
vertex 58.5 51.0 21.0
endloop
endfacet
facet normal -0.0 1.0 0.0
outer loop
vertex 58.5 51.0 10.0
vertex 58.5 51.0 21.0
vertex 118.5 51.0 10.0
endloop
endfacet
facet normal 0.0 -1.0 0.0
outer loop
vertex 0.0 0.0 10.0
vertex 165.0 0.0 0.0
vertex 109.19999694824219 0.0 3.950000047683716
endloop
endfacet
facet normal 1.0 0.0 -0.0
outer loop
vertex 109.19999694824219 0.0 3.950000047683716
vertex 109.19999694824219 23.300003051757812 3.950000047683716
vertex 109.19999694824219 0.0 8.050000190734863
endloop
endfacet
facet normal 0.0 0.0 1.0
outer loop
vertex 109.19999694824219 0.0 3.950000047683716
vertex 125.80000305175781 0.0 3.950000047683716
vertex 125.80000305175781 23.300003051757812 3.950000047683716
endloop
endfacet
facet normal 0.0 -1.0 0.0
outer loop
vertex 0.0 0.0 10.0
vertex 125.80000305175781 0.0 8.050000190734863
vertex 165.0 0.0 10.0
endloop
endfacet
facet normal -0.0 -0.0 1.0
outer loop
vertex 58.5 11.0 10.0
vertex 165.0 0.0 10.0
vertex 68.01557540893555 10.800003051757812 10.0
endloop
endfacet
facet normal -0.0 1.0 0.0
outer loop
vertex 86.23188018798828 10.800003051757812 7.5966572761535645
vertex 100.1347885131836 10.800003051757812 8.479604721069336
vertex 99.66531372070312 10.800003051757812 7.5966572761535645
endloop
endfacet
facet normal 0.0 1.0 0.0
outer loop
vertex 68.01557540893555 10.800003051757812 10.0
vertex 100.83899688720703 10.800003051757812 9.804025650024414
vertex 86.23188018798828 10.800003051757812 7.5966572761535645
endloop
endfacet
facet normal -0.0 1.0 0.0
outer loop
vertex 68.01557540893555 10.800003051757812 10.0
vertex 100.94319915771484 10.800003051757812 10.0
vertex 100.83899688720703 10.800003051757812 9.804025650024414
endloop
endfacet
facet normal -0.0 1.0 0.0
outer loop
vertex 86.23188018798828 10.800003051757812 7.5966572761535645
vertex 100.83899688720703 10.800003051757812 9.804025650024414
vertex 100.1347885131836 10.800003051757812 8.479604721069336
endloop
endfacet
facet normal -0.8829459862458698 0.0 0.4694745843731142
outer loop
vertex 100.83899688720703 10.800003051757812 9.804025650024414
vertex 100.94319915771484 10.800003051757812 10.0
vertex 100.94319915771484 11.0 10.0
endloop
endfacet
facet normal -0.0 -0.0 1.0
outer loop
vertex 68.01557540893555 10.800003051757812 10.0
vertex 165.0 0.0 10.0
vertex 100.94319915771484 10.800003051757812 10.0
endloop
endfacet
facet normal 0.0 0.0 -1.0
outer loop
vertex 109.19999694824219 0.0 8.050000190734863
vertex 109.19999694824219 23.300003051757812 8.050000190734863
vertex 125.80000305175781 0.0 8.050000190734863
endloop
endfacet
facet normal 0.0 -0.0 1.0
outer loop
vertex 100.94319915771484 10.800003051757812 10.0
vertex 118.5 11.0 10.0
vertex 100.94319915771484 11.0 10.0
endloop
endfacet
facet normal 0.0 -0.0 1.0
outer loop
vertex 109.19999694824219 0.0 3.950000047683716
vertex 125.80000305175781 23.300003051757812 3.950000047683716
vertex 109.19999694824219 23.300003051757812 3.950000047683716
endloop
endfacet
facet normal 0.0 -1.0 0.0
outer loop
vertex 109.19999694824219 23.300003051757812 3.950000047683716
vertex 125.80000305175781 23.300003051757812 3.950000047683716
vertex 125.80000305175781 23.300003051757812 8.050000190734863
endloop
endfacet
facet normal 0.0 -0.0 0.9999999999999999
outer loop
vertex 86.23188018798828 10.800003051757812 7.5966572761535645
vertex 90.25115966796875 25.0 7.5966572761535645
vertex 89.70975112915039 25.0 7.5966572761535645
endloop
endfacet
facet normal 0.0 0.0 1.0
outer loop
vertex 86.23188018798828 10.800003051757812 7.5966572761535645
vertex 89.70975112915039 25.0 7.5966572761535645
vertex 89.70975112915039 27.5 7.5966572761535645
endloop
endfacet
facet normal 0.0 -0.0 1.0
outer loop
vertex 86.23188018798828 10.800003051757812 7.5966572761535645
vertex 96.07646942138672 27.5 7.5966572761535645
vertex 90.25115966796875 25.0 7.5966572761535645
endloop
endfacet
facet normal 0.0 -0.0 1.0
outer loop
vertex 86.23188018798828 10.800003051757812 7.5966572761535645
vertex 89.70975112915039 27.5 7.5966572761535645
vertex 87.75157165527344 27.5 7.5966572761535645
endloop
endfacet
facet normal 0.0 -0.0 1.0
outer loop
vertex 86.23188018798828 10.800003051757812 7.5966572761535645
vertex 99.66531372070312 10.800003051757812 7.5966572761535645
vertex 96.07646942138672 27.5 7.5966572761535645
endloop
endfacet
facet normal -0.8829462214807872 0.0 0.46947414196396436
outer loop
vertex 99.66531372070312 10.800003051757812 7.5966572761535645
vertex 100.1347885131836 10.800003051757812 8.479604721069336
vertex 99.66531372070312 37.19999694824219 7.5966572761535645
endloop
endfacet
facet normal -0.88294724062601 0.0 0.4694722252390599
outer loop
vertex 100.1347885131836 10.800003051757812 8.479604721069336
vertex 100.83899688720703 10.800003051757812 9.804025650024414
vertex 100.83899688720703 37.19999694824219 9.804025650024414
endloop
endfacet
facet normal -0.8829459862458697 0.0 0.4694745843731141
outer loop
vertex 100.83899688720703 10.800003051757812 9.804025650024414
vertex 100.94319915771484 11.0 10.0
vertex 100.83899688720703 37.19999694824219 9.804025650024414
endloop
endfacet
facet normal 0.0 0.0 1.0
outer loop
vertex 86.23188018798828 10.800003051757812 7.5966572761535645
vertex 87.75157165527344 27.5 7.5966572761535645
vertex 87.75157165527344 34.5 7.5966572761535645
endloop
endfacet
facet normal 0.0 1.0 -0.0
outer loop
vertex 90.12276458740234 25.0 7.355183124542236
vertex 89.70975112915039 25.0 7.5966572761535645
vertex 90.25115966796875 25.0 7.5966572761535645
endloop
endfacet
facet normal 0.5047279449580464 -0.0 0.8632784612038155
outer loop
vertex 90.12276458740234 25.0 7.355183124542236
vertex 90.12276458740234 27.5 7.355183124542236
vertex 89.70975112915039 25.0 7.5966572761535645
endloop
endfacet
facet normal -0.8829460822477257 0.0 0.4694744038213291
outer loop
vertex 90.12276458740234 25.0 7.355183124542236
vertex 90.25115966796875 27.5 7.5966572761535645
vertex 90.12276458740234 27.5 7.355183124542236
endloop
endfacet
facet normal -0.8829460822477257 0.0 0.4694744038213291
outer loop
vertex 90.12276458740234 25.0 7.355183124542236
vertex 90.25115966796875 25.0 7.5966572761535645
vertex 90.25115966796875 27.5 7.5966572761535645
endloop
endfacet
facet normal 0.5047279449580464 0.0 0.8632784612038155
outer loop
vertex 89.70975112915039 25.0 7.5966572761535645
vertex 90.12276458740234 27.5 7.355183124542236
vertex 89.70975112915039 27.5 7.5966572761535645
endloop
endfacet
facet normal 0.0 -0.0 1.0
outer loop
vertex 90.25115966796875 25.0 7.5966572761535645
vertex 92.01167297363281 27.5 7.5966572761535645
vertex 90.25115966796875 27.5 7.5966572761535645
endloop
endfacet
facet normal 0.0 -0.0 1.0
outer loop
vertex 90.25115966796875 25.0 7.5966572761535645
vertex 92.47489166259766 27.461944580078125 7.5966572761535645
vertex 92.01167297363281 27.5 7.5966572761535645
endloop
endfacet
facet normal 0.0 -0.0 1.0
outer loop
vertex 86.23188018798828 10.800003051757812 7.5966572761535645
vertex 87.75157165527344 34.5 7.5966572761535645
vertex 86.23188018798828 37.19999694824219 7.5966572761535645
endloop
endfacet
facet normal 0.0 -0.0 1.0
outer loop
vertex 90.25115966796875 25.0 7.5966572761535645
vertex 96.07646942138672 27.5 7.5966572761535645
vertex 92.47489166259766 27.461944580078125 7.5966572761535645
endloop
endfacet
facet normal 0.0 -0.0 1.0
outer loop
vertex 99.66531372070312 10.800003051757812 7.5966572761535645
vertex 99.66531372070312 37.19999694824219 7.5966572761535645
vertex 96.07646942138672 27.5 7.5966572761535645
endloop
endfacet
facet normal 0.0 -0.0 1.0
outer loop
vertex 92.47489166259766 27.461944580078125 7.5966572761535645
vertex 96.07646942138672 27.5 7.5966572761535645
vertex 92.47489166259766 27.5 7.5966572761535645
endloop
endfacet
facet normal -0.8829462214807872 0.0 0.46947414196396436
outer loop
vertex 100.1347885131836 10.800003051757812 8.479604721069336
vertex 100.1347885131836 37.19999694824219 8.479604721069336
vertex 99.66531372070312 37.19999694824219 7.5966572761535645
endloop
endfacet
facet normal -0.88294724062601 0.0 0.4694722252390599
outer loop
vertex 100.1347885131836 10.800003051757812 8.479604721069336
vertex 100.83899688720703 37.19999694824219 9.804025650024414
vertex 100.1347885131836 37.19999694824219 8.479604721069336
endloop
endfacet
facet normal -0.8829473807550823 -2.5163692525640454e-08 0.46947196169498684
outer loop
vertex 100.94319915771484 11.0 10.0
vertex 101.54320526123047 37.19999694824219 11.128447532653809
vertex 100.83899688720703 37.19999694824219 9.804025650024414
endloop
endfacet
facet normal 1.0 -0.0 0.0
outer loop
vertex 109.19999694824219 0.0 8.050000190734863
vertex 109.19999694824219 23.300003051757812 3.950000047683716
vertex 109.19999694824219 23.300003051757812 8.050000190734863
endloop
endfacet
facet normal 0.0 0.0 -1.0
outer loop
vertex 109.19999694824219 23.300003051757812 8.050000190734863
vertex 125.80000305175781 23.300003051757812 8.050000190734863
vertex 125.80000305175781 0.0 8.050000190734863
endloop
endfacet
facet normal 0.0 -1.0 0.0
outer loop
vertex 109.19999694824219 23.300003051757812 3.950000047683716
vertex 125.80000305175781 23.300003051757812 8.050000190734863
vertex 109.19999694824219 23.300003051757812 8.050000190734863
endloop
endfacet
facet normal 0.0 -1.0 0.0
outer loop
vertex 109.19999694824219 0.0 3.950000047683716
vertex 165.0 0.0 0.0
vertex 125.80000305175781 0.0 3.950000047683716
endloop
endfacet
facet normal 0.0 -1.0 0.0
outer loop
vertex 125.80000305175781 0.0 3.950000047683716
vertex 165.0 0.0 0.0
vertex 165.0 0.0 10.0
endloop
endfacet
facet normal -0.0 -1.0 0.0
outer loop
vertex 125.80000305175781 0.0 3.950000047683716
vertex 165.0 0.0 10.0
vertex 125.80000305175781 0.0 8.050000190734863
endloop
endfacet
facet normal -0.0 -0.0 1.0
outer loop
vertex 100.94319915771484 10.800003051757812 10.0
vertex 165.0 0.0 10.0
vertex 118.5 11.0 10.0
endloop
endfacet
facet normal -1.0 0.0 0.0
outer loop
vertex 125.80000305175781 0.0 3.950000047683716
vertex 125.80000305175781 0.0 8.050000190734863
vertex 125.80000305175781 23.300003051757812 8.050000190734863
endloop
endfacet
facet normal -1.0 0.0 0.0
outer loop
vertex 125.80000305175781 0.0 3.950000047683716
vertex 125.80000305175781 23.300003051757812 8.050000190734863
vertex 125.80000305175781 23.300003051757812 3.950000047683716
endloop
endfacet
facet normal 1.0 0.0 -0.0
outer loop
vertex 165.0 0.0 0.0
vertex 165.0 62.0 0.0
vertex 165.0 0.0 10.0
endloop
endfacet
facet normal -0.0 0.0 1.0
outer loop
vertex 118.5 11.0 10.0
vertex 165.0 0.0 10.0
vertex 165.0 62.0 10.0
endloop
endfacet
facet normal 0.0 -0.9999999999999999 0.0
outer loop
vertex 100.94319915771484 11.0 10.0
vertex 118.5 11.0 10.0
vertex 104.12529754638672 11.0 15.984660148620605
endloop
endfacet
facet normal -0.0 -1.0 0.0
outer loop
vertex 118.5 11.0 10.0
vertex 118.5 11.0 21.0
vertex 104.12529754638672 11.0 15.984660148620605
endloop
endfacet
facet normal 0.0 -1.0 0.0
outer loop
vertex 104.12529754638672 11.0 15.984660148620605
vertex 118.5 11.0 21.0
vertex 104.12529754638672 11.0 21.0
endloop
endfacet
facet normal -0.8829477064647943 8.679125652831243e-09 0.46947134912426663
outer loop
vertex 100.94319915771484 11.0 10.0
vertex 104.12529754638672 11.0 15.984660148620605
vertex 101.54320526123047 37.19999694824219 11.128447532653809
endloop
endfacet
facet normal -0.8829476218929203 4.6495356759239274e-08 0.46947150818088484
outer loop
vertex 104.12529754638672 11.0 15.984660148620605
vertex 103.18635559082031 37.19999694824219 14.218764305114746
vertex 101.54320526123047 37.19999694824219 11.128447532653809
endloop
endfacet
facet normal -0.8829479078427324 0.0 0.469470970387032
outer loop
vertex 104.12529754638672 11.0 15.984660148620605
vertex 104.12529754638672 36.7169189453125 15.984660148620605
vertex 103.18635559082031 37.19999694824219 14.218764305114746
endloop
endfacet
facet normal 0.17436104540122987 -0.9284734971833495 0.3279255874046897
outer loop
vertex 87.95475387573242 27.94256591796875 21.200000762939453
vertex 89.85810852050781 28.300003051757812 21.200000762939453
vertex 88.68984985351562 28.300003051757812 21.82117462158203
endloop
endfacet
facet normal 0.4694713900209457 0.0 0.8829476847196562
outer loop
vertex 89.85810852050781 28.300003051757812 21.200000762939453
vertex 88.68984985351562 33.69999694824219 21.82117462158203
vertex 88.68984985351562 28.300003051757812 21.82117462158203
endloop
endfacet
facet normal -1.0 0.0 0.0
outer loop
vertex 104.12529754638672 11.0 15.984660148620605
vertex 104.12529754638672 11.0 21.0
vertex 104.12529754638672 36.7169189453125 15.984660148620605
endloop
endfacet
facet normal 1.0 0.0 -0.0
outer loop
vertex 118.5 11.0 10.0
vertex 118.5 51.0 21.0
vertex 118.5 11.0 21.0
endloop
endfacet
facet normal -1.0 0.0 0.0
outer loop
vertex 104.12529754638672 11.0 21.0
vertex 104.12529754638672 36.7169189453125 21.0
vertex 104.12529754638672 36.7169189453125 15.984660148620605
endloop
endfacet
facet normal 0.0 0.0 1.0
outer loop
vertex 104.12529754638672 11.0 21.0
vertex 118.5 11.0 21.0
vertex 118.5 51.0 21.0
endloop
endfacet
facet normal 0.0 0.0 -1.0
outer loop
vertex 0.0 62.0 0.0
vertex 165.0 62.0 0.0
vertex 165.0 0.0 0.0
endloop
endfacet
facet normal 0.5047279449580464 0.0 0.8632784612038155
outer loop
vertex 90.12276458740234 37.0 7.355183124542236
vertex 89.70975112915039 36.82872009277344 7.5966572761535645
vertex 90.12276458740234 34.5 7.355183124542236
endloop
endfacet
facet normal -0.8829460822477257 0.0 0.4694744038213291
outer loop
vertex 90.12276458740234 37.0 7.355183124542236
vertex 90.12276458740234 34.5 7.355183124542236
vertex 90.25115966796875 37.0 7.5966572761535645
endloop
endfacet
facet normal -0.0 0.0 1.0
outer loop
vertex 86.23188018798828 37.19999694824219 7.5966572761535645
vertex 87.75157165527344 34.5 7.5966572761535645
vertex 89.70975112915039 34.5 7.5966572761535645
endloop
endfacet
facet normal 0.5047279449580464 0.0 0.8632784612038155
outer loop
vertex 89.70975112915039 36.82872009277344 7.5966572761535645
vertex 89.70975112915039 34.5 7.5966572761535645
vertex 90.12276458740234 34.5 7.355183124542236
endloop
endfacet
facet normal -0.8829460822477257 0.0 0.4694744038213291
outer loop
vertex 90.25115966796875 37.0 7.5966572761535645
vertex 90.12276458740234 34.5 7.355183124542236
vertex 90.25115966796875 34.5 7.5966572761535645
endloop
endfacet
facet normal -0.0 0.0 1.0
outer loop
vertex 86.23188018798828 37.19999694824219 7.5966572761535645
vertex 89.70975112915039 34.5 7.5966572761535645
vertex 89.70975112915039 36.82872009277344 7.5966572761535645
endloop
endfacet
facet normal -0.0 0.0 1.0
outer loop
vertex 86.23188018798828 37.19999694824219 7.5966572761535645
vertex 89.70975112915039 36.82872009277344 7.5966572761535645
vertex 89.70975112915039 37.0 7.5966572761535645
endloop
endfacet
facet normal -0.0 0.0 1.0
outer loop
vertex 86.23188018798828 37.19999694824219 7.5966572761535645
vertex 89.70975112915039 37.0 7.5966572761535645
vertex 90.25115966796875 37.0 7.5966572761535645
endloop
endfacet
facet normal 0.5047279449580463 0.0 0.8632784612038155
outer loop
vertex 90.12276458740234 37.0 7.355183124542236
vertex 89.70975112915039 37.0 7.5966572761535645
vertex 89.70975112915039 36.82872009277344 7.5966572761535645
endloop
endfacet
facet normal 0.0 -1.0 0.0
outer loop
vertex 90.12276458740234 37.0 7.355183124542236
vertex 90.25115966796875 37.0 7.5966572761535645
vertex 89.70975112915039 37.0 7.5966572761535645
endloop
endfacet
facet normal -0.0 0.0 1.0
outer loop
vertex 86.23188018798828 37.19999694824219 7.5966572761535645
vertex 90.25115966796875 37.0 7.5966572761535645
vertex 99.66531372070312 37.19999694824219 7.5966572761535645
endloop
endfacet
facet normal -0.0 0.0 1.0
outer loop
vertex 92.47489166259766 34.538055419921875 7.5966572761535645
vertex 92.47489166259766 34.5 7.5966572761535645
vertex 96.07646942138672 34.5 7.5966572761535645
endloop
endfacet
facet normal 0.0 0.0 1.0
outer loop
vertex 99.66531372070312 37.19999694824219 7.5966572761535645
vertex 96.07646942138672 34.5 7.5966572761535645
vertex 96.07646942138672 27.5 7.5966572761535645
endloop
endfacet
facet normal -0.0 0.0 1.0
outer loop
vertex 99.66531372070312 37.19999694824219 7.5966572761535645
vertex 90.25115966796875 34.5 7.5966572761535645
vertex 92.01167297363281 34.5 7.5966572761535645
endloop
endfacet
facet normal -0.0 0.0 0.9999999999999999
outer loop
vertex 99.66531372070312 37.19999694824219 7.5966572761535645
vertex 92.01167297363281 34.5 7.5966572761535645
vertex 92.47489166259766 34.538055419921875 7.5966572761535645
endloop
endfacet
facet normal -0.0 0.0 1.0
outer loop
vertex 90.25115966796875 37.0 7.5966572761535645
vertex 90.25115966796875 34.5 7.5966572761535645
vertex 99.66531372070312 37.19999694824219 7.5966572761535645
endloop
endfacet
facet normal 0.0 0.0 1.0
outer loop
vertex 99.66531372070312 37.19999694824219 7.5966572761535645
vertex 92.47489166259766 34.538055419921875 7.5966572761535645
vertex 96.07646942138672 34.5 7.5966572761535645
endloop
endfacet
facet normal 0.0 -1.0 0.0
outer loop
vertex 86.23188018798828 37.19999694824219 7.5966572761535645
vertex 99.66531372070312 37.19999694824219 7.5966572761535645
vertex 100.1347885131836 37.19999694824219 8.479604721069336
endloop
endfacet
facet normal 0.0 -0.9999999999999999 0.0
outer loop
vertex 67.96952056884766 37.19999694824219 11.741656303405762
vertex 86.23188018798828 37.19999694824219 7.5966572761535645
vertex 100.83899688720703 37.19999694824219 9.804025650024414
endloop
endfacet
facet normal 0.0 -1.0 0.0
outer loop
vertex 86.23188018798828 37.19999694824219 7.5966572761535645
vertex 100.1347885131836 37.19999694824219 8.479604721069336
vertex 100.83899688720703 37.19999694824219 9.804025650024414
endloop
endfacet
facet normal -0.0 1.0 0.0
outer loop
vertex 0.0 62.0 0.0
vertex 165.0 62.0 10.0
vertex 165.0 62.0 0.0
endloop
endfacet
facet normal -0.0 0.0 0.9999999999999999
outer loop
vertex 0.0 62.0 10.0
vertex 118.5 51.0 10.0
vertex 165.0 62.0 10.0
endloop
endfacet
facet normal 0.0 -0.0 1.0
outer loop
vertex 118.5 11.0 10.0
vertex 165.0 62.0 10.0
vertex 118.5 51.0 10.0
endloop
endfacet
facet normal 1.0 -0.0 0.0
outer loop
vertex 165.0 0.0 10.0
vertex 165.0 62.0 0.0
vertex 165.0 62.0 10.0
endloop
endfacet
facet normal 0.0 -1.0 0.0
outer loop
vertex 67.96952056884766 37.19999694824219 11.741656303405762
vertex 100.83899688720703 37.19999694824219 9.804025650024414
vertex 103.18635559082031 37.19999694824219 21.0
endloop
endfacet
facet normal 0.0 -1.0 0.0
outer loop
vertex 100.83899688720703 37.19999694824219 9.804025650024414
vertex 101.54320526123047 37.19999694824219 11.128447532653809
vertex 103.18635559082031 37.19999694824219 21.0
endloop
endfacet
facet normal 0.0 -1.0 0.0
outer loop
vertex 101.54320526123047 37.19999694824219 11.128447532653809
vertex 103.18635559082031 37.19999694824219 14.218764305114746
vertex 103.18635559082031 37.19999694824219 21.0
endloop
endfacet
facet normal 1.0 0.0 0.0
outer loop
vertex 118.5 11.0 10.0
vertex 118.5 51.0 10.0
vertex 118.5 51.0 21.0
endloop
endfacet
facet normal 0.4694713900209456 -0.0 0.8829476847196561
outer loop
vertex 88.68984985351562 33.69999694824219 21.82117462158203
vertex 89.85810852050781 28.300003051757812 21.200000762939453
vertex 89.85810852050781 33.12379455566406 21.200000762939453
endloop
endfacet
facet normal 0.17436104540122987 0.9284734971833495 0.3279255874046897
outer loop
vertex 89.85810852050781 33.69999694824219 21.200000762939453
vertex 87.95475387573242 34.05743408203125 21.200000762939453
vertex 88.68984985351562 33.69999694824219 21.82117462158203
endloop
endfacet
facet normal 0.4694713900209456 -0.0 0.882947684719656
outer loop
vertex 89.85810852050781 33.12379455566406 21.200000762939453
vertex 89.85810852050781 33.69999694824219 21.200000762939453
vertex 88.68984985351562 33.69999694824219 21.82117462158203
endloop
endfacet
facet normal -0.0 0.0 1.0
outer loop
vertex 58.5 51.0 21.0
vertex 103.18635559082031 37.19999694824219 21.0
vertex 118.5 51.0 21.0
endloop
endfacet
facet normal -0.45749297944728046 -0.8892132330079496 0.0
outer loop
vertex 103.18635559082031 37.19999694824219 14.218764305114746
vertex 104.12529754638672 36.7169189453125 15.984660148620605
vertex 104.12529754638672 36.7169189453125 21.0
endloop
endfacet
facet normal -0.45749297944728046 -0.8892132330079497 0.0
outer loop
vertex 103.18635559082031 37.19999694824219 14.218764305114746
vertex 104.12529754638672 36.7169189453125 21.0
vertex 103.18635559082031 37.19999694824219 21.0
endloop
endfacet
facet normal 0.0 -0.0 1.0
outer loop
vertex 104.12529754638672 11.0 21.0
vertex 118.5 51.0 21.0
vertex 104.12529754638672 36.7169189453125 21.0
endloop
endfacet
facet normal 0.0 -0.0 1.0
outer loop
vertex 104.12529754638672 36.7169189453125 21.0
vertex 118.5 51.0 21.0
vertex 103.18635559082031 37.19999694824219 21.0
endloop
endfacet
facet normal -0.0 1.0 0.0
outer loop
vertex 58.5 51.0 21.0
vertex 118.5 51.0 21.0
vertex 118.5 51.0 10.0
endloop
endfacet
facet normal 0.0 -1.0 0.0
outer loop
vertex 89.70975112915039 27.5 7.5966572761535645
vertex 90.12276458740234 27.5 7.355183124542236
vertex 90.25115966796875 27.5 7.5966572761535645
endloop
endfacet
facet normal 0.0 -0.9999999999999999 -0.0
outer loop
vertex 91.31325912475586 27.5 7.96801233291626
vertex 90.25115966796875 27.5 7.5966572761535645
vertex 92.01167297363281 27.5 7.5966572761535645
endloop
endfacet
facet normal 0.8829467089144667 0.0 -0.46947322523985563
outer loop
vertex 93.3117446899414 27.149993896484375 9.170541763305664
vertex 92.47489166259766 27.461944580078125 7.5966572761535645
vertex 92.47489166259766 27.5 7.5966572761535645
endloop
endfacet
facet normal 0.0 -1.0 0.0
outer loop
vertex 81.88036346435547 27.5 10.718433380126953
vertex 87.75157165527344 27.5 7.5966572761535645
vertex 89.70975112915039 27.5 7.5966572761535645
endloop
endfacet
facet normal 0.0 -1.0 0.0
outer loop
vertex 81.88036346435547 27.5 10.718433380126953
vertex 89.70975112915039 27.5 7.5966572761535645
vertex 90.25115966796875 27.5 7.5966572761535645
endloop
endfacet
facet normal -0.46947148465854327 -0.0 -0.8829476343999701
outer loop
vertex 81.88036346435547 27.5 10.718433380126953
vertex 87.75157165527344 34.5 7.5966572761535645
vertex 87.75157165527344 27.5 7.5966572761535645
endloop
endfacet
facet normal 0.0 -1.0 0.0
outer loop
vertex 81.88036346435547 27.5 10.718433380126953
vertex 90.25115966796875 27.5 7.5966572761535645
vertex 91.31325912475586 27.5 7.96801233291626
endloop
endfacet
facet normal -0.08092450028907748 -0.9850302796815034 -0.152205694254658
outer loop
vertex 92.25220489501953 27.149993896484375 9.733907699584961
vertex 92.01167297363281 27.5 7.5966572761535645
vertex 92.47489166259766 27.461944580078125 7.5966572761535645
endloop
endfacet
facet normal -0.08092928830106806 -0.9850299772305218 -0.1522051058681032
outer loop
vertex 91.31325912475586 27.5 7.96801233291626
vertex 92.01167297363281 27.5 7.5966572761535645
vertex 92.25220489501953 27.149993896484375 9.733907699584961
endloop
endfacet
facet normal -0.08092923391706687 -0.9850298248299175 -0.1522061210764486
outer loop
vertex 92.25220489501953 27.149993896484375 9.733907699584961
vertex 92.47489166259766 27.461944580078125 7.5966572761535645
vertex 93.3117446899414 27.149993896484375 9.170541763305664
endloop
endfacet
facet normal 0.0 -0.9999999999999999 0.0
outer loop
vertex 81.88036346435547 27.5 10.718433380126953
vertex 91.31325912475586 27.5 7.96801233291626
vertex 86.68661499023438 27.5 10.428043365478516
endloop
endfacet
facet normal 0.0 -1.0 0.0
outer loop
vertex 81.88036346435547 27.5 10.718433380126953
vertex 86.68661499023438 27.5 10.428043365478516
vertex 85.62707901000977 27.5 10.991409301757812
endloop
endfacet
facet normal 0.0 -1.0 -0.0
outer loop
vertex 96.59803771972656 27.5 15.351175308227539
vertex 92.47489166259766 27.5 7.5966572761535645
vertex 96.07646942138672 27.5 7.5966572761535645
endloop
endfacet
facet normal 0.8829477966229804 1.1800215377214761e-05 -0.4694711794129423
outer loop
vertex 93.3117446899414 27.149993896484375 9.170541763305664
vertex 92.47489166259766 27.5 7.5966572761535645
vertex 96.59803771972656 27.5 15.351175308227539
endloop
endfacet
facet normal -0.08092913907833499 -0.9850299448579014 -0.15220539471805572
outer loop
vertex 85.62707901000977 27.5 10.991409301757812
vertex 86.68661499023438 27.5 10.428043365478516
vertex 86.56602096557617 27.149993896484375 12.757304191589355
endloop
endfacet
facet normal -0.08092913907833499 -0.9850299448579014 -0.15220539471805572
outer loop
vertex 86.68661499023438 27.5 10.428043365478516
vertex 87.62555694580078 27.149993896484375 12.193938255310059
vertex 86.56602096557617 27.149993896484375 12.757304191589355
endloop
endfacet
facet normal 0.0 -0.9999999999999999 0.0
outer loop
vertex 86.68661499023438 27.5 10.428043365478516
vertex 91.31325912475586 27.5 7.96801233291626
vertex 95.53850555419922 27.5 15.914542198181152
endloop
endfacet
facet normal 0.0 -1.0 0.0
outer loop
vertex 81.88036346435547 27.5 10.718433380126953
vertex 85.62707901000977 27.5 10.991409301757812
vertex 89.85232162475586 27.5 18.937936782836914
endloop
endfacet
facet normal -0.8829475214051713 -5.559418012628942e-06 0.46947169713791853
outer loop
vertex 91.31325912475586 27.5 7.96801233291626
vertex 92.25220489501953 27.149993896484375 9.733907699584961
vertex 95.53850555419922 27.5 15.914542198181152
endloop
endfacet
facet normal 0.0 -0.9999999999999999 0.0
outer loop
vertex 92.25220489501953 27.149993896484375 9.733907699584961
vertex 93.3117446899414 27.149993896484375 9.170541763305664
vertex 95.06903076171875 27.149993896484375 15.031593322753906
endloop
endfacet
facet normal 0.0 -1.0 -0.0
outer loop
vertex 96.59803771972656 27.5 15.351175308227539
vertex 96.07646942138672 27.5 7.5966572761535645
vertex 99.40581512451172 27.5 13.858255386352539
endloop
endfacet
facet normal 0.8829478891683007 0.0 -0.4694710055085854
outer loop
vertex 99.40581512451172 27.5 13.858255386352539
vertex 96.07646942138672 27.5 7.5966572761535645
vertex 99.40581512451172 34.5 13.858255386352539
endloop
endfacet
facet normal 0.0 -0.9999999999999999 0.0
outer loop
vertex 93.3117446899414 27.149993896484375 9.170541763305664
vertex 96.12857055664062 27.149993896484375 14.46822738647461
vertex 95.06903076171875 27.149993896484375 15.031593322753906
endloop
endfacet
facet normal 0.8829478377771957 -1.7055799043735034e-06 -0.469471102158233
outer loop
vertex 93.3117446899414 27.149993896484375 9.170541763305664
vertex 97.06751251220703 27.5 16.234121322631836
vertex 96.12857055664062 27.149993896484375 14.46822738647461
endloop
endfacet
facet normal 0.882945902423406 9.233576835603822e-05 -0.4694747329386569
outer loop
vertex 93.3117446899414 27.149993896484375 9.170541763305664
vertex 96.59803771972656 27.5 15.351175308227539
vertex 97.06751251220703 27.5 16.234121322631836
endloop
endfacet
facet normal -0.8829476387260138 1.9963566138703362e-06 0.4694714765181916
outer loop
vertex 85.62707901000977 27.5 10.991409301757812
vertex 86.56602096557617 27.149993896484375 12.757304191589355
vertex 89.85232162475586 27.5 18.937936782836914
endloop
endfacet
facet normal 0.8829474630242292 -4.134844048642147e-06 -0.4694718069511526
outer loop
vertex 86.68661499023438 27.5 10.428043365478516
vertex 90.91186141967773 27.5 18.374570846557617
vertex 87.62555694580078 27.149993896484375 12.193938255310059
endloop
endfacet
facet normal 0.0 -1.0 0.0
outer loop
vertex 86.56602096557617 27.149993896484375 12.757304191589355
vertex 87.62555694580078 27.149993896484375 12.193938255310059
vertex 89.38285064697266 27.149993896484375 18.054988861083984
endloop
endfacet
facet normal 0.0 -1.0 0.0
outer loop
vertex 86.68661499023438 27.5 10.428043365478516
vertex 95.53850555419922 27.5 15.914542198181152
vertex 90.91186141967773 27.5 18.374570846557617
endloop
endfacet
facet normal 0.0 -1.0 0.0
outer loop
vertex 87.62555694580078 27.149993896484375 12.193938255310059
vertex 90.44238662719727 27.149993896484375 17.491622924804688
vertex 89.38285064697266 27.149993896484375 18.054988861083984
endloop
endfacet
facet normal 0.8829475391907297 -5.1362779761811736e-06 -0.469471663692979
outer loop
vertex 87.62555694580078 27.149993896484375 12.193938255310059
vertex 91.38133239746094 27.5 19.257518768310547
vertex 90.44238662719727 27.149993896484375 17.491622924804688
endloop
endfacet
facet normal -0.8829478377771957 1.7055799043735034e-06 0.469471102158233
outer loop
vertex 92.25220489501953 27.149993896484375 9.733907699584961
vertex 95.06903076171875 27.149993896484375 15.031593322753906
vertex 96.00797271728516 27.5 16.797487258911133
endloop
endfacet
facet normal -0.8829488573627896 5.140209423239722e-05 0.4694691817782814
outer loop
vertex 92.25220489501953 27.149993896484375 9.733907699584961
vertex 96.00797271728516 27.5 16.797487258911133
vertex 95.53850555419922 27.5 15.914542198181152
endloop
endfacet
facet normal 0.17435707914779072 -0.9284767911063075 0.3279183699154185
outer loop
vertex 96.59803771972656 27.5 15.351175308227539
vertex 99.40581512451172 27.5 13.858255386352539
vertex 96.71541595458984 27.600006103515625 15.571924209594727
endloop
endfacet
facet normal 0.994153764827807 0.0 -0.1079735702785512
outer loop
vertex 99.40581512451172 27.5 13.858255386352539
vertex 99.40581512451172 34.5 13.858255386352539
vertex 99.63839721679688 28.300003051757812 15.999727249145508
endloop
endfacet
facet normal 0.08092894498603465 -0.9850299325340827 0.15220557767489215
outer loop
vertex 95.06903076171875 27.149993896484375 15.031593322753906
vertex 96.12857055664062 27.149993896484375 14.46822738647461
vertex 96.00797271728516 27.5 16.797487258911133
endloop
endfacet
facet normal 0.08092894498603465 -0.9850299325340827 0.15220557767489215
outer loop
vertex 96.12857055664062 27.149993896484375 14.46822738647461
vertex 97.06751251220703 27.5 16.234121322631836
vertex 96.00797271728516 27.5 16.797487258911133
endloop
endfacet
facet normal 0.8829459058889605 -2.599831693176089e-05 -0.46947473478134083
outer loop
vertex 96.59803771972656 27.5 15.351175308227539
vertex 96.71541595458984 27.600006103515625 15.571924209594727
vertex 97.06751251220703 27.5 16.234121322631836
endloop
endfacet
facet normal 0.8829475337217126 0.0 -0.469471674006798
outer loop
vertex 96.71541595458984 27.600006103515625 15.571924209594727
vertex 97.06751251220703 27.600006103515625 16.234121322631836
vertex 97.06751251220703 27.5 16.234121322631836
endloop
endfacet
facet normal 0.174357935017555 -0.928475921209073 0.3279203778836829
outer loop
vertex 95.65587615966797 27.600006103515625 16.135290145874023
vertex 96.71541595458984 27.600006103515625 15.571924209594727
vertex 99.63839721679688 28.300003051757812 15.999727249145508
endloop
endfacet
facet normal -0.0 1.0 0.0
outer loop
vertex 95.65587615966797 27.600006103515625 16.135290145874023
vertex 96.00797271728516 27.600006103515625 16.797487258911133
vertex 96.71541595458984 27.600006103515625 15.571924209594727
endloop
endfacet
facet normal -0.8829488583315243 -2.116266831102766e-05 0.46946918229336343
outer loop
vertex 95.53850555419922 27.5 15.914542198181152
vertex 96.00797271728516 27.5 16.797487258911133
vertex 95.65587615966797 27.600006103515625 16.135290145874023
endloop
endfacet
facet normal 0.0 1.0 0.0
outer loop
vertex 96.00797271728516 27.600006103515625 16.797487258911133
vertex 97.06751251220703 27.600006103515625 16.234121322631836
vertex 96.71541595458984 27.600006103515625 15.571924209594727
endloop
endfacet
facet normal 0.17435805077436176 -0.9284760844629034 0.32791985409639457
outer loop
vertex 96.71541595458984 27.600006103515625 15.571924209594727
vertex 99.40581512451172 27.5 13.858255386352539
vertex 99.63839721679688 28.300003051757812 15.999727249145508
endloop
endfacet
facet normal 0.0 -1.0 0.0
outer loop
vertex 81.88036346435547 27.5 10.718433380126953
vertex 89.85232162475586 27.5 18.937936782836914
vertex 87.04454803466797 27.5 20.430856704711914
endloop
endfacet
facet normal -0.8829476876577945 0.0 0.46947138449510817
outer loop
vertex 81.88036346435547 27.5 10.718433380126953
vertex 87.04454803466797 27.5 20.430856704711914
vertex 87.04454803466797 34.5 20.430856704711914
endloop
endfacet
facet normal 0.8829479076074848 -2.3083955040886644e-05 -0.46947097026194884
outer loop
vertex 87.62555694580078 27.149993896484375 12.193938255310059
vertex 90.91186141967773 27.5 18.374570846557617
vertex 91.38133239746094 27.5 19.257518768310547
endloop
endfacet
facet normal -0.8829475391934883 -4.48691867557591e-06 0.4694716636944458
outer loop
vertex 86.56602096557617 27.149993896484375 12.757304191589355
vertex 89.38285064697266 27.149993896484375 18.054988861083984
vertex 90.32179260253906 27.5 19.820884704589844
endloop
endfacet
facet normal -0.882947907762741 1.3460754376156553e-05 0.4694709703444999
outer loop
vertex 86.56602096557617 27.149993896484375 12.757304191589355
vertex 90.32179260253906 27.5 19.820884704589844
vertex 89.85232162475586 27.5 18.937936782836914
endloop
endfacet
facet normal 0.17435839250834415 -0.9284758737489299 0.32792026901072624
outer loop
vertex 90.91186141967773 27.5 18.374570846557617
vertex 95.65587615966797 27.600006103515625 16.135290145874023
vertex 91.02923583984375 27.600006103515625 18.595319747924805
endloop
endfacet
facet normal 0.08092910601789009 -0.9850299571817034 0.15220533254047514
outer loop
vertex 89.38285064697266 27.149993896484375 18.054988861083984
vertex 90.44238662719727 27.149993896484375 17.491622924804688
vertex 90.32179260253906 27.5 19.820884704589844
endloop
endfacet
facet normal 0.8829479078388183 -2.97764938453466e-06 -0.46947097038495084
outer loop
vertex 90.91186141967773 27.5 18.374570846557617
vertex 91.02923583984375 27.600006103515625 18.595319747924805
vertex 91.38133239746094 27.5 19.257518768310547
endloop
endfacet
facet normal 0.17435843530404277 -0.9284755976531509 0.32792102799447076
outer loop
vertex 87.04454803466797 27.5 20.430856704711914
vertex 89.96969604492188 27.600006103515625 19.158687591552734
vertex 99.63839721679688 28.300003051757812 15.999727249145508
endloop
endfacet
facet normal 0.08092880855145042 -0.9850299833923555 0.15220532107813667
outer loop
vertex 90.44238662719727 27.149993896484375 17.491622924804688
vertex 91.38133239746094 27.5 19.257518768310547
vertex 90.32179260253906 27.5 19.820884704589844
endloop
endfacet
facet normal 0.8829480942467574 0.0 -0.46947061981131394
outer loop
vertex 91.02923583984375 27.600006103515625 18.595319747924805
vertex 91.38133239746094 27.600006103515625 19.257518768310547
vertex 91.38133239746094 27.5 19.257518768310547
endloop
endfacet
facet normal 0.17435981067616682 -0.9284745250351439 0.3279233336951416
outer loop
vertex 90.91186141967773 27.5 18.374570846557617
vertex 95.53850555419922 27.5 15.914542198181152
vertex 95.65587615966797 27.600006103515625 16.135290145874023
endloop
endfacet
facet normal -0.8829475337217126 0.0 0.469471674006798
outer loop
vertex 95.65587615966797 27.600006103515625 16.135290145874023
vertex 96.00797271728516 27.5 16.797487258911133
vertex 96.00797271728516 27.600006103515625 16.797487258911133
endloop
endfacet
facet normal 0.46947067541089976 0.0 0.8829480646840072
outer loop
vertex 96.00797271728516 27.5 16.797487258911133
vertex 97.06751251220703 27.600006103515625 16.234121322631836
vertex 96.00797271728516 27.600006103515625 16.797487258911133
endloop
endfacet
facet normal 0.46947067541089976 -0.0 0.8829480646840072
outer loop
vertex 96.00797271728516 27.5 16.797487258911133
vertex 97.06751251220703 27.5 16.234121322631836
vertex 97.06751251220703 27.600006103515625 16.234121322631836
endloop
endfacet
facet normal 0.1743579600484648 -0.9284762422158378 0.3279194556724181
outer loop
vertex 91.02923583984375 27.600006103515625 18.595319747924805
vertex 95.65587615966797 27.600006103515625 16.135290145874023
vertex 99.63839721679688 28.300003051757812 15.999727249145508
endloop
endfacet
facet normal 0.1743578835112134 -0.9284763571995783 0.3279191708011155
outer loop
vertex 89.96969604492188 27.600006103515625 19.158687591552734
vertex 91.02923583984375 27.600006103515625 18.595319747924805
vertex 99.63839721679688 28.300003051757812 15.999727249145508
endloop
endfacet
facet normal -0.8829479078269651 -5.976252247688873e-06 0.4694709703786484
outer loop
vertex 89.85232162475586 27.5 18.937936782836914
vertex 90.32179260253906 27.5 19.820884704589844
vertex 89.96969604492188 27.600006103515625 19.158687591552734
endloop
endfacet
facet normal 0.17435732803091733 -0.9284767363993907 0.32791839248059185
outer loop
vertex 87.04454803466797 27.5 20.430856704711914
vertex 89.85232162475586 27.5 18.937936782836914
vertex 89.96969604492188 27.600006103515625 19.158687591552734
endloop
endfacet
facet normal -0.8829475337217126 0.0 0.469471674006798
outer loop
vertex 89.96969604492188 27.600006103515625 19.158687591552734
vertex 90.32179260253906 27.5 19.820884704589844
vertex 90.32179260253906 27.600006103515625 19.820884704589844
endloop
endfacet
facet normal -0.0 1.0 0.0
outer loop
vertex 89.96969604492188 27.600006103515625 19.158687591552734
vertex 90.32179260253906 27.600006103515625 19.820884704589844
vertex 91.02923583984375 27.600006103515625 18.595319747924805
endloop
endfacet
facet normal 0.0 1.0 0.0
outer loop
vertex 90.32179260253906 27.600006103515625 19.820884704589844
vertex 91.38133239746094 27.600006103515625 19.257518768310547
vertex 91.02923583984375 27.600006103515625 18.595319747924805
endloop
endfacet
facet normal 0.17435610974861118 -0.9284785574305929 0.3279138840990658
outer loop
vertex 87.04454803466797 27.5 20.430856704711914
vertex 99.63839721679688 28.300003051757812 15.999727249145508
vertex 87.95475387573242 27.94256591796875 21.200000762939453
endloop
endfacet
facet normal 0.46947067541089976 -0.0 0.8829480646840072
outer loop
vertex 90.32179260253906 27.5 19.820884704589844
vertex 91.38133239746094 27.5 19.257518768310547
vertex 91.38133239746094 27.600006103515625 19.257518768310547
endloop
endfacet
facet normal 0.46947067541089976 0.0 0.8829480646840072
outer loop
vertex 90.32179260253906 27.5 19.820884704589844
vertex 91.38133239746094 27.600006103515625 19.257518768310547
vertex 90.32179260253906 27.600006103515625 19.820884704589844
endloop
endfacet
facet normal 0.17436106063233336 -0.9284735782890569 0.32792534966708914
outer loop
vertex 99.63839721679688 28.300003051757812 15.999727249145508
vertex 89.85810852050781 28.300003051757812 21.200000762939453
vertex 87.95475387573242 27.94256591796875 21.200000762939453
endloop
endfacet
facet normal -0.6454382829397076 -2.1304087352494078e-07 0.7638124265261705
outer loop
vertex 87.04454803466797 27.5 20.430856704711914
vertex 87.95475387573242 27.94256591796875 21.200000762939453
vertex 88.68984985351562 33.69999694824219 21.82117462158203
endloop
endfacet
facet normal -0.6454392564047853 0.0 0.7638116039257572
outer loop
vertex 87.95475387573242 27.94256591796875 21.200000762939453
vertex 88.68984985351562 28.300003051757812 21.82117462158203
vertex 88.68984985351562 33.69999694824219 21.82117462158203
endloop
endfacet
facet normal 0.4694716873317721 0.0 0.8829475266366958
outer loop
vertex 99.63839721679688 28.300003051757812 15.999727249145508
vertex 89.85810852050781 33.12379455566406 21.200000762939453
vertex 89.85810852050781 28.300003051757812 21.200000762939453
endloop
endfacet
facet normal -0.0 1.0 0.0
outer loop
vertex 89.70975112915039 34.5 7.5966572761535645
vertex 90.25115966796875 34.5 7.5966572761535645
vertex 90.12276458740234 34.5 7.355183124542236
endloop
endfacet
facet normal 0.0 0.9999999999999999 0.0
outer loop
vertex 91.31325912475586 34.5 7.96801233291626
vertex 92.01167297363281 34.5 7.5966572761535645
vertex 90.25115966796875 34.5 7.5966572761535645
endloop
endfacet
facet normal -0.08092446291965219 0.9850298248128875 -0.1522086578689197
outer loop
vertex 93.3117446899414 34.850006103515625 9.170541763305664
vertex 92.47489166259766 34.538055419921875 7.5966572761535645
vertex 92.01167297363281 34.5 7.5966572761535645
endloop
endfacet
facet normal 0.8829467089144667 0.0 -0.46947322523985563
outer loop
vertex 93.3117446899414 34.850006103515625 9.170541763305664
vertex 92.47489166259766 34.5 7.5966572761535645
vertex 92.47489166259766 34.538055419921875 7.5966572761535645
endloop
endfacet
facet normal 0.0 1.0 0.0
outer loop
vertex 81.88036346435547 34.5 10.718433380126953
vertex 89.70975112915039 34.5 7.5966572761535645
vertex 87.75157165527344 34.5 7.5966572761535645
endloop
endfacet
facet normal 0.0 1.0 0.0
outer loop
vertex 81.88036346435547 34.5 10.718433380126953
vertex 90.25115966796875 34.5 7.5966572761535645
vertex 89.70975112915039 34.5 7.5966572761535645
endloop
endfacet
facet normal 0.0 1.0 0.0
outer loop
vertex 81.88036346435547 34.5 10.718433380126953
vertex 91.31325912475586 34.5 7.96801233291626
vertex 90.25115966796875 34.5 7.5966572761535645
endloop
endfacet
facet normal -0.08092928830106806 0.9850299772305218 -0.1522051058681032
outer loop
vertex 91.31325912475586 34.5 7.96801233291626
vertex 92.25220489501953 34.850006103515625 9.733907699584961
vertex 92.01167297363281 34.5 7.5966572761535645
endloop
endfacet
facet normal -0.08092873056522865 0.9850300124629839 -0.15220517440702983
outer loop
vertex 92.25220489501953 34.850006103515625 9.733907699584961
vertex 93.3117446899414 34.850006103515625 9.170541763305664
vertex 92.01167297363281 34.5 7.5966572761535645
endloop
endfacet
facet normal -0.46947148465854327 0.0 -0.8829476343999701
outer loop
vertex 81.88036346435547 27.5 10.718433380126953
vertex 81.88036346435547 34.5 10.718433380126953
vertex 87.75157165527344 34.5 7.5966572761535645
endloop
endfacet
facet normal 0.0 0.9999999999999999 0.0
outer loop
vertex 81.88036346435547 34.5 10.718433380126953
vertex 86.68661499023438 34.5 10.428043365478516
vertex 91.31325912475586 34.5 7.96801233291626
endloop
endfacet
facet normal -0.0 1.0 0.0
outer loop
vertex 81.88036346435547 34.5 10.718433380126953
vertex 85.62707901000977 34.5 10.991409301757812
vertex 86.68661499023438 34.5 10.428043365478516
endloop
endfacet
facet normal 0.8829478891683007 0.0 -0.4694710055085854
outer loop
vertex 99.40581512451172 34.5 13.858255386352539
vertex 96.07646942138672 27.5 7.5966572761535645
vertex 96.07646942138672 34.5 7.5966572761535645
endloop
endfacet
facet normal 0.0 1.0 0.0
outer loop
vertex 96.59803771972656 34.5 15.351175308227539
vertex 96.07646942138672 34.5 7.5966572761535645
vertex 92.47489166259766 34.5 7.5966572761535645
endloop
endfacet
facet normal 0.8829477966229804 -1.1800215377214761e-05 -0.4694711794129423
outer loop
vertex 93.3117446899414 34.850006103515625 9.170541763305664
vertex 96.59803771972656 34.5 15.351175308227539
vertex 92.47489166259766 34.5 7.5966572761535645
endloop
endfacet
facet normal -0.08092913907833499 0.9850299448579014 -0.15220539471805572
outer loop
vertex 85.62707901000977 34.5 10.991409301757812
vertex 86.56602096557617 34.850006103515625 12.757304191589355
vertex 86.68661499023438 34.5 10.428043365478516
endloop
endfacet
facet normal -0.08092913907833499 0.9850299448579014 -0.15220539471805572
outer loop
vertex 86.68661499023438 34.5 10.428043365478516
vertex 86.56602096557617 34.850006103515625 12.757304191589355
vertex 87.62555694580078 34.850006103515625 12.193938255310059
endloop
endfacet
facet normal -0.0 0.9999999999999999 0.0
outer loop
vertex 86.68661499023438 34.5 10.428043365478516
vertex 90.91186141967773 34.5 18.374570846557617
vertex 91.31325912475586 34.5 7.96801233291626
endloop
endfacet
facet normal -0.8829475214051713 5.559418012628942e-06 0.46947169713791853
outer loop
vertex 91.31325912475586 34.5 7.96801233291626
vertex 95.53850555419922 34.5 15.914542198181152
vertex 92.25220489501953 34.850006103515625 9.733907699584961
endloop
endfacet
facet normal -0.0 0.9999999999999999 0.0
outer loop
vertex 92.25220489501953 34.850006103515625 9.733907699584961
vertex 95.06903076171875 34.850006103515625 15.031593322753906
vertex 93.3117446899414 34.850006103515625 9.170541763305664
endloop
endfacet
facet normal 0.0 1.0 0.0
outer loop
vertex 96.59803771972656 34.5 15.351175308227539
vertex 99.40581512451172 34.5 13.858255386352539
vertex 96.07646942138672 34.5 7.5966572761535645
endloop
endfacet
facet normal -0.0 0.9999999999999999 0.0
outer loop
vertex 93.3117446899414 34.850006103515625 9.170541763305664
vertex 95.06903076171875 34.850006103515625 15.031593322753906
vertex 96.12857055664062 34.850006103515625 14.46822738647461
endloop
endfacet
facet normal 0.8829478377771957 1.7055799043735034e-06 -0.469471102158233
outer loop
vertex 93.3117446899414 34.850006103515625 9.170541763305664
vertex 96.12857055664062 34.850006103515625 14.46822738647461
vertex 97.06751251220703 34.5 16.234121322631836
endloop
endfacet
facet normal 0.882945902423406 -9.233576835603822e-05 -0.4694747329386569
outer loop
vertex 93.3117446899414 34.850006103515625 9.170541763305664
vertex 97.06751251220703 34.5 16.234121322631836
vertex 96.59803771972656 34.5 15.351175308227539
endloop
endfacet
facet normal -0.8829476876577945 0.0 0.46947138449510817
outer loop
vertex 81.88036346435547 27.5 10.718433380126953
vertex 87.04454803466797 34.5 20.430856704711914
vertex 81.88036346435547 34.5 10.718433380126953
endloop
endfacet
facet normal -0.0 1.0 0.0
outer loop
vertex 81.88036346435547 34.5 10.718433380126953
vertex 87.04454803466797 34.5 20.430856704711914
vertex 85.62707901000977 34.5 10.991409301757812
endloop
endfacet
facet normal -0.8829476387260138 -1.9963566138703362e-06 0.4694714765181916
outer loop
vertex 85.62707901000977 34.5 10.991409301757812
vertex 89.85232162475586 34.5 18.937936782836914
vertex 86.56602096557617 34.850006103515625 12.757304191589355
endloop
endfacet
facet normal 0.8829474630242292 4.134844048642147e-06 -0.4694718069511526
outer loop
vertex 86.68661499023438 34.5 10.428043365478516
vertex 87.62555694580078 34.850006103515625 12.193938255310059
vertex 90.91186141967773 34.5 18.374570846557617
endloop
endfacet
facet normal -0.0 1.0 -0.0
outer loop
vertex 91.31325912475586 34.5 7.96801233291626
vertex 90.91186141967773 34.5 18.374570846557617
vertex 95.53850555419922 34.5 15.914542198181152
endloop
endfacet
facet normal -0.0 1.0 0.0
outer loop
vertex 86.56602096557617 34.850006103515625 12.757304191589355
vertex 89.38285064697266 34.850006103515625 18.054988861083984
vertex 87.62555694580078 34.850006103515625 12.193938255310059
endloop
endfacet
facet normal -0.0 1.0 0.0
outer loop
vertex 87.62555694580078 34.850006103515625 12.193938255310059
vertex 89.38285064697266 34.850006103515625 18.054988861083984
vertex 90.44238662719727 34.850006103515625 17.491622924804688
endloop
endfacet
facet normal 0.8829475391907297 5.1362779761811736e-06 -0.469471663692979
outer loop
vertex 87.62555694580078 34.850006103515625 12.193938255310059
vertex 90.44238662719727 34.850006103515625 17.491622924804688
vertex 91.38133239746094 34.5 19.257518768310547
endloop
endfacet
facet normal -0.8829478377771957 -1.7055799043735034e-06 0.469471102158233
outer loop
vertex 92.25220489501953 34.850006103515625 9.733907699584961
vertex 96.00797271728516 34.5 16.797487258911133
vertex 95.06903076171875 34.850006103515625 15.031593322753906
endloop
endfacet
facet normal -0.8829488573627896 -5.140209423239722e-05 0.4694691817782814
outer loop
vertex 92.25220489501953 34.850006103515625 9.733907699584961
vertex 95.53850555419922 34.5 15.914542198181152
vertex 96.00797271728516 34.5 16.797487258911133
endloop
endfacet
facet normal 0.17435707914779072 0.9284767911063075 0.3279183699154185
outer loop
vertex 96.71541595458984 34.399993896484375 15.571924209594727
vertex 99.40581512451172 34.5 13.858255386352539
vertex 96.59803771972656 34.5 15.351175308227539
endloop
endfacet
facet normal 0.08092894498603465 0.9850299325340827 0.15220557767489215
outer loop
vertex 95.06903076171875 34.850006103515625 15.031593322753906
vertex 96.00797271728516 34.5 16.797487258911133
vertex 96.12857055664062 34.850006103515625 14.46822738647461
endloop
endfacet
facet normal 0.08092894498603465 0.9850299325340827 0.15220557767489215
outer loop
vertex 96.12857055664062 34.850006103515625 14.46822738647461
vertex 96.00797271728516 34.5 16.797487258911133
vertex 97.06751251220703 34.5 16.234121322631836
endloop
endfacet
facet normal 0.0 -1.0 0.0
outer loop
vertex 95.65587615966797 34.399993896484375 16.135292053222656
vertex 96.71541595458984 34.399993896484375 15.571924209594727
vertex 97.06751251220703 34.399993896484375 16.234121322631836
endloop
endfacet
facet normal 0.8829459058889605 2.599831693176089e-05 -0.46947473478134083
outer loop
vertex 96.71541595458984 34.399993896484375 15.571924209594727
vertex 96.59803771972656 34.5 15.351175308227539
vertex 97.06751251220703 34.5 16.234121322631836
endloop
endfacet
facet normal 0.8829475337217126 0.0 -0.469471674006798
outer loop
vertex 96.71541595458984 34.399993896484375 15.571924209594727
vertex 97.06751251220703 34.5 16.234121322631836
vertex 97.06751251220703 34.399993896484375 16.234121322631836
endloop
endfacet
facet normal -0.8829488581288225 3.0116535833358503e-05 0.4694691821855857
outer loop
vertex 95.65587615966797 34.399993896484375 16.135292053222656
vertex 96.00797271728516 34.5 16.797487258911133
vertex 95.53850555419922 34.5 15.914542198181152
endloop
endfacet
facet normal 0.994153764827807 0.0 -0.1079735702785512
outer loop
vertex 99.63839721679688 28.300003051757812 15.999727249145508
vertex 99.40581512451172 34.5 13.858255386352539
vertex 99.63839721679688 33.69999694824219 15.999727249145508
endloop
endfacet
facet normal -0.0 1.0 0.0
outer loop
vertex 85.62707901000977 34.5 10.991409301757812
vertex 87.04454803466797 34.5 20.430856704711914
vertex 89.85232162475586 34.5 18.937936782836914
endloop
endfacet
facet normal 0.8829479076074848 2.3083955040886644e-05 -0.46947097026194884
outer loop
vertex 87.62555694580078 34.850006103515625 12.193938255310059
vertex 91.38133239746094 34.5 19.257518768310547
vertex 90.91186141967773 34.5 18.374570846557617
endloop
endfacet
facet normal -0.8829475391934883 4.48691867557591e-06 0.4694716636944458
outer loop
vertex 86.56602096557617 34.850006103515625 12.757304191589355
vertex 90.32179260253906 34.5 19.820884704589844
vertex 89.38285064697266 34.850006103515625 18.054988861083984
endloop
endfacet
facet normal -0.882947907762741 -1.3460754376156553e-05 0.4694709703444999
outer loop
vertex 86.56602096557617 34.850006103515625 12.757304191589355
vertex 89.85232162475586 34.5 18.937936782836914
vertex 90.32179260253906 34.5 19.820884704589844
endloop
endfacet
facet normal 0.17435822773856163 0.9284758737488947 0.32792035662046765
outer loop
vertex 90.91186141967773 34.5 18.374570846557617
vertex 91.02923583984375 34.399993896484375 18.595319747924805
vertex 95.53850555419922 34.5 15.914542198181152
endloop
endfacet
facet normal 0.08092910601789009 0.9850299571817034 0.15220533254047514
outer loop
vertex 89.38285064697266 34.850006103515625 18.054988861083984
vertex 90.32179260253906 34.5 19.820884704589844
vertex 90.44238662719727 34.850006103515625 17.491622924804688
endloop
endfacet
facet normal 0.8829479078388183 2.97764938453466e-06 -0.46947097038495084
outer loop
vertex 90.91186141967773 34.5 18.374570846557617
vertex 91.38133239746094 34.5 19.257518768310547
vertex 91.02923583984375 34.399993896484375 18.595319747924805
endloop
endfacet
facet normal 0.17435786770024925 0.9284762311035009 0.3279195362384818
outer loop
vertex 91.02923583984375 34.399993896484375 18.595319747924805
vertex 89.85810852050781 33.69999694824219 21.200000762939453
vertex 95.65587615966797 34.399993896484375 16.135292053222656
endloop
endfacet
facet normal 0.08092880855145042 0.9850299833923555 0.15220532107813667
outer loop
vertex 90.44238662719727 34.850006103515625 17.491622924804688
vertex 90.32179260253906 34.5 19.820884704589844
vertex 91.38133239746094 34.5 19.257518768310547
endloop
endfacet
facet normal 0.0 -1.0 0.0
outer loop
vertex 89.96969604492188 34.399993896484375 19.158687591552734
vertex 91.02923583984375 34.399993896484375 18.595319747924805
vertex 91.38133239746094 34.399993896484375 19.257518768310547
endloop
endfacet
facet normal 0.8829480942467574 0.0 -0.46947061981131394
outer loop
vertex 91.02923583984375 34.399993896484375 18.595319747924805
vertex 91.38133239746094 34.5 19.257518768310547
vertex 91.38133239746094 34.399993896484375 19.257518768310547
endloop
endfacet
facet normal 0.17435885756766828 0.9284753877089278 0.3279213979087882
outer loop
vertex 91.02923583984375 34.399993896484375 18.595319747924805
vertex 95.65587615966797 34.399993896484375 16.135292053222656
vertex 95.53850555419922 34.5 15.914542198181152
endloop
endfacet
facet normal 0.1743576688771718 0.9284763622090915 0.32791927074005683
outer loop
vertex 96.71541595458984 34.399993896484375 15.571924209594727
vertex 89.85810852050781 33.69999694824219 21.200000762939453
vertex 99.40581512451172 34.5 13.858255386352539
endloop
endfacet
facet normal 0.0 -1.0 0.0
outer loop
vertex 95.65587615966797 34.399993896484375 16.135292053222656
vertex 97.06751251220703 34.399993896484375 16.234121322631836
vertex 96.00797271728516 34.399993896484375 16.797487258911133
endloop
endfacet
facet normal -0.8829469731928917 0.0 0.46947272820634717
outer loop
vertex 95.65587615966797 34.399993896484375 16.135292053222656
vertex 96.00797271728516 34.399993896484375 16.797487258911133
vertex 96.00797271728516 34.5 16.797487258911133
endloop
endfacet
facet normal 0.46947067541089976 0.0 0.8829480646840072
outer loop
vertex 96.00797271728516 34.399993896484375 16.797487258911133
vertex 97.06751251220703 34.399993896484375 16.234121322631836
vertex 96.00797271728516 34.5 16.797487258911133
endloop
endfacet
facet normal 0.46947067541089976 -0.0 0.8829480646840072
outer loop
vertex 96.00797271728516 34.5 16.797487258911133
vertex 97.06751251220703 34.399993896484375 16.234121322631836
vertex 97.06751251220703 34.5 16.234121322631836
endloop
endfacet
facet normal 0.17435813178228957 0.9284760737687813 0.3279198413031732
outer loop
vertex 99.63839721679688 33.69999694824219 15.999727249145508
vertex 99.40581512451172 34.5 13.858255386352539
vertex 89.85810852050781 33.69999694824219 21.200000762939453
endloop
endfacet
facet normal 0.17435835316506457 0.9284759570428968 0.327920054090694
outer loop
vertex 95.65587615966797 34.399993896484375 16.135292053222656
vertex 89.85810852050781 33.69999694824219 21.200000762939453
vertex 96.71541595458984 34.399993896484375 15.571924209594727
endloop
endfacet
facet normal 0.4694716873317722 -0.0 0.8829475266366961
outer loop
vertex 99.63839721679688 28.300003051757812 15.999727249145508
vertex 99.63839721679688 33.69999694824219 15.999727249145508
vertex 89.85810852050781 33.12379455566406 21.200000762939453
endloop
endfacet
facet normal -0.8829479078269651 5.976252247688873e-06 0.4694709703786484
outer loop
vertex 89.85232162475586 34.5 18.937936782836914
vertex 89.96969604492188 34.399993896484375 19.158687591552734
vertex 90.32179260253906 34.5 19.820884704589844
endloop
endfacet
facet normal 0.17435732803091733 0.9284767363993907 0.32791839248059185
outer loop
vertex 87.04454803466797 34.5 20.430856704711914
vertex 89.96969604492188 34.399993896484375 19.158687591552734
vertex 89.85232162475586 34.5 18.937936782836914
endloop
endfacet
facet normal -0.8829475337217126 0.0 0.469471674006798
outer loop
vertex 89.96969604492188 34.399993896484375 19.158687591552734
vertex 90.32179260253906 34.399993896484375 19.820884704589844
vertex 90.32179260253906 34.5 19.820884704589844
endloop
endfacet
facet normal 0.0 -1.0 0.0
outer loop
vertex 89.96969604492188 34.399993896484375 19.158687591552734
vertex 91.38133239746094 34.399993896484375 19.257518768310547
vertex 90.32179260253906 34.399993896484375 19.820884704589844
endloop
endfacet
facet normal 0.17435812833949207 0.9284761485999935 0.3279196312556962
outer loop
vertex 89.96969604492188 34.399993896484375 19.158687591552734
vertex 89.85810852050781 33.69999694824219 21.200000762939453
vertex 91.02923583984375 34.399993896484375 18.595319747924805
endloop
endfacet
facet normal 0.46947067541089976 -0.0 0.8829480646840072
outer loop
vertex 90.32179260253906 34.5 19.820884704589844
vertex 91.38133239746094 34.399993896484375 19.257518768310547
vertex 91.38133239746094 34.5 19.257518768310547
endloop
endfacet
facet normal 0.46947067541089976 0.0 0.8829480646840072
outer loop
vertex 90.32179260253906 34.399993896484375 19.820884704589844
vertex 91.38133239746094 34.399993896484375 19.257518768310547
vertex 90.32179260253906 34.5 19.820884704589844
endloop
endfacet
facet normal 0.1743556439491917 0.928478468329321 0.3279143840576393
outer loop
vertex 87.04454803466797 34.5 20.430856704711914
vertex 87.95475387573242 34.05743408203125 21.200000762939453
vertex 89.96969604492188 34.399993896484375 19.158687591552734
endloop
endfacet
facet normal -0.645438343372795 0.0 0.7638123754589092
outer loop
vertex 87.04454803466797 27.5 20.430856704711914
vertex 87.95475387573242 34.05743408203125 21.200000762939453
vertex 87.04454803466797 34.5 20.430856704711914
endloop
endfacet
facet normal -0.6454391986774399 2.0349481411328814e-07 0.7638116527067278
outer loop
vertex 87.04454803466797 27.5 20.430856704711914
vertex 88.68984985351562 33.69999694824219 21.82117462158203
vertex 87.95475387573242 34.05743408203125 21.200000762939453
endloop
endfacet
facet normal 0.17436142882480346 0.9284755389159249 0.3279196026055101
outer loop
vertex 89.96969604492188 34.399993896484375 19.158687591552734
vertex 87.95475387573242 34.05743408203125 21.200000762939453
vertex 89.85810852050781 33.69999694824219 21.200000762939453
endloop
endfacet
facet normal 0.4694716873317721 0.0 0.8829475266366958
outer loop
vertex 99.63839721679688 33.69999694824219 15.999727249145508
vertex 89.85810852050781 33.69999694824219 21.200000762939453
vertex 89.85810852050781 33.12379455566406 21.200000762939453
endloop
endfacet

endsolid
